<?xml version="1.0" standalone="no"?><!DOCTYPE svg PUBLIC "-//W3C//DTD SVG 1.1//EN" "http://www.w3.org/Graphics/SVG/1.1/DTD/svg11.dtd" ><svg xmlns="http://www.w3.org/2000/svg"><metadata></metadata><defs><font id="2.000;GOOG;NotoSans-Light" horiz-adv-x="2840"><font-face font-family="Noto Sans Light" font-weight="300" font-stretch="normal" units-per-em="1000" panose-1="2 11 4 2 4 5 4 2 2 4" ascent="1069" descent="-293" x-height="4" bbox="-619 -389 2800 1065" underline-thickness="50" underline-position="-100" unicode-range="U+0000-fffd" /><missing-glyph horiz-adv-x="600" d="M94 0 l0 714 l411 0 l0 -714 l-411 0 ZM145 51 l309 0 l0 612 l-309 0 l0 -612 Z" /><glyph glyph-name="NULL" unicode="" d="" /><glyph glyph-name="CR" unicode="" d="" /><glyph glyph-name="space" unicode=" " d="" /><glyph glyph-name="exclam" unicode="!" d="M144 188 l-41 0 l-13 526 l68 0 l-14 -526 ZM78 38 q0 49 44 49 q44 0 44 -49 q0 -49 -44 -49 q-44 0 -44 49 Z" /><glyph glyph-name="quotedbl" unicode="&quot;" d="M130 714 l-12 -258 l-37 0 l-12 258 l61 0 ZM295 714 l-12 -258 l-37 0 l-12 258 l61 0 Z" /><glyph glyph-name="numbersign" unicode="#" d="M474 449 l-36 -185 l144 0 l0 -46 l-153 0 l-43 -218 l-48 0 l43 218 l-171 0 l-42 -218 l-47 0 l41 218 l-136 0 l0 46 l144 0 l37 185 l-143 0 l0 45 l151 0 l42 220 l49 0 l-42 -220 l171 0 l42 220 l47 0 l-42 -220 l137 0 l0 -45 l-145 0 ZM218 264 l172 0 l36 185 l-172 0 l-36 -185 Z" /><glyph glyph-name="dollar" unicode="$" d="M253 -58 l0 87 q-59 1 -108 9.5 q-49 8.5 -81 21.5 l0 57 q34 -14 85 -25 q51 -11 104 -12 l0 260 q-59 19 -101.5 41.5 q-42.5 22.5 -65.5 56 q-23 33.5 -23 84.5 q0 76 52.5 118.5 q52.5 42.5 137.5 47.5 l0 71 l44 0 l0 -71 q94 -3 169 -37 l-19 -49 q-37 16 -75.5 25 q-38.5 9 -74.5 11 l0 -256 q61 -20 104.5 -41.5 q43.5 -21.5 67 -54 q23.5 -32.5 23.5 -83.5 q0 -77 -53 -121 q-53 -44 -142 -51 l0 -89 l-44 0 ZM253 398 l0 238 q-61 -3 -97.5 -31 q-36.5 -28 -36.5 -79 q0 -54 36 -81 q36 -27 98 -47 ZM297 83 q65 5 102 34 q37 29 37 83 q0 51 -34 76.5 q-34 25.5 -105 48.5 l0 -242 Z" /><glyph glyph-name="percent" unicode="%" d="M196 724 q71 0 107 -58 q36 -58 36 -165 q0 -109 -36.5 -167 q-36.5 -58 -107.5 -58 q-68 0 -104.5 58 q-36.5 58 -36.5 167 q0 109 36 166 q36 57 106 57 ZM630 714 l-396 -714 l-52 0 l396 714 l52 0 ZM196 680 q-92 0 -92 -179 q0 -181 91 -181 q94 0 94 181 q0 88 -22.5 133.5 q-22.5 45.5 -70.5 45.5 ZM615 438 q71 0 107 -58 q36 -58 36 -165 q0 -109 -37 -167 q-37 -58 -107 -58 q-69 0 -105 58 q-36 58 -36 167 q0 109 36 166 q36 57 106 57 ZM615 394 q-92 0 -92 -179 q0 -181 91 -181 q94 0 94 181 q0 88 -22.5 133.5 q-22.5 45.5 -70.5 45.5 Z" /><glyph glyph-name="ampersand" unicode="&amp;" d="M304 725 q74 0 119 -39.5 q45 -39.5 45 -109.5 q0 -66 -43.5 -109.5 q-43.5 -43.5 -112.5 -80.5 l218 -216 q28 33 48 77 q20 44 32 95 l58 0 q-30 -126 -102 -210 l132 -132 l-76 0 l-94 94 q-46 -46 -104 -75 q-58 -29 -144 -29 q-100 0 -161 49.5 q-61 49.5 -61 142.5 q0 54 20 91.5 q20 37.5 57.5 66 q37.5 28.5 90.5 56.5 q-42 44 -69 84 q-27 40 -27 92 q0 70 47 111.5 q47 41.5 127 41.5 ZM302 676 q-52 0 -84 -27.5 q-32 -27.5 -32 -75.5 q0 -41 23 -75 q23 -34 65 -77 q68 34 103 69 q35 35 35 86 q0 46 -30 73 q-30 27 -80 27 ZM262 359 q-46 -24 -78.5 -47.5 q-32.5 -23.5 -49.5 -53.5 q-17 -30 -17 -74 q0 -67 45 -105 q45 -38 119 -38 q73 0 122.5 25 q49.5 25 88.5 64 l-230 229 Z" /><glyph glyph-name="quotesingle" unicode="&#39;" d="M130 714 l-12 -258 l-37 0 l-12 258 l61 0 Z" /><glyph glyph-name="parenleft" unicode="(" d="M41 274 q0 128 37 241 q37 113 109 199 l58 0 q-73 -92 -109.5 -204.5 q-36.5 -112.5 -36.5 -234.5 q0 -121 36.5 -231 q36.5 -110 108.5 -202 l-57 0 q-72 86 -109 196 q-37 110 -37 236 Z" /><glyph glyph-name="parenright" unicode=")" d="M237 278 q0 -127 -37 -239.5 q-37 -112.5 -109 -196.5 l-57 0 q73 92 109 203 q36 111 36 233 q0 122 -36.5 233 q-36.5 111 -109.5 203 l58 0 q72 -87 109 -198 q37 -111 37 -238 Z" /><glyph glyph-name="asterisk" unicode="*" d="M304 759 l-12 -199 l192 62 l12 -60 l-190 -36 l122 -160 l-55 -32 l-101 172 l-96 -172 l-56 32 l122 160 l-190 36 l11 60 l192 -62 l-13 199 l62 0 Z" /><glyph glyph-name="plus" unicode="+" d="M309 376 l209 0 l0 -47 l-209 0 l0 -212 l-48 0 l0 212 l-209 0 l0 47 l209 0 l0 213 l48 0 l0 -213 Z" /><glyph glyph-name="comma" unicode="," d="M154 116 l4 -12 q-12 -54 -32 -117 q-20 -63 -43 -116 l-43 0 q37 133 52 245 l62 0 Z" /><glyph glyph-name="hyphen" unicode="-" d="M40 244 l0 52 l242 0 l0 -52 l-242 0 Z" /><glyph glyph-name="period" unicode="." d="M78 38 q0 49 44 49 q44 0 44 -49 q0 -49 -44 -49 q-44 0 -44 49 Z" /><glyph glyph-name="slash" unicode="/" d="M336 714 l-268 -714 l-56 0 l266 714 l58 0 Z" /><glyph glyph-name="zero" unicode="0" d="M515 359 q0 -179 -55.5 -274 q-55.5 -95 -174.5 -95 q-113 0 -171 94 q-58 94 -58 275 q0 109 22.5 191.5 q22.5 82.5 73 128.5 q50.5 46 134.5 46 q82 0 132.5 -45 q50.5 -45 73.5 -127.5 q23 -82.5 23 -193.5 ZM113 359 q0 -161 41.5 -240 q41.5 -79 130.5 -79 q91 0 131.5 79 q40.5 79 40.5 240 q0 99 -15.5 170 q-15.5 71 -53 108.5 q-37.5 37.5 -102.5 37.5 q-65 0 -103 -38 q-38 -38 -54 -109 q-16 -71 -16 -169 Z" /><glyph glyph-name="one" unicode="1" d="M338 0 l-56 0 l0 531 q0 43 0 70.5 q0 27.5 2 52.5 q-14 -14 -26 -24 q-12 -10 -32 -26 l-100 -76 l-30 40 l194 146 l48 0 l0 -714 Z" /><glyph glyph-name="two" unicode="2" d="M506 0 l-452 0 l0 48 l205 213 q51 53 86 95 q35 42 53 84 q18 42 18 94 q0 67 -39 103.5 q-39 36.5 -105 36.5 q-48 0 -90 -17 q-42 -17 -83 -49 l-31 40 q44 36 96 56 q52 20 108 20 q92 0 147 -51 q55 -51 55 -137 q0 -58 -20.5 -106 q-20.5 -48 -58 -94 q-37.5 -46 -89.5 -98 l-179 -183 l0 -3 l379 0 l0 -52 Z" /><glyph glyph-name="three" unicode="3" d="M482 549 q0 -71 -42 -116 q-42 -45 -108 -57 l0 -4 q84 -10 128 -54.5 q44 -44.5 44 -119.5 q0 -92 -65 -150 q-65 -58 -195 -58 q-58 0 -107.5 10 q-49.5 10 -90.5 30 l0 55 q41 -20 94 -33 q53 -13 104 -13 q102 0 151 43.5 q49 43.5 49 117.5 q0 78 -58 111.5 q-58 33.5 -155 33.5 l-76 0 l0 50 l77 0 q83 0 137 38.5 q54 38.5 54 112.5 q0 63 -41 95.5 q-41 32.5 -109 32.5 q-57 0 -102.5 -17 q-45.5 -17 -89.5 -47 l-29 40 q41 32 96 53 q55 21 124 21 q100 0 155 -47.5 q55 -47.5 55 -127.5 Z" /><glyph glyph-name="four" unicode="4" d="M556 178 l-119 0 l0 -178 l-55 0 l0 178 l-359 0 l0 46 l355 494 l59 0 l0 -488 l119 0 l0 -52 ZM382 230 l0 265 q0 58 0.5 91.5 q0.5 33.5 1.5 68.5 l-2 0 q-14 -23 -26 -43 q-12 -20 -28 -43 l-245 -339 l299 0 Z" /><glyph glyph-name="five" unicode="5" d="M274 432 q109 0 172.5 -55 q63.5 -55 63.5 -155 q0 -108 -70 -170 q-70 -62 -190 -62 q-56 0 -102.5 11 q-46.5 11 -79.5 29 l0 57 q35 -21 83.5 -34 q48.5 -13 99.5 -13 q91 0 146 45.5 q55 45.5 55 132.5 q0 78 -47.5 121 q-47.5 43 -144.5 43 q-38 0 -74 -5 q-36 -5 -66 -13 l-31 21 l29 329 l346 0 l0 -52 l-298 0 l-20 -246 q21 4 53 10 q32 6 75 6 Z" /><glyph glyph-name="six" unicode="6" d="M62 304 q0 128 32.5 222.5 q32.5 94.5 101 146.5 q68.5 52 178.5 52 q55 0 94 -11 l0 -51 q-18 7 -42 10 q-24 3 -50 3 q-129 0 -191.5 -87 q-62.5 -87 -66.5 -247 l4 0 q21 39 67 70 q46 31 122 31 q96 0 152 -57.5 q56 -57.5 56 -157.5 q0 -108 -58.5 -173 q-58.5 -65 -162.5 -65 q-76 0 -128.5 40.5 q-52.5 40.5 -80 111 q-27.5 70.5 -27.5 162.5 ZM298 39 q76 0 120 48.5 q44 48.5 44 140.5 q0 78 -40 123 q-40 45 -120 45 q-55 0 -95.5 -22 q-40.5 -22 -62.5 -55.5 q-22 -33.5 -22 -66.5 q0 -31 9 -67.5 q9 -36.5 29.5 -69.5 q20.5 -33 54 -54.5 q33.5 -21.5 83.5 -21.5 Z" /><glyph glyph-name="seven" unicode="7" d="M160 0 l294 662 l-403 0 l0 52 l465 0 l0 -42 l-294 -672 l-62 0 Z" /><glyph glyph-name="eight" unicode="8" d="M284 724 q92 0 148.5 -43.5 q56.5 -43.5 56.5 -123.5 q0 -65 -42.5 -106.5 q-42.5 -41.5 -108.5 -70.5 q78 -32 126 -77 q48 -45 48 -120 q0 -61 -29.5 -104 q-29.5 -43 -81 -66 q-51.5 -23 -117.5 -23 q-105 0 -166.5 51 q-61.5 51 -61.5 137 q0 52 22 89.5 q22 37.5 60 64 q38 26.5 86 45.5 q-40 19 -72.5 42.5 q-32.5 23.5 -52 57 q-19.5 33.5 -19.5 79.5 q0 52 26.5 90 q26.5 38 72.5 58 q46 20 105 20 ZM284 676 q-64 0 -106 -32 q-42 -32 -42 -90 q0 -59 42.5 -92.5 q42.5 -33.5 109.5 -58.5 q67 28 105.5 62 q38.5 34 38.5 91 q0 58 -40 89 q-40 31 -108 31 ZM113 178 q0 -63 44.5 -102 q44.5 -39 124.5 -39 q80 0 127 38.5 q47 38.5 47 106.5 q0 58 -41.5 96.5 q-41.5 38.5 -116.5 65.5 l-22 8 q-74 -27 -118.5 -66.5 q-44.5 -39.5 -44.5 -107.5 Z" /><glyph glyph-name="nine" unicode="9" d="M510 411 q0 -128 -32.5 -223 q-32.5 -95 -102 -147 q-69.5 -52 -179.5 -52 q-24 0 -52 3 q-28 3 -46 9 l0 51 q40 -15 98 -15 q128 0 190 87.5 q62 87.5 67 247.5 l-4 0 q-21 -39 -68 -70 q-47 -31 -123 -31 q-95 0 -150.5 57.5 q-55.5 57.5 -55.5 158.5 q0 71 27 124.5 q27 53.5 76.5 83 q49.5 29.5 118.5 29.5 q77 0 129.5 -40 q52.5 -40 79.5 -110.5 q27 -70.5 27 -162.5 ZM274 674 q-76 0 -120.5 -48 q-44.5 -48 -44.5 -138 q0 -80 40 -125 q40 -45 120 -45 q55 0 96 22 q41 22 63 55.5 q22 33.5 22 66.5 q0 31 -9 67.5 q-9 36.5 -29.5 69.5 q-20.5 33 -54 54 q-33.5 21 -83.5 21 Z" /><glyph glyph-name="colon" unicode=":" d="M78 492 q0 49 44 49 q44 0 44 -49 q0 -50 -44 -50 q-44 0 -44 50 ZM78 38 q0 49 44 49 q44 0 44 -49 q0 -49 -44 -49 q-44 0 -44 49 Z" /><glyph glyph-name="semicolon" unicode=";" d="M78 492 q0 49 42 49 q46 0 46 -49 q0 -50 -46 -50 q-42 0 -42 50 ZM149 116 l5 -12 q-12 -54 -33 -117 q-21 -63 -43 -116 l-44 0 q18 65 32 127.5 q14 62.5 22 117.5 l61 0 Z" /><glyph glyph-name="less" unicode="&lt;" d="M518 127 l-465 211 l0 34 l465 225 l0 -52 l-401 -188 l401 -178 l0 -52 Z" /><glyph glyph-name="equal" unicode="=" d="M56 430 l0 47 l458 0 l0 -47 l-458 0 ZM56 228 l0 48 l458 0 l0 -48 l-458 0 Z" /><glyph glyph-name="greater" unicode="&gt;" d="M53 179 l400 177 l-400 189 l0 52 l465 -225 l0 -34 l-465 -211 l0 52 Z" /><glyph glyph-name="question" unicode="?" d="M142 188 l0 19 q0 43 7 73 q7 30 25.5 54 q18.5 24 51.5 50 q38 29 62 52.5 q24 23.5 36 49.5 q12 26 12 64 q0 62 -38 92.5 q-38 30.5 -102 30.5 q-44 0 -80 -10.5 q-36 -10.5 -70 -27.5 l-21 48 q42 19 82.5 30 q40.5 11 90.5 11 q90 0 141.5 -45 q51.5 -45 51.5 -127 q0 -48 -15.5 -81.5 q-15.5 -33.5 -43.5 -60.5 q-28 -27 -66 -56 q-30 -23 -46.5 -43.5 q-16.5 -20.5 -23 -46 q-6.5 -25.5 -6.5 -62.5 l0 -14 l-48 0 ZM125 38 q0 49 43 49 q44 0 44 -49 q0 -49 -44 -49 q-43 0 -43 49 Z" /><glyph glyph-name="at" unicode="@" d="M834 354 q0 -65 -18 -121 q-18 -56 -55 -90.5 q-37 -34.5 -92 -34.5 q-46 0 -73.5 26.5 q-27.5 26.5 -31.5 69.5 l-2 0 q-43 -96 -148 -96 q-75 0 -115.5 48 q-40.5 48 -40.5 134 q0 64 26.5 114.5 q26.5 50.5 74 79.5 q47.5 29 111.5 29 q40 0 77 -6 q37 -6 63 -16 l-8 -174 q-1 -18 -1.5 -34.5 q-0.5 -16.5 -0.5 -30.5 q0 -54 18.5 -77 q18.5 -23 53.5 -23 q38 0 63 26.5 q25 26.5 37.5 72 q12.5 45.5 12.5 103.5 q0 96 -38 165.5 q-38 69.5 -107.5 107 q-69.5 37.5 -165.5 37.5 q-114 0 -197 -46.5 q-83 -46.5 -128 -132 q-45 -85.5 -45 -201.5 q0 -158 83.5 -245.5 q83.5 -87.5 236.5 -87.5 q56 0 109.5 11.5 q53.5 11.5 98.5 30.5 l0 -48 q-44 -18 -96 -28.5 q-52 -10.5 -112 -10.5 q-115 0 -197.5 45 q-82.5 45 -127 129.5 q-44.5 84.5 -44.5 201.5 q0 130 52 226 q52 96 146 149 q94 53 221 53 q108 0 189 -43 q81 -43 126 -123 q45 -80 45 -190 ZM310 288 q0 -68 28.5 -102 q28.5 -34 81.5 -34 q63 0 95.5 43 q32.5 43 36.5 124 l6 137 q-17 6 -39.5 9.5 q-22.5 3.5 -48.5 3.5 q-52 0 -87.5 -24 q-35.5 -24 -54 -65 q-18.5 -41 -18.5 -92 Z" /><glyph glyph-name="A" unicode="a" d="M547 0 l-95 246 l-296 0 l-97 -246 l-59 0 l280 716 l54 0 l274 -716 l-61 0 ZM434 298 l-96 258 q-4 14 -14 44 q-10 30 -18 53 q-8 -26 -17 -52.5 q-9 -26.5 -15 -45.5 l-99 -257 l259 0 Z" /><glyph glyph-name="B" unicode="b" d="M100 714 l198 0 q132 0 195 -41 q63 -41 63 -133 q0 -62 -36 -106 q-36 -44 -103 -56 l0 -4 q78 -12 118.5 -53.5 q40.5 -41.5 40.5 -117.5 q0 -69 -31.5 -114 q-31.5 -45 -88 -67 q-56.5 -22 -130.5 -22 l-226 0 l0 714 ZM158 399 l153 0 q98 0 141.5 34 q43.5 34 43.5 101 q0 69 -47 99 q-47 30 -151 30 l-140 0 l0 -264 ZM158 349 l0 -299 l163 0 q194 0 194 156 q0 74 -49.5 108.5 q-49.5 34.5 -153.5 34.5 l-154 0 Z" /><glyph glyph-name="C" unicode="c" d="M404 672 q-88 0 -151 -39.5 q-63 -39.5 -96.5 -110 q-33.5 -70.5 -33.5 -164.5 q0 -96 30.5 -167 q30.5 -71 90.5 -110 q60 -39 150 -39 q52 0 95.5 8 q43.5 8 82.5 20 l0 -50 q-37 -14 -81.5 -22 q-44.5 -8 -102.5 -8 q-108 0 -180.5 46 q-72.5 46 -109 129 q-36.5 83 -36.5 194 q0 106 40.5 188.5 q40.5 82.5 117 129.5 q76.5 47 184.5 47 q105 0 188 -40 l-23 -50 q-78 38 -165 38 Z" /><glyph glyph-name="D" unicode="d" d="M648 364 q0 -180 -95 -272 q-95 -92 -277 -92 l-176 0 l0 714 l198 0 q170 0 260 -89.5 q90 -89.5 90 -260.5 ZM588 362 q0 301 -301 301 l-129 0 l0 -612 l114 0 q316 0 316 311 Z" /><glyph glyph-name="E" unicode="e" d="M492 0 l-392 0 l0 714 l392 0 l0 -52 l-334 0 l0 -262 l315 0 l0 -51 l-315 0 l0 -297 l334 0 l0 -52 Z" /><glyph glyph-name="F" unicode="f" d="M158 0 l-58 0 l0 714 l392 0 l0 -52 l-334 0 l0 -294 l316 0 l0 -52 l-316 0 l0 -316 Z" /><glyph glyph-name="G" unicode="g" d="M387 364 l259 0 l0 -332 q-52 -21 -110 -31.5 q-58 -10.5 -126 -10.5 q-170 0 -259 97 q-89 97 -89 269 q0 108 43.5 191.5 q43.5 83.5 125.5 130.5 q82 47 197 47 q58 0 111 -11 q53 -11 99 -32 l-24 -52 q-91 43 -190 43 q-94 0 -161.5 -40 q-67.5 -40 -104 -111.5 q-36.5 -71.5 -36.5 -165.5 q0 -154 76.5 -234.5 q76.5 -80.5 223.5 -80.5 q52 0 92.5 7.5 q40.5 7.5 73.5 18.5 l0 244 l-201 0 l0 53 Z" /><glyph glyph-name="H" unicode="h" d="M623 0 l-58 0 l0 348 l-407 0 l0 -348 l-58 0 l0 714 l58 0 l0 -314 l407 0 l0 314 l58 0 l0 -714 Z" /><glyph glyph-name="I" unicode="i" d="M260 0 l-210 0 l0 36 l76 11 l0 619 l-76 12 l0 36 l210 0 l0 -36 l-76 -12 l0 -619 l76 -11 l0 -36 Z" /><glyph glyph-name="J" unicode="j" d="M-12 -182 q-26 0 -44 4 q-18 4 -32 8 l0 52 q15 -4 34 -8 q19 -4 41 -4 q112 0 112 134 l0 710 l58 0 l0 -708 q0 -88 -42.5 -138 q-42.5 -50 -126.5 -50 Z" /><glyph glyph-name="K" unicode="k" d="M588 0 l-70 0 l-271 370 l-89 -85 l0 -285 l-58 0 l0 714 l58 0 l0 -371 q20 23 42 46.5 q22 23.5 44 47.5 l264 277 l72 0 l-290 -304 l298 -410 Z" /><glyph glyph-name="L" unicode="l" d="M100 0 l0 714 l58 0 l0 -662 l334 0 l0 -52 l-392 0 Z" /><glyph glyph-name="M" unicode="m" d="M410 0 l-256 652 l-4 0 q2 -27 3 -62.5 q1 -35.5 1 -75.5 l0 -514 l-54 0 l0 714 l88 0 l246 -626 l3 0 l249 626 l86 0 l0 -714 l-58 0 l0 520 q0 34 1 69 q1 35 3 63 l-3 0 l-258 -652 l-47 0 Z" /><glyph glyph-name="N" unicode="n" d="M628 0 l-62 0 l-413 624 l-3 0 q2 -39 3 -82.5 q1 -43.5 1 -91.5 l0 -450 l-54 0 l0 714 l62 0 l412 -622 l4 0 q-2 31 -3 79.5 q-1 48.5 -1 89.5 l0 453 l54 0 l0 -714 Z" /><glyph glyph-name="O" unicode="o" d="M705 358 q0 -109 -36 -192 q-36 -83 -107.5 -129.5 q-71.5 -46.5 -177.5 -46.5 q-108 0 -179.5 46.5 q-71.5 46.5 -107 130 q-35.5 83.5 -35.5 192.5 q0 109 36.5 191 q36.5 82 109 128.5 q72.5 46.5 179.5 46.5 q103 0 173.5 -44.5 q70.5 -44.5 107.5 -126.5 q37 -82 37 -196 ZM123 358 q0 -95 28 -166.5 q28 -71.5 86 -111 q58 -39.5 147 -39.5 q90 0 147.5 39.5 q57.5 39.5 85 110.5 q27.5 71 27.5 167 q0 148 -64.5 231.5 q-64.5 83.5 -192.5 83.5 q-89 0 -148 -39.5 q-59 -39.5 -87.5 -110.5 q-28.5 -71 -28.5 -165 Z" /><glyph glyph-name="P" unicode="p" d="M278 714 q257 0 257 -202 q0 -103 -66.5 -161.5 q-66.5 -58.5 -206.5 -58.5 l-104 0 l0 -292 l-58 0 l0 714 l178 0 ZM272 663 l-114 0 l0 -321 l98 0 q104 0 161.5 36.5 q57.5 36.5 57.5 130.5 q0 80 -49.5 117 q-49.5 37 -153.5 37 Z" /><glyph glyph-name="Q" unicode="q" d="M705 358 q0 -91 -25.5 -165 q-25.5 -74 -76 -123.5 q-50.5 -49.5 -125.5 -67.5 l156 -172 l-82 0 l-138 162 q-8 -1 -15 -1.5 q-7 -0.5 -15 -0.5 q-108 0 -179.5 46.5 q-71.5 46.5 -107 130 q-35.5 83.5 -35.5 192.5 q0 109 36.5 191 q36.5 82 109 128.5 q72.5 46.5 179.5 46.5 q103 0 173.5 -44.5 q70.5 -44.5 107.5 -126.5 q37 -82 37 -196 ZM123 358 q0 -95 28 -166.5 q28 -71.5 86 -111 q58 -39.5 147 -39.5 q90 0 147.5 39.5 q57.5 39.5 85 110.5 q27.5 71 27.5 167 q0 148 -64.5 231.5 q-64.5 83.5 -192.5 83.5 q-89 0 -148 -39.5 q-59 -39.5 -87.5 -110.5 q-28.5 -71 -28.5 -165 Z" /><glyph glyph-name="R" unicode="r" d="M278 714 q128 0 192.5 -45 q64.5 -45 64.5 -151 q0 -82 -43.5 -128 q-43.5 -46 -108.5 -66 l196 -324 l-69 0 l-182 308 l-170 0 l0 -308 l-58 0 l0 714 l178 0 ZM273 662 l-115 0 l0 -304 l135 0 q87 0 134.5 41 q47.5 41 47.5 117 q0 82 -49.5 114 q-49.5 32 -152.5 32 Z" /><glyph glyph-name="S" unicode="s" d="M496 186 q0 -64 -32 -107.5 q-32 -43.5 -88 -66 q-56 -22.5 -128 -22.5 q-64 0 -112 9 q-48 9 -82 23 l0 57 q38 -15 88.5 -26.5 q50.5 -11.5 109.5 -11.5 q82 0 133.5 35.5 q51.5 35.5 51.5 105.5 q0 42 -19.5 69.5 q-19.5 27.5 -60 48 q-40.5 20.5 -103.5 41.5 q-60 21 -103 45.5 q-43 24.5 -66 62 q-23 37.5 -23 94.5 q0 59 29.5 99 q29.5 40 81 61 q51.5 21 117.5 21 q52 0 99 -10 q47 -10 89 -28 l-20 -50 q-84 36 -170 36 q-74 0 -120.5 -32.5 q-46.5 -32.5 -46.5 -95.5 q0 -46 20 -73.5 q20 -27.5 58 -46.5 q38 -19 93 -38 q63 -22 108.5 -46.5 q45.5 -24.5 70.5 -60.5 q25 -36 25 -93 Z" /><glyph glyph-name="T" unicode="t" d="M294 0 l-58 0 l0 662 l-230 0 l0 52 l518 0 l0 -52 l-230 0 l0 -662 Z" /><glyph glyph-name="U" unicode="u" d="M629 714 l0 -462 q0 -122 -71 -192 q-71 -70 -200 -70 q-128 0 -197 70 q-69 70 -69 194 l0 460 l58 0 l0 -460 q0 -104 54 -158.5 q54 -54.5 158 -54.5 q101 0 155.5 54.5 q54.5 54.5 54.5 152.5 l0 466 l57 0 Z" /><glyph glyph-name="V" unicode="v" d="M582 714 l-262 -714 l-58 0 l-262 714 l61 0 l189 -515 q13 -36 23.5 -69 q10.5 -33 17.5 -62 q7 29 17 61 q10 32 24 71 l188 514 l62 0 Z" /><glyph glyph-name="W" unicode="w" d="M878 714 l-194 -714 l-58 0 l-150 525 q-20 74 -30 117 q-3 -20 -9.5 -48 q-6.5 -28 -15.5 -60 l-149 -534 l-58 0 l-191 714 l60 0 l129 -490 q11 -42 19.5 -76.5 q8.5 -34.5 14.5 -67.5 q6 34 14 70 q8 36 20 77 l138 487 l58 0 l142 -490 q14 -43 22 -78.5 q8 -35.5 14 -67.5 q4 33 12 67.5 q8 34.5 20 77.5 l132 491 l60 0 Z" /><glyph glyph-name="X" unicode="x" d="M547 0 l-67 0 l-206 330 l-211 -330 l-63 0 l240 371 l-220 343 l66 0 l190 -302 l190 302 l64 0 l-221 -342 l238 -372 Z" /><glyph glyph-name="Y" unicode="y" d="M268 332 l204 382 l64 0 l-238 -438 l0 -276 l-58 0 l0 272 l-240 442 l64 0 l204 -382 Z" /><glyph glyph-name="Z" unicode="z" d="M536 0 l-499 0 l0 43 l415 619 l-395 0 l0 52 l467 0 l0 -43 l-414 -619 l426 0 l0 -52 Z" /><glyph glyph-name="bracketleft" unicode="[" d="M296 -158 l-212 0 l0 872 l212 0 l0 -48 l-156 0 l0 -776 l156 0 l0 -48 Z" /><glyph glyph-name="backslash" unicode="\" d="M68 714 l268 -714 l-58 0 l-266 714 l56 0 Z" /><glyph glyph-name="bracketright" unicode="]" d="M25 -110 l157 0 l0 776 l-157 0 l0 48 l212 0 l0 -872 l-212 0 l0 48 Z" /><glyph glyph-name="asciicircum" unicode="^" d="M42 272 l224 447 l36 0 l227 -447 l-53 0 l-192 384 l-189 -384 l-53 0 Z" /><glyph glyph-name="underscore" unicode="_" d="M420 -135 l-422 0 l0 45 l422 0 l0 -45 Z" /><glyph glyph-name="grave" unicode="`" d="M107 766 q13 -22 33.5 -50 q20.5 -28 43 -55 q22.5 -27 41.5 -46 l0 -9 l-40 0 q-25 20 -53 47.5 q-28 27.5 -53 55.5 q-25 28 -39 49 l0 8 l67 0 Z" /><glyph glyph-name="a" unicode="a" d="M276 541 q90 0 134 -44 q44 -44 44 -139 l0 -358 l-43 0 l-11 90 l-2 0 q-28 -45 -70 -72.5 q-42 -27.5 -116 -27.5 q-76 0 -120.5 38 q-44.5 38 -44.5 111 q0 79 64.5 121 q64.5 42 189.5 47 l97 5 l0 37 q0 79 -31.5 111.5 q-31.5 32.5 -92.5 32.5 q-41 0 -79 -10.5 q-38 -10.5 -76 -30.5 l-18 46 q37 19 82 31 q45 12 93 12 ZM398 268 l-90 -4 q-102 -4 -152 -34.5 q-50 -30.5 -50 -91.5 q0 -49 31 -74.5 q31 -25.5 85 -25.5 q83 0 128.5 47 q45.5 47 47.5 132 l0 51 Z" /><glyph glyph-name="b" unicode="b" d="M144 760 l0 -210 q0 -28 -1 -61 q-1 -33 -3 -53 l4 0 q20 45 65.5 75.5 q45.5 30.5 115.5 30.5 q103 0 160 -69.5 q57 -69.5 57 -205.5 q0 -126 -57.5 -201.5 q-57.5 -75.5 -167.5 -75.5 q-67 0 -109.5 28 q-42.5 28 -62.5 68 l-5 0 l-10 -86 l-43 0 l0 760 l57 0 ZM318 493 q-93 0 -133.5 -58 q-40.5 -58 -40.5 -168 l0 -7 q0 -108 38.5 -164.5 q38.5 -56.5 127.5 -56.5 q86 0 129.5 59.5 q43.5 59.5 43.5 169.5 q0 225 -165 225 Z" /><glyph glyph-name="c" unicode="c" d="M301 -10 q-117 0 -180.5 71.5 q-63.5 71.5 -63.5 201.5 q0 89 32 151.5 q32 62.5 89.5 95 q57.5 32.5 133.5 32.5 q39 0 72.5 -7 q33.5 -7 59.5 -19 l-16 -50 q-56 25 -116 25 q-94 0 -145 -61 q-51 -61 -51 -166 q0 -100 45 -162 q45 -62 139 -62 q40 0 75 8 q35 8 63 21 l0 -51 q-26 -13 -60 -20.5 q-34 -7.5 -77 -7.5 Z" /><glyph glyph-name="d" unicode="d" d="M279 -10 q-107 0 -164.5 68.5 q-57.5 68.5 -57.5 201.5 q0 138 60.5 210 q60.5 72 166.5 72 q67 0 109 -29 q42 -29 62 -73 l4 0 q-1 24 -2.5 53 q-1.5 29 -1.5 51 l0 216 l57 0 l0 -760 l-46 0 l-8 92 l-3 0 q-21 -42 -63 -72 q-42 -30 -113 -30 ZM286 39 q92 0 131 56 q39 56 39 161 l0 10 q0 110 -39 168.5 q-39 58.5 -127 58.5 q-86 0 -130 -60.5 q-44 -60.5 -44 -172.5 q0 -109 42 -165 q42 -56 128 -56 Z" /><glyph glyph-name="e" unicode="e" d="M290 542 q68 0 114 -31.5 q46 -31.5 69 -86.5 q23 -55 23 -126 l0 -40 l-380 0 q0 -105 49 -161.5 q49 -56.5 141 -56.5 q50 0 87 8 q37 8 81 28 l0 -52 q-40 -18 -79 -26 q-39 -8 -91 -8 q-119 0 -183 73 q-64 73 -64 199 q0 81 27.5 144.5 q27.5 63.5 79.5 99.5 q52 36 126 36 ZM289 494 q-73 0 -118.5 -49 q-45.5 -49 -53.5 -139 l319 0 q0 84 -35.5 136 q-35.5 52 -111.5 52 Z" /><glyph glyph-name="f" unicode="f" d="M295 486 l-127 0 l0 -486 l-57 0 l0 486 l-98 0 l0 31 l98 17 l0 52 q0 92 39.5 135.5 q39.5 43.5 119.5 43.5 q28 0 51 -4.5 q23 -4.5 42 -10.5 l-13 -48 q-18 6 -38.5 10 q-20.5 4 -41.5 4 q-54 0 -78 -30.5 q-24 -30.5 -24 -98.5 l0 -55 l127 0 l0 -46 Z" /><glyph glyph-name="g" unicode="g" d="M282 542 q63 0 104.5 -24 q41.5 -24 66.5 -67 l3 0 l9 81 l46 0 l0 -549 q0 -105 -53.5 -164 q-53.5 -59 -175.5 -59 q-60 0 -106 10 q-46 10 -84 26 l0 55 q38 -19 86.5 -30.5 q48.5 -11.5 105.5 -11.5 q87 0 128.5 46 q41.5 46 41.5 125 l0 31 q0 21 1 42 q1 21 2 41 l-3 0 q-22 -52 -68 -78 q-46 -26 -110 -26 q-104 0 -161.5 70 q-57.5 70 -57.5 202 q0 129 57.5 204.5 q57.5 75.5 167.5 75.5 ZM288 492 q-86 0 -129 -60.5 q-43 -60.5 -43 -170.5 q0 -109 42.5 -166 q42.5 -57 123.5 -57 q66 0 103.5 27 q37.5 27 53.5 74 q16 47 16 107 l0 34 q0 102 -37.5 157 q-37.5 55 -129.5 55 Z" /><glyph glyph-name="h" unicode="h" d="M144 760 l0 -244 q0 -40 -3 -76 l4 0 q20 44 66 73 q46 29 114 29 q91 0 139.5 -47 q48.5 -47 48.5 -147 l0 -348 l-57 0 l0 344 q0 76 -34.5 112 q-34.5 36 -101.5 36 q-176 0 -176 -202 l0 -290 l-56 0 l0 760 l56 0 Z" /><glyph glyph-name="i" unicode="i" d="M116 729 q40 0 40 -43 q0 -44 -40 -44 q-38 0 -38 44 q0 43 38 43 ZM144 532 l0 -532 l-56 0 l0 532 l56 0 Z" /><glyph glyph-name="j" unicode="j" d="M78 686 q0 43 38 43 q40 0 40 -43 q0 -44 -40 -44 q-38 0 -38 44 ZM16 -240 q-43 0 -68 11 l0 49 q28 -11 63 -11 q36 0 56.5 22 q20.5 22 20.5 69 l0 632 l56 0 l0 -632 q0 -68 -33.5 -104 q-33.5 -36 -94.5 -36 Z" /><glyph glyph-name="k" unicode="k" d="M144 760 l0 -386 q0 -32 -1 -66.5 q-1 -34.5 -1 -68.5 l1 0 q13 16 29.5 36.5 q16.5 20.5 31.5 36.5 l202 220 l68 0 l-210 -228 l228 -304 l-68 0 l-200 266 l-80 -82 l0 -184 l-56 0 l0 760 l56 0 Z" /><glyph glyph-name="l" unicode="l" d="M145 0 l-57 0 l0 760 l57 0 l0 -760 Z" /><glyph glyph-name="m" unicode="m" d="M644 542 q79 0 123.5 -45 q44.5 -45 44.5 -142 l0 -355 l-56 0 l0 352 q0 72 -32 106 q-32 34 -88 34 q-76 0 -117 -44.5 q-41 -44.5 -41 -137.5 l0 -310 l-56 0 l0 352 q0 72 -32 106 q-32 34 -88 34 q-76 0 -117 -46.5 q-41 -46.5 -41 -143.5 l0 -302 l-56 0 l0 532 l46 0 l8 -84 l4 0 q20 39 60.5 66.5 q40.5 27.5 103.5 27.5 q58 0 98 -25 q40 -25 56 -75 l4 0 q22 48 68 74 q46 26 108 26 Z" /><glyph glyph-name="n" unicode="n" d="M326 542 q91 0 139 -47 q48 -47 48 -147 l0 -348 l-57 0 l0 344 q0 76 -34.5 112 q-34.5 36 -101.5 36 q-176 0 -176 -202 l0 -290 l-56 0 l0 532 l46 0 l8 -92 l4 0 q21 44 66.5 73 q45.5 29 113.5 29 Z" /><glyph glyph-name="o" unicode="o" d="M533 266 q0 -83 -27.5 -145 q-27.5 -62 -81 -96.5 q-53.5 -34.5 -130.5 -34.5 q-74 0 -127 34 q-53 34 -81.5 96 q-28.5 62 -28.5 146 q0 130 64.5 203 q64.5 73 176.5 73 q76 0 128.5 -34.5 q52.5 -34.5 79.5 -96.5 q27 -62 27 -145 ZM116 266 q0 -102 43 -164.5 q43 -62.5 135 -62.5 q93 0 136.5 62.5 q43.5 62.5 43.5 164.5 q0 66 -18 117 q-18 51 -57 80 q-39 29 -102 29 q-91 0 -136 -60 q-45 -60 -45 -166 Z" /><glyph glyph-name="p" unicode="p" d="M326 542 q102 0 159.5 -68.5 q57.5 -68.5 57.5 -204.5 q0 -136 -59.5 -207.5 q-59.5 -71.5 -162.5 -71.5 q-71 0 -113.5 30 q-42.5 30 -62.5 72 l-4 0 q1 -26 2.5 -55 q1.5 -29 1.5 -55 l0 -218 l-57 0 l0 768 l47 0 l7 -100 l3 0 q20 44 63.5 77 q43.5 33 117.5 33 ZM318 492 q-88 0 -130 -55.5 q-42 -55.5 -43 -160.5 l0 -10 q0 -114 41.5 -170.5 q41.5 -56.5 127.5 -56.5 q82 0 126 61 q44 61 44 170 q0 107 -41.5 164.5 q-41.5 57.5 -124.5 57.5 Z" /><glyph glyph-name="q" unicode="q" d="M454 -236 l0 232 q0 21 0.5 50.5 q0.5 29.5 2.5 50.5 l-4 0 q-20 -46 -66 -76.5 q-46 -30.5 -116 -30.5 q-101 0 -158 69.5 q-57 69.5 -57 204.5 q0 126 57 202 q57 76 167 76 q68 0 110.5 -29 q42.5 -29 62.5 -69 l3 0 l8 88 l46 0 l0 -768 l-56 0 ZM280 38 q92 0 132.5 56.5 q40.5 56.5 41.5 161.5 l0 14 q0 110 -39.5 166.5 q-39.5 56.5 -128.5 56.5 q-86 0 -129 -61 q-43 -61 -43 -168 q0 -110 41 -168 q41 -58 125 -58 Z" /><glyph glyph-name="r" unicode="r" d="M306 541 q42 0 72 -9 l-8 -52 q-16 4 -32 6 q-16 2 -34 2 q-74 0 -116.5 -53.5 q-42.5 -53.5 -42.5 -142.5 l0 -292 l-57 0 l0 532 l48 0 l6 -100 l3 0 q20 45 60.5 77 q40.5 32 100.5 32 Z" /><glyph glyph-name="s" unicode="s" d="M422 141 q0 -73 -53.5 -112 q-53.5 -39 -152.5 -39 q-56 0 -98.5 10 q-42.5 10 -71.5 24 l0 55 q35 -18 80 -29.5 q45 -11.5 92 -11.5 q78 0 113 26.5 q35 26.5 35 72.5 q0 44 -36.5 67.5 q-36.5 23.5 -109.5 48.5 q-49 17 -86.5 34 q-37.5 17 -58.5 44.5 q-21 27.5 -21 74.5 q0 64 52 100 q52 36 139 36 q48 0 89.5 -9.5 q41.5 -9.5 75.5 -23.5 l-20 -47 q-31 14 -70 23 q-39 9 -78 9 q-63 0 -98 -22 q-35 -22 -35 -64 q0 -32 17 -50.5 q17 -18.5 49 -32 q32 -13.5 78 -29.5 q47 -16 85.5 -34 q38.5 -18 61 -46 q22.5 -28 22.5 -75 Z" /><glyph glyph-name="t" unicode="t" d="M238 38 q22 0 42.5 3.5 q20.5 3.5 34.5 8.5 l0 -46 q-16 -6 -37.5 -10 q-21.5 -4 -47.5 -4 q-66 0 -102 37.5 q-36 37.5 -36 120.5 l0 338 l-79 0 l0 32 l79 18 l20 123 l36 0 l0 -127 l164 0 l0 -46 l-164 0 l0 -336 q0 -112 90 -112 Z" /><glyph glyph-name="u" unicode="u" d="M507 532 l0 -532 l-47 0 l-8 91 l-3 0 q-22 -43 -67.5 -72 q-45.5 -29 -113.5 -29 q-188 0 -188 194 l0 348 l58 0 l0 -344 q0 -76 34 -112.5 q34 -36.5 102 -36.5 q176 0 176 203 l0 290 l57 0 Z" /><glyph glyph-name="v" unicode="v" d="M204 0 l-204 532 l60 0 l132 -353 q13 -33 23.5 -65 q10.5 -32 16.5 -57 l4 0 q7 25 17.5 57.5 q10.5 32.5 22.5 64.5 l132 353 l61 0 l-204 -532 l-61 0 Z" /><glyph glyph-name="w" unicode="w" d="M514 0 l-108 346 q-10 33 -19 62.5 q-9 29.5 -15 55.5 l-2 0 q-6 -26 -14 -56 q-8 -30 -19 -63 l-113 -345 l-60 0 l-150 532 l59 0 l90 -329 q12 -44 20.5 -77.5 q8.5 -33.5 12.5 -59.5 l2 0 q6 24 14 57 q8 33 22 73 l110 336 l58 0 l106 -336 q10 -36 20 -70 q10 -34 14 -60 l4 0 q3 24 11.5 58.5 q8.5 34.5 19.5 78.5 l87 329 l58 0 l-145 -532 l-63 0 Z" /><glyph glyph-name="x" unicode="x" d="M216 273 l-186 259 l67 0 l153 -220 l154 220 l65 0 l-184 -259 l195 -273 l-66 0 l-164 234 l-163 -234 l-65 0 l194 273 Z" /><glyph glyph-name="y" unicode="y" d="M0 532 l61 0 l127 -331 q16 -44 28 -78.5 q12 -34.5 19 -61.5 l3 0 q7 23 19 59 q12 36 28 80 l124 332 l61 0 l-240 -627 q-27 -70 -64 -108.5 q-37 -38.5 -100 -38.5 q-20 0 -35 3 q-15 3 -29 7 l0 48 q26 -9 57 -9 q42 0 68.5 26 q26.5 26 46.5 79 l35 90 l-209 530 Z" /><glyph glyph-name="z" unicode="z" d="M422 0 l-382 0 l0 37 l312 449 l-290 0 l0 46 l358 0 l0 -40 l-312 -446 l314 0 l0 -46 Z" /><glyph glyph-name="braceleft" unicode="{" d="M324 -158 q-87 0 -134 37 q-47 37 -47 110 l0 159 q0 57 -28.5 81.5 q-28.5 24.5 -87.5 24.5 l0 48 q59 1 87.5 25 q28.5 24 28.5 81 l0 160 q0 72 48 109 q48 37 133 37 l0 -48 q-62 -2 -93 -26 q-31 -24 -31 -80 l0 -156 q0 -51 -22 -83 q-22 -32 -72 -41 l0 -4 q50 -9 72 -40.5 q22 -31.5 22 -82.5 l0 -160 q0 -53 31 -77.5 q31 -24.5 93 -25.5 l0 -48 Z" /><glyph glyph-name="bar" unicode="|" d="M246 762 l49 0 l0 -1008 l-49 0 l0 1008 Z" /><glyph glyph-name="braceright" unicode="}" d="M34 -158 l0 48 q62 2 93 26 q31 24 31 78 l0 158 q0 51 22 83 q22 32 72 41 l0 4 q-50 9 -72 41 q-22 32 -22 83 l0 157 q0 55 -31 79.5 q-31 24.5 -93 25.5 l0 48 q87 0 134 -37 q47 -37 47 -110 l0 -159 q0 -57 28.5 -81.5 q28.5 -24.5 87.5 -24.5 l0 -48 q-59 0 -87.5 -24.5 q-28.5 -24.5 -28.5 -81.5 l0 -160 q0 -72 -48 -109 q-48 -37 -133 -37 Z" /><glyph glyph-name="asciitilde" unicode="~" d="M276 330 q-32 15 -56 22.5 q-24 7.5 -52 7.5 q-60 0 -115 -58 l0 55 q23 24 54 37.5 q31 13.5 65 13.5 q34 0 61.5 -8 q27.5 -8 64.5 -25 q32 -14 55.5 -21.5 q23.5 -7.5 49.5 -7.5 q28 0 58 14 q30 14 57 42 l0 -52 q-22 -24 -52 -38 q-30 -14 -66 -14 q-32 0 -59 8 q-27 8 -65 24 Z" /><glyph glyph-name="uni00A0" unicode=" " d="" /><glyph glyph-name="exclamdown" unicode="¡" d="M166 492 q0 -50 -43 -50 q-45 0 -45 50 q0 49 45 49 q43 0 43 -49 ZM101 342 l41 0 l14 -526 l-68 0 l13 526 Z" /><glyph glyph-name="cent" unicode="¢" d="M346 724 l0 -83 q38 -1 70.5 -8 q32.5 -7 59.5 -19 l-15 -48 q-59 24 -119 24 q-94 0 -145 -60.5 q-51 -60.5 -51 -167.5 q0 -104 45.5 -163 q45.5 -59 140.5 -59 q40 0 74 7.5 q34 7.5 64 20.5 l0 -52 q-26 -11 -56.5 -18.5 q-30.5 -7.5 -68.5 -9.5 l0 -98 l-46 0 l0 100 q-103 9 -157 78.5 q-54 69.5 -54 193.5 q0 124 57 194 q57 70 154 82 l0 86 l47 0 Z" /><glyph glyph-name="sterling" unicode="£" d="M339 723 q51 0 90.5 -10 q39.5 -10 71.5 -25 l-20 -48 q-31 14 -65.5 24 q-34.5 10 -75.5 10 q-68 0 -101.5 -37.5 q-33.5 -37.5 -33.5 -118.5 l0 -145 l201 0 l0 -45 l-201 0 l0 -126 q0 -65 -21.5 -99.5 q-21.5 -34.5 -52.5 -50.5 l395 0 l0 -52 l-489 0 l0 48 q52 10 81.5 46.5 q29.5 36.5 29.5 106.5 l0 127 l-101 0 l0 45 l101 0 l0 152 q0 97 51 147.5 q51 50.5 140 50.5 Z" /><glyph glyph-name="currency" unicode="¤" d="M87 354 q0 68 43 122 l-72 72 l32 32 l72 -71 q52 43 123 43 q68 0 123 -43 l72 71 l31 -32 l-71 -72 q44 -53 44 -122 q0 -69 -44 -124 l71 -72 l-31 -31 l-72 71 q-52 -42 -123 -42 q-34 0 -65.5 10.5 q-31.5 10.5 -57.5 31.5 l-72 -70 l-32 31 l72 72 q-43 54 -43 123 ZM132 354 q0 -44 20.5 -79 q20.5 -35 55 -55 q34.5 -20 76.5 -20 q43 0 78.5 21 q35.5 21 56.5 56 q21 35 21 77 q0 42 -21 77 q-21 35 -56 56 q-35 21 -77 21 q-43 0 -78 -20.5 q-35 -20.5 -55.5 -55.5 q-20.5 -35 -20.5 -78 Z" /><glyph glyph-name="yen" unicode="¥" d="M286 350 l203 364 l61 0 l-220 -383 l146 0 l0 -45 l-162 0 l0 -96 l162 0 l0 -44 l-162 0 l0 -146 l-56 0 l0 146 l-164 0 l0 44 l164 0 l0 96 l-164 0 l0 45 l144 0 l-218 383 l61 0 l205 -364 Z" /><glyph glyph-name="brokenbar" unicode="¦" d="M246 762 l49 0 l0 -375 l-49 0 l0 375 ZM246 129 l49 0 l0 -375 l-49 0 l0 375 Z" /><glyph glyph-name="section" unicode="§" d="M74 395 q0 49 27.5 80 q27.5 31 66.5 47 q-40 17 -64.5 42.5 q-24.5 25.5 -24.5 69.5 q0 60 49 94 q49 34 137 34 q50 0 89.5 -9 q39.5 -9 73.5 -23 l-20 -45 q-30 13 -66 22 q-36 9 -80 9 q-129 0 -129 -80 q0 -40 35.5 -59 q35.5 -19 102.5 -42 q47 -17 85 -35.5 q38 -18.5 60 -46 q22 -27.5 22 -71.5 q0 -50 -25 -83 q-25 -33 -59 -52 q36 -17 58 -43 q22 -26 22 -68 q0 -64 -52.5 -101.5 q-52.5 -37.5 -151.5 -37.5 q-54 0 -96 9.5 q-42 9.5 -72 23.5 l0 52 q35 -17 79.5 -28.5 q44.5 -11.5 90.5 -11.5 q81 0 114.5 26 q33.5 26 33.5 65 q0 40 -34.5 61.5 q-34.5 21.5 -107.5 46.5 q-48 17 -85 35 q-37 18 -58 46 q-21 28 -21 73 ZM125 400 q0 -48 37 -71.5 q37 -23.5 106 -48.5 l41 -13 q32 16 55 43 q23 27 23 66 q0 46 -39.5 73 q-39.5 27 -127.5 52 q-39 -10 -67 -35.5 q-28 -25.5 -28 -65.5 Z" /><glyph glyph-name="dieresis" unicode="¨" d="M160 680 q0 40 34 40 q36 0 36 -40 q0 -41 -36 -41 q-34 0 -34 41 ZM346 680 q0 40 34 40 q36 0 36 -40 q0 -41 -36 -41 q-34 0 -34 41 Z" /><glyph glyph-name="copyright" unicode="©" d="M416 -9 q-80 0 -147 28 q-67 28 -116 77.5 q-49 49.5 -76 116 q-27 66.5 -27 144.5 q0 79 28 146 q28 67 78 116 q50 49 116.5 76.5 q66.5 27.5 143.5 27.5 q78 0 144.5 -28.5 q66.5 -28.5 116.5 -79 q50 -50.5 77.5 -117 q27.5 -66.5 27.5 -141.5 q0 -78 -28 -144.5 q-28 -66.5 -77.5 -116 q-49.5 -49.5 -116 -77.5 q-66.5 -28 -144.5 -28 ZM416 30 q69 0 128 25 q59 25 103 70 q44 45 69 104.5 q25 59.5 25 127.5 q0 67 -24 126 q-24 59 -68 104 q-44 45 -103.5 71 q-59.5 26 -129.5 26 q-70 0 -129.5 -24.5 q-59.5 -24.5 -103.5 -69 q-44 -44.5 -68.5 -104 q-24.5 -59.5 -24.5 -129.5 q0 -67 23.5 -126 q23.5 -59 67.5 -104.5 q44 -45.5 103.5 -71 q59.5 -25.5 131.5 -25.5 ZM433 138 q-95 0 -148 57 q-53 57 -53 161 q0 66 25 115.5 q25 49.5 71 77 q46 27.5 109 27.5 q37 0 67.5 -7 q30.5 -7 57.5 -21 l-20 -42 q-48 24 -104 24 q-70 0 -112 -46.5 q-42 -46.5 -42 -127.5 q0 -85 40 -129 q40 -44 111 -44 q29 0 55.5 5.5 q26.5 5.5 54.5 15.5 l0 -44 q-25 -10 -51 -16 q-26 -6 -61 -6 Z" /><glyph glyph-name="ordfeminine" unicode="ª" d="M173 722 q115 0 115 -106 l0 -220 l-35 0 l-8 44 q-16 -21 -42.5 -35.5 q-26.5 -14.5 -63.5 -14.5 q-47 0 -75 23.5 q-28 23.5 -28 70.5 q0 49 38.5 74 q38.5 25 119.5 28 l50 2 l0 26 q0 38 -20 54 q-20 16 -52 16 q-27 0 -51.5 -7 q-24.5 -7 -46.5 -19 l-16 36 q24 12 54 20 q30 8 61 8 ZM244 553 l-47 -2 q-62 -2 -88.5 -18 q-26.5 -16 -26.5 -49 q0 -28 17 -42 q17 -14 48 -14 q50 0 73.5 26 q23.5 26 23.5 70 l0 29 Z" /><glyph glyph-name="guillemotleft" unicode="«" d="M33 278 l160 194 l39 -24 l-138 -176 l138 -176 l-39 -24 l-160 192 l0 14 ZM216 278 l162 194 l38 -24 l-138 -176 l138 -176 l-38 -24 l-162 192 l0 14 Z" /><glyph glyph-name="logicalnot" unicode="¬" d="M509 376 l0 -246 l-47 0 l0 199 l-410 0 l0 47 l457 0 Z" /><glyph glyph-name="registered" unicode="®" d="M416 -9 q-80 0 -147 28 q-67 28 -116 77.5 q-49 49.5 -76 116 q-27 66.5 -27 144.5 q0 79 28 146 q28 67 78 116 q50 49 116.5 76.5 q66.5 27.5 143.5 27.5 q78 0 144.5 -28.5 q66.5 -28.5 116.5 -79 q50 -50.5 77.5 -117 q27.5 -66.5 27.5 -141.5 q0 -78 -28 -144.5 q-28 -66.5 -77.5 -116 q-49.5 -49.5 -116 -77.5 q-66.5 -28 -144.5 -28 ZM416 30 q69 0 128 25 q59 25 103 70 q44 45 69 104.5 q25 59.5 25 127.5 q0 67 -24 126 q-24 59 -68 104 q-44 45 -103.5 71 q-59.5 26 -129.5 26 q-70 0 -129.5 -24.5 q-59.5 -24.5 -103.5 -69 q-44 -44.5 -68.5 -104 q-24.5 -59.5 -24.5 -129.5 q0 -67 23.5 -126 q23.5 -59 67.5 -104.5 q44 -45.5 103.5 -71 q59.5 -25.5 131.5 -25.5 ZM288 140 l0 432 l124 0 q71 0 109.5 -30.5 q38.5 -30.5 38.5 -93.5 q0 -48 -25 -77 q-25 -29 -60 -41 l115 -190 l-59 0 l-105 178 l-87 0 l0 -178 l-51 0 ZM338 360 l70 0 q45 0 73.5 22 q28.5 22 28.5 64 q0 44 -27 63 q-27 19 -74 19 l-71 0 l0 -168 Z" /><glyph glyph-name="overscore" unicode="¯" d="M503 760 l-506 0 l0 46 l506 0 l0 -46 Z" /><glyph glyph-name="degree" unicode="°" d="M214 429 q-66 0 -108.5 40.5 q-42.5 40.5 -42.5 106.5 q0 66 41.5 107 q41.5 41 109.5 41 q66 0 108.5 -41 q42.5 -41 42.5 -107 q0 -66 -42.5 -106.5 q-42.5 -40.5 -108.5 -40.5 ZM214 471 q50 0 77.5 29.5 q27.5 29.5 27.5 75.5 q0 48 -28.5 77 q-28.5 29 -76.5 29 q-51 0 -78 -29 q-27 -29 -27 -77 q0 -46 27 -75.5 q27 -29.5 78 -29.5 Z" /><glyph glyph-name="plusminus" unicode="±" d="M309 378 l209 0 l0 -47 l-209 0 l0 -212 l-48 0 l0 212 l-209 0 l0 47 l209 0 l0 213 l48 0 l0 -213 ZM52 0 l0 47 l466 0 l0 -47 l-466 0 Z" /><glyph glyph-name="uni00B2" unicode="²" d="M306 416 l-280 0 l0 38 l118 118 q38 38 62 65 q24 27 35 50 q11 23 11 49 q0 35 -21.5 55.5 q-21.5 20.5 -61.5 20.5 q-31 0 -56.5 -10.5 q-25.5 -10.5 -52.5 -31.5 l-24 34 q28 23 61.5 36.5 q33.5 13.5 72.5 13.5 q62 0 96.5 -32 q34.5 -32 34.5 -84 q0 -34 -14.5 -62.5 q-14.5 -28.5 -41.5 -58 q-27 -29.5 -65 -67.5 l-93 -90 l219 0 l0 -44 Z" /><glyph glyph-name="uni00B3" unicode="³" d="M168 852 q63 0 98 -29 q35 -29 35 -78 q0 -41 -21.5 -67.5 q-21.5 -26.5 -53.5 -35.5 l0 -2 q40 -8 63 -34 q23 -26 23 -67 q0 -59 -41 -94 q-41 -35 -121 -35 q-73 0 -128 26 l0 46 q65 -31 128 -31 q57 0 85 23.5 q28 23.5 28 65.5 q0 41 -29.5 60 q-29.5 19 -85.5 19 l-62 0 l0 40 l62 0 q52 0 78 22 q26 22 26 60 q0 34 -23 52 q-23 18 -61 18 q-34 0 -62 -10.5 q-28 -10.5 -56 -27.5 l-23 34 q29 20 63 32.5 q34 12.5 78 12.5 Z" /><glyph glyph-name="acute" unicode="´" d="M225 766 l0 -8 q-15 -21 -39.5 -49 q-24.5 -28 -52.5 -55.5 q-28 -27.5 -53 -47.5 l-40 0 l0 9 q18 19 40.5 46 q22.5 27 43 55 q20.5 28 33.5 50 l68 0 Z" /><glyph glyph-name="uni00B5" unicode="µ" d="M514 532 l0 -532 l-48 0 l-8 83 l-4 0 q-22 -41 -61 -67 q-39 -26 -109 -26 q-52 0 -86 17 q-34 17 -54 46 l-2 0 q1 -19 1.5 -46 q0.5 -27 0.5 -58 l0 -189 l-56 0 l0 772 l56 0 l0 -344 q0 -149 144 -149 q94 0 131.5 52.5 q37.5 52.5 37.5 150.5 l0 290 l57 0 Z" /><glyph glyph-name="paragraph" unicode="¶" d="M533 -127 l-42 0 l0 847 l-118 0 l0 -847 l-42 0 l0 441 q-31 -9 -71 -9 q-88 0 -136.5 57.5 q-48.5 57.5 -48.5 170.5 q0 119 52.5 173 q52.5 54 147.5 54 l258 0 l0 -887 Z" /><glyph glyph-name="cedilla" unicode="¸" d="M196 -142 q0 -46 -34.5 -72 q-34.5 -26 -95.5 -26 q-34 0 -54 6 l0 39 q10 -3 24 -4 q14 -1 31 -1 q37 0 59 14 q22 14 22 42 q0 29 -25.5 42.5 q-25.5 13.5 -71.5 15.5 l43 86 l42 0 l-30 -59 q40 -5 65 -25 q25 -20 25 -58 Z" /><glyph glyph-name="uni00B9" unicode="¹" d="M216 844 l0 -428 l-48 0 l0 278 q0 27 0.5 53.5 q0.5 26.5 1.5 50.5 q-14 -10 -27.5 -20 q-13.5 -10 -32.5 -20 l-50 -32 l-23 36 l133 82 l46 0 Z" /><glyph glyph-name="ordmasculine" unicode="º" d="M332 556 q0 -75 -39.5 -121 q-39.5 -46 -110.5 -46 q-68 0 -108 45.5 q-40 45.5 -40 121.5 q0 80 40.5 124 q40.5 44 109.5 44 q72 0 110 -46 q38 -46 38 -122 ZM80 556 q0 -59 25 -93.5 q25 -34.5 77 -34.5 q54 0 79 35 q25 35 25 93 q0 58 -24 93 q-24 35 -78 35 q-104 0 -104 -128 Z" /><glyph glyph-name="guillemotright" unicode="»" d="M416 266 l-161 -194 l-39 24 l138 176 l-138 176 l39 24 l161 -194 l0 -12 ZM232 266 l-161 -194 l-39 24 l139 176 l-139 176 l39 24 l161 -194 l0 -12 Z" /><glyph glyph-name="onequarter" unicode="¼" d="M136 0 l404 714 l52 0 l-404 -714 l-52 0 ZM156 286 l0 278 q0 27 0.5 53.5 q0.5 26.5 1.5 50.5 q-14 -10 -27.5 -20 q-13.5 -10 -32.5 -20 l-50 -32 l-23 36 l133 82 l46 0 l0 -428 l-48 0 ZM595 0 l0 114 l-199 0 l0 34 l198 283 l51 0 l0 -275 l67 0 l0 -42 l-67 0 l0 -114 l-50 0 ZM446 156 l149 0 l0 128 q0 22 0.5 46 q0.5 24 1.5 46 q-7 -14 -19 -31.5 q-12 -17.5 -22 -32.5 l-110 -156 Z" /><glyph glyph-name="onehalf" unicode="½" d="M122 0 l404 714 l51 0 l-404 -714 l-51 0 ZM150 286 l0 278 q0 27 0.5 53.5 q0.5 26.5 1.5 50.5 q-14 -10 -27.5 -20 q-13.5 -10 -32.5 -20 l-50 -32 l-23 36 l133 82 l46 0 l0 -428 l-48 0 ZM444 0 l0 37 l119 119 q39 38 62.5 65 q23.5 27 34 50 q10.5 23 10.5 49 q0 35 -21.5 55.5 q-21.5 20.5 -60.5 20.5 q-32 0 -57.5 -10.5 q-25.5 -10.5 -52.5 -31.5 l-24 34 q28 23 61.5 36.5 q33.5 13.5 72.5 13.5 q62 0 97 -32 q35 -32 35 -84 q0 -34 -14.5 -62.5 q-14.5 -28.5 -42 -58 q-27.5 -29.5 -65.5 -67.5 l-92 -91 l219 0 l0 -43 l-281 0 Z" /><glyph glyph-name="threequarters" unicode="¾" d="M148 280 q-70 0 -127 26 l0 46 q65 -31 128 -31 q56 0 84.5 23.5 q28.5 23.5 28.5 65.5 q0 79 -116 79 l-62 0 l0 40 l62 0 q52 0 78 22 q26 22 26 60 q0 34 -22.5 52 q-22.5 18 -60.5 18 q-34 0 -62 -10.5 q-28 -10.5 -56 -27.5 l-23 34 q29 20 62.5 32.5 q33.5 12.5 77.5 12.5 q64 0 99 -29 q35 -29 35 -78 q0 -41 -21 -67.5 q-21 -26.5 -53 -35.5 l0 -2 q40 -8 63 -34 q23 -26 23 -67 q0 -59 -41.5 -94 q-41.5 -35 -122.5 -35 ZM188 0 l404 714 l52 0 l-404 -714 l-52 0 ZM643 0 l0 114 l-199 0 l0 34 l198 283 l51 0 l0 -275 l67 0 l0 -42 l-67 0 l0 -114 l-50 0 ZM494 156 l149 0 l0 128 q0 22 0.5 46 q0.5 24 1.5 46 q-7 -14 -19 -31.5 q-12 -17.5 -22 -32.5 l-110 -156 Z" /><glyph glyph-name="AE" unicode="æ" d="M786 0 l-379 0 l0 246 l-235 0 l-111 -246 l-62 0 l323 714 l464 0 l0 -52 l-321 0 l0 -262 l301 0 l0 -51 l-301 0 l0 -297 l321 0 l0 -52 ZM195 298 l212 0 l0 364 l-50 0 l-162 -364 Z" /><glyph glyph-name="Eth" unicode="ð" d="M298 714 q170 0 260 -89.5 q90 -89.5 90 -260.5 q0 -180 -95 -272 q-95 -92 -277 -92 l-172 0 l0 328 l-81 0 l0 52 l81 0 l0 334 l194 0 ZM287 663 l-125 0 l0 -283 l192 0 l0 -52 l-192 0 l0 -277 l110 0 q316 0 316 311 q0 301 -301 301 Z" /><glyph glyph-name="multiply" unicode="×" d="M469 570 l33 -34 l-183 -183 l183 -183 l-34 -34 l-184 182 l-182 -182 l-34 34 l183 183 l-183 183 l34 34 l183 -184 l184 184 Z" /><glyph glyph-name="Oslash" unicode="ø" d="M705 358 q0 -109 -36 -192 q-36 -83 -107.5 -129.5 q-71.5 -46.5 -177.5 -46.5 q-61 0 -109.5 15.5 q-48.5 15.5 -86.5 44.5 l-56 -78 l-41 27 l60 83 q-44 50 -66.5 120.5 q-22.5 70.5 -22.5 156.5 q0 109 36.5 191 q36.5 82 109 128.5 q72.5 46.5 179.5 46.5 q56 0 103 -14.5 q47 -14.5 84 -40.5 l54 73 l40 -28 l-56 -77 q45 -48 69 -119 q24 -71 24 -161 ZM123 358 q0 -70 15.5 -128 q15.5 -58 47.5 -99 l357 493 q-61 49 -156 49 q-89 0 -148 -39.5 q-59 -39.5 -87.5 -110.5 q-28.5 -71 -28.5 -165 ZM644 358 q0 151 -66 232 l-358 -495 q30 -25 71.5 -39.5 q41.5 -14.5 92.5 -14.5 q90 0 147.5 39.5 q57.5 39.5 85 110.5 q27.5 71 27.5 167 Z" /><glyph glyph-name="Thorn" unicode="þ" d="M536 382 q0 -100 -66 -159 q-66 -59 -208 -59 l-104 0 l0 -164 l-58 0 l0 714 l58 0 l0 -128 l124 0 q131 0 192.5 -51 q61.5 -51 61.5 -153 ZM158 214 l98 0 q106 0 163 37 q57 37 57 129 q0 81 -48 118 q-48 37 -153 37 l-117 0 l0 -321 Z" /><glyph glyph-name="germandbls" unicode="ß" d="M480 626 q0 -36 -14 -60 q-14 -24 -34.5 -41.5 q-20.5 -17.5 -41 -33 q-20.5 -15.5 -34.5 -33 q-14 -17.5 -14 -42.5 q0 -30 21 -50.5 q21 -20.5 70 -53.5 q33 -22 58 -44 q25 -22 39 -51.5 q14 -29.5 14 -72.5 q0 -72 -46 -113 q-46 -41 -130 -41 q-46 0 -79.5 8 q-33.5 8 -59.5 22 l0 54 q29 -16 64.5 -26 q35.5 -10 73.5 -10 q61 0 91 28 q30 28 30 74 q0 47 -24 75 q-24 28 -70 59 q-53 36 -80.5 65 q-27.5 29 -27.5 75 q0 34 13.5 55.5 q13.5 21.5 34 37.5 q20.5 16 41 31.5 q20.5 15.5 34 35.5 q13.5 20 13.5 50 q0 45 -34 68.5 q-34 23.5 -94 23.5 q-69 0 -109.5 -34 q-40.5 -34 -40.5 -108 l0 -574 l-57 0 l0 574 q0 98 56.5 144.5 q56.5 46.5 150.5 46.5 q87 0 136.5 -36.5 q49.5 -36.5 49.5 -102.5 Z" /><glyph glyph-name="ae" unicode="æ" d="M604 542 q64 0 108.5 -31.5 q44.5 -31.5 67 -86.5 q22.5 -55 21.5 -126 l0 -39 l-357 0 q0 -109 46 -164 q46 -55 129 -55 q46 0 81.5 8 q35.5 8 78.5 28 l0 -52 q-39 -18 -77 -26 q-38 -8 -84 -8 q-76 0 -128 36 q-52 36 -76 98 q-27 -61 -74 -97.5 q-47 -36.5 -127 -36.5 q-77 0 -121.5 38 q-44.5 38 -44.5 111 q0 79 63.5 121 q63.5 42 182.5 47 l93 5 l0 38 q0 78 -32 110.5 q-32 32.5 -90 32.5 q-38 0 -76 -10.5 q-38 -10.5 -76 -30.5 l-18 46 q38 20 83 31.5 q45 11.5 91 11.5 q66 0 105 -28.5 q39 -28.5 53 -90.5 q24 54 69 87 q45 33 109 33 ZM603 494 q-65 0 -107.5 -48 q-42.5 -48 -49.5 -140 l295 0 q1 84 -33.5 136 q-34.5 52 -104.5 52 ZM385 268 l-85 -4 q-96 -4 -145 -34.5 q-49 -30.5 -49 -91.5 q0 -49 30 -74.5 q30 -25.5 84 -25.5 q78 0 121 47 q43 47 44 132 l0 51 Z" /><glyph glyph-name="eth" unicode="ð" d="M210 761 q70 -32 122 -72 l112 67 l25 -38 l-101 -59 q74 -71 114 -169 q40 -98 40 -216 q0 -130 -60 -207 q-60 -77 -174 -77 q-71 0 -123 29.5 q-52 29.5 -80.5 83 q-28.5 53.5 -28.5 125.5 q0 74 29 128.5 q29 54.5 80 83.5 q51 29 119 29 q62 0 102 -17.5 q40 -17.5 64 -48.5 l4 1 q-15 64 -49.5 123.5 q-34.5 59.5 -82.5 104.5 l-130 -76 l-26 37 l118 69 q-21 16 -46.5 31 q-25.5 15 -51.5 27 l24 41 ZM291 421 q-83 0 -130 -51 q-47 -51 -47 -144 q0 -87 45 -137.5 q45 -50.5 129 -50.5 q87 0 131.5 59 q44.5 59 44.5 171 q0 35 -16 70.5 q-16 35.5 -54 59 q-38 23.5 -103 23.5 Z" /><glyph glyph-name="divide" unicode="÷" d="M284 481 q-40 0 -40 46 q0 45 40 45 q42 0 42 -45 q0 -46 -42 -46 ZM52 329 l0 47 l466 0 l0 -47 l-466 0 ZM284 132 q-40 0 -40 46 q0 46 40 46 q42 0 42 -46 q0 -46 -42 -46 Z" /><glyph glyph-name="oslash" unicode="ø" d="M533 266 q0 -83 -27.5 -145 q-27.5 -62 -81 -96.5 q-53.5 -34.5 -130.5 -34.5 q-45 0 -80.5 13 q-35.5 13 -63.5 36 l-53 -69 l-39 28 l58 73 q-28 37 -43.5 86 q-15.5 49 -15.5 109 q0 130 64.5 203 q64.5 73 176.5 73 q85 0 140 -46 l48 64 l40 -26 l-53 -69 q60 -75 60 -199 ZM116 266 q0 -44 8 -82 q8 -38 25 -66 l258 337 q-20 17 -47.5 27 q-27.5 10 -62.5 10 q-91 0 -136 -60 q-45 -60 -45 -166 ZM474 266 q0 45 -8.5 84 q-8.5 39 -26.5 68 l-259 -338 q21 -20 49.5 -30.5 q28.5 -10.5 64.5 -10.5 q93 0 136.5 62.5 q43.5 62.5 43.5 164.5 Z" /><glyph glyph-name="thorn" unicode="þ" d="M543 269 q0 -136 -59.5 -207.5 q-59.5 -71.5 -161.5 -71.5 q-71 0 -114 30 q-43 30 -63 72 l-4 0 q1 -22 2.5 -53 q1.5 -31 1.5 -55 l0 -220 l-57 0 l0 996 l57 0 l0 -230 q0 -19 -0.5 -47.5 q-0.5 -28.5 -2.5 -47.5 l4 0 q20 43 63 75 q43 32 117 32 q102 0 159.5 -69.5 q57.5 -69.5 57.5 -203.5 ZM484 270 q0 222 -165 222 q-89 0 -131 -55.5 q-42 -55.5 -42 -160.5 l0 -10 q0 -114 41 -170.5 q41 -56.5 127 -56.5 q83 0 126.5 59 q43.5 59 43.5 172 Z" /><glyph glyph-name="dcroat" unicode="&#x111;" d="M279 -10 q-107 0 -164.5 68.5 q-57.5 68.5 -57.5 201.5 q0 138 60 209 q60 71 166 71 q67 0 109.5 -29 q42.5 -29 62.5 -72 l4 0 q-2 23 -3 52 q-1 29 -1 53 l0 74 l-227 0 l0 45 l227 0 l0 97 l57 0 l0 -97 l75 0 l0 -45 l-75 0 l0 -618 l-47 0 l-7 92 l-4 0 q-21 -42 -62.5 -72 q-41.5 -30 -112.5 -30 ZM286 39 q92 0 130.5 56 q38.5 56 38.5 161 l0 10 q0 110 -38.5 168 q-38.5 58 -126.5 58 q-86 0 -130 -60 q-44 -60 -44 -173 q0 -108 42 -164 q42 -56 128 -56 Z" /><glyph glyph-name="eogonek" unicode="&#x119;" d="M370 -124 q0 -52 51 -52 q16 0 28 2 q12 2 20 4 l0 -40 q-11 -3 -25 -5.5 q-14 -2.5 -31 -2.5 q-44 0 -68.5 22 q-24.5 22 -24.5 66 q0 33 19.5 65.5 q19.5 32.5 52.5 61.5 q-39 -7 -88 -7 q-119 0 -183 73 q-64 73 -64 199 q0 81 27.5 144.5 q27.5 63.5 79.5 99.5 q52 36 126 36 q68 0 114 -31.5 q46 -31.5 69 -86.5 q23 -55 23 -126 l0 -40 l-380 0 q0 -105 49 -161.5 q49 -56.5 141 -56.5 q50 0 87 8 q37 8 81 28 l0 -52 q-3 -1 -6 -2 q-51 -44 -74.5 -78 q-23.5 -34 -23.5 -68 ZM289 494 q-73 0 -118.5 -49 q-45.5 -49 -53.5 -139 l319 0 q0 84 -35.5 136 q-35.5 52 -111.5 52 Z" /><glyph glyph-name="Hbar" unicode="&#x126;" d="M100 0 l0 536 l-100 0 l0 48 l100 0 l0 130 l58 0 l0 -130 l407 0 l0 130 l58 0 l0 -130 l100 0 l0 -48 l-100 0 l0 -536 l-58 0 l0 348 l-407 0 l0 -348 l-58 0 ZM158 400 l407 0 l0 136 l-407 0 l0 -136 Z" /><glyph glyph-name="hbar" unicode="&#x127;" d="M144 760 l0 -98 l228 0 l0 -45 l-228 0 l0 -111 q0 -21 -1 -39 q-1 -18 -2 -37 l4 0 q20 44 66 73 q46 29 115 29 q91 0 139 -47 q48 -47 48 -147 l0 -338 l-57 0 l0 334 q0 76 -34.5 112 q-34.5 36 -101.5 36 q-176 0 -176 -202 l0 -280 l-56 0 l0 617 l-75 0 l0 45 l75 0 l0 98 l56 0 Z" /><glyph glyph-name="kgreenlandic" unicode="&#x138;" d="M474 532 l-204 -232 l222 -300 l-68 0 l-194 262 l-83 -82 l0 -180 l-59 0 l0 532 l59 0 l0 -141 q0 -90 -3 -159 q14 16 25 29.5 q11 13.5 23 28.5 l212 242 l70 0 Z" /><glyph glyph-name="Lslash" unicode="&#x141;" d="M100 0 l0 265 l-64 -39 l-24 40 l88 56 l0 392 l58 0 l0 -358 l154 96 l26 -42 l-180 -110 l0 -248 l334 0 l0 -52 l-392 0 Z" /><glyph glyph-name="lslash" unicode="&#x142;" d="M86 0 l0 312 l-60 -40 l-25 40 l85 56 l0 392 l57 0 l0 -356 l73 49 l24 -39 l-97 -65 l0 -349 l-57 0 Z" /><glyph glyph-name="Eng" unicode="&#x14a;" d="M460 -182 q-24 0 -45 4 q-21 4 -33 9 l0 51 q16 -5 36 -8.5 q20 -3.5 42 -3.5 q50 0 81.5 31 q31.5 31 32.5 104 l-421 619 l-3 0 q2 -36 3 -84 q1 -48 1 -96 l0 -444 l-54 0 l0 714 l62 0 l412 -613 l4 0 q-2 35 -3 82.5 q-1 47.5 -1 92.5 l0 438 l54 0 l0 -710 q0 -92 -44 -139 q-44 -47 -124 -47 Z" /><glyph glyph-name="eng" unicode="&#x14b;" d="M389 -240 q-22 0 -37.5 3 q-15.5 3 -28.5 8 l0 49 q14 -6 29.5 -8.5 q15.5 -2.5 31.5 -2.5 q34 0 53 22 q19 22 19 69 l0 444 q0 76 -34.5 112 q-34.5 36 -101.5 36 q-176 0 -176 -202 l0 -290 l-56 0 l0 532 l46 0 l8 -92 l4 0 q22 44 67 73 q45 29 113 29 q92 0 140 -47 q48 -47 48 -147 l0 -448 q0 -68 -33 -104 q-33 -36 -92 -36 Z" /><glyph glyph-name="OE" unicode="&#x152;" d="M382 721 q26 0 47 -2 q21 -2 45 -5 l378 0 l0 -52 l-322 0 l0 -262 l303 0 l0 -51 l-303 0 l0 -297 l322 0 l0 -52 l-380 0 q-20 -2 -41.5 -4 q-21.5 -2 -46.5 -2 q-108 0 -179.5 45.5 q-71.5 45.5 -107 128 q-35.5 82.5 -35.5 191.5 q0 109 36 190.5 q36 81.5 107.5 126.5 q71.5 45 176.5 45 ZM386 669 q-89 0 -147.5 -38.5 q-58.5 -38.5 -87.5 -108.5 q-29 -70 -29 -164 q0 -95 28.5 -165.5 q28.5 -70.5 86.5 -109 q58 -38.5 147 -38.5 q27 0 49.5 2.5 q22.5 2.5 38.5 7.5 l0 604 q-16 5 -37.5 7.5 q-21.5 2.5 -48.5 2.5 Z" /><glyph glyph-name="oe" unicode="&#x153;" d="M696 542 q67 0 112.5 -31.5 q45.5 -31.5 68.5 -86.5 q23 -55 23 -126 l0 -40 l-374 0 q0 -108 48 -163 q48 -55 138 -55 q50 0 86 8 q36 8 80 28 l0 -52 q-39 -18 -78 -26 q-39 -8 -89 -8 q-83 0 -136 38 q-53 38 -77 104 q-26 -65 -77 -103.5 q-51 -38.5 -130 -38.5 q-73 0 -125.5 34 q-52.5 34 -81 96 q-28.5 62 -28.5 146 q0 129 64 202.5 q64 73.5 176 73.5 q78 0 128 -39 q50 -39 73 -105 q25 64 74.5 104 q49.5 40 124.5 40 ZM695 493 q-72 0 -116.5 -47.5 q-44.5 -47.5 -51.5 -139.5 l313 0 q0 84 -35.5 135.5 q-35.5 51.5 -109.5 51.5 ZM294 492 q-89 0 -133.5 -58 q-44.5 -58 -44.5 -168 q0 -105 42.5 -166 q42.5 -61 133.5 -61 q92 0 134 60.5 q42 60.5 42 164.5 q0 104 -41 166 q-41 62 -133 62 Z" /><glyph glyph-name="Tbar" unicode="&#x166;" d="M236 0 l0 340 l-170 0 l0 50 l170 0 l0 272 l-230 0 l0 52 l518 0 l0 -52 l-230 0 l0 -272 l168 0 l0 -50 l-168 0 l0 -340 l-58 0 Z" /><glyph glyph-name="tbar" unicode="&#x167;" d="M238 38 q22 0 42.5 3.5 q20.5 3.5 34.5 8.5 l0 -46 q-16 -6 -37.5 -10 q-21.5 -4 -47.5 -4 q-66 0 -102 37.5 q-36 37.5 -36 120.5 l0 134 l-71 0 l0 46 l71 0 l0 158 l-79 0 l0 32 l79 18 l20 123 l36 0 l0 -127 l164 0 l0 -46 l-164 0 l0 -158 l150 0 l0 -46 l-150 0 l0 -132 q0 -112 90 -112 Z" /><glyph glyph-name="Uogonek" unicode="&#x172;" d="M448 -114 q0 -33 13 -47.5 q13 -14.5 39 -14.5 q15 0 27.5 2 q12.5 2 20.5 4 l0 -40 q-11 -3 -24.5 -5.5 q-13.5 -2.5 -31.5 -2.5 q-44 0 -68 23 q-24 23 -24 73 q0 34 16 66 q16 32 40 59 q-44 -13 -98 -13 q-128 0 -197 70 q-69 70 -69 194 l0 460 l58 0 l0 -460 q0 -104 54 -158.5 q54 -54.5 158 -54.5 q101 0 155.5 54.5 q54.5 54.5 54.5 152.5 l0 466 l57 0 l0 -462 q0 -145 -97 -214 q-35 -37 -59.5 -74 q-24.5 -37 -24.5 -78 Z" /><glyph glyph-name="longs" unicode="&#x17f;" d="M250 716 q-51 0 -78 -33 q-27 -33 -27 -103 l0 -580 l-57 0 l0 581 q0 92 43 138 q43 46 120 46 q25 0 46 -4 q21 -4 39 -10 l-13 -47 q-16 4 -34 8 q-18 4 -39 4 Z" /><glyph glyph-name="florin" unicode="&#x192;" d="M404 724 q27 0 49.5 -5 q22.5 -5 42.5 -11 l-14 -47 q-16 5 -36 9.5 q-20 4.5 -42 4.5 q-52 0 -77 -30.5 q-25 -30.5 -25 -104.5 l0 -78 l138 0 l0 -47 l-136 0 l0 -496 q0 -80 -36.5 -119.5 q-36.5 -39.5 -106.5 -39.5 q-22 0 -38.5 2.5 q-16.5 2.5 -29.5 6.5 l0 49 q16 -4 31.5 -6.5 q15.5 -2.5 33.5 -2.5 q45 0 66.5 26.5 q21.5 26.5 21.5 86.5 l0 493 l-101 0 l0 31 l101 17 l0 78 q0 96 39.5 139.5 q39.5 43.5 118.5 43.5 Z" /><glyph glyph-name="Aringacute" unicode="&#x1fa;" d="M275 826 l0 7 q26 27 54.5 62 q28.5 35 46.5 67 l68 0 l0 -8 q-21 -28 -57.5 -64.5 q-36.5 -36.5 -71.5 -63.5 l-40 0 ZM-4 0 l272 593 q-32 9 -50.5 33.5 q-18.5 24.5 -18.5 64.5 q0 47 30 75 q30 28 77 28 q46 0 76 -28 q30 -28 30 -75 q0 -38 -18 -62.5 q-18 -24.5 -50 -35.5 l267 -593 l-61 0 l-96 212 l-301 0 l-96 -212 l-61 0 ZM305 620 q31 0 50 18.5 q19 18.5 19 51.5 q0 32 -19 50.5 q-19 18.5 -50 18.5 q-31 0 -50 -18.5 q-19 -18.5 -19 -50.5 q0 -33 19 -51.5 q19 -18.5 50 -18.5 ZM174 265 l260 0 l-98 223 q-6 16 -14 37 q-8 21 -16 43 q-8 -22 -16 -43 q-8 -21 -15 -37 l-101 -223 Z" /><glyph glyph-name="aringacute" unicode="&#x1fb;" d="M410 954 l0 -6 q-14 -18 -39 -38.5 q-25 -20.5 -52.5 -41 q-27.5 -20.5 -50.5 -37.5 l-42 0 l0 7 q26 24 55 56.5 q29 32.5 48 59.5 l81 0 ZM276 796 q44 0 74.5 -28.5 q30.5 -28.5 30.5 -73.5 q0 -48 -30.5 -76 q-30.5 -28 -74.5 -28 q-45 0 -75.5 28 q-30.5 28 -30.5 76 q0 46 30.5 74 q30.5 28 75.5 28 ZM276 760 q-28 0 -47.5 -19 q-19.5 -19 -19.5 -47 q0 -29 18 -47.5 q18 -18.5 49 -18.5 q28 0 47 18.5 q19 18.5 19 47.5 q0 28 -19.5 47 q-19.5 19 -46.5 19 ZM276 541 q90 0 134 -44 q44 -44 44 -139 l0 -358 l-43 0 l-11 90 l-2 0 q-28 -45 -70 -72.5 q-42 -27.5 -116 -27.5 q-76 0 -120.5 38 q-44.5 38 -44.5 111 q0 79 64.5 121 q64.5 42 189.5 47 l97 5 l0 37 q0 79 -31.5 111.5 q-31.5 32.5 -92.5 32.5 q-41 0 -79 -10.5 q-38 -10.5 -76 -30.5 l-18 46 q37 19 82 31 q45 12 93 12 ZM398 268 l-90 -4 q-102 -4 -152 -34.5 q-50 -30.5 -50 -91.5 q0 -49 31 -74.5 q31 -25.5 85 -25.5 q83 0 128.5 47 q45.5 47 47.5 132 l0 51 Z" /><glyph glyph-name="circumflex" unicode="&#x2c6;" d="M215 764 q12 -21 33.5 -48.5 q21.5 -27.5 44.5 -54.5 q23 -27 42 -47 l0 -8 l-41 0 q-27 22 -55 51 q-28 29 -52 57 q-24 -28 -52 -57 q-28 -29 -55 -51 l-40 0 l0 8 q18 20 41.5 47 q23.5 27 44.5 54.5 q21 27.5 34 48.5 l55 0 Z" /><glyph glyph-name="caron" unicode="&#x2c7;" d="M158 606 q-12 22 -33 49 q-21 27 -44 54 q-23 27 -41 46 l0 9 l40 0 q27 -22 55.5 -51 q28.5 -29 50.5 -57 q24 28 52.5 57 q28.5 29 55.5 51 l41 0 l0 -9 q-19 -19 -42.5 -46 q-23.5 -27 -45 -54 q-21.5 -27 -33.5 -49 l-56 0 Z" /><glyph glyph-name="macron" unicode="&#x2c9;" d="M316 658 l0 -48 l-276 0 l0 48 l276 0 Z" /><glyph glyph-name="breve" unicode="&#x2d8;" d="M318 729 q-6 -58 -41.5 -90.5 q-35.5 -32.5 -98.5 -32.5 q-64 0 -99 32.5 q-35 32.5 -39 90.5 l40 0 q4 -41 28.5 -58 q24.5 -17 69.5 -17 q44 0 70 17.5 q26 17.5 30 57.5 l40 0 Z" /><glyph glyph-name="dotaccent" unicode="&#x2d9;" d="M78 729 q39 0 39 -43 q0 -44 -39 -44 q-38 0 -38 44 q0 43 38 43 Z" /><glyph glyph-name="ring" unicode="&#x2da;" d="M145 608 q-44 0 -74.5 28 q-30.5 28 -30.5 76 q0 46 30 74 q30 28 75 28 q44 0 74.5 -28.5 q30.5 -28.5 30.5 -73.5 q0 -48 -30.5 -76 q-30.5 -28 -74.5 -28 ZM145 646 q29 0 47.5 18.5 q18.5 18.5 18.5 47.5 q0 28 -19 47 q-19 19 -47 19 q-29 0 -48 -19 q-19 -19 -19 -47 q0 -29 18 -47.5 q18 -18.5 49 -18.5 Z" /><glyph glyph-name="ogonek" unicode="&#x2db;" d="M89 -124 q0 -52 51 -52 q16 0 28 2 q12 2 20 4 l0 -40 q-10 -3 -24 -5.5 q-14 -2.5 -32 -2.5 q-44 0 -68 22 q-24 22 -24 66 q0 39 27.5 76 q27.5 37 68.5 67 l33 -13 q-34 -30 -57 -60 q-23 -30 -23 -64 Z" /><glyph glyph-name="tilde" unicode="&#x2dc;" d="M40 612 q4 54 30 83.5 q26 29.5 70 29.5 q23 0 42.5 -10 q19.5 -10 37 -23 q17.5 -13 34 -23 q16.5 -10 34.5 -10 q22 0 38 14.5 q16 14.5 22 52.5 l38 0 q-4 -54 -31 -84 q-27 -30 -69 -30 q-23 0 -42.5 10 q-19.5 10 -36.5 23 q-17 13 -34 23 q-17 10 -37 10 q-22 0 -37 -14 q-15 -14 -21 -52 l-38 0 Z" /><glyph glyph-name="hungarumlaut" unicode="&#x2dd;" d="M369 766 l0 -8 q-13 -21 -34 -49 q-21 -28 -45 -55.5 q-24 -27.5 -46 -47.5 l-36 0 l0 9 q16 19 34.5 46 q18.5 27 35.5 55 q17 28 28 50 l63 0 ZM201 766 l0 -8 q-13 -21 -34 -49 q-21 -28 -45 -55.5 q-24 -27.5 -46 -47.5 l-36 0 l0 9 q16 19 34.5 46 q18.5 27 35.5 55 q17 28 28 50 l63 0 Z" /><glyph glyph-name="tonos" unicode="&#x384;" d="M258 606 l0 10 q10 25 20 58 q10 33 18 67.5 q8 34.5 12 64.5 l60 0 l0 -10 q-5 -26 -17 -60 q-12 -34 -27.5 -68.5 q-15.5 -34.5 -29.5 -61.5 l-36 0 Z" /><glyph glyph-name="dieresistonos" unicode="&#x385;" d="M370 838 l0 -9 q-12 -33 -34 -77 q-22 -44 -45 -78 l-31 0 l0 9 q14 32 27 76 q13 44 19 79 l64 0 ZM184 720 q35 0 35 -40 q0 -41 -35 -41 q-35 0 -35 41 q0 40 35 40 ZM396 720 q35 0 35 -40 q0 -41 -35 -41 q-35 0 -35 41 q0 40 35 40 Z" /><glyph glyph-name="Gamma" unicode="&#x393;" d="M494 714 l0 -52 l-336 0 l0 -662 l-58 0 l0 714 l394 0 Z" /><glyph glyph-name="uni0394" unicode="&#x394;" d="M315 714 l246 -681 l0 -33 l-549 0 l0 34 l246 680 l57 0 ZM494 52 l-164 457 q-14 39 -25.5 76.5 q-11.5 37.5 -18.5 63.5 q-8 -27 -19 -62 q-11 -35 -24 -73 l-167 -462 l418 0 Z" /><glyph glyph-name="Theta" unicode="&#x398;" d="M705 358 q0 -109 -36 -192 q-36 -83 -107.5 -129.5 q-71.5 -46.5 -177.5 -46.5 q-108 0 -179.5 46.5 q-71.5 46.5 -107 130 q-35.5 83.5 -35.5 192.5 q0 109 36.5 191 q36.5 82 109 128.5 q72.5 46.5 179.5 46.5 q103 0 173.5 -44.5 q70.5 -44.5 107.5 -126.5 q37 -82 37 -196 ZM123 358 q0 -95 28 -166.5 q28 -71.5 86 -111 q58 -39.5 147 -39.5 q90 0 147.5 39.5 q57.5 39.5 85 110.5 q27.5 71 27.5 167 q0 148 -64.5 231.5 q-64.5 83.5 -192.5 83.5 q-89 0 -148 -39.5 q-59 -39.5 -87.5 -110.5 q-28.5 -71 -28.5 -165 ZM544 388 l0 -52 l-321 0 l0 52 l321 0 Z" /><glyph glyph-name="Lambda" unicode="&#x39b;" d="M322 714 l263 -714 l-61 0 l-188 510 q-14 38 -25 73 q-11 35 -19 63 q-8 -28 -19 -61.5 q-11 -33.5 -25 -73.5 l-187 -511 l-61 0 l262 714 l60 0 Z" /><glyph glyph-name="Xi" unicode="&#x39e;" d="M43 662 l0 52 l449 0 l0 -52 l-449 0 ZM83 348 l0 52 l369 0 l0 -52 l-369 0 ZM23 0 l0 52 l489 0 l0 -52 l-489 0 Z" /><glyph glyph-name="Pi" unicode="&#x3a0;" d="M100 0 l0 714 l517 0 l0 -714 l-57 0 l0 662 l-402 0 l0 -662 l-58 0 Z" /><glyph glyph-name="Sigma" unicode="&#x3a3;" d="M31 0 l0 47 l258 325 l-252 295 l0 47 l472 0 l0 -53 l-293 0 q-25 0 -54.5 0 q-29.5 0 -53.5 1 l248 -288 l-257 -322 l439 0 l0 -52 l-507 0 Z" /><glyph glyph-name="Phi" unicode="&#x3a6;" d="M414 724 l0 -88 q154 -2 229 -70 q75 -68 75 -192 q0 -80 -33 -141 q-33 -61 -100.5 -96 q-67.5 -35 -170.5 -37 l0 -110 l-58 0 l0 110 q-104 2 -171 37 q-67 35 -99.5 95.5 q-32.5 60.5 -32.5 138.5 q0 118 72.5 190 q72.5 72 230.5 75 l0 88 l58 0 ZM356 586 q-124 -3 -184 -57.5 q-60 -54.5 -60 -156.5 q0 -108 62.5 -164 q62.5 -56 181.5 -59 l0 437 ZM414 586 l0 -437 q120 3 182 60 q62 57 62 165 q0 105 -58.5 157 q-58.5 52 -185.5 55 Z" /><glyph glyph-name="Psi" unicode="&#x3a8;" d="M706 714 l0 -236 q0 -125 -71 -190.5 q-71 -65.5 -225 -67.5 l0 -220 l-57 0 l0 220 q-156 2 -225.5 68 q-69.5 66 -69.5 190 l0 236 l58 0 l0 -234 q0 -110 56.5 -159 q56.5 -49 180.5 -50 l0 443 l57 0 l0 -443 q124 1 180 50 q56 49 56 159 l0 234 l60 0 Z" /><glyph glyph-name="uni03A9" unicode="&#x3a9;" d="M388 673 q-124 0 -193 -75.5 q-69 -75.5 -69 -204.5 q0 -121 49 -201.5 q49 -80.5 143 -144.5 l0 -47 l-278 0 l0 52 l202 0 q-50 34 -90 82 q-40 48 -63.5 112 q-23.5 64 -23.5 148 q0 100 39.5 174 q39.5 74 112 115.5 q72.5 41.5 171.5 41.5 q100 0 172.5 -39.5 q72.5 -39.5 112 -113.5 q39.5 -74 39.5 -177 q0 -126 -50 -209.5 q-50 -83.5 -126 -133.5 l201 0 l0 -52 l-279 0 l0 47 q99 63 146 145.5 q47 82.5 47 200.5 q0 132 -69.5 206 q-69.5 74 -193.5 74 Z" /><glyph glyph-name="alpha" unicode="&#x3b1;" d="M277 -10 q-104 0 -162 69.5 q-58 69.5 -58 204.5 q0 134 60.5 206 q60.5 72 166.5 72 q125 0 168 -96 l4 0 q2 22 9.5 44.5 q7.5 22.5 16.5 41.5 l46 0 q-9 -33 -14.5 -83.5 q-5.5 -50.5 -5.5 -111.5 l0 -219 q0 -45 12 -62.5 q12 -17.5 34 -17.5 q8 0 17 2 q9 2 16 4 l0 -44 q-7 -4 -20 -7 q-13 -3 -27 -3 q-40 0 -60 23 q-20 23 -26 79 l-4 0 q-21 -42 -61.5 -72 q-40.5 -30 -111.5 -30 ZM284 39 q89 0 128 57.5 q39 57.5 39 163.5 l0 14 q0 112 -38.5 165 q-38.5 53 -124.5 53 q-85 0 -128.5 -59 q-43.5 -59 -43.5 -169 q0 -111 41 -168 q41 -57 127 -57 Z" /><glyph glyph-name="beta" unicode="&#x3b2;" d="M320 765 q98 0 156 -47.5 q58 -47.5 58 -139.5 q0 -70 -36.5 -115.5 q-36.5 -45.5 -104.5 -57.5 l0 -3 q82 -10 126.5 -59 q44.5 -49 44.5 -137 q0 -99 -64 -156 q-64 -57 -176 -57 q-54 0 -96.5 11.5 q-42.5 11.5 -82.5 34.5 l0 -279 l-57 0 l0 778 q0 111 63 169 q63 58 169 58 ZM319 716 q-79 0 -126.5 -44 q-47.5 -44 -47.5 -138 l0 -442 q40 -24 81.5 -37.5 q41.5 -13.5 93.5 -13.5 q92 0 139 44.5 q47 44.5 47 123.5 q0 80 -47 123 q-47 43 -141 43 l-56 0 l0 49 l50 0 q80 0 122 39 q42 39 42 113 q0 68 -41.5 104 q-41.5 36 -115.5 36 Z" /><glyph glyph-name="gamma" unicode="&#x3b3;" d="M478 532 l-194 -504 q-26 -68 -38.5 -139.5 q-12.5 -71.5 -13.5 -128.5 l-60 0 q0 36 6.5 80.5 q6.5 44.5 17 89 q10.5 44.5 23.5 81.5 l-217 521 l60 0 l138 -334 q14 -33 26 -68 q12 -35 20 -62 l2 0 q8 25 20 61.5 q12 36.5 23 66.5 l127 336 l60 0 Z" /><glyph glyph-name="delta" unicode="&#x3b4;" d="M314 764 q56 0 102 -14 q46 -14 90 -36 l-24 -46 q-40 22 -81 35 q-41 13 -89 13 q-56 0 -84.5 -25.5 q-28.5 -25.5 -28.5 -64.5 q0 -30 14.5 -52 q14.5 -22 44.5 -43 q30 -21 78 -47 q57 -32 100.5 -67 q43.5 -35 68 -80.5 q24.5 -45.5 24.5 -108.5 q0 -111 -63 -174.5 q-63 -63.5 -174 -63.5 q-70 0 -123 26.5 q-53 26.5 -83 76 q-30 49.5 -30 119.5 q0 93 55.5 155.5 q55.5 62.5 160.5 94.5 q-62 36 -96.5 71.5 q-34.5 35.5 -34.5 92.5 q0 66 49 102 q49 36 124 36 ZM319 434 q-55 -14 -101.5 -40.5 q-46.5 -26.5 -74.5 -70.5 q-28 -44 -28 -111 q0 -80 48 -126.5 q48 -46.5 129 -46.5 q86 0 132 49.5 q46 49.5 46 139.5 q0 75 -40.5 123 q-40.5 48 -110.5 83 Z" /><glyph glyph-name="epsilon" unicode="&#x3b5;" d="M336 304 l0 -48 l-67 0 q-82 0 -124.5 -27 q-42.5 -27 -42.5 -85 q0 -51 40.5 -78.5 q40.5 -27.5 113.5 -27.5 q50 0 90.5 10.5 q40.5 10.5 75.5 25.5 l0 -50 q-28 -14 -70.5 -24 q-42.5 -10 -98.5 -10 q-106 0 -157 43 q-51 43 -51 109 q0 57 32 90 q32 33 86 47 l0 3 q-51 15 -75 45.5 q-24 30.5 -24 74.5 q0 48 25.5 79 q25.5 31 69 46 q43.5 15 96.5 15 q53 0 91 -9 q38 -9 76 -25 l-20 -47 q-32 14 -68 23 q-36 9 -79 9 q-136 0 -136 -94 q0 -49 41.5 -72 q41.5 -23 119.5 -23 l56 0 Z" /><glyph glyph-name="zeta" unicode="&#x3b6;" d="M439 -59 q0 -37 -16.5 -71 q-16.5 -34 -40.5 -66 l-59 0 q26 33 42.5 66.5 q16.5 33.5 16.5 59.5 q-1 22 -12 36.5 q-11 14.5 -38 24 q-27 9.5 -76 18.5 q-101 16 -150 68 q-49 52 -49 147 q0 71 22 131 q22 60 63 116 q41 56 99 115 q58 59 131 128 q-18 -2 -54 -2.5 q-36 -0.5 -76 -0.5 l-154 0 l0 49 l354 0 l0 -44 q-98 -88 -161 -156 q-63 -68 -99.5 -123.5 q-36.5 -55.5 -51 -106 q-14.5 -50.5 -14.5 -103.5 q0 -57 20 -90.5 q20 -33.5 59.5 -52 q39.5 -18.5 98.5 -29.5 q74 -13 109.5 -37.5 q35.5 -24.5 35.5 -76.5 Z" /><glyph glyph-name="eta" unicode="&#x3b7;" d="M326 542 q91 0 139 -47 q48 -47 48 -147 l0 -588 l-57 0 l0 584 q0 76 -34 112 q-34 36 -102 36 q-176 0 -176 -202 l0 -290 l-56 0 l0 532 l46 0 l8 -92 l4 0 q21 44 66.5 73 q45.5 29 113.5 29 Z" /><glyph glyph-name="theta" unicode="&#x3b8;" d="M520 386 q0 -195 -57 -295.5 q-57 -100.5 -177 -100.5 q-116 0 -173 100 q-57 100 -57 294 q0 189 56.5 287.5 q56.5 98.5 174.5 98.5 q116 0 174.5 -98 q58.5 -98 58.5 -286 ZM287 722 q-166 0 -174 -306 l347 0 q-3 152 -45 229 q-42 77 -128 77 ZM286 38 q88 0 130.5 82 q42.5 82 45.5 246 l-349 0 q2 -164 44 -246 q42 -82 129 -82 Z" /><glyph glyph-name="iota" unicode="&#x3b9;" d="M138 532 l0 -382 q0 -58 22 -85 q22 -27 69 -27 q19 0 38 3 q19 3 31 6 l0 -46 q-12 -5 -33.5 -8 q-21.5 -3 -42.5 -3 q-65 0 -103 34.5 q-38 34.5 -38 121.5 l0 386 l57 0 Z" /><glyph glyph-name="lambda" unicode="&#x3bb;" d="M-6 0 l230 532 l-31 92 q-17 50 -37.5 71.5 q-20.5 21.5 -59.5 21.5 q-15 0 -27.5 -2 q-12.5 -2 -22.5 -5 l0 48 q12 3 26.5 5.5 q14.5 2.5 31.5 2.5 q40 0 66.5 -13.5 q26.5 -13.5 44.5 -44 q18 -30.5 35 -79.5 l188 -539 q10 -28 21.5 -39.5 q11.5 -11.5 27.5 -11.5 q8 0 15.5 1.5 q7.5 1.5 11.5 3.5 l0 -45 q-16 -8 -42 -8 q-32 0 -50.5 17.5 q-18.5 17.5 -31.5 54.5 l-100 288 q-10 30 -21.5 62.5 q-11.5 32.5 -16.5 56.5 l-4 0 q-8 -27 -18.5 -56 q-10.5 -29 -22.5 -57 l-153 -357 l-60 0 Z" /><glyph glyph-name="nu" unicode="&#x3bd;" d="M0 532 l59 0 l139 -376 q9 -22 19.5 -53 q10.5 -31 16.5 -51 l3 0 q97 91 142.5 207.5 q45.5 116.5 45.5 272.5 l57 0 q0 -110 -23 -203 q-23 -93 -72.5 -173.5 q-49.5 -80.5 -128.5 -155.5 l-60 0 l-198 532 Z" /><glyph glyph-name="xi" unicode="&#x3be;" d="M56 208 q0 78 44.5 125.5 q44.5 47.5 107.5 64.5 l0 4 q-56 12 -87 46 q-31 34 -31 95 q0 51 21.5 85 q21.5 34 57 55 q35.5 21 77.5 32 q-14 -1 -44 -2.5 q-30 -1.5 -74 -1.5 l-40 0 l0 49 l331 0 l0 -46 l-30 0 q-44 0 -87 -9.5 q-43 -9.5 -78.5 -30.5 q-35.5 -21 -56.5 -53 q-21 -32 -21 -77 q0 -61 42.5 -90.5 q42.5 -29.5 136.5 -29.5 l75 0 l0 -46 l-76 0 q-94 0 -151 -44 q-57 -44 -57 -122 q0 -54 21.5 -83.5 q21.5 -29.5 61 -45 q39.5 -15.5 93.5 -27.5 q78 -16 111 -41.5 q33 -25.5 33 -73.5 q0 -35 -16 -69.5 q-16 -34.5 -38 -67.5 l-56 0 q26 38 41 69.5 q15 31.5 15 56.5 q0 20 -10 34.5 q-10 14.5 -38 25 q-28 10.5 -82 21.5 q-94 17 -145 63 q-51 46 -51 134 Z" /><glyph glyph-name="pi" unicode="&#x3c0;" d="M540 38 q14 0 24 2.5 q10 2.5 18 5.5 l0 -47 q-8 -3 -22 -6 q-14 -3 -33 -3 q-99 0 -99 115 l0 379 l-252 0 l0 -484 l-56 0 l0 484 l-108 0 l0 30 l79 18 l501 0 l0 -48 l-107 0 l0 -372 q0 -74 55 -74 Z" /><glyph glyph-name="rho" unicode="&#x3c1;" d="M531 267 q0 -133 -60 -205 q-60 -72 -169 -72 q-50 0 -91 14 q-41 14 -69 36 l-4 0 q2 -25 3 -54.5 q1 -29.5 1 -65.5 l0 -160 l-58 0 l0 520 q0 130 59 196 q59 66 167 66 q104 0 162.5 -70 q58.5 -70 58.5 -205 ZM308 492 q-86 0 -126 -55 q-40 -55 -40 -162 l0 -181 q31 -26 72 -40.5 q41 -14.5 88 -14.5 q170 0 170 228 q0 112 -39 168.5 q-39 56.5 -125 56.5 Z" /><glyph glyph-name="sigma1" unicode="&#x3c2;" d="M309 542 q38 0 73 -7 q35 -7 62 -18 l-16 -49 q-27 10 -58 16.5 q-31 6.5 -64 6.5 q-96 0 -143 -59 q-47 -59 -47 -171 q0 -61 16 -101 q16 -40 55 -64.5 q39 -24.5 108 -38.5 q74 -16 108.5 -40.5 q34.5 -24.5 34.5 -74.5 q0 -39 -17.5 -74.5 q-17.5 -35.5 -38.5 -63.5 l-57 0 q25 34 41 67 q16 33 16 61 q0 22 -10.5 36 q-10.5 14 -38 24 q-27.5 10 -77.5 20 q-96 18 -147.5 77 q-51.5 59 -51.5 171 q0 140 67.5 211 q67.5 71 184.5 71 Z" /><glyph glyph-name="sigma" unicode="&#x3c3;" d="M530 249 q0 -77 -27.5 -135 q-27.5 -58 -81 -91 q-53.5 -33 -131.5 -33 q-111 0 -172 70 q-61 70 -61 192 q0 140 73.5 210 q73.5 70 213.5 70 l225 0 l0 -49 l-127 0 q40 -47 64 -103.5 q24 -56.5 24 -130.5 ZM116 252 q0 -62 18.5 -110 q18.5 -48 57.5 -75.5 q39 -27.5 100 -27.5 q90 0 134.5 57.5 q44.5 57.5 44.5 151.5 q0 72 -22.5 129 q-22.5 57 -64.5 106 l-40 0 q-117 0 -172.5 -57.5 q-55.5 -57.5 -55.5 -173.5 Z" /><glyph glyph-name="tau" unicode="&#x3c4;" d="M422 532 l0 -50 l-210 0 l0 -323 q0 -63 25 -92.5 q25 -29.5 78 -29.5 q20 0 42.5 3.5 q22.5 3.5 38.5 8.5 l0 -45 q-15 -6 -39 -10 q-24 -4 -50 -4 q-71 0 -111.5 38 q-40.5 38 -40.5 124 l0 330 l-145 0 l0 32 l73 18 l339 0 Z" /><glyph glyph-name="upsilon" unicode="&#x3c5;" d="M296 -10 q-116 0 -166 66 q-50 66 -50 181 l0 295 l58 0 l0 -292 q0 -202 163 -202 q177 0 177 256 q0 64 -7 122 q-7 58 -23 116 l58 0 q15 -58 22.5 -115 q7.5 -57 7.5 -125 q0 -302 -240 -302 Z" /><glyph glyph-name="phi" unicode="&#x3c6;" d="M158 538 l45 -30 q-41 -50 -65 -106.5 q-24 -56.5 -24 -131.5 q0 -113 52.5 -169.5 q52.5 -56.5 144.5 -62.5 l0 327 q0 86 36 131.5 q36 45.5 105 45.5 q86 0 132 -70.5 q46 -70.5 46 -187.5 q0 -90 -33.5 -154.5 q-33.5 -64.5 -92.5 -100 q-59 -35.5 -136 -39.5 l0 -230 l-57 0 l0 230 q-121 6 -187.5 76 q-66.5 70 -66.5 204 q0 83 28 148.5 q28 65.5 73 119.5 ZM453 493 q-86 0 -86 -127 l0 -328 q93 5 149 69 q56 64 56 175 q0 99 -32 155 q-32 56 -87 56 Z" /><glyph glyph-name="chi" unicode="&#x3c7;" d="M72 538 q38 0 58.5 -24 q20.5 -24 37.5 -69 l92 -231 l164 318 l62 0 l-200 -373 l102 -259 q20 -50 37 -71 q17 -21 49 -21 q12 0 21.5 1.5 q9.5 1.5 17.5 3.5 l0 -46 q-9 -2 -21 -4.5 q-12 -2.5 -28 -2.5 q-52 0 -78 29.5 q-26 29.5 -48 86.5 l-90 232 l-182 -348 l-61 0 l215 405 l-100 257 q-14 34 -28.5 51 q-14.5 17 -35.5 17 q-20 0 -36 -6 l0 46 q9 3 22 5.5 q13 2.5 30 2.5 Z" /><glyph glyph-name="psi" unicode="&#x3c8;" d="M394 759 l0 -717 q106 6 160 69.5 q54 63.5 54 180.5 q0 67 -8 122.5 q-8 55.5 -24 117.5 l57 0 q16 -59 24 -115.5 q8 -56.5 8 -123.5 q0 -143 -70.5 -218 q-70.5 -75 -200.5 -82 l0 -233 l-56 0 l0 233 q-124 5 -191 72.5 q-67 67.5 -67 202.5 l0 264 l56 0 l0 -264 q0 -112 53 -167 q53 -55 149 -59 l0 717 l56 0 Z" /><glyph glyph-name="omega" unicode="&#x3c9;" d="M625 532 q30 -67 45.5 -132.5 q15.5 -65.5 15.5 -143.5 q0 -74 -18 -134.5 q-18 -60.5 -57.5 -96 q-39.5 -35.5 -102.5 -35.5 q-56 0 -88.5 25.5 q-32.5 25.5 -46.5 70.5 l-3 0 q-14 -45 -48 -70.5 q-34 -25.5 -87 -25.5 q-85 0 -131.5 69.5 q-46.5 69.5 -46.5 196.5 q0 80 15.5 144 q15.5 64 45.5 132 l59 0 q-31 -69 -47 -134 q-16 -65 -16 -143 q0 -108 33 -162 q33 -54 93 -54 q52 0 78 38 q26 38 26 105 l0 159 l56 0 l0 -159 q0 -69 26 -106 q26 -37 78 -37 q62 0 93.5 56 q31.5 56 31.5 160 q0 77 -15.5 142.5 q-15.5 65.5 -47.5 134.5 l59 0 Z" /><glyph glyph-name="afii10051" unicode="&#x402;" d="M454 -10 q-48 0 -70 9 l0 53 q27 -10 68 -10 q50 0 82 32.5 q32 32.5 32 101.5 l0 71 q0 68 -32 100 q-32 32 -108 32 l-198 0 l0 -379 l-58 0 l0 662 l-164 0 l0 52 l467 0 l0 -52 l-245 0 l0 -231 l206 0 q190 0 190 -177 l0 -76 q0 -89 -46 -138.5 q-46 -49.5 -124 -49.5 Z" /><glyph glyph-name="afii10053" unicode="&#x404;" d="M406 672 q-126 0 -199.5 -75 q-73.5 -75 -82.5 -202 l374 0 l0 -51 l-375 0 q3 -140 71 -221 q68 -81 202 -81 q54 0 98.5 8 q44.5 8 83.5 20 l0 -50 q-37 -14 -83.5 -22 q-46.5 -8 -104.5 -8 q-111 0 -183.5 46 q-72.5 46 -108.5 129 q-36 83 -36 194 q0 107 40.5 189.5 q40.5 82.5 117.5 129 q77 46.5 187 46.5 q56 0 103.5 -10 q47.5 -10 87.5 -30 l-23 -51 q-39 20 -81 29.5 q-42 9.5 -88 9.5 Z" /><glyph glyph-name="afii10058" unicode="&#x409;" d="M56 -11 q-17 0 -31.5 2.5 q-14.5 2.5 -26.5 7.5 l0 51 q12 -5 25 -8 q13 -3 29 -3 q33 0 53 25.5 q20 25.5 32.5 69.5 q12.5 44 22.5 97 q12 67 24 148.5 q12 81.5 23 167 q11 85.5 21 167.5 l302 0 l0 -312 l100 0 q132 0 194 -49 q62 -49 62 -147 q0 -98 -61 -152 q-61 -54 -182 -54 l-171 0 l0 662 l-194 0 q-8 -69 -18 -148 q-10 -79 -22 -156.5 q-12 -77.5 -24 -141.5 q-13 -68 -31 -119.5 q-18 -51.5 -47.5 -79.5 q-29.5 -28 -79.5 -28 ZM530 51 l104 0 q98 0 145 37.5 q47 37.5 47 117.5 q0 84 -52.5 114.5 q-52.5 30.5 -151.5 30.5 l-92 0 l0 -300 Z" /><glyph glyph-name="afii10059" unicode="&#x40a;" d="M100 0 l0 714 l58 0 l0 -312 l340 0 l0 312 l58 0 l0 -312 l100 0 q132 0 193.5 -49 q61.5 -49 61.5 -147 q0 -98 -60.5 -152 q-60.5 -54 -181.5 -54 l-171 0 l0 350 l-340 0 l0 -350 l-58 0 ZM556 51 l104 0 q98 0 144.5 37.5 q46.5 37.5 46.5 117.5 q0 84 -52.5 114.5 q-52.5 30.5 -150.5 30.5 l-92 0 l0 -300 Z" /><glyph glyph-name="afii10060" unicode="&#x40b;" d="M489 714 l0 -52 l-261 0 l0 -232 l215 0 q91 0 136 -42 q45 -42 45 -134 l0 -254 l-58 0 l0 248 q0 69 -29.5 99.5 q-29.5 30.5 -100.5 30.5 l-208 0 l0 -378 l-58 0 l0 662 l-164 0 l0 52 l483 0 Z" /><glyph glyph-name="afii10145" unicode="&#x40f;" d="M616 0 l-229 0 l0 -182 l-59 0 l0 182 l-228 0 l0 714 l58 0 l0 -662 l401 0 l0 662 l57 0 l0 -714 Z" /><glyph glyph-name="afii10018" unicode="&#x411;" d="M100 0 l0 714 l404 0 l0 -52 l-346 0 l0 -260 l128 0 q134 0 193 -48.5 q59 -48.5 59 -147.5 q0 -100 -58.5 -153 q-58.5 -53 -181.5 -53 l-198 0 ZM158 51 l132 0 q99 0 143.5 37.5 q44.5 37.5 44.5 117.5 q0 84 -50 114.5 q-50 30.5 -150 30.5 l-120 0 l0 -300 Z" /><glyph glyph-name="afii10021" unicode="&#x414;" d="M556 714 l0 -662 l76 0 l0 -234 l-56 0 l0 182 l-513 0 l0 -182 l-56 0 l0 234 l52 0 q37 64 69.5 145 q32.5 81 57.5 170 q25 89 40.5 178 q15.5 89 18.5 169 l311 0 ZM498 661 l-201 0 q-4 -69 -19.5 -150 q-15.5 -81 -39 -164 q-23.5 -83 -53.5 -159 q-30 -76 -64 -136 l377 0 l0 609 Z" /><glyph glyph-name="afii10024" unicode="&#x416;" d="M306 366 l-288 348 l67 0 l284 -346 l0 346 l56 0 l0 -346 l285 346 l66 0 l-288 -348 l300 -366 l-68 0 l-295 362 l0 -362 l-56 0 l0 362 l-295 -362 l-68 0 l300 366 Z" /><glyph glyph-name="afii10025" unicode="&#x417;" d="M496 546 q0 -75 -41.5 -116.5 q-41.5 -41.5 -108.5 -54.5 l0 -3 q80 -14 122 -57 q42 -43 42 -117 q0 -94 -67.5 -151 q-67.5 -57 -196.5 -57 q-60 0 -113 10.5 q-53 10.5 -93 31.5 l0 55 q42 -23 97 -35.5 q55 -12.5 108 -12.5 q99 0 151.5 42 q52.5 42 52.5 117 q0 76 -56.5 112 q-56.5 36 -164.5 36 l-106 0 l0 50 l108 0 q104 0 155 38.5 q51 38.5 51 106.5 q0 63 -44 98 q-44 35 -118 35 q-66 0 -111 -18 q-45 -18 -88 -47 l-29 41 q43 32 99 53 q56 21 130 21 q105 0 163 -49 q58 -49 58 -129 Z" /><glyph glyph-name="afii10026" unicode="&#x418;" d="M100 714 l56 0 l0 -486 q0 -38 -1 -77 q-1 -39 -3 -64 l2 0 l416 627 l60 0 l0 -714 l-54 0 l0 478 q0 43 1 84.5 q1 41.5 3 65.5 l-3 0 l-415 -628 l-62 0 l0 714 Z" /><glyph glyph-name="afii10028" unicode="&#x41a;" d="M578 0 l-73 0 l-347 364 l0 -364 l-58 0 l0 714 l58 0 l0 -346 l338 346 l70 0 l-337 -347 l349 -367 Z" /><glyph glyph-name="afii10029" unicode="&#x41b;" d="M586 0 l-58 0 l0 662 l-252 0 q-8 -69 -17.5 -148 q-9.5 -79 -21 -156.5 q-11.5 -77.5 -23.5 -141.5 q-13 -68 -31 -119.5 q-18 -51.5 -47.5 -79.5 q-29.5 -28 -79.5 -28 q-17 0 -32 2.5 q-15 2.5 -26 7.5 l0 51 q12 -5 25 -8 q13 -3 29 -3 q33 0 53 26 q20 26 32.5 69.5 q12.5 43.5 22.5 95.5 q12 67 24 148.5 q12 81.5 23 167.5 q11 86 21 168 l358 0 l0 -714 Z" /><glyph glyph-name="afii10037" unicode="&#x423;" d="M594 714 l-246 -543 q-26 -56 -53.5 -97 q-27.5 -41 -66 -62.5 q-38.5 -21.5 -97.5 -21.5 q-29 0 -51 4.5 q-22 4.5 -38 10.5 l0 58 q38 -19 86 -19 q62 0 95.5 34.5 q33.5 34.5 63.5 102.5 l-278 533 l64 0 l217 -420 q8 -15 14 -29.5 q6 -14.5 14 -31.5 l2 0 q4 14 11 29.5 q7 15.5 13 29.5 l188 422 l62 0 Z" /><glyph glyph-name="afii10040" unicode="&#x426;" d="M695 52 l0 -234 l-55 0 l0 182 l-540 0 l0 714 l58 0 l0 -662 l402 0 l0 662 l57 0 l0 -662 l78 0 Z" /><glyph glyph-name="afii10041" unicode="&#x427;" d="M575 0 l-58 0 l0 306 q-53 -21 -105 -34.5 q-52 -13.5 -119 -13.5 q-103 0 -154.5 46 q-51.5 46 -51.5 132 l0 278 l58 0 l0 -269 q0 -66 35.5 -100.5 q35.5 -34.5 117.5 -34.5 q63 0 113.5 12 q50.5 12 105.5 34 l0 358 l58 0 l0 -714 Z" /><glyph glyph-name="afii10042" unicode="&#x428;" d="M912 0 l-812 0 l0 714 l58 0 l0 -662 l318 0 l0 662 l58 0 l0 -662 l320 0 l0 662 l58 0 l0 -714 Z" /><glyph glyph-name="afii10043" unicode="&#x429;" d="M987 52 l0 -234 l-56 0 l0 182 l-831 0 l0 714 l58 0 l0 -662 l315 0 l0 662 l59 0 l0 -662 l315 0 l0 662 l58 0 l0 -662 l82 0 Z" /><glyph glyph-name="afii10044" unicode="&#x42a;" d="M174 0 l0 662 l-169 0 l0 52 l226 0 l0 -312 l131 0 q129 0 189.5 -49 q60.5 -49 60.5 -147 q0 -98 -60 -152 q-60 -54 -178 -54 l-200 0 ZM231 51 l135 0 q94 0 140 37.5 q46 37.5 46 117.5 q0 84 -51 114.5 q-51 30.5 -147 30.5 l-123 0 l0 -300 Z" /><glyph glyph-name="afii10045" unicode="&#x42b;" d="M100 0 l0 714 l58 0 l0 -312 l130 0 q128 0 188 -49 q60 -49 60 -147 q0 -98 -59 -152 q-59 -54 -178 -54 l-199 0 ZM639 0 l0 714 l58 0 l0 -714 l-58 0 ZM158 50 l134 0 q94 0 139 38 q45 38 45 118 q0 84 -50.5 114 q-50.5 30 -145.5 30 l-122 0 l0 -300 Z" /><glyph glyph-name="afii10046" unicode="&#x42c;" d="M100 0 l0 714 l58 0 l0 -312 l142 0 q128 0 190 -49 q62 -49 62 -147 q0 -98 -61 -152 q-61 -54 -180 -54 l-211 0 ZM158 51 l145 0 q95 0 142 37.5 q47 37.5 47 117.5 q0 84 -53 114.5 q-53 30.5 -147 30.5 l-134 0 l0 -300 Z" /><glyph glyph-name="afii10047" unicode="&#x42d;" d="M230 672 q-46 0 -90.5 -10 q-44.5 -10 -82.5 -28 l-23 50 q40 20 91.5 30 q51.5 10 104.5 10 q111 0 184 -44 q73 -44 109 -124.5 q36 -80.5 36 -189.5 q0 -114 -39 -198.5 q-39 -84.5 -114.5 -131 q-75.5 -46.5 -186.5 -46.5 q-61 0 -105 8 q-44 8 -82 21 l0 52 q39 -12 83.5 -20.5 q44.5 -8.5 96.5 -8.5 q138 0 210.5 81.5 q72.5 81.5 75.5 222.5 l-374 0 l0 52 l374 0 q-7 128 -75.5 201 q-68.5 73 -192.5 73 Z" /><glyph glyph-name="afii10048" unicode="&#x42e;" d="M970 358 q0 -108 -33.5 -191 q-33.5 -83 -102 -130 q-68.5 -47 -172.5 -47 q-102 0 -169.5 45.5 q-67.5 45.5 -102 126 q-34.5 80.5 -36.5 186.5 l-196 0 l0 -348 l-58 0 l0 714 l58 0 l0 -314 l196 0 q5 97 41 170 q36 73 103 114 q67 41 164 41 q102 0 170.5 -46 q68.5 -46 103 -128.5 q34.5 -82.5 34.5 -192.5 ZM414 365 q0 -97 26 -169.5 q26 -72.5 81 -113.5 q55 -41 141 -41 q86 0 141 40 q55 40 81 111.5 q26 71.5 26 165.5 q0 94 -26 164.5 q-26 70.5 -80.5 110.5 q-54.5 40 -141.5 40 q-85 0 -140 -38.5 q-55 -38.5 -81.5 -107.5 q-26.5 -69 -26.5 -162 Z" /><glyph glyph-name="afii10049" unicode="&#x42f;" d="M281 308 l-188 -308 l-69 0 l198 318 q-43 11 -78 33 q-35 22 -55.5 61 q-20.5 39 -20.5 100 q0 102 67 152 q67 50 194 50 l179 0 l0 -714 l-58 0 l0 308 l-169 0 ZM450 663 l-118 0 q-100 0 -152 -35.5 q-52 -35.5 -52 -117.5 q0 -76 48 -114 q48 -38 140 -38 l134 0 l0 305 Z" /><glyph glyph-name="afii10066" unicode="&#x431;" d="M58 320 q0 154 39.5 245 q39.5 91 119.5 125 q55 29 126 46 q71 17 159 28 l10 -51 q-92 -11 -163 -28 q-71 -17 -114 -41 q-51 -26 -81 -88.5 q-30 -62.5 -35 -168.5 l4 0 q26 45 76 76.5 q50 31.5 118 31.5 q101 0 153.5 -63.5 q52.5 -63.5 52.5 -177.5 q0 -122 -59.5 -193 q-59.5 -71 -171.5 -71 q-80 0 -132 42.5 q-52 42.5 -77 117 q-25 74.5 -25 170.5 ZM296 39 q84 0 125.5 55 q41.5 55 41.5 156 q0 95 -38.5 145.5 q-38.5 50.5 -114.5 50.5 q-68 0 -116.5 -37 q-48.5 -37 -76.5 -87 q0 -53 8 -103.5 q8 -50.5 28 -91 q20 -40.5 54.5 -64.5 q34.5 -24 88.5 -24 Z" /><glyph glyph-name="afii10067" unicode="&#x432;" d="M492 402 q0 -51 -27 -79.5 q-27 -28.5 -71 -38.5 l0 -4 q52 -8 85 -39 q33 -31 33 -89 q0 -69 -47 -110.5 q-47 -41.5 -149 -41.5 l-228 0 l0 532 l222 0 q88 0 135 -32.5 q47 -32.5 47 -97.5 ZM434 396 q0 41 -29.5 64 q-29.5 23 -98.5 23 l-161 0 l0 -179 l153 0 q70 0 103 23 q33 23 33 69 ZM453 152 q0 55 -37.5 79 q-37.5 24 -111.5 24 l-159 0 l0 -207 l161 0 q74 0 110.5 25 q36.5 25 36.5 79 Z" /><glyph glyph-name="afii10068" unicode="&#x433;" d="M403 532 l0 -50 l-258 0 l0 -482 l-57 0 l0 532 l315 0 Z" /><glyph glyph-name="afii10069" unicode="&#x434;" d="M458 532 l0 -483 l72 0 l0 -230 l-56 0 l0 181 l-399 0 l0 -181 l-55 0 l0 230 l37 0 q67 94 102 218 q35 124 37 265 l262 0 ZM402 485 l-155 0 q-6 -126 -38.5 -238.5 q-32.5 -112.5 -90.5 -197.5 l284 0 l0 436 Z" /><glyph glyph-name="afii10072" unicode="&#x436;" d="M658 532 l-230 -260 l248 -272 l-68 0 l-241 270 l0 -270 l-54 0 l0 270 l-241 -270 l-67 0 l247 272 l-230 260 l65 0 l226 -258 l0 258 l54 0 l0 -258 l226 258 l65 0 Z" /><glyph glyph-name="afii10073" unicode="&#x437;" d="M213 542 q84 0 131.5 -36 q47.5 -36 47.5 -102 q0 -46 -25.5 -76 q-25.5 -30 -70.5 -42 l0 -4 q54 -12 84 -45.5 q30 -33.5 30 -87.5 q0 -73 -54.5 -116 q-54.5 -43 -153.5 -43 q-54 0 -98 9.5 q-44 9.5 -72 25.5 l0 54 q35 -18 77.5 -29.5 q42.5 -11.5 92.5 -11.5 q65 0 108.5 28 q43.5 28 43.5 86 q0 56 -40 80 q-40 24 -118 24 l-71 0 l0 48 l65 0 q66 0 106 23 q40 23 40 73 q0 93 -126 93 q-44 0 -77.5 -9.5 q-33.5 -9.5 -70.5 -26.5 l-20 47 q38 18 80 28 q42 10 91 10 Z" /><glyph glyph-name="afii10074" unicode="&#x438;" d="M142 532 l0 -371 q0 -22 -1 -49.5 q-1 -27.5 -2 -49.5 l311 470 l70 0 l0 -532 l-54 0 l0 371 q0 22 0.5 51 q0.5 29 1.5 49 l-311 -471 l-69 0 l0 532 l54 0 Z" /><glyph glyph-name="afii10076" unicode="&#x43a;" d="M382 532 l66 0 l-239 -258 l253 -274 l-68 0 l-249 270 l0 -270 l-57 0 l0 532 l57 0 l0 -258 l237 258 Z" /><glyph glyph-name="afii10077" unicode="&#x43b;" d="M464 0 l-58 0 l0 483 l-180 0 q-12 -168 -32 -276 q-20 -108 -55 -160 q-35 -52 -94 -52 q-13 0 -23 1.5 q-10 1.5 -16 2.5 l0 46 q9 -4 30 -4 q61 0 92.5 119.5 q31.5 119.5 47.5 371.5 l288 0 l0 -532 Z" /><glyph glyph-name="afii10078" unicode="&#x43c;" d="M616 532 l0 -532 l-52 0 l0 374 q0 21 0 41.5 q0 20.5 2 42.5 l-2 0 l-189 -458 l-49 0 l-187 458 l-3 0 q2 -22 2 -42.5 q0 -20.5 0 -44.5 l0 -371 l-52 0 l0 532 l78 0 l186 -462 l190 462 l76 0 Z" /><glyph glyph-name="afii10079" unicode="&#x43d;" d="M145 532 l0 -231 l326 0 l0 231 l57 0 l0 -532 l-57 0 l0 252 l-326 0 l0 -252 l-57 0 l0 532 l57 0 Z" /><glyph glyph-name="afii10081" unicode="&#x43f;" d="M517 532 l0 -532 l-57 0 l0 482 l-315 0 l0 -482 l-57 0 l0 532 l429 0 Z" /><glyph glyph-name="afii10084" unicode="&#x442;" d="M432 482 l-178 0 l0 -482 l-57 0 l0 482 l-177 0 l0 50 l412 0 l0 -50 Z" /><glyph glyph-name="afii10086" unicode="&#x444;" d="M368 760 l0 -220 q119 -8 187.5 -80 q68.5 -72 68.5 -194 q0 -117 -67 -191.5 q-67 -74.5 -189 -82.5 l0 -232 l-56 0 l0 232 q-119 7 -187.5 79.5 q-68.5 72.5 -68.5 194.5 q0 122 67.5 194 q67.5 72 190.5 80 l0 220 l54 0 ZM314 491 q-100 -7 -149.5 -66 q-49.5 -59 -49.5 -159 q0 -102 50 -161 q50 -59 149 -65 l0 451 ZM368 490 l0 -450 q98 8 147.5 68 q49.5 60 49.5 158 q0 101 -49.5 159 q-49.5 58 -147.5 65 Z" /><glyph glyph-name="afii10088" unicode="&#x446;" d="M581 -181 l-56 0 l0 181 l-437 0 l0 532 l57 0 l0 -483 l307 0 l0 483 l57 0 l0 -483 l72 0 l0 -230 Z" /><glyph glyph-name="afii10089" unicode="&#x447;" d="M136 532 l0 -182 q0 -63 32 -91.5 q32 -28.5 93 -28.5 q53 0 96.5 17 q43.5 17 84.5 45 l0 240 l56 0 l0 -532 l-56 0 l0 244 q-44 -30 -88 -46.5 q-44 -16.5 -103 -16.5 q-85 0 -128.5 43.5 q-43.5 43.5 -43.5 119.5 l0 188 l57 0 Z" /><glyph glyph-name="afii10090" unicode="&#x448;" d="M772 532 l0 -532 l-685 0 l0 532 l57 0 l0 -483 l257 0 l0 483 l57 0 l0 -483 l258 0 l0 483 l56 0 Z" /><glyph glyph-name="afii10091" unicode="&#x449;" d="M772 532 l0 -483 l73 0 l0 -230 l-57 0 l0 181 l-701 0 l0 532 l57 0 l0 -483 l257 0 l0 483 l57 0 l0 -483 l258 0 l0 483 l56 0 Z" /><glyph glyph-name="afii10092" unicode="&#x44a;" d="M240 532 l0 -223 l177 0 q98 0 145 -39.5 q47 -39.5 47 -109.5 q0 -75 -47.5 -117.5 q-47.5 -42.5 -151.5 -42.5 l-228 0 l0 482 l-162 0 l0 50 l220 0 ZM414 260 l-174 0 l0 -212 l168 0 q144 0 144 110 q0 102 -138 102 Z" /><glyph glyph-name="afii10093" unicode="&#x44b;" d="M88 0 l0 532 l57 0 l0 -223 l173 0 q96 0 141 -39.5 q45 -39.5 45 -109.5 q0 -75 -47 -117.5 q-47 -42.5 -148 -42.5 l-221 0 ZM589 0 l0 532 l57 0 l0 -532 l-57 0 ZM145 48 l158 0 q143 0 143 110 q0 102 -136 102 l-165 0 l0 -212 Z" /><glyph glyph-name="afii10094" unicode="&#x44c;" d="M145 309 l183 0 q96 0 142 -39.5 q46 -39.5 46 -109.5 q0 -75 -48 -117.5 q-48 -42.5 -149 -42.5 l-231 0 l0 532 l57 0 l0 -223 ZM458 158 q0 102 -137 102 l-176 0 l0 -212 l170 0 q143 0 143 110 Z" /><glyph glyph-name="afii10095" unicode="&#x44d;" d="M179 -10 q-43 0 -76 7 q-33 7 -60 20 l0 51 q29 -12 63 -20 q34 -8 74 -8 q96 0 146 56 q50 56 56 154 l-298 0 l0 48 l297 0 q-4 94 -51 144 q-47 50 -140 50 q-28 0 -63 -7 q-35 -7 -63 -19 l-14 48 q28 13 65.5 20.5 q37.5 7.5 75.5 7.5 q117 0 183.5 -66 q66.5 -66 66.5 -205 q0 -130 -67.5 -205.5 q-67.5 -75.5 -194.5 -75.5 Z" /><glyph glyph-name="afii10096" unicode="&#x44e;" d="M748 266 q0 -82 -25 -144 q-25 -62 -74.5 -97 q-49.5 -35 -122.5 -35 q-104 0 -159 71 q-55 71 -59 191 l-164 0 l0 -252 l-57 0 l0 532 l57 0 l0 -230 l164 0 q5 69 31 123.5 q26 54.5 73.5 85.5 q47.5 31 116.5 31 q73 0 121.5 -35.5 q48.5 -35.5 73 -98 q24.5 -62.5 24.5 -142.5 ZM366 266 q0 -66 16.5 -117.5 q16.5 -51.5 52 -80.5 q35.5 -29 93.5 -29 q85 0 123.5 62.5 q38.5 62.5 38.5 164.5 q0 102 -38 164 q-38 62 -124 62 q-86 0 -124 -62.5 q-38 -62.5 -38 -163.5 Z" /><glyph glyph-name="afii10097" unicode="&#x44f;" d="M86 0 l-67 0 l159 228 q-62 9 -98.5 44.5 q-36.5 35.5 -36.5 103.5 q0 78 50 117 q50 39 131 39 l222 0 l0 -532 l-56 0 l0 222 l-154 0 l-150 -222 ZM99 376 q0 -106 136 -106 l155 0 l0 213 l-160 0 q-66 0 -98.5 -28.5 q-32.5 -28.5 -32.5 -78.5 Z" /><glyph glyph-name="afii10099" unicode="&#x452;" d="M392 -240 q-21 0 -36.5 3 q-15.5 3 -27.5 8 l0 49 q14 -6 28 -8 q14 -2 30 -2 q33 0 51.5 22 q18.5 22 18.5 68 l0 434 q0 76 -34.5 112 q-34.5 36 -101.5 36 q-175 0 -175 -202 l0 -280 l-57 0 l0 618 l-75 0 l0 44 l75 0 l0 98 l56 0 l0 -98 l218 0 l0 -44 l-218 0 l0 -112 q0 -20 -0.5 -38 q-0.5 -18 -1.5 -38 l3 0 q20 44 66.5 73 q46.5 29 114.5 29 q92 0 140 -47 q48 -47 48 -147 l0 -438 q0 -68 -33 -104 q-33 -36 -89 -36 Z" /><glyph glyph-name="afii10101" unicode="&#x454;" d="M306 -10 q-118 0 -183.5 71 q-65.5 71 -65.5 202 q0 91 32.5 153 q32.5 62 91 94 q58.5 32 135.5 32 q38 0 73 -7 q35 -7 63 -19 l-16 -49 q-28 12 -60 18.5 q-32 6.5 -61 6.5 q-89 0 -140 -51 q-51 -51 -59 -143 l298 0 l0 -48 l-299 0 q3 -96 49 -153 q46 -57 141 -57 q41 0 76 8 q35 8 65 20 l0 -50 q-27 -13 -61.5 -20.5 q-34.5 -7.5 -78.5 -7.5 Z" /><glyph glyph-name="afii10106" unicode="&#x459;" d="M436 532 l0 -223 l151 0 q96 0 141.5 -39.5 q45.5 -39.5 45.5 -109.5 q0 -75 -48 -117.5 q-48 -42.5 -151 -42.5 l-196 0 l0 482 l-153 0 q-13 -168 -33 -276 q-20 -108 -55 -159.5 q-35 -51.5 -93 -51.5 q-13 0 -23 1.5 q-10 1.5 -16 2.5 l0 45 q9 -3 29 -3 q61 0 93 119.5 q32 119.5 48 371.5 l260 0 ZM577 260 l-141 0 l0 -212 l136 0 q144 0 144 110 q0 102 -139 102 Z" /><glyph glyph-name="afii10107" unicode="&#x45a;" d="M496 532 l0 -224 l156 0 q98 0 143 -39 q45 -39 45 -109 q0 -75 -47 -117.5 q-47 -42.5 -151 -42.5 l-204 0 l0 258 l-292 0 l0 -258 l-58 0 l0 532 l58 0 l0 -224 l293 0 l0 224 l57 0 ZM644 260 l-148 0 l0 -212 l142 0 q145 0 145 110 q0 102 -139 102 Z" /><glyph glyph-name="afii10193" unicode="&#x45f;" d="M276 0 l-188 0 l0 532 l57 0 l0 -483 l316 0 l0 483 l57 0 l0 -532 l-186 0 l0 -181 l-56 0 l0 181 Z" /><glyph glyph-name="afii10050" unicode="&#x490;" d="M495 861 l0 -199 l-337 0 l0 -662 l-58 0 l0 714 l340 0 l0 147 l55 0 Z" /><glyph glyph-name="afii10098" unicode="&#x491;" d="M404 692 l0 -206 l-259 0 l0 -486 l-57 0 l0 532 l260 0 l0 160 l56 0 Z" /><glyph glyph-name="endash" unicode="&#x2013;" d="M40 244 l0 52 l420 0 l0 -52 l-420 0 Z" /><glyph glyph-name="emdash" unicode="&#x2014;" d="M40 244 l0 52 l920 0 l0 -52 l-920 0 Z" /><glyph glyph-name="underscoredbl" unicode="&#x2017;" d="M403 -103 l-405 0 l0 44 l405 0 l0 -44 ZM403 -212 l-405 0 l0 44 l405 0 l0 -44 Z" /><glyph glyph-name="quoteleft" unicode="&#x2018;" d="M23 469 l-6 10 q11 57 33 120 q22 63 46 115 l41 0 q-13 -36 -24 -79.5 q-11 -43.5 -20 -87 q-9 -43.5 -13 -78.5 l-57 0 Z" /><glyph glyph-name="quoteright" unicode="&#x2019;" d="M127 714 l7 -10 q-11 -57 -33 -119.5 q-22 -62.5 -46 -115.5 l-41 0 q12 37 23.5 80 q11.5 43 20 86 q8.5 43 12.5 79 l57 0 Z" /><glyph glyph-name="quotereversed" unicode="&#x201b;" d="M80 714 q4 -36 12.5 -79 q8.5 -43 20 -86 q11.5 -43 23.5 -80 l-40 0 q-25 53 -47 115.5 q-22 62.5 -33 119.5 l6 10 l58 0 Z" /><glyph glyph-name="quotedblleft" unicode="&#x201c;" d="M298 714 q-12 -37 -23.5 -80.5 q-11.5 -43.5 -20 -86.5 q-8.5 -43 -13.5 -78 l-57 0 l-6 10 q10 57 32 120 q22 63 47 115 l41 0 ZM136 714 q-12 -37 -23.5 -80.5 q-11.5 -43.5 -20 -86.5 q-8.5 -43 -12.5 -78 l-57 0 l-6 10 q11 57 33 120 q22 63 46 115 l40 0 Z" /><glyph glyph-name="quotedblright" unicode="&#x201d;" d="M288 714 l7 -10 q-11 -57 -33 -119.5 q-22 -62.5 -46 -115.5 l-42 0 q13 37 24.5 80 q11.5 43 20.5 86 q9 43 13 79 l56 0 ZM127 714 l7 -10 q-12 -57 -34 -119.5 q-22 -62.5 -46 -115.5 l-40 0 q12 37 23.5 80 q11.5 43 20 86 q8.5 43 12.5 79 l57 0 Z" /><glyph glyph-name="dagger" unicode="&#x2020;" d="M432 510 l-172 8 l14 -518 l-63 0 l14 518 l-167 -8 l0 56 l167 -10 l-14 204 l63 0 l-14 -204 l172 10 l0 -56 Z" /><glyph glyph-name="daggerdbl" unicode="&#x2021;" d="M262 232 l172 8 l0 -54 l-172 8 l14 -194 l-64 0 l14 194 l-170 -8 l0 54 l170 -8 l-12 152 l12 144 l-170 -8 l0 54 l170 -8 l-14 194 l64 0 l-14 -194 l172 8 l0 -54 l-172 8 l12 -144 l-12 -152 Z" /><glyph glyph-name="bullet" unicode="&#x2022;" d="M106 365 q0 49 22 72 q22 23 60 23 q38 0 60 -24 q22 -24 22 -71 q0 -46 -22 -70.5 q-22 -24.5 -60 -24.5 q-38 0 -60 24 q-22 24 -22 71 Z" /><glyph glyph-name="perthousand" unicode="&#x2030;" d="M196 724 q71 0 107 -58 q36 -58 36 -165 q0 -109 -36.5 -167 q-36.5 -58 -107.5 -58 q-68 0 -104.5 58 q-36.5 58 -36.5 167 q0 109 36 166 q36 57 106 57 ZM630 714 l-396 -714 l-52 0 l396 714 l52 0 ZM196 680 q-92 0 -92 -179 q0 -181 91 -181 q94 0 94 181 q0 88 -22.5 133.5 q-22.5 45.5 -70.5 45.5 ZM615 438 q71 0 107 -58 q36 -58 36 -165 q0 -109 -37 -167 q-37 -58 -107 -58 q-69 0 -105 58 q-36 58 -36 167 q0 109 36 166 q36 57 106 57 ZM954 438 q70 0 106.5 -58 q36.5 -58 36.5 -165 q0 -109 -36.5 -167 q-36.5 -58 -107.5 -58 q-68 0 -104.5 58 q-36.5 58 -36.5 167 q0 109 36 166 q36 57 106 57 ZM615 394 q-92 0 -92 -179 q0 -181 91 -181 q94 0 94 181 q0 88 -22.5 133.5 q-22.5 45.5 -70.5 45.5 ZM954 394 q-92 0 -92 -179 q0 -181 91 -181 q94 0 94 181 q0 88 -22.5 133.5 q-22.5 45.5 -70.5 45.5 Z" /><glyph glyph-name="minute" unicode="&#x2032;" d="M172 714 l60 0 l-153 -252 l-40 0 l133 252 Z" /><glyph glyph-name="second" unicode="&#x2033;" d="M200 462 l133 252 l59 0 l-152 -252 l-40 0 ZM39 462 l133 252 l60 0 l-153 -252 l-40 0 Z" /><glyph glyph-name="guilsinglleft" unicode="&#x2039;" d="M33 278 l160 194 l39 -24 l-138 -176 l138 -176 l-39 -24 l-160 192 l0 14 Z" /><glyph glyph-name="guilsinglright" unicode="&#x203a;" d="M71 472 l161 -194 l0 -12 l-161 -194 l-39 24 l139 176 l-139 176 l39 24 Z" /><glyph glyph-name="fraction" unicode="&#x2044;" d="M288 714 l-404 -714 l-52 0 l404 714 l52 0 Z" /><glyph glyph-name="franc" unicode="&#x20a3;" d="M140 0 l0 143 l-90 0 l0 45 l90 0 l0 526 l376 0 l0 -52 l-320 0 l0 -278 l302 0 l0 -52 l-302 0 l0 -144 l174 0 l0 -45 l-174 0 l0 -143 l-56 0 Z" /><glyph glyph-name="afii08941" unicode="&#x20a4;" d="M340 723 q51 0 90.5 -10 q39.5 -10 71.5 -24 l-20 -47 q-32 14 -66 23 q-34 9 -76 9 q-64 0 -99 -37.5 q-35 -37.5 -35 -118.5 l0 -84 l200 0 l0 -45 l-200 0 l0 -115 l200 0 l0 -45 l-200 0 q0 -77 -20 -117.5 q-20 -40.5 -54 -59.5 l395 0 l0 -52 l-489 0 l0 48 q57 11 84 54 q27 43 27 127 l-102 0 l0 45 l102 0 l0 115 l-102 0 l0 45 l102 0 l0 76 q0 103 46.5 158 q46.5 55 144.5 55 Z" /><glyph glyph-name="peseta" unicode="&#x20a7;" d="M184 714 q249 0 249 -204 q0 -68 -26 -117.5 q-26 -49.5 -83.5 -77 q-57.5 -27.5 -151.5 -27.5 l-33 0 l0 -288 l-57 0 l0 714 l102 0 ZM181 662 l-42 0 l0 -324 l27 0 q107 0 158 41 q51 41 51 129 q0 81 -47 117.5 q-47 36.5 -147 36.5 ZM580 516 l0 -104 l114 0 l0 -46 l-114 0 l0 -236 q0 -49 16 -70.5 q16 -21.5 54 -21.5 q15 0 31.5 2 q16.5 2 26.5 6 l0 -45 q-11 -5 -28.5 -8 q-17.5 -3 -41.5 -3 q-112 0 -112 128 l0 248 l-79 0 l0 30 l79 20 l20 100 l34 0 Z" /><glyph glyph-name="Euro" unicode="&#x20ac;" d="M390 724 q48 0 86 -9 q38 -9 74 -29 l-23 -48 q-29 15 -63.5 25.5 q-34.5 10.5 -73.5 10.5 q-82 0 -139 -58 q-57 -58 -73 -170 l254 0 l0 -46 l-259 0 q-1 -9 -1 -22 q0 -13 0 -27 q0 -14 0 -27.5 q0 -13.5 1 -23.5 l243 0 l0 -44 l-238 0 q15 -102 69 -158.5 q54 -56.5 147 -56.5 q38 0 74 9 q36 9 66 23 l0 -53 q-28 -13 -63.5 -21.5 q-35.5 -8.5 -80.5 -8.5 q-112 0 -181 66.5 q-69 66.5 -89 199.5 l-86 0 l0 44 l81 0 q-1 12 -1 24 q0 12 0 26 q0 14 0 28 q0 14 1 22 l-81 0 l0 46 l86 0 q16 126 85 202 q69 76 185 76 Z" /><glyph glyph-name="afii61248" unicode="&#x2105;" d="M231 384 q-73 0 -117.5 41.5 q-44.5 41.5 -44.5 122.5 q0 81 44.5 126 q44.5 45 124.5 45 q24 0 47.5 -4.5 q23.5 -4.5 44.5 -11.5 l-12 -39 q-42 15 -82 15 q-61 0 -90 -35 q-29 -35 -29 -94 q0 -63 29.5 -94.5 q29.5 -31.5 85.5 -31.5 q51 0 93 17 l0 -39 q-20 -8 -44.5 -13 q-24.5 -5 -49.5 -5 ZM624 714 l-396 -714 l-52 0 l396 714 l52 0 ZM738 163 q0 -79 -40 -123 q-40 -44 -108 -44 q-64 0 -105.5 42 q-41.5 42 -41.5 125 q0 77 39.5 122 q39.5 45 109.5 45 q68 0 107 -44 q39 -44 39 -123 ZM491 163 q0 -61 25 -94.5 q25 -33.5 76 -33.5 q46 0 72 33 q26 33 26 95 q0 59 -23 93 q-23 34 -75 34 q-51 0 -76 -34 q-25 -34 -25 -93 Z" /><glyph glyph-name="afii61289" unicode="&#x2113;" d="M296 37 q87 0 96 113 l39 0 q-5 -74 -38 -116.5 q-33 -42.5 -103 -42.5 q-64 0 -101 40.5 q-37 40.5 -37 124.5 l0 132 q-51 -20 -96 -30 l0 42 q26 7 50 15 q24 8 46 17 l0 247 q0 70 32.5 107.5 q32.5 37.5 93.5 37.5 q57 0 87.5 -37.5 q30.5 -37.5 30.5 -106.5 q0 -93 -50 -163.5 q-50 -70.5 -140 -110.5 l0 -144 q0 -125 90 -125 ZM349 579 q0 103 -71 103 q-36 0 -54 -25 q-18 -25 -18 -78 l0 -227 q143 72 143 227 Z" /><glyph glyph-name="afii61352" unicode="&#x2116;" d="M99 0 l0 714 l61 0 l369 -621 l3 0 q0 13 -1 42 q-1 29 -2 64 q-1 35 -1 63 l0 452 l52 0 l0 -714 l-59 0 l-371 622 l-3 0 q1 -14 2 -43 q1 -29 2 -64 q1 -35 1 -66 l0 -449 l-53 0 ZM814 134 q-65 0 -105 43 q-40 43 -40 122 q0 80 39.5 123.5 q39.5 43.5 107.5 43.5 q66 0 105 -43 q39 -43 39 -123 q0 -80 -39 -123 q-39 -43 -107 -43 ZM814 176 q98 0 98 124 q0 124 -97 124 q-99 0 -99 -125 q0 -123 98 -123 ZM695 0 l0 47 l236 0 l0 -47 l-236 0 Z" /><glyph glyph-name="trademark" unicode="&#x2122;" d="M306 362 l0 352 l67 0 l105 -292 l109 292 l63 0 l0 -352 l-44 0 l0 195 q0 22 0 47.5 q0 25.5 2 47.5 l-4 0 l-109 -290 l-39 0 l-106 292 l-2 0 q0 -23 1 -47 q1 -24 1 -45 l0 -200 l-44 0 ZM114 362 l0 312 l-107 0 l0 40 l257 0 l0 -40 l-106 0 l0 -312 l-44 0 Z" /><glyph glyph-name="estimated" unicode="&#x212e;" d="M309 -17 q-85 0 -142.5 39 q-57.5 39 -87 102 q-29.5 63 -29.5 135 q0 72 23 124 q23 52 60.5 86 q37.5 34 83.5 50 q46 16 92 16 q73 0 132 -33.5 q59 -33.5 93 -95.5 q34 -62 34 -147 l-404 0 l0 -174 q22 -23 61 -41.5 q39 -18.5 84 -18.5 q73 0 116 30 q43 30 77 84 l35 -20 q-23 -37 -52.5 -68 q-29.5 -31 -71.5 -49.5 q-42 -18.5 -104 -18.5 ZM455 301 l0 135 q-19 20 -57 39 q-38 19 -90 19 q-50 0 -85.5 -17 q-35.5 -17 -58.5 -40 l0 -136 l291 0 Z" /><glyph glyph-name="oneeighth" unicode="&#x215b;" d="M128 0 l404 714 l52 0 l-404 -714 l-52 0 ZM155 286 l0 278 q0 56 3 104 q-14 -10 -28 -20 q-14 -10 -33 -20 l-50 -32 l-23 36 l133 82 l47 0 l0 -428 l-49 0 ZM582 -5 q-68 0 -105 32.5 q-37 32.5 -37 84.5 q0 42 22.5 69 q22.5 27 61.5 44 q-38 18 -55 41.5 q-17 23.5 -17 61.5 q0 48 37 77 q37 29 92 29 q56 0 92.5 -27 q36.5 -27 36.5 -77 q0 -38 -21 -63 q-21 -25 -58 -41 q93 -34 93 -112 q0 -52 -39 -85.5 q-39 -33.5 -103 -33.5 ZM582 245 q40 13 60.5 32.5 q20.5 19.5 20.5 50.5 q0 32 -22 50 q-22 18 -61 18 q-38 0 -59.5 -18 q-21.5 -18 -21.5 -50 q0 -32 22 -51 q22 -19 61 -32 ZM581 35 q47 0 71 21 q24 21 24 56 q0 30 -21 53 q-21 23 -70 37 l-14 4 q-43 -15 -64 -37.5 q-21 -22.5 -21 -56.5 q0 -34 24.5 -55.5 q24.5 -21.5 70.5 -21.5 Z" /><glyph glyph-name="threeeighths" unicode="&#x215c;" d="M150 280 q-73 0 -128 26 l0 46 q65 -31 128 -31 q57 0 85 23.5 q28 23.5 28 65.5 q0 79 -115 79 l-62 0 l0 40 l62 0 q51 0 77.5 22 q26.5 22 26.5 60 q0 34 -23 52 q-23 18 -61 18 q-34 0 -62 -10.5 q-28 -10.5 -56 -27.5 l-23 34 q29 20 63 32.5 q34 12.5 78 12.5 q63 0 98 -29 q35 -29 35 -78 q0 -41 -21.5 -67.5 q-21.5 -26.5 -53.5 -35.5 l0 -2 q40 -8 63 -34 q23 -26 23 -67 q0 -59 -41 -94 q-41 -35 -121 -35 ZM170 0 l404 714 l52 0 l-404 -714 l-52 0 ZM618 -5 q-68 0 -105 32.5 q-37 32.5 -37 84.5 q0 42 22.5 69 q22.5 27 61.5 44 q-38 18 -55 41.5 q-17 23.5 -17 61.5 q0 48 37 77 q37 29 92 29 q56 0 92.5 -27 q36.5 -27 36.5 -77 q0 -38 -21 -63 q-21 -25 -58 -41 q93 -34 93 -112 q0 -52 -39 -85.5 q-39 -33.5 -103 -33.5 ZM618 245 q40 13 60.5 32.5 q20.5 19.5 20.5 50.5 q0 32 -22 50 q-22 18 -61 18 q-38 0 -59.5 -18 q-21.5 -18 -21.5 -50 q0 -32 22 -51 q22 -19 61 -32 ZM617 35 q47 0 71 21 q24 21 24 56 q0 30 -21 53 q-21 23 -70 37 l-14 4 q-43 -15 -64 -37.5 q-21 -22.5 -21 -56.5 q0 -34 24.5 -55.5 q24.5 -21.5 70.5 -21.5 Z" /><glyph glyph-name="fiveeighths" unicode="&#x215d;" d="M168 0 l404 714 l52 0 l-404 -714 l-52 0 ZM156 278 q-35 0 -66.5 7.5 q-31.5 7.5 -54.5 20.5 l0 47 q29 -16 59 -24.5 q30 -8.5 61 -8.5 q52 0 81.5 24 q29.5 24 29.5 72 q0 42 -27.5 68 q-27.5 26 -81.5 26 q-25 0 -45 -4 q-20 -4 -34 -8 l-23 14 l15 202 l228 0 l0 -40 l-188 0 l-10 -130 q13 2 29.5 4.5 q16.5 2.5 35.5 2.5 q70 0 109.5 -36.5 q39.5 -36.5 39.5 -94.5 q0 -69 -43 -105.5 q-43 -36.5 -115 -36.5 ZM618 -5 q-68 0 -105.5 32.5 q-37.5 32.5 -37.5 84.5 q0 42 22.5 69 q22.5 27 62.5 44 q-38 18 -55.5 41.5 q-17.5 23.5 -17.5 61.5 q0 48 36.5 77 q36.5 29 92.5 29 q57 0 93.5 -27 q36.5 -27 36.5 -77 q0 -38 -21 -63 q-21 -25 -59 -41 q93 -33 93 -112 q0 -52 -39 -85.5 q-39 -33.5 -102 -33.5 ZM618 245 q40 13 60 32.5 q20 19.5 20 50.5 q0 32 -21.5 50 q-21.5 18 -60.5 18 q-38 0 -60 -18 q-22 -18 -22 -50 q0 -32 22.5 -51 q22.5 -19 61.5 -32 ZM616 35 q47 0 71.5 21 q24.5 21 24.5 56 q0 30 -21 53 q-21 23 -71 37 l-14 4 q-42 -15 -63 -37.5 q-21 -22.5 -21 -56.5 q0 -34 24.5 -55.5 q24.5 -21.5 69.5 -21.5 Z" /><glyph glyph-name="seveneighths" unicode="&#x215e;" d="M120 0 l404 714 l51 0 l-404 -714 l-51 0 ZM92 286 l180 386 l-233 0 l0 42 l285 0 l0 -34 l-182 -394 l-50 0 ZM588 -5 q-68 0 -105 32.5 q-37 32.5 -37 84.5 q0 42 22.5 69 q22.5 27 62.5 44 q-37 18 -55 41.5 q-18 23.5 -18 61.5 q0 48 37 77 q37 29 93 29 q56 0 92 -27 q36 -27 36 -77 q0 -38 -21 -63 q-21 -25 -57 -41 q45 -16 68.5 -44 q23.5 -28 23.5 -68 q0 -52 -39 -85.5 q-39 -33.5 -103 -33.5 ZM588 245 q40 13 61 32.5 q21 19.5 21 50.5 q0 32 -22.5 50 q-22.5 18 -60.5 18 q-38 0 -59.5 -18 q-21.5 -18 -21.5 -50 q0 -32 22 -51 q22 -19 60 -32 ZM588 35 q46 0 70 21 q24 21 24 56 q0 30 -21 53 q-21 23 -69 37 l-14 4 q-44 -15 -64.5 -37.5 q-20.5 -22.5 -20.5 -56.5 q0 -34 24.5 -55.5 q24.5 -21.5 70.5 -21.5 Z" /><glyph glyph-name="uni2074" unicode="&#x2074;" d="M330 530 l-68 0 l0 -114 l-50 0 l0 114 l-199 0 l0 34 l199 283 l50 0 l0 -275 l68 0 l0 -42 ZM212 572 l0 128 q0 22 0.5 46 q0.5 24 1.5 46 q-8 -14 -19 -31.5 q-11 -17.5 -21 -32.5 l-110 -156 l148 0 Z" /><glyph glyph-name="uni2075" unicode="&#x2075;" d="M295 844 l0 -40 l-188 0 l-10 -130 q13 2 30 4.5 q17 2.5 35 2.5 q70 0 110 -36.5 q40 -36.5 40 -94.5 q0 -69 -43 -105.5 q-43 -36.5 -115 -36.5 q-36 0 -68 7.5 q-32 7.5 -54 20.5 l0 47 q29 -16 59.5 -24.5 q30.5 -8.5 60.5 -8.5 q52 0 81.5 24 q29.5 24 29.5 72 q0 42 -27.5 68 q-27.5 26 -81.5 26 q-24 0 -44.5 -4 q-20.5 -4 -34.5 -8 l-23 14 l16 202 l227 0 Z" /><glyph glyph-name="uni2077" unicode="&#x2077;" d="M82 416 l180 386 l-232 0 l0 42 l284 0 l0 -34 l-182 -394 l-50 0 Z" /><glyph glyph-name="uni2078" unicode="&#x2078;" d="M169 850 q56 0 92.5 -27 q36.5 -27 36.5 -77 q0 -38 -21 -63 q-21 -25 -58 -41 q93 -34 93 -112 q0 -52 -39 -85.5 q-39 -33.5 -103 -33.5 q-68 0 -105 32.5 q-37 32.5 -37 84.5 q0 42 22.5 69 q22.5 27 61.5 44 q-38 18 -55 41.5 q-17 23.5 -17 61.5 q0 48 37 77 q37 29 92 29 ZM168 812 q-38 0 -59.5 -18 q-21.5 -18 -21.5 -50 q0 -32 22 -51 q22 -19 61 -32 q40 13 60.5 32.5 q20.5 19.5 20.5 50.5 q0 32 -22 50 q-22 18 -61 18 ZM159 622 q-43 -15 -64 -37.5 q-21 -22.5 -21 -56.5 q0 -34 24.5 -55.5 q24.5 -21.5 70.5 -21.5 q47 0 71 21 q24 21 24 56 q0 30 -21 53 q-21 23 -70 37 l-14 4 Z" /><glyph glyph-name="uni2000" unicode="&#x2000;" d="" /><glyph glyph-name="uni2001" unicode="&#x2001;" d="" /><glyph glyph-name="uni2002" unicode="&#x2002;" d="" /><glyph glyph-name="uni2003" unicode="&#x2003;" d="" /><glyph glyph-name="uni2004" unicode="&#x2004;" d="" /><glyph glyph-name="uni2005" unicode="&#x2005;" d="" /><glyph glyph-name="uni2006" unicode="&#x2006;" d="" /><glyph glyph-name="uni2007" unicode="&#x2007;" d="" /><glyph glyph-name="uni2008" unicode="&#x2008;" d="" /><glyph glyph-name="uni2009" unicode="&#x2009;" d="" /><glyph glyph-name="uni200A" unicode="&#x200a;" d="" /><glyph glyph-name="uni200B" unicode="&#x200b;" d="" /><glyph glyph-name="uniFEFF" unicode="&#xfeff;" d="" /><glyph glyph-name="uniFFFC" unicode="&#xfffc;" d="M821 687 l0 54 l148 0 l0 -148 l-53 0 l0 94 l-95 0 ZM630 687 l0 54 l133 0 l0 -54 l-133 0 ZM439 687 l0 54 l133 0 l0 -54 l-133 0 ZM248 687 l0 54 l132 0 l0 -54 l-132 0 ZM41 593 l0 148 l148 0 l0 -54 l-94 0 l0 -94 l-54 0 ZM969 402 l-53 0 l0 132 l53 0 l0 -132 ZM95 402 l-54 0 l0 132 l54 0 l0 -132 ZM422 307 q0 -66 -31 -106.5 q-31 -40.5 -97 -40.5 q-66 0 -97 40.5 q-31 40.5 -31 106.5 q0 67 31 107 q31 40 97 40 q66 0 97 -40 q31 -40 31 -107 ZM728 161 q-24 0 -39 5 l0 50 q7 -2 15 -3 q8 -1 18 -1 q18 0 30 8.5 q12 8.5 12 33.5 l0 196 l61 0 l0 -194 q0 -50 -27 -72.5 q-27 -22.5 -70 -22.5 ZM463 450 l84 0 q53 0 80.5 -16 q27.5 -16 27.5 -57 q0 -24 -11.5 -40 q-11.5 -16 -32.5 -20 l0 -4 q22 -5 37 -18.5 q15 -13.5 15 -47.5 q0 -39 -26.5 -61 q-26.5 -22 -72.5 -22 l-101 0 l0 286 ZM228 307 q0 -45 16 -70.5 q16 -25.5 50 -25.5 q34 0 50 25.5 q16 25.5 16 70.5 q0 45 -16 70.5 q-16 25.5 -50 25.5 q-34 0 -50 -25.5 q-16 -25.5 -16 -70.5 ZM523 337 l32 0 q23 0 31.5 8 q8.5 8 8.5 24 q0 31 -43 31 l-29 0 l0 -63 ZM95 210 l-54 0 l0 133 l54 0 l0 -133 ZM969 210 l-53 0 l0 133 l53 0 l0 -133 ZM523 289 l0 -75 l36 0 q24 0 33 10.5 q9 10.5 9 28.5 q0 16 -9.5 26 q-9.5 10 -34.5 10 l-34 0 ZM95 19 l-54 0 l0 132 l54 0 l0 -132 ZM969 19 l-53 0 l0 132 l53 0 l0 -132 ZM41 -187 l0 148 l54 0 l0 -95 l94 0 l0 -53 l-148 0 ZM821 -187 l0 53 l95 0 l0 95 l53 0 l0 -148 l-148 0 ZM439 -187 l0 53 l133 0 l0 -53 l-133 0 ZM248 -187 l0 53 l132 0 l0 -53 l-132 0 ZM630 -187 l0 53 l133 0 l0 -53 l-133 0 Z" /><glyph glyph-name="uniFFFD" unicode="&#xfffd;" d="M499 760 l459 -458 l-459 -458 l-458 458 l458 458 ZM531 179 l0 23 q0 25 10 39.5 q10 14.5 43 40.5 q43 34 64.5 65 q21.5 31 21.5 80 q0 67 -46 104 q-46 37 -126 37 q-42 0 -86 -14 q-44 -14 -78 -34 l40 -87 q33 17 64 28 q31 11 58 11 q31 0 46 -14 q15 -14 15 -37 q0 -29 -13 -46 q-13 -17 -46 -43 q-38 -30 -54 -57.5 q-16 -27.5 -16 -66.5 l0 -29 l103 0 ZM415 45 q0 -35 20 -50.5 q20 -15.5 49 -15.5 q27 0 47.5 15.5 q20.5 15.5 20.5 50.5 q0 37 -20.5 52 q-20.5 15 -47.5 15 q-29 0 -49 -15 q-20 -15 -20 -52 Z" /><glyph glyph-name="uni03D1" unicode="&#x3d1;" d="M266 770 q98 0 159 -74.5 q61 -74.5 79 -227.5 l70 0 l0 -49 l-66 0 q2 -11 2 -25 q0 -14 0 -28 q0 -105 -25.5 -190.5 q-25.5 -85.5 -81 -135.5 q-55.5 -50 -145.5 -50 q-86 0 -128 47.5 q-42 47.5 -42 121.5 q0 43 8 88 q8 45 8 74 q0 28 -11.5 39 q-11.5 11 -30.5 11 q-12 0 -24 -3.5 q-12 -3.5 -20 -7.5 l-13 42 q16 8 34 12 q18 4 39 4 q40 0 61 -23 q21 -23 21 -63 q0 -38 -8 -82.5 q-8 -44.5 -8 -88.5 q0 -58 30 -90.5 q30 -32.5 86 -32.5 q192 0 192 328 q0 14 -0.5 28 q-0.5 14 -1.5 25 q-176 1 -259 57 q-83 56 -83 151 q0 61 38 102 q38 41 120 41 ZM264 722 q-51 0 -75.5 -26.5 q-24.5 -26.5 -24.5 -71.5 q0 -72 68 -113.5 q68 -41.5 214 -42.5 q-13 120 -60.5 187 q-47.5 67 -121.5 67 Z" /><glyph glyph-name="uni03D2" unicode="&#x3d2;" d="M268 328 q26 66 55 132 q29 66 55 119.5 q26 53.5 43 80.5 q17 28 38.5 44 q21.5 16 53.5 16 q18 0 33 -6 l0 -47 q-12 3 -25 3 q-16 0 -29 -9 q-13 -9 -28 -35 q-19 -30 -46.5 -84 q-27.5 -54 -59 -124 q-31.5 -70 -62.5 -150 l0 -268 l-58 0 l0 272 l-238 442 l64 0 l204 -386 Z" /><glyph glyph-name="uni03D6" unicode="&#x3d6;" d="M759 532 l0 -49 l-118 0 q25 -55 43 -118 q18 -63 18 -136 q0 -71 -18 -124.5 q-18 -53.5 -57.5 -84 q-39.5 -30.5 -102.5 -30.5 q-55 0 -88.5 25.5 q-33.5 25.5 -47.5 70.5 l-3 0 q-14 -45 -49 -70.5 q-35 -25.5 -87 -25.5 q-85 0 -131 59 q-46 59 -46 180 q0 74 19 136.5 q19 62.5 45 117.5 l-126 0 l0 29 l75 20 l674 0 ZM584 483 l-390 0 q-26 -53 -45.5 -116 q-19.5 -63 -19.5 -135 q0 -103 32.5 -148 q32.5 -45 92.5 -45 q51 0 78.5 38 q27.5 38 27.5 105 l0 128 l55 0 l0 -128 q0 -70 27.5 -106.5 q27.5 -36.5 78.5 -36.5 q61 0 92 47 q31 47 31 146 q0 71 -17 134.5 q-17 63.5 -43 116.5 Z" /><glyph glyph-name="uni02F3" unicode="&#x2f3;" d="M166 -269 q-45 0 -75.5 27.5 q-30.5 27.5 -30.5 75.5 q0 46 30.5 74.5 q30.5 28.5 75.5 28.5 q44 0 75 -29 q31 -29 31 -74 q0 -47 -31 -75 q-31 -28 -75 -28 ZM166 -232 q28 0 47 19 q19 19 19 47 q0 29 -19.5 47.5 q-19.5 18.5 -46.5 18.5 q-29 0 -48 -18.5 q-19 -18.5 -19 -47.5 q0 -28 17.5 -47 q17.5 -19 49.5 -19 Z" /><glyph glyph-name="Ohorn" unicode="&#x1a0;" d="M704 358 q0 -109 -36 -192 q-36 -83 -107 -129.5 q-71 -46.5 -177 -46.5 q-108 0 -179.5 46.5 q-71.5 46.5 -107 130 q-35.5 83.5 -35.5 192.5 q0 109 36.5 191 q36.5 82 109 128.5 q72.5 46.5 179.5 46.5 q82 0 143.5 -28.5 q61.5 -28.5 101.5 -81.5 q38 11 57 46 q19 35 19 99 l58 0 l6 -8 q-12 -138 -116 -175 q48 -87 48 -219 ZM123 358 q0 -95 28 -166.5 q28 -71.5 85.5 -111 q57.5 -39.5 147.5 -39.5 q90 0 147.5 39.5 q57.5 39.5 85 110.5 q27.5 71 27.5 167 q0 148 -64.5 231.5 q-64.5 83.5 -192.5 83.5 q-90 0 -148.5 -39.5 q-58.5 -39.5 -87 -110.5 q-28.5 -71 -28.5 -165 Z" /><glyph glyph-name="ohorn" unicode="&#x1a1;" d="M533 266 q0 -83 -27.5 -145 q-27.5 -62 -81 -96.5 q-53.5 -34.5 -130.5 -34.5 q-74 0 -127 34 q-53 34 -81.5 96 q-28.5 62 -28.5 146 q0 130 64.5 203 q64.5 73 176.5 73 q56 0 98.5 -19 q42.5 -19 71.5 -53 q38 14 55 49 q17 35 17 95 l58 0 l6 -8 q-8 -70 -35 -112 q-27 -42 -74 -61 q38 -68 38 -167 ZM116 266 q0 -105 43 -166 q43 -61 135 -61 q94 0 137 61 q43 61 43 166 q0 102 -41.5 164 q-41.5 62 -135.5 62 q-91 0 -136 -58 q-45 -58 -45 -168 Z" /><glyph glyph-name="Uhorn" unicode="&#x1af;" d="M629 714 l0 -100 q43 9 63 43.5 q20 34.5 20 102.5 l58 0 l6 -8 q-8 -74 -40.5 -120.5 q-32.5 -46.5 -106.5 -61.5 l0 -318 q0 -122 -68.5 -192 q-68.5 -70 -198.5 -70 q-130 0 -200 70 q-70 70 -70 194 l0 460 l58 0 l0 -461 q0 -103 55 -157.5 q55 -54.5 159 -54.5 q102 0 155 54.5 q53 54.5 53 152.5 l0 466 l57 0 Z" /><glyph glyph-name="uhorn" unicode="&#x1b0;" d="M641 614 l6 -8 q-7 -70 -38 -118 q-31 -48 -102 -61 l0 -427 l-47 0 l-8 91 l-3 0 q-22 -43 -67.5 -72 q-45.5 -29 -112.5 -29 q-189 0 -189 194 l0 348 l58 0 l0 -344 q0 -76 34 -112.5 q34 -36.5 102 -36.5 q176 0 176 203 l0 290 l57 0 l0 -62 q41 10 59 45.5 q18 35.5 18 98.5 l57 0 Z" /><glyph glyph-name="uni0460" unicode="&#x460;" d="M239 -8 q-53 98 -98 214.5 q-45 116.5 -75 245 q-30 128.5 -38 262.5 l59 0 q7 -127 35.5 -247.5 q28.5 -120.5 66 -223.5 q37.5 -103 74.5 -178 l3 0 q8 25 20 60 q12 35 28 77 l118 303 q-10 50 -17 108.5 q-7 58.5 -7 100.5 l60 0 q3 -93 21.5 -185 q18.5 -92 46 -177.5 q27.5 -85.5 59 -159 q31.5 -73.5 61.5 -129.5 l3 0 q67 124 109 291.5 q42 167.5 46 359.5 l60 0 q-4 -200 -53 -387 q-49 -187 -140 -335 l-49 0 q-38 64 -72 137.5 q-34 73.5 -61 148 q-27 74.5 -44 140.5 l-162 -426 l-54 0 Z" /><glyph glyph-name="uni0461" unicode="&#x461;" d="M728 532 q-6 -146 -53 -281 q-47 -135 -132 -251 l-55 0 q-33 57 -64 128.5 q-31 71.5 -50 134.5 l-127 -263 l-52 0 q-41 66 -79 149.5 q-38 83.5 -63.5 180 q-25.5 96.5 -30.5 202.5 l56 0 q6 -99 28.5 -188 q22.5 -89 53 -162.5 q30.5 -73.5 61.5 -126.5 l3 0 q10 25 23 51 q13 26 25 52 l81 167 q-12 49 -18.5 104 q-6.5 55 -7.5 103 l57 0 q2 -86 20 -170.5 q18 -84.5 47 -163 q29 -78.5 64 -146.5 l3 0 q41 58 74 133.5 q33 75.5 54.5 163.5 q21.5 88 25.5 183 l56 0 Z" /><glyph glyph-name="uni0462" unicode="&#x462;" d="M188 0 l0 556 l-174 0 l0 50 l174 0 l0 108 l58 0 l0 -108 l216 0 l0 -50 l-216 0 l0 -154 l122 0 q133 0 193.5 -49 q60.5 -49 60.5 -147 q0 -99 -59.5 -152.5 q-59.5 -53.5 -181.5 -53.5 l-193 0 ZM246 50 l126 0 q98 0 144 38 q46 38 46 118 q0 84 -51.5 114 q-51.5 30 -150.5 30 l-114 0 l0 -300 Z" /><glyph glyph-name="uni0463" unicode="&#x463;" d="M195 643 l0 -111 l176 0 l0 -49 l-176 0 l0 -175 l179 0 q98 0 145 -39 q47 -39 47 -109 q0 -75 -48 -117.5 q-48 -42.5 -152 -42.5 l-228 0 l0 483 l-124 0 l0 49 l124 0 l0 111 l57 0 ZM368 260 l-173 0 l0 -212 l167 0 q147 0 147 110 q0 102 -141 102 Z" /><glyph glyph-name="uni0464" unicode="&#x464;" d="M692 -10 q-105 0 -175.5 44 q-70.5 44 -106.5 124 q-36 80 -39 186 l-213 0 l0 -344 l-58 0 l0 714 l58 0 l0 -318 l214 0 q7 96 48.5 170 q41.5 74 114.5 116 q73 42 175 42 q52 0 97 -11 q45 -11 85 -31 l-22 -50 q-39 20 -78 30 q-39 10 -84 10 q-123 0 -194 -75 q-71 -75 -81 -201 l362 0 l0 -52 l-363 0 q3 -140 70 -221 q67 -81 196 -81 q52 0 94 8 q42 8 80 20 l0 -50 q-36 -14 -79 -22 q-43 -8 -101 -8 Z" /><glyph glyph-name="uni0465" unicode="&#x465;" d="M580 -10 q-116 0 -179.5 68.5 q-63.5 68.5 -67.5 190.5 l-188 0 l0 -249 l-57 0 l0 532 l57 0 l0 -234 l189 0 q10 118 79 181 q69 63 177 63 q38 0 71.5 -7 q33.5 -7 61.5 -19 l-15 -49 q-59 25 -118 25 q-90 0 -140 -51 q-50 -51 -58 -143 l294 0 l0 -49 l-294 0 q2 -95 48 -152 q46 -57 140 -57 q40 0 74 8 q34 8 64 20 l0 -50 q-27 -13 -60.5 -20.5 q-33.5 -7.5 -77.5 -7.5 Z" /><glyph glyph-name="uni0466" unicode="&#x466;" d="M340 714 l283 -714 l-61 0 l-133 336 l-89 0 l0 -336 l-54 0 l0 336 l-93 0 l-133 -336 l-60 0 l284 714 l56 0 ZM311 652 q-7 -23 -18 -55.5 q-11 -32.5 -23 -63.5 l-57 -147 l197 0 l-59 152 q-11 28 -21.5 57 q-10.5 29 -18.5 57 Z" /><glyph glyph-name="uni0467" unicode="&#x467;" d="M282 532 l216 -532 l-58 0 l-96 240 l-66 0 l0 -240 l-52 0 l0 240 l-70 0 l-96 -240 l-58 0 l216 532 l64 0 ZM252 484 l-4 0 q-8 -24 -16 -47 q-8 -23 -20 -51 l-37 -98 l150 0 l-37 97 q-12 31 -21 54.5 q-9 23.5 -15 44.5 Z" /><glyph glyph-name="uni0468" unicode="&#x468;" d="M614 714 l283 -714 l-63 0 l-132 337 l-88 0 l0 -337 l-54 0 l0 337 l-92 0 l-132 -337 l-62 0 l134 337 l-250 0 l0 -337 l-58 0 l0 714 l58 0 l0 -325 l271 0 l129 325 l56 0 ZM585 652 q-7 -27 -17 -54.5 q-10 -27.5 -24 -61.5 l-56 -148 l194 0 l-58 151 q-10 29 -21 57.5 q-11 28.5 -18 55.5 Z" /><glyph glyph-name="uni0469" unicode="&#x469;" d="M480 532 l215 -532 l-58 0 l-97 242 l-66 0 l0 -242 l-52 0 l0 242 l-68 0 l-97 -242 l-59 0 l98 242 l-152 0 l0 -242 l-56 0 l0 532 l56 0 l0 -241 l173 0 l97 241 l66 0 ZM448 484 l-2 0 q-8 -21 -17 -46.5 q-9 -25.5 -21 -55.5 l-36 -92 l149 0 l-37 96 q-12 30 -20 54 q-8 24 -16 44 Z" /><glyph glyph-name="uni046A" unicode="&#x46a;" d="M622 714 l0 -46 l-216 -263 q66 -2 105.5 -21 q39.5 -19 63.5 -56.5 q24 -37.5 42 -95.5 l71 -232 l-59 0 l-71 227 q-16 51 -35 79.5 q-19 28.5 -52.5 40 q-33.5 11.5 -91.5 11.5 l0 -358 l-58 0 l0 358 q-57 0 -90.5 -11.5 q-33.5 -11.5 -53 -40 q-19.5 -28.5 -35.5 -79.5 l-70 -227 l-62 0 l72 232 q18 56 41.5 93.5 q23.5 37.5 63 57 q39.5 19.5 104.5 22.5 l-214 263 l0 46 l545 0 ZM551 661 l-403 0 l202 -249 l201 249 Z" /><glyph glyph-name="uni046B" unicode="&#x46b;" d="M536 532 l0 -42 l-170 -185 q56 -3 88 -19 q32 -16 51 -45 q19 -29 37 -74 l65 -167 l-59 0 l-60 158 q-15 40 -32.5 62.5 q-17.5 22.5 -45.5 32 q-28 9.5 -77 9.5 l0 -262 l-53 0 l0 262 q-50 0 -78.5 -10 q-28.5 -10 -45.5 -32.5 q-17 -22.5 -32 -61.5 l-61 -158 l-58 0 l65 167 q16 41 36 71 q20 30 53 47 q33 17 87 20 l-172 185 l0 42 l462 0 ZM467 484 l-323 0 l162 -177 l161 177 Z" /><glyph glyph-name="uni046C" unicode="&#x46c;" d="M873 714 l0 -46 l-215 -264 q66 -2 105.5 -20.5 q39.5 -18.5 63 -56 q23.5 -37.5 41.5 -95.5 l72 -232 l-58 0 l-72 227 q-16 53 -36 81 q-20 28 -53.5 39 q-33.5 11 -90.5 11 l0 -358 l-58 0 l0 358 q-57 0 -90.5 -11.5 q-33.5 -11.5 -53.5 -40 q-20 -28.5 -36 -79.5 l-70 -227 l-61 0 l74 234 q15 48 32.5 77.5 q17.5 29.5 44.5 43.5 l-254 0 l0 -355 l-58 0 l0 714 l58 0 l0 -307 l382 0 l-212 261 l0 46 l545 0 ZM802 661 l-403 0 l201 -249 l202 249 Z" /><glyph glyph-name="uni046D" unicode="&#x46d;" d="M736 532 l0 -42 l-172 -186 q56 -3 88 -18.5 q32 -15.5 51.5 -44.5 q19.5 -29 36.5 -74 l66 -167 l-58 0 l-62 158 q-15 39 -32 61.5 q-17 22.5 -45.5 32.5 q-28.5 10 -76.5 10 l0 -262 l-54 0 l0 262 q-49 0 -77.5 -10 q-28.5 -10 -45.5 -33 q-17 -23 -31 -61 l-62 -158 l-58 0 l64 167 q12 31 26 53 q14 22 34 36 l-184 0 l0 -256 l-56 0 l0 532 l56 0 l0 -226 l300 0 l-170 184 l0 42 l462 0 ZM666 484 l-322 0 l162 -176 l160 176 Z" /><glyph glyph-name="uni046E" unicode="&#x46e;" d="M410 848 q22 0 39 -6 l0 -40 q-6 2 -14.5 3 q-8.5 1 -16.5 1 q-27 0 -54.5 -24 q-27.5 -24 -53.5 -60 q88 -8 136 -56 q48 -48 48 -120 q0 -75 -42 -116.5 q-42 -41.5 -110 -55.5 l0 -2 q80 -15 123 -57 q43 -42 43 -116 q0 -94 -67 -149 q-67 -55 -199 -58 q-60 -1 -91 -9.5 q-31 -8.5 -42.5 -23.5 q-11.5 -15 -11.5 -35 q0 -29 22.5 -44.5 q22.5 -15.5 74.5 -15.5 q48 0 93 4 q45 4 90 4 q37 0 62 -4 q25 -4 41 -12 l0 -58 q-14 9 -40 15.5 q-26 6.5 -66 6.5 q-44 0 -87 -3.5 q-43 -3.5 -93 -3.5 q-80 0 -118 28.5 q-38 28.5 -38 82.5 q0 35 19 61 q19 26 63.5 40.5 q44.5 14.5 121.5 16.5 q100 2 153 42 q53 40 53 116 q0 76 -58 111 q-58 35 -164 35 l-104 0 l0 50 l107 0 q103 0 154 38.5 q51 38.5 51 106.5 q0 63 -44 98 q-44 35 -116 35 q-63 0 -109.5 -18 q-46.5 -18 -90.5 -47 l-29 41 q38 27 83.5 46.5 q45.5 19.5 103.5 25.5 q-22 28 -54 61 q-32 33 -60 57 l0 9 l43 0 q26 -17 55.5 -44 q29.5 -27 55.5 -57 q33 42 66.5 71 q33.5 29 71.5 29 Z" /><glyph glyph-name="uni046F" unicode="&#x46f;" d="M358 658 q22 0 39 -6 l0 -40 q-6 2 -14.5 3 q-8.5 1 -16.5 1 q-26 0 -52 -22.5 q-26 -22.5 -51 -55.5 q59 -9 94 -42.5 q35 -33.5 35 -89.5 q0 -46 -25.5 -77 q-25.5 -31 -70.5 -43 l0 -4 q52 -10 83 -41.5 q31 -31.5 31 -84.5 q0 -70 -52 -110 q-52 -40 -158 -45 q-74 -5 -102.5 -19 q-28.5 -14 -28.5 -46 q0 -28 22 -40 q22 -12 64 -12 q48 0 89.5 3.5 q41.5 3.5 76.5 3.5 q34 0 54.5 -4.5 q20.5 -4.5 34.5 -12.5 l0 -51 q-16 10 -38.5 14.5 q-22.5 4.5 -49.5 4.5 q-36 0 -81 -3 q-45 -3 -91 -3 q-68 0 -101 26.5 q-33 26.5 -33 72.5 q0 52 41.5 80 q41.5 28 133.5 33 q76 4 119.5 28 q43.5 24 43.5 83 q0 51 -39 74 q-39 23 -117 23 l-73 0 l0 49 l65 0 q70 0 109 24 q39 24 39 73 q0 45 -33 68.5 q-33 23.5 -92 23.5 q-42 0 -77.5 -10 q-35.5 -10 -73.5 -27 l-20 47 q32 15 63 24.5 q31 9.5 68 13.5 q-21 26 -49.5 56.5 q-28.5 30.5 -55.5 51.5 l0 10 l44 0 q53 -39 108 -100 q33 42 66.5 70 q33.5 28 71.5 28 Z" /><glyph glyph-name="uni0472" unicode="&#x472;" d="M705 358 q0 -109 -36 -192 q-36 -83 -107.5 -129.5 q-71.5 -46.5 -177.5 -46.5 q-108 0 -179.5 46.5 q-71.5 46.5 -107 130 q-35.5 83.5 -35.5 192.5 q0 109 36.5 191 q36.5 82 109 128.5 q72.5 46.5 179.5 46.5 q103 0 173.5 -44.5 q70.5 -44.5 107.5 -126.5 q37 -82 37 -196 ZM387 673 q-85 0 -142.5 -35.5 q-57.5 -35.5 -87 -99.5 q-29.5 -64 -34.5 -149 l520 0 q-7 134 -71 209 q-64 75 -185 75 ZM384 41 q86 0 142.5 36.5 q56.5 36.5 85.5 103.5 q29 67 32 157 l-521 0 q3 -89 32 -156 q29 -67 86 -104 q57 -37 143 -37 Z" /><glyph glyph-name="uni0473" unicode="&#x473;" d="M533 266 q0 -83 -27.5 -145 q-27.5 -62 -81 -96.5 q-53.5 -34.5 -130.5 -34.5 q-74 0 -127 34 q-53 34 -81.5 96 q-28.5 62 -28.5 146 q0 130 64.5 203 q64.5 73 176.5 73 q76 0 128.5 -34.5 q52.5 -34.5 79.5 -96.5 q27 -62 27 -145 ZM297 492 q-85 0 -130 -50.5 q-45 -50.5 -51 -144.5 l358 0 q-6 88 -48 141.5 q-42 53.5 -129 53.5 ZM294 39 q90 0 133 56.5 q43 56.5 47 152.5 l-358 0 q3 -97 47 -153 q44 -56 131 -56 Z" /><glyph glyph-name="uni0474" unicode="&#x474;" d="M596 670 q-25 0 -42 -14.5 q-17 -14.5 -31.5 -48 q-14.5 -33.5 -31.5 -90.5 l-163 -517 l-66 0 l-262 714 l61 0 l186 -505 q13 -37 22 -61 q9 -24 14.5 -43 q5.5 -19 10.5 -40 q8 31 17 62.5 q9 31.5 27 87.5 l96 309 q24 74 43 116.5 q19 42.5 45 61 q26 18.5 68 18.5 q26 0 48 -8 l0 -50 q-22 8 -42 8 Z" /><glyph glyph-name="uni0475" unicode="&#x475;" d="M475 541 q8 0 16 -1 q8 -1 15 -4 l0 -46 q-6 2 -13.5 3 q-7.5 1 -14.5 1 q-23 0 -37.5 -22 q-14.5 -22 -30.5 -68 l-138 -404 l-70 0 l-202 532 l59 0 l139 -372 q26 -72 37 -111 l3 0 q6 22 14 51 q8 29 18 61 l88 255 q17 49 32 76 q15 27 34.5 37.5 q19.5 10.5 50.5 11.5 Z" /><glyph glyph-name="uni0478" unicode="&#x478;" d="M640 358 q0 -109 -32.5 -192 q-32.5 -83 -97 -129.5 q-64.5 -46.5 -160.5 -46.5 q-96 0 -160 46.5 q-64 46.5 -96 130 q-32 83.5 -32 192.5 q0 109 33 191 q33 82 98 128.5 q65 46.5 161 46.5 q92 0 155.5 -44.5 q63.5 -44.5 97 -126.5 q33.5 -82 33.5 -196 ZM122 358 q0 -95 25 -166.5 q25 -71.5 76 -111 q51 -39.5 128 -39.5 q79 0 129 39.5 q50 39.5 74 110.5 q24 71 24 167 q0 148 -56.5 231.5 q-56.5 83.5 -167.5 83.5 q-78 0 -129.5 -39.5 q-51.5 -39.5 -77 -110.5 q-25.5 -71 -25.5 -165 ZM684 532 l60 0 l128 -332 q16 -44 28 -78 q12 -34 20 -62 l3 0 q7 23 19 59.5 q12 36.5 28 79.5 l123 333 l60 0 l-239 -627 q-27 -70 -64 -108.5 q-37 -38.5 -100 -38.5 q-20 0 -35 3 q-15 3 -29 7 l0 48 q26 -9 56 -9 q42 0 68.5 26 q26.5 26 47.5 79 l35 90 l-209 530 Z" /><glyph glyph-name="uni047A" unicode="&#x47a;" d="M400 -47 q-41 0 -52 39 q-94 10 -157.5 58.5 q-63.5 48.5 -96 128 q-32.5 79.5 -32.5 180.5 q0 101 33 179 q33 78 97.5 126 q64.5 48 157.5 58 q8 38 50 38 q20 0 33 -9 q13 -9 18 -30 q130 -17 202 -113 q72 -96 72 -250 q0 -99 -31.5 -177 q-31.5 -78 -92.5 -126.5 q-61 -48.5 -150 -61.5 q-11 -40 -51 -40 ZM348 45 q12 35 51 35 q39 0 51 -34 q108 17 161 100.5 q53 83.5 53 211.5 q0 133 -55 213.5 q-55 80.5 -159 96.5 q-10 -36 -50 -36 q-41 0 -50 36 q-114 -14 -171 -97.5 q-57 -83.5 -57 -212.5 q0 -130 56.5 -214.5 q56.5 -84.5 169.5 -98.5 Z" /><glyph glyph-name="uni047B" unicode="&#x47b;" d="M560 266 q0 -111 -52 -184.5 q-52 -73.5 -151 -88.5 q-10 -37 -47 -37 q-21 0 -32.5 8.5 q-11.5 8.5 -15.5 29.5 q-97 14 -151 86.5 q-54 72.5 -54 185.5 q0 116 54.5 187 q54.5 71 152.5 85 q8 36 46 36 q39 0 47 -36 q100 -14 151.5 -87.5 q51.5 -73.5 51.5 -184.5 ZM500 266 q0 88 -33.5 148.5 q-33.5 60.5 -109.5 73.5 q-9 -34 -47 -34 q-38 0 -46 35 q-74 -13 -111 -71 q-37 -58 -37 -152 q0 -92 35.5 -151.5 q35.5 -59.5 111.5 -71.5 q7 32 46 32 q39 0 47 -32 q75 14 109.5 73.5 q34.5 59.5 34.5 149.5 Z" /><glyph glyph-name="uni047C" unicode="&#x47c;" d="M329 911 l0 10 q0 49 29.5 76 q29.5 27 83.5 27 q33 0 59.5 -9 q26.5 -9 51 -21.5 q24.5 -12.5 52 -21.5 q27.5 -9 62.5 -9 l14 0 l0 -43 l-17 0 q-40 0 -70 9 q-30 9 -54.5 20.5 q-24.5 11.5 -47.5 20.5 q-23 9 -50 9 q-34 0 -51 -18 q-17 -18 -17 -50 l-45 0 ZM438 754 l0 29 q30 9 44.5 24.5 q14.5 15.5 14.5 31.5 q0 13 -10.5 18.5 q-10.5 5.5 -21 11.5 q-10.5 6 -10.5 21 q0 16 10.5 24 q10.5 8 26.5 8 q22 0 36 -14.5 q14 -14.5 14 -42.5 q0 -39 -26 -68 q-26 -29 -78 -43 ZM330 -10 q-88 0 -148 46.5 q-60 46.5 -90 129.5 q-30 83 -30 194 q0 114 30.5 195.5 q30.5 81.5 86 125 q55.5 43.5 131.5 43.5 q39 0 74.5 -11 q35.5 -11 63.5 -31 l-24 -45 q-50 37 -110 37 q-92 0 -142 -83.5 q-50 -83.5 -50 -230.5 q0 -147 55.5 -232.5 q55.5 -85.5 160.5 -85.5 q39 0 70.5 13 q31.5 13 59.5 35 l0 227 l58 0 l0 -227 q28 -22 60 -35 q32 -13 70 -13 q105 0 160.5 85.5 q55.5 85.5 55.5 232.5 q0 147 -50 230.5 q-50 83.5 -142 83.5 q-61 0 -111 -37 l-23 45 q28 20 63.5 31 q35.5 11 74.5 11 q76 0 131.5 -43.5 q55.5 -43.5 86 -125 q30.5 -81.5 30.5 -195.5 q0 -111 -30 -194 q-30 -83 -89.5 -129.5 q-59.5 -46.5 -147.5 -46.5 q-52 0 -93 15.5 q-41 15.5 -75 42.5 q-34 -27 -75 -42.5 q-41 -15.5 -92 -15.5 Z" /><glyph glyph-name="uni047D" unicode="&#x47d;" d="M384 853 q33 0 59.5 -9 q26.5 -9 51 -21.5 q24.5 -12.5 52 -21.5 q27.5 -9 61.5 -9 l14 0 l0 -44 l-16 0 q-41 0 -71 9 q-30 9 -54 21 q-24 12 -47 21 q-23 9 -50 9 q-69 0 -69 -68 l-45 0 l0 10 q0 49 29 76 q29 27 85 27 ZM434 752 q22 0 36 -15 q14 -15 14 -43 q0 -39 -26.5 -68 q-26.5 -29 -77.5 -42 l0 28 q30 9 44 25 q14 16 14 32 q0 13 -10.5 18.5 q-10.5 5.5 -21 11.5 q-10.5 6 -10.5 21 q0 32 38 32 ZM278 -10 q-104 0 -162 75 q-58 75 -58 203 q0 132 56 203 q56 71 152 71 q32 0 57 -7 q25 -7 43 -17 l-14 -48 q-21 10 -41.5 16 q-20.5 6 -44.5 6 q-70 0 -109.5 -56.5 q-39.5 -56.5 -39.5 -167.5 q0 -104 42.5 -166 q42.5 -62 122.5 -62 q44 0 71.5 13.5 q27.5 13.5 55.5 39.5 l0 172 l57 0 l0 -171 q28 -27 56 -40.5 q28 -13.5 72 -13.5 q78 0 121 62 q43 62 43 166 q0 111 -39 167.5 q-39 56.5 -109 56.5 q-23 0 -43.5 -6 q-20.5 -6 -39.5 -16 l-15 48 q20 10 43 17 q23 7 55 7 q96 0 151.5 -71 q55.5 -71 55.5 -203 q0 -85 -26.5 -147.5 q-26.5 -62.5 -75.5 -96.5 q-49 -34 -118 -34 q-59 0 -98 20 q-39 20 -61 46 q-23 -26 -61.5 -46 q-38.5 -20 -98.5 -20 Z" /><glyph glyph-name="uni0480" unicode="&#x480;" d="M408 724 q107 0 190 -40 l-23 -50 q-78 38 -167 38 q-90 0 -154 -39.5 q-64 -39.5 -97.5 -110 q-33.5 -70.5 -33.5 -164.5 q0 -146 72.5 -230.5 q72.5 -84.5 219.5 -84.5 q34 0 61 8 l0 -291 l-58 0 l0 230 q-122 0 -201 47 q-79 47 -117 130 q-38 83 -38 191 q0 106 41 188.5 q41 82.5 118.5 130 q77.5 47.5 186.5 47.5 Z" /><glyph glyph-name="uni0481" unicode="&#x481;" d="M316 542 q38 0 72.5 -7 q34.5 -7 61.5 -19 l-16 -50 q-27 12 -59 18.5 q-32 6.5 -61 6.5 q-95 0 -146.5 -59.5 q-51.5 -59.5 -51.5 -167.5 q0 -116 55 -169.5 q55 -53.5 152 -53.5 q20 0 35 3.5 q15 3.5 28 7.5 l0 -292 l-56 0 l0 231 q-128 0 -200.5 66 q-72.5 66 -72.5 206 q0 91 32.5 153 q32.5 62 90.5 94 q58 32 136 32 Z" /><glyph glyph-name="uni0482" unicode="&#x482;" d="M456 626 l41 -23 l-95 -164 l139 -81 l-23 -40 l-139 82 l-113 -194 l139 -82 l-23 -40 l-140 82 l-94 -163 l-42 22 l96 165 l-140 81 l23 39 l140 -82 l113 196 l-140 80 l24 40 l138 -82 l96 164 Z" /><glyph glyph-name="uni0488" unicode="&#x488;" d="M391 605 q4 42 27.5 64.5 q23.5 22.5 70.5 22.5 q44 0 69.5 -23 q25.5 -23 29.5 -64 l-31 0 q-4 27 -23 39 q-19 12 -45 12 q-31 0 -48 -11 q-17 -11 -21 -40 l-29 0 ZM674 466 q4 41 28 64 q24 23 70 23 q44 0 70 -23.5 q26 -23.5 30 -63.5 l-32 0 q-4 27 -23 39 q-19 12 -45 12 q-31 0 -47.5 -11 q-16.5 -11 -21.5 -40 l-29 0 ZM111 466 q4 41 27.5 64 q23.5 23 70.5 23 q44 0 69.5 -23.5 q25.5 -23.5 30.5 -63.5 l-32 0 q-4 27 -23 39 q-19 12 -45 12 q-31 0 -48 -11 q-17 -11 -21 -40 l-29 0 ZM24 228 q4 41 28 64 q24 23 70 23 q44 0 70 -23.5 q26 -23.5 30 -63.5 l-31 0 q-4 28 -23 39.5 q-19 11.5 -46 11.5 q-31 0 -47.5 -11 q-16.5 -11 -21.5 -40 l-29 0 ZM767 228 q4 42 27.5 64.5 q23.5 22.5 70.5 22.5 q44 0 69.5 -23.5 q25.5 -23.5 30.5 -63.5 l-32 0 q-4 27 -23 39 q-19 12 -45 12 q-31 0 -48 -11 q-17 -11 -21 -40 l-29 0 ZM111 -16 q4 41 27.5 64 q23.5 23 70.5 23 q44 0 69.5 -23.5 q25.5 -23.5 30.5 -63.5 l-32 0 q-4 27 -23 39 q-19 12 -45 12 q-31 0 -48 -11 q-17 -11 -21 -40 l-29 0 ZM674 -16 q4 41 28 64 q24 23 70 23 q44 0 70 -23.5 q26 -23.5 30 -63.5 l-32 0 q-4 27 -23 39 q-19 12 -45 12 q-31 0 -47.5 -11 q-16.5 -11 -21.5 -40 l-29 0 ZM391 -152 q5 41 28.5 64 q23.5 23 69.5 23 q44 0 69.5 -23.5 q25.5 -23.5 30.5 -63.5 l-32 0 q-4 27 -23 39 q-19 12 -45 12 q-31 0 -48 -11 q-17 -11 -21 -40 l-29 0 Z" /><glyph glyph-name="uni0489" unicode="&#x489;" d="M532 728 q-12 -42 -22 -88.5 q-10 -46.5 -14 -82.5 l-48 0 l-6 7 q8 36 23 80.5 q15 44.5 32 83.5 l35 0 ZM194 624 q20 -38 46 -78 q26 -40 48 -69 l-34 -34 l-8 1 q-20 31 -41 72.5 q-21 41.5 -37 81.5 l26 26 ZM816 578 l26 -24 q-39 -21 -79 -47.5 q-40 -26.5 -69 -48.5 l-34 34 l2 9 q30 19 72 40.5 q42 21.5 82 36.5 ZM24 320 q42 -12 88.5 -22 q46.5 -10 82.5 -15 l0 -48 l-7 -5 q-36 8 -80.5 22.5 q-44.5 14.5 -83.5 31.5 l0 36 ZM776 310 q36 -8 80.5 -22.5 q44.5 -14.5 83.5 -31.5 l0 -36 q-41 12 -87.5 22 q-46.5 10 -82.5 15 l0 48 l6 5 ZM710 86 l8 -1 q20 -31 41 -73 q21 -42 37 -82 l-26 -25 q-20 38 -46 78.5 q-26 40.5 -48 68.5 l34 34 ZM270 71 l34 -34 l-2 -8 q-30 -19 -72 -40.5 q-42 -21.5 -82 -37.5 l-25 25 q38 21 78.5 46.5 q40.5 25.5 68.5 48.5 ZM518 -17 l4 -7 q-8 -36 -22 -80.5 q-14 -44.5 -32 -83.5 l-36 0 q13 42 23.5 88.5 q10.5 46.5 14.5 82.5 l48 0 Z" /><glyph glyph-name="uni048A" unicode="&#x48a;" d="M370 776 q-80 0 -119 34 q-39 34 -43 106 l54 0 q4 -54 30 -76 q26 -22 79 -22 q50 0 78.5 22 q28.5 22 32.5 76 l55 0 q-7 -140 -167 -140 ZM572 -182 l76 182 l-73 0 l0 478 q0 38 1.5 78 q1.5 40 3.5 72 l-3 0 l-415 -628 l-62 0 l0 714 l55 0 l0 -486 q0 -38 -1.5 -75.5 q-1.5 -37.5 -2.5 -66.5 l3 0 l415 628 l61 0 l0 -662 l86 0 l-78 -234 l-66 0 Z" /><glyph glyph-name="uni048B" unicode="&#x48b;" d="M308 606 q-80 0 -119 34 q-39 34 -43 106 l54 0 q4 -54 30 -76 q26 -22 80 -22 q50 0 78 22 q28 22 33 76 l55 0 q-9 -140 -168 -140 ZM471 -180 l68 180 l-73 0 l0 372 q0 26 0.5 52 q0.5 26 1.5 48 l-312 -472 l-68 0 l0 532 l54 0 l0 -363 q0 -55 -3 -107 l311 470 l70 0 l0 -483 l84 0 l-74 -229 l-59 0 Z" /><glyph glyph-name="uni048C" unicode="&#x48c;" d="M158 714 l0 -107 l142 0 l0 -51 l-142 0 l0 -154 l120 0 q135 0 197.5 -49 q62.5 -49 62.5 -147 q0 -100 -61.5 -153 q-61.5 -53 -184.5 -53 l-192 0 l0 556 l-84 0 l0 51 l84 0 l0 107 l58 0 ZM280 350 l-122 0 l0 -300 l128 0 q97 0 144.5 38 q47.5 38 47.5 118 q0 84 -52.5 114 q-52.5 30 -145.5 30 Z" /><glyph glyph-name="uni048D" unicode="&#x48d;" d="M165 760 l0 -127 l131 0 l0 -46 l-131 0 l0 -278 l179 0 q99 0 145.5 -39.5 q46.5 -39.5 46.5 -109.5 q0 -75 -48 -117.5 q-48 -42.5 -152 -42.5 l-228 0 l0 587 l-74 0 l0 46 l74 0 l0 127 l57 0 ZM338 260 l-173 0 l0 -212 l167 0 q146 0 146 110 q0 102 -140 102 Z" /><glyph glyph-name="uni048E" unicode="&#x48e;" d="M538 512 q0 -65 -26.5 -113 q-26.5 -48 -81.5 -75 l58 -80 l-37 -29 l-67 91 q-26 -8 -55 -11 q-29 -3 -64 -3 l-107 0 l0 -292 l-58 0 l0 714 l182 0 q256 0 256 -202 ZM158 342 l102 0 q52 0 92 9 l-52 73 l39 29 l63 -85 q36 18 56 52 q20 34 20 89 q0 80 -50 117 q-50 37 -154 37 l-116 0 l0 -321 Z" /><glyph glyph-name="uni048F" unicode="&#x48f;" d="M321 -10 q-71 0 -113.5 30 q-42.5 30 -62.5 72 l-4 0 q1 -16 2.5 -50 q1.5 -34 1.5 -60 l0 -218 l-57 0 l0 768 l47 0 l7 -100 l4 0 q20 44 63 77 q43 33 117 33 q102 0 159.5 -68.5 q57.5 -68.5 57.5 -204.5 q0 -82 -22.5 -141 q-22.5 -59 -63.5 -93 l57 -79 l-36 -28 l-61 84 q-42 -22 -96 -22 ZM318 492 q-88 0 -130 -55 q-42 -55 -43 -159 l0 -12 q0 -114 41.5 -170.5 q41.5 -56.5 127.5 -56.5 q44 0 72 17 l-61 84 l38 28 l63 -86 q58 56 58 188 q0 222 -166 222 Z" /><glyph glyph-name="uni0492" unicode="&#x492;" d="M498 714 l0 -52 l-340 0 l0 -282 l213 0 l0 -52 l-213 0 l0 -328 l-58 0 l0 328 l-80 0 l0 52 l80 0 l0 334 l398 0 Z" /><glyph glyph-name="uni0493" unicode="&#x493;" d="M404 532 l0 -50 l-260 0 l0 -192 l176 0 l0 -46 l-176 0 l0 -244 l-56 0 l0 244 l-80 0 l0 46 l80 0 l0 242 l316 0 Z" /><glyph glyph-name="uni0494" unicode="&#x494;" d="M268 340 q-32 0 -63 -3.5 q-31 -3.5 -47 -7.5 l0 -329 l-58 0 l0 714 l404 0 l0 -52 l-346 0 l0 -282 q20 4 52 8.5 q32 4.5 67 4.5 q105 0 173 -40 q68 -40 101 -112 q33 -72 33 -167 q0 -154 -69 -239 q-69 -85 -191 -85 q-40 0 -70.5 6 q-30.5 6 -57.5 18 l0 54 q30 -13 59 -19.5 q29 -6.5 65 -6.5 q99 0 151.5 73 q52.5 73 52.5 199 q0 123 -63 194.5 q-63 71.5 -193 71.5 Z" /><glyph glyph-name="uni0495" unicode="&#x495;" d="M410 532 l0 -50 l-265 0 l0 -184 q44 13 94 13 q122 0 184 -68 q62 -68 62 -210 q0 -137 -58 -207.5 q-58 -70.5 -153 -70.5 q-36 0 -63.5 7.5 q-27.5 7.5 -48.5 17.5 l0 54 q22 -13 50 -20.5 q28 -7.5 62 -7.5 q74 0 113 59 q39 59 39 168 q0 115 -46 171 q-46 56 -143 56 q-23 0 -48 -4 q-25 -4 -44 -10 l0 -246 l-57 0 l0 532 l322 0 Z" /><glyph glyph-name="uni0496" unicode="&#x496;" d="M776 714 l-288 -348 l258 -314 l76 0 l0 -234 l-55 0 l0 182 l-47 0 l-295 362 l0 -362 l-56 0 l0 362 l-295 -362 l-68 0 l300 366 l-288 348 l67 0 l284 -346 l0 346 l56 0 l0 -346 l285 346 l66 0 Z" /><glyph glyph-name="uni0497" unicode="&#x497;" d="M658 532 l-230 -260 l203 -223 l77 0 l0 -229 l-56 0 l0 180 l-44 0 l-241 270 l0 -270 l-54 0 l0 270 l-241 -270 l-67 0 l247 272 l-230 260 l65 0 l226 -258 l0 258 l54 0 l0 -258 l226 258 l65 0 Z" /><glyph glyph-name="uni049A" unicode="&#x49a;" d="M566 714 l-337 -347 l301 -315 l82 0 l0 -234 l-56 0 l0 182 l-51 0 l-347 364 l0 -364 l-58 0 l0 714 l58 0 l0 -346 l338 346 l70 0 Z" /><glyph glyph-name="uni049B" unicode="&#x49b;" d="M436 -180 l0 180 l-42 0 l-249 270 l0 -270 l-57 0 l0 532 l57 0 l0 -258 l237 258 l66 0 l-239 -258 l209 -225 l72 0 l0 -229 l-54 0 Z" /><glyph glyph-name="uni049C" unicode="&#x49c;" d="M288 150 l-44 0 l0 124 l-86 90 l0 -364 l-58 0 l0 714 l58 0 l0 -346 l86 88 l0 140 l44 0 l0 -95 l208 213 l70 0 l-278 -286 l0 -123 l290 -305 l-73 0 l-217 228 l0 -78 ZM229 367 l15 -16 l0 31 l-15 -15 Z" /><glyph glyph-name="uni049D" unicode="&#x49d;" d="M259 495 l0 -97 l123 134 l66 0 l-189 -204 l0 -108 l203 -220 l-68 0 l-135 146 l0 -96 l-45 0 l0 145 l-69 75 l0 -270 l-57 0 l0 532 l57 0 l0 -258 l69 75 l0 146 l45 0 ZM209 274 l5 -5 l0 10 l-5 -5 Z" /><glyph glyph-name="uni049E" unicode="&#x49e;" d="M22 572 l0 52 l78 0 l0 90 l58 0 l0 -90 l117 0 l0 -52 l-117 0 l0 -204 l338 346 l70 0 l-337 -347 l349 -367 l-73 0 l-347 364 l0 -364 l-58 0 l0 572 l-78 0 Z" /><glyph glyph-name="uni049F" unicode="&#x49f;" d="M145 760 l0 -96 l166 0 l0 -46 l-166 0 l0 -344 l237 258 l66 0 l-239 -258 l253 -274 l-68 0 l-249 270 l0 -270 l-57 0 l0 618 l-81 0 l0 46 l81 0 l0 96 l57 0 Z" /><glyph glyph-name="uni04A0" unicode="&#x4a0;" d="M634 714 l-338 -347 l349 -367 l-73 0 l-347 364 l0 -364 l-58 0 l0 662 l-162 0 l0 52 l220 0 l0 -346 l337 346 l72 0 Z" /><glyph glyph-name="uni04A1" unicode="&#x4a1;" d="M538 532 l-238 -258 l254 -274 l-69 0 l-249 270 l0 -270 l-56 0 l0 484 l-160 0 l0 48 l216 0 l0 -258 l238 258 l64 0 Z" /><glyph glyph-name="uni04A2" unicode="&#x4a2;" d="M644 -182 l0 182 l-78 0 l0 348 l-408 0 l0 -348 l-58 0 l0 714 l58 0 l0 -314 l408 0 l0 314 l57 0 l0 -662 l77 0 l0 -234 l-56 0 Z" /><glyph glyph-name="uni04A3" unicode="&#x4a3;" d="M544 -180 l0 180 l-73 0 l0 252 l-326 0 l0 -252 l-57 0 l0 532 l57 0 l0 -231 l326 0 l0 231 l57 0 l0 -483 l73 0 l0 -229 l-57 0 Z" /><glyph glyph-name="uni04A4" unicode="&#x4a4;" d="M100 0 l0 714 l58 0 l0 -314 l407 0 l0 314 l218 0 l0 -52 l-160 0 l0 -662 l-58 0 l0 348 l-407 0 l0 -348 l-58 0 Z" /><glyph glyph-name="uni04A5" unicode="&#x4a5;" d="M88 0 l0 532 l57 0 l0 -231 l326 0 l0 231 l216 0 l0 -48 l-159 0 l0 -484 l-57 0 l0 252 l-326 0 l0 -252 l-57 0 Z" /><glyph glyph-name="uni04A6" unicode="&#x4a6;" d="M594 714 l0 -332 q47 10 116 10 q103 0 170 -40 q67 -40 99.5 -112 q32.5 -72 32.5 -166 q0 -154 -68 -239 q-68 -85 -190 -85 q-42 0 -72 6 q-30 6 -57 18 l0 54 q29 -12 59 -19 q30 -7 64 -7 q99 0 151.5 73.5 q52.5 73.5 52.5 198.5 q0 123 -60 194.5 q-60 71.5 -186 71.5 q-32 0 -62.5 -3.5 q-30.5 -3.5 -49.5 -8.5 l0 -328 l-57 0 l0 661 l-379 0 l0 -661 l-58 0 l0 714 l494 0 Z" /><glyph glyph-name="uni04A7" unicode="&#x4a7;" d="M500 532 l0 -234 q46 13 92 13 q112 0 176 -66.5 q64 -66.5 64 -211.5 q0 -137 -55.5 -207.5 q-55.5 -70.5 -148.5 -70.5 q-34 0 -60.5 7.5 q-26.5 7.5 -47.5 17.5 l0 54 q22 -13 48.5 -20.5 q26.5 -7.5 59.5 -7.5 q70 0 108 59 q38 59 38 168 q0 115 -45.5 171 q-45.5 56 -138.5 56 q-21 0 -45.5 -4 q-24.5 -4 -44.5 -12 l0 -244 l-57 0 l0 482 l-298 0 l0 -482 l-57 0 l0 532 l412 0 Z" /><glyph glyph-name="uni04A8" unicode="&#x4a8;" d="M704 338 q0 -96 -39.5 -176 q-39.5 -80 -104.5 -124 q44 -27 102 -27 q39 0 64 11 l0 -52 q-10 -4 -28.5 -7.5 q-18.5 -3.5 -39.5 -3.5 q-46 0 -84 13.5 q-38 13.5 -72 36.5 q-50 -19 -124 -19 q-98 0 -169 44 q-71 44 -109 125 q-38 81 -38 193 q0 115 35.5 198.5 q35.5 83.5 105 129 q69.5 45.5 170.5 45.5 q35 0 62 -4.5 q27 -4.5 47 -11.5 l-16 -51 q-16 6 -41 10.5 q-25 4.5 -53 4.5 q-124 0 -187 -85.5 q-63 -85.5 -63 -233.5 q0 -146 67 -229.5 q67 -83.5 195 -83.5 q22 0 40.5 2.5 q18.5 2.5 32.5 7.5 q-52 53 -78 126 q-26 73 -26 156 q0 115 47.5 180.5 q47.5 65.5 132.5 65.5 q77 0 124 -57.5 q47 -57.5 47 -183.5 ZM646 336 q0 94 -29 144 q-29 50 -83 50 q-60 0 -91 -56 q-31 -56 -31 -144 q0 -82 27 -147.5 q27 -65.5 75 -111.5 q61 36 96.5 107.5 q35.5 71.5 35.5 157.5 Z" /><glyph glyph-name="uni04A9" unicode="&#x4a9;" d="M278 542 q22 0 40.5 -3 q18.5 -3 33.5 -7 l-12 -49 q-11 4 -28 6.5 q-17 2.5 -34 2.5 q-80 0 -121 -59.5 q-41 -59.5 -42 -171.5 q-1 -98 46 -160 q47 -62 139 -62 q21 0 38 3.5 q17 3.5 27 7.5 q-37 36 -59.5 85 q-22.5 49 -22.5 115 q0 83 37.5 128.5 q37.5 45.5 101.5 45.5 q63 0 98 -44 q35 -44 35 -128 q0 -70 -27.5 -124 q-27.5 -54 -69.5 -86 q12 -8 31.5 -14.5 q19.5 -6.5 38.5 -6.5 q15 0 27.5 2 q12.5 2 24.5 5 l0 -48 q-21 -6 -55 -6 q-32 0 -62.5 10 q-30.5 10 -58.5 28 q-20 -10 -46 -16 q-26 -6 -61 -6 q-77 0 -131 36 q-54 36 -82 97.5 q-28 61.5 -28 138.5 q0 81 24 144.5 q24 63.5 73.5 99.5 q49.5 36 124.5 36 ZM422 378 q-39 0 -60.5 -33.5 q-21.5 -33.5 -21.5 -96.5 q0 -62 21.5 -105 q21.5 -43 55.5 -71 q35 24 58 70 q23 46 23 110 q0 63 -20 94.5 q-20 31.5 -56 31.5 Z" /><glyph glyph-name="uni04AC" unicode="&#x4ac;" d="M314 -182 l0 182 l-78 0 l0 661 l-231 0 l0 53 l519 0 l0 -53 l-230 0 l0 -609 l76 0 l0 -234 l-56 0 Z" /><glyph glyph-name="uni04AD" unicode="&#x4ad;" d="M432 532 l0 -49 l-178 0 l0 -434 l72 0 l0 -229 l-56 0 l0 180 l-73 0 l0 483 l-177 0 l0 49 l412 0 Z" /><glyph glyph-name="uni04AF" unicode="&#x4af;" d="M263 -240 l-57 0 l0 241 l-206 531 l59 0 l133 -348 q14 -34 24.5 -67 q10.5 -33 16.5 -55 l3 0 q7 22 17 54.5 q10 32.5 23 66.5 l134 349 l59 0 l-206 -531 l0 -241 Z" /><glyph glyph-name="uni04B0" unicode="&#x4b0;" d="M240 0 l0 192 l-155 0 l0 52 l155 0 l0 28 l-240 442 l64 0 l204 -382 l204 382 l64 0 l-238 -438 l0 -32 l152 0 l0 -52 l-152 0 l0 -192 l-58 0 Z" /><glyph glyph-name="uni04B1" unicode="&#x4b1;" d="M469 532 l-205 -532 l146 0 l0 -46 l-147 0 l0 -194 l-57 0 l0 194 l-148 0 l0 46 l148 0 l-206 532 l59 0 l133 -348 q14 -37 24 -67 q10 -30 17 -57 l3 0 q8 27 18 57.5 q10 30.5 24 67.5 l132 347 l59 0 Z" /><glyph glyph-name="uni04B2" unicode="&#x4b2;" d="M528 -182 l0 182 l-48 0 l-206 330 l-211 -330 l-63 0 l240 371 l-220 343 l66 0 l190 -302 l190 302 l64 0 l-221 -342 l204 -320 l71 0 l0 -234 l-56 0 Z" /><glyph glyph-name="uni04B3" unicode="&#x4b3;" d="M457 -180 l0 180 l-43 0 l-164 234 l-163 -234 l-65 0 l194 273 l-186 259 l67 0 l153 -220 l154 220 l65 0 l-184 -259 l160 -224 l67 0 l0 -229 l-55 0 Z" /><glyph glyph-name="uni04B4" unicode="&#x4b4;" d="M762 -182 l0 182 l-542 0 l0 661 l-214 0 l0 53 l524 0 l0 -53 l-252 0 l0 -609 l402 0 l0 662 l58 0 l0 -662 l78 0 l0 -234 l-54 0 Z" /><glyph glyph-name="uni04B5" unicode="&#x4b5;" d="M618 -181 l0 181 l-438 0 l0 483 l-160 0 l0 49 l404 0 l0 -49 l-188 0 l0 -434 l306 0 l0 483 l58 0 l0 -483 l74 0 l0 -230 l-56 0 Z" /><glyph glyph-name="uni04B6" unicode="&#x4b6;" d="M575 714 l0 -662 l77 0 l0 -234 l-56 0 l0 182 l-79 0 l0 306 q-53 -21 -105 -34.5 q-52 -13.5 -119 -13.5 q-103 0 -154.5 46 q-51.5 46 -51.5 132 l0 278 l58 0 l0 -269 q0 -66 35.5 -100.5 q35.5 -34.5 117.5 -34.5 q63 0 113.5 12 q50.5 12 105.5 34 l0 358 l58 0 Z" /><glyph glyph-name="uni04B7" unicode="&#x4b7;" d="M498 532 l0 -483 l73 0 l0 -230 l-57 0 l0 181 l-72 0 l0 244 q-44 -30 -88 -46.5 q-44 -16.5 -103 -16.5 q-85 0 -128.5 43.5 q-43.5 43.5 -43.5 119.5 l0 188 l57 0 l0 -182 q0 -63 32 -91.5 q32 -28.5 93 -28.5 q53 0 96.5 17 q43.5 17 84.5 45 l0 240 l56 0 Z" /><glyph glyph-name="uni04B8" unicode="&#x4b8;" d="M575 714 l0 -714 l-59 0 l0 306 q-38 -16 -78 -29 q-40 -13 -87 -17 l0 -156 l-43 0 l0 154 q-110 0 -165.5 43 q-55.5 43 -55.5 135 l0 278 l58 0 l0 -269 q0 -71 38.5 -103 q38.5 -32 124.5 -32 l0 180 l43 0 l0 -178 q47 4 87 15.5 q40 11.5 78 27.5 l0 359 l59 0 Z" /><glyph glyph-name="uni04B9" unicode="&#x4b9;" d="M494 532 l0 -532 l-56 0 l0 244 q-33 -22 -64.5 -37 q-31.5 -15 -69.5 -21 l0 -122 l-43 0 l0 117 q-3 -1 -11 -1 q-84 0 -127.5 44 q-43.5 44 -43.5 120 l0 188 l57 0 l0 -182 q0 -63 31 -91.5 q31 -28.5 94 -29.5 l0 152 l43 0 l0 -148 q38 5 70 20.5 q32 15.5 64 38.5 l0 240 l56 0 Z" /><glyph glyph-name="uni04BA" unicode="&#x4ba;" d="M100 714 l58 0 l0 -306 q54 21 107.5 34.5 q53.5 13.5 116.5 13.5 q102 0 154 -46 q52 -46 52 -132 l0 -278 l-58 0 l0 269 q0 66 -35 100.5 q-35 34.5 -117 34.5 q-64 0 -114.5 -12 q-50.5 -12 -105.5 -34 l0 -358 l-58 0 l0 714 Z" /><glyph glyph-name="uni04BC" unicode="&#x4bc;" d="M474 724 q144 0 211 -90 q67 -90 67 -262 l0 -38 l-529 0 q5 -136 73 -214 q68 -78 200 -78 q63 0 112.5 10.5 q49.5 10.5 91.5 24.5 l0 -53 q-38 -14 -88.5 -24 q-50.5 -10 -120.5 -10 q-105 0 -176.5 42 q-71.5 42 -110 119.5 q-38.5 77.5 -42.5 182.5 l-16 0 q-56 0 -86.5 29.5 q-30.5 29.5 -30.5 78.5 q0 35 13 58 l50 0 q-4 -10 -7.5 -23.5 q-3.5 -13.5 -3.5 -29.5 q0 -29 17.5 -45 q17.5 -16 51.5 -16 l12 0 q11 156 90 247 q79 91 222 91 ZM474 672 q-118 0 -182 -78 q-64 -78 -69 -208 l467 0 q0 142 -52 214 q-52 72 -164 72 Z" /><glyph glyph-name="uni04BD" unicode="&#x4bd;" d="M378 542 q69 0 115.5 -31.5 q46.5 -31.5 69.5 -86.5 q23 -55 23 -126 l0 -40 l-381 0 q0 -108 48.5 -163 q48.5 -55 140.5 -55 q52 0 88.5 8 q36.5 8 81.5 27 l0 -51 q-40 -18 -79.5 -26 q-39.5 -8 -90.5 -8 q-116 0 -181 69 q-65 69 -67 199 q-61 1 -92.5 25.5 q-31.5 24.5 -31.5 76.5 q0 16 4 32 q4 16 8 26 l49 0 q-5 -10 -8 -24.5 q-3 -14.5 -3 -29.5 q0 -58 67 -58 l9 0 q10 110 71 173 q61 63 159 63 ZM378 493 q-74 0 -119 -47.5 q-45 -47.5 -53 -139.5 l320 0 q0 84 -36 135.5 q-36 51.5 -112 51.5 Z" /><glyph glyph-name="uni04BE" unicode="&#x4be;" d="M474 724 q144 0 211 -90 q67 -90 67 -260 l0 -40 l-529 0 q5 -136 73 -214 q68 -78 200 -78 q63 0 112.5 10.5 q49.5 10.5 91.5 24.5 l0 -53 q-81 -32 -197 -33 l0 -177 l-56 0 l0 179 q-136 12 -207.5 103.5 q-71.5 91.5 -77.5 237.5 l-16 0 q-56 0 -86.5 29.5 q-30.5 29.5 -30.5 78.5 q0 35 13 58 l50 0 q-4 -10 -7.5 -23.5 q-3.5 -13.5 -3.5 -29.5 q0 -29 17.5 -45 q17.5 -16 51.5 -16 l12 0 q6 104 44 180 q38 76 105.5 117 q67.5 41 162.5 41 ZM474 672 q-118 0 -182 -78 q-64 -78 -69 -208 l467 0 q0 142 -51 214 q-51 72 -165 72 Z" /><glyph glyph-name="uni04BF" unicode="&#x4bf;" d="M352 -7 q-98 11 -151 79 q-53 68 -55 186 q-61 1 -92.5 25.5 q-31.5 24.5 -31.5 76.5 q0 16 4 32 q4 16 8 26 l49 0 q-5 -10 -8 -24.5 q-3 -14.5 -3 -29.5 q0 -58 67 -58 l9 0 q12 108 72 172 q60 64 158 64 q69 0 115.5 -31.5 q46.5 -31.5 69.5 -86.5 q23 -55 23 -126 l0 -40 l-381 0 q0 -108 48.5 -163 q48.5 -55 140.5 -55 q52 0 88.5 8 q36.5 8 81.5 27 l0 -51 q-38 -17 -74 -24.5 q-36 -7.5 -82 -8.5 l0 -172 l-56 0 l0 174 ZM378 493 q-74 0 -119 -47.5 q-45 -47.5 -53 -139.5 l320 0 q0 84 -36 135.5 q-36 51.5 -112 51.5 Z" /><glyph glyph-name="uni04C3" unicode="&#x4c3;" d="M567 714 l-322 -328 q21 3 45 3 q107 0 175 -39.5 q68 -39.5 100.5 -110 q32.5 -70.5 32.5 -164.5 q0 -157 -70.5 -241 q-70.5 -84 -191.5 -84 q-41 0 -71.5 6 q-30.5 6 -57.5 18 l0 54 q29 -13 59 -19.5 q30 -6.5 68 -6.5 q96 0 150.5 73 q54.5 73 54.5 200 q0 125 -66.5 194 q-66.5 69 -193.5 69 q-40 0 -70.5 -4.5 q-30.5 -4.5 -50.5 -10.5 l0 -323 l-58 0 l0 714 l58 0 l0 -350 q21 24 44 49 q23 25 45 48 l247 253 l73 0 Z" /><glyph glyph-name="uni04C4" unicode="&#x4c4;" d="M496 33 q0 -136 -60 -207 q-60 -71 -154 -71 q-34 0 -60.5 7.5 q-26.5 7.5 -47.5 17.5 l0 52 q22 -12 49 -20 q27 -8 60 -8 q71 0 113.5 59.5 q42.5 59.5 42.5 168.5 q0 80 -27.5 128.5 q-27.5 48.5 -76.5 70.5 q-49 22 -116 22 q-36 0 -75 -9 l0 -244 l-56 0 l0 532 l56 0 l0 -250 l240 250 l66 0 l-225 -230 q79 -1 140.5 -27.5 q61.5 -26.5 96 -85.5 q34.5 -59 34.5 -156 Z" /><glyph glyph-name="uni04C5" unicode="&#x4c5;" d="M586 52 l86 0 l-78 -234 l-66 0 l77 182 l-77 0 l0 662 l-252 0 q-8 -69 -17.5 -148 q-9.5 -79 -21 -156.5 q-11.5 -77.5 -23.5 -141.5 q-13 -68 -31 -119.5 q-18 -51.5 -47.5 -79.5 q-29.5 -28 -79.5 -28 q-17 0 -32 2.5 q-15 2.5 -26 7.5 l0 51 q12 -5 25 -8 q13 -3 29 -3 q33 0 53 26 q20 26 32.5 69.5 q12.5 43.5 22.5 95.5 q12 67 24 148.5 q12 81.5 23 167.5 q11 86 21 168 l358 0 l0 -662 Z" /><glyph glyph-name="uni04C6" unicode="&#x4c6;" d="M463 49 l84 0 l-75 -229 l-58 0 l68 180 l-76 0 l0 483 l-180 0 q-12 -168 -32.5 -276 q-20.5 -108 -55.5 -160 q-35 -52 -93 -52 q-13 0 -23 1.5 q-10 1.5 -16 2.5 l0 46 q10 -3 30 -3 q61 0 92 119 q31 119 47 371 l288 0 l0 -483 Z" /><glyph glyph-name="uni04C7" unicode="&#x4c7;" d="M623 714 l0 -652 q0 -159 -66.5 -235.5 q-66.5 -76.5 -184.5 -76.5 q-46 0 -76 6.5 q-30 6.5 -55 15.5 l0 54 q25 -10 56 -17 q31 -7 69 -7 q100 0 150 63 q50 63 50 196 l0 287 l-408 0 l0 -348 l-58 0 l0 714 l58 0 l0 -314 l408 0 l0 314 l57 0 Z" /><glyph glyph-name="uni04C8" unicode="&#x4c8;" d="M528 532 l0 -534 q0 -124 -47 -181.5 q-47 -57.5 -130 -57.5 q-34 0 -59.5 6.5 q-25.5 6.5 -44.5 17.5 l0 53 q22 -11 46.5 -18.5 q24.5 -7.5 54.5 -7.5 q63 0 92.5 45 q29.5 45 29.5 143 l0 254 l-325 0 l0 -252 l-57 0 l0 532 l57 0 l0 -231 l325 0 l0 231 l58 0 Z" /><glyph glyph-name="uni04C9" unicode="&#x4c9;" d="M623 52 l87 0 l-80 -234 l-65 0 l77 182 l-76 0 l0 348 l-408 0 l0 -348 l-58 0 l0 714 l58 0 l0 -314 l408 0 l0 314 l57 0 l0 -662 Z" /><glyph glyph-name="uni04CA" unicode="&#x4ca;" d="M88 0 l0 532 l57 0 l0 -231 l326 0 l0 231 l57 0 l0 -483 l84 0 l-75 -229 l-59 0 l68 180 l-75 0 l0 252 l-326 0 l0 -252 l-57 0 Z" /><glyph glyph-name="uni04CB" unicode="&#x4cb;" d="M575 0 l-78 0 l0 -182 l-55 0 l0 234 l75 0 l0 254 q-53 -21 -105 -34.5 q-52 -13.5 -119 -13.5 q-103 0 -154.5 46 q-51.5 46 -51.5 132 l0 278 l58 0 l0 -269 q0 -66 35.5 -100.5 q35.5 -34.5 117.5 -34.5 q63 0 113.5 12 q50.5 12 105.5 34 l0 358 l58 0 l0 -714 Z" /><glyph glyph-name="uni04CC" unicode="&#x4cc;" d="M498 532 l0 -532 l-74 0 l0 -181 l-56 0 l0 230 l74 0 l0 195 q-44 -30 -88 -46.5 q-44 -16.5 -103 -16.5 q-85 0 -128.5 43.5 q-43.5 43.5 -43.5 119.5 l0 188 l57 0 l0 -182 q0 -63 32 -91.5 q32 -28.5 93 -28.5 q53 0 96.5 17 q43.5 17 84.5 45 l0 240 l56 0 Z" /><glyph glyph-name="uni04CD" unicode="&#x4cd;" d="M410 0 l-256 652 l-4 0 q3 -32 3.5 -68.5 q0.5 -36.5 0.5 -64.5 l0 -519 l-54 0 l0 714 l88 0 l246 -626 l4 0 l248 626 l86 0 l0 -662 l86 0 l-79 -234 l-66 0 l77 182 l-76 0 l0 525 q0 25 1 62 q1 37 3 65 l-3 0 l-258 -652 l-47 0 Z" /><glyph glyph-name="uni04CE" unicode="&#x4ce;" d="M700 49 l-75 -229 l-59 0 l68 180 l-70 0 l0 374 q0 21 0 41.5 q0 20.5 2 42.5 l-2 0 l-189 -458 l-49 0 l-187 458 l-3 0 q2 -22 2 -42.5 q0 -20.5 0 -44.5 l0 -371 l-52 0 l0 532 l78 0 l186 -462 l190 462 l76 0 l0 -483 l84 0 Z" /><glyph glyph-name="uni04D8" unicode="&#x4d8;" d="M316 672 q-63 0 -113.5 -10.5 q-50.5 -10.5 -92.5 -25.5 l0 54 q38 14 87.5 24 q49.5 10 118.5 10 q107 0 181.5 -44 q74.5 -44 113.5 -126 q39 -82 39 -196 q0 -113 -35 -195.5 q-35 -82.5 -103 -127.5 q-68 -45 -168 -45 q-146 0 -216 89.5 q-70 89.5 -70 271.5 l0 29 l530 0 q-4 136 -72 214 q-68 78 -200 78 ZM344 42 q116 0 178 76 q62 76 66 210 l-469 0 q0 -147 54.5 -216.5 q54.5 -69.5 170.5 -69.5 Z" /><glyph glyph-name="uni04E0" unicode="&#x4e0;" d="M486 714 l0 -46 l-252 -266 q133 -2 203 -51 q70 -49 70 -149 q0 -95 -67 -153.5 q-67 -58.5 -198 -58.5 q-122 0 -204 42 l0 55 q43 -23 97.5 -35.5 q54.5 -12.5 106.5 -12.5 q100 0 152 43 q52 43 52 120 q0 77 -55.5 114 q-55.5 37 -164.5 37 l-60 0 l0 49 l244 260 l-356 0 l0 52 l432 0 Z" /><glyph glyph-name="uni04E1" unicode="&#x4e1;" d="M414 532 l0 -42 l-246 -278 q129 -4 198 -59.5 q69 -55.5 69 -159.5 q0 -69 -29.5 -121.5 q-29.5 -52.5 -84.5 -82 q-55 -29.5 -131 -29.5 q-56 0 -98.5 9 q-42.5 9 -76.5 25 l0 54 q35 -16 80 -27.5 q45 -11.5 97 -11.5 q86 0 136 49.5 q50 49.5 50 133.5 q0 89 -59 130.5 q-59 41.5 -171 41.5 l-48 0 l0 42 l242 276 l-312 0 l0 50 l384 0 Z" /><glyph glyph-name="uni04F6" unicode="&#x4f6;" d="M497 714 l0 -52 l-339 0 l0 -610 l76 0 l0 -234 l-55 0 l0 182 l-79 0 l0 714 l397 0 Z" /><glyph glyph-name="uni04F7" unicode="&#x4f7;" d="M402 532 l0 -49 l-257 0 l0 -434 l73 0 l0 -229 l-56 0 l0 180 l-74 0 l0 532 l314 0 Z" /><glyph glyph-name="uni04FB" unicode="&#x4fb;" d="M112 -184 q-16 0 -29.5 3.5 q-13.5 3.5 -21.5 7.5 l0 49 q8 -3 20.5 -6 q12.5 -3 25.5 -3 q47 0 47 57 l0 76 l-66 0 l0 244 l-80 0 l0 46 l80 0 l0 242 l316 0 l0 -50 l-260 0 l0 -192 l176 0 l0 -46 l-176 0 l0 -198 l62 0 l0 -120 q0 -53 -23.5 -81.5 q-23.5 -28.5 -70.5 -28.5 Z" /><glyph glyph-name="uni04FC" unicode="&#x4fc;" d="M482 -184 q-16 0 -29.5 3.5 q-13.5 3.5 -21.5 7.5 l0 49 q8 -3 20.5 -6 q12.5 -3 25.5 -3 q47 0 47 57 l0 76 l-44 0 l-206 330 l-211 -330 l-63 0 l240 371 l-220 343 l66 0 l190 -302 l190 302 l64 0 l-221 -342 l205 -320 l62 0 l0 -126 q0 -53 -23.5 -81.5 q-23.5 -28.5 -70.5 -28.5 Z" /><glyph glyph-name="uni04FD" unicode="&#x4fd;" d="M412 -184 q-16 0 -29.5 3.5 q-13.5 3.5 -21.5 7.5 l0 49 q8 -3 20.5 -6 q12.5 -3 25.5 -3 q47 0 47 57 l0 76 l-40 0 l-164 234 l-163 -234 l-65 0 l194 273 l-186 259 l67 0 l153 -220 l154 220 l65 0 l-184 -259 l161 -227 l60 0 l0 -120 q0 -53 -23.5 -81.5 q-23.5 -28.5 -70.5 -28.5 Z" /><glyph glyph-name="uni04FE" unicode="&#x4fe;" d="M70 400 l151 0 l-201 314 l66 0 l190 -302 l190 302 l64 0 l-203 -314 l153 0 l0 -52 l-156 0 l223 -348 l-67 0 l-206 330 l-211 -330 l-63 0 l224 348 l-154 0 l0 52 Z" /><glyph glyph-name="uni04FF" unicode="&#x4ff;" d="M64 298 l134 0 l-168 234 l67 0 l153 -220 l154 220 l65 0 l-167 -234 l135 0 l0 -47 l-137 0 l180 -251 l-66 0 l-164 234 l-163 -234 l-65 0 l178 251 l-136 0 l0 47 Z" /><glyph glyph-name="uni0500" unicode="&#x500;" d="M313 0 q-131 0 -192 48.5 q-61 48.5 -61 147.5 q0 100 65 157 q65 57 199 57 l118 0 l0 304 l58 0 l0 -714 l-187 0 ZM323 51 l119 0 l0 308 l-114 0 q-100 0 -154.5 -36.5 q-54.5 -36.5 -54.5 -122.5 q0 -79 48.5 -114 q48.5 -35 155.5 -35 Z" /><glyph glyph-name="uni0502" unicode="&#x502;" d="M476 714 l0 -536 q0 -71 30.5 -104 q30.5 -33 91.5 -33 q120 0 120 138 l0 235 l57 0 l0 -240 q0 -86 -45 -135 q-45 -49 -132 -49 q-62 0 -100 24.5 q-38 24.5 -56 69.5 q-22 -40 -63.5 -67 q-41.5 -27 -110.5 -27 q-102 0 -156.5 52 q-54.5 52 -54.5 150 q0 96 63.5 153 q63.5 57 199.5 57 l98 0 l0 312 l58 0 ZM418 350 l-98 0 q-104 0 -153.5 -40 q-49.5 -40 -49.5 -119 q0 -73 39 -111.5 q39 -38.5 114 -38.5 q73 0 110.5 36.5 q37.5 36.5 37.5 99.5 l0 173 Z" /><glyph glyph-name="uni0503" unicode="&#x503;" d="M504 760 l0 -571 q0 -74 27 -112 q27 -38 93 -38 q60 0 89 35 q29 35 29 110 l0 158 l58 0 l0 -164 q0 -188 -174 -188 q-74 0 -109 30.5 q-35 30.5 -49 84.5 q-24 -49 -69 -82 q-45 -33 -121 -33 q-106 0 -164 68.5 q-58 68.5 -58 201.5 q0 138 60 210 q60 72 163 72 q67 0 107.5 -29 q40.5 -29 60.5 -73 l4 0 q-1 24 -2 52.5 q-1 28.5 -1 51.5 l0 216 l56 0 ZM286 492 q-171 0 -171 -232 q0 -111 40.5 -166 q40.5 -55 126.5 -55 q90 0 128 56 q38 56 38 161 l0 10 q0 110 -37.5 168 q-37.5 58 -124.5 58 Z" /><glyph glyph-name="uni0504" unicode="&#x504;" d="M266 724 q102 0 159 -49 q57 -49 57 -129 q0 -75 -41.5 -116.5 q-41.5 -41.5 -104.5 -54.5 l0 -3 q158 -30 158 -180 q1 -80 30.5 -115 q29.5 -35 93.5 -35 q62 0 91.5 34 q29.5 34 29.5 108 l0 230 l57 0 l0 -236 q0 -94 -46.5 -141 q-46.5 -47 -131.5 -47 q-87 0 -134.5 47 q-47.5 47 -48.5 151 q-1 85 -54 121.5 q-53 36.5 -160 36.5 l-103 0 l0 48 l106 0 q99 0 148.5 39.5 q49.5 39.5 49.5 107.5 q0 63 -43 98 q-43 35 -114 35 q-62 0 -106.5 -18.5 q-44.5 -18.5 -85.5 -45.5 l-30 40 q42 32 97.5 53 q55.5 21 125.5 21 Z" /><glyph glyph-name="uni0505" unicode="&#x505;" d="M208 542 q82 0 129 -36 q47 -36 47 -102 q0 -46 -24.5 -76 q-24.5 -30 -67.5 -42 l0 -4 q50 -10 76.5 -39.5 q26.5 -29.5 34.5 -84.5 q9 -56 34.5 -87.5 q25.5 -31.5 86.5 -31.5 q56 0 84 34.5 q28 34.5 28 108.5 l0 160 l57 0 l0 -166 q0 -94 -43.5 -140 q-43.5 -46 -125.5 -46 q-86 0 -126.5 42 q-40.5 42 -49.5 118 q-8 52 -40 79 q-32 27 -112 27 l-73 0 l0 48 l63 0 q65 0 103.5 23 q38.5 23 38.5 73 q0 46 -32 69.5 q-32 23.5 -90 23.5 q-40 0 -75 -9.5 q-35 -9.5 -71 -26.5 l-19 47 q37 18 76 28 q39 10 91 10 Z" /><glyph glyph-name="uni0506" unicode="&#x506;" d="M270 724 q104 0 161.5 -49 q57.5 -49 57.5 -129 q0 -75 -42.5 -116.5 q-42.5 -41.5 -107.5 -54.5 l0 -3 q79 -14 121 -56.5 q42 -42.5 42 -117.5 l0 -146 l80 0 l0 -234 l-56 0 l0 182 l-80 0 l0 198 q0 76 -57 112 q-57 36 -167 36 l-104 0 l0 48 l109 0 q103 0 153.5 39.5 q50.5 39.5 50.5 107.5 q0 62 -43.5 97.5 q-43.5 35.5 -117.5 35.5 q-63 0 -109.5 -18.5 q-46.5 -18.5 -87.5 -45.5 l-30 40 q43 32 98.5 53 q55.5 21 128.5 21 Z" /><glyph glyph-name="uni0507" unicode="&#x507;" d="M211 542 q83 0 130.5 -36 q47.5 -36 47.5 -102 q0 -46 -25 -76 q-25 -30 -69 -42 l0 -4 q53 -13 82.5 -46 q29.5 -33 29.5 -88 l0 -99 l75 0 l0 -229 l-56 0 l0 180 l-74 0 l0 150 q0 56 -39.5 81 q-39.5 25 -116.5 25 l-72 0 l0 48 l64 0 q68 0 108 23 q40 23 40 73 q0 45 -33 69 q-33 24 -92 24 q-42 0 -78.5 -10.5 q-36.5 -10.5 -70.5 -26.5 l-21 48 q38 17 80 27.5 q42 10.5 90 10.5 Z" /><glyph glyph-name="uni0508" unicode="&#x508;" d="M568 714 l0 -531 q0 -74 29.5 -107.5 q29.5 -33.5 91.5 -33.5 q61 0 90.5 34 q29.5 34 29.5 108 l0 230 l57 0 l0 -236 q0 -94 -47 -141 q-47 -47 -130 -47 q-85 0 -132 45 q-47 45 -47 143 l0 484 l-234 0 q-8 -69 -17.5 -148 q-9.5 -79 -21 -156.5 q-11.5 -77.5 -23.5 -141.5 q-13 -69 -31 -120 q-18 -51 -48 -79 q-30 -28 -79 -28 q-17 0 -31.5 2.5 q-14.5 2.5 -26.5 7.5 l0 51 q12 -5 24.5 -8.5 q12.5 -3.5 28.5 -3.5 q33 0 53.5 26 q20.5 26 32.5 70 q12 44 22 97 q13 67 25 148 q12 81 23 167 q11 86 21 168 l340 0 Z" /><glyph glyph-name="uni0509" unicode="&#x509;" d="M454 182 q0 -74 28.5 -108.5 q28.5 -34.5 90.5 -34.5 q58 0 86.5 35.5 q28.5 35.5 28.5 109.5 l0 158 l56 0 l0 -164 q0 -94 -44 -141 q-44 -47 -126 -47 q-177 0 -177 188 l0 305 l-171 0 q-12 -168 -32.5 -276 q-20.5 -108 -55.5 -160 q-35 -52 -93 -52 q-13 0 -23 1.5 q-10 1.5 -16 2.5 l0 46 q10 -3 30 -3 q61 0 92 119 q31 119 47 371 l279 0 l0 -350 Z" /><glyph glyph-name="uni050A" unicode="&#x50a;" d="M603 714 l0 -530 q0 -75 29.5 -108.5 q29.5 -33.5 91.5 -33.5 q62 0 91 34 q29 34 29 108 l0 230 l57 0 l0 -236 q0 -94 -46.5 -141 q-46.5 -47 -130.5 -47 q-84 0 -131 45.5 q-47 45.5 -47 143.5 l0 169 l-388 0 l0 -348 l-58 0 l0 714 l58 0 l0 -314 l388 0 l0 314 l57 0 Z" /><glyph glyph-name="uni050B" unicode="&#x50b;" d="M145 532 l0 -231 l311 0 l0 231 l56 0 l0 -349 q0 -74 29 -109 q29 -35 91 -35 q57 0 85.5 35.5 q28.5 35.5 28.5 109.5 l0 158 l57 0 l0 -164 q0 -94 -44 -141 q-44 -47 -127 -47 q-176 0 -176 188 l0 74 l-311 0 l0 -252 l-57 0 l0 532 l57 0 Z" /><glyph glyph-name="uni050C" unicode="&#x50c;" d="M415 360 l269 0 l0 -44 q0 -151 -71 -238.5 q-71 -87.5 -223 -87.5 q-102 0 -175.5 43.5 q-73.5 43.5 -113 125.5 q-39.5 82 -39.5 197 q0 108 41.5 191 q41.5 83 121.5 130.5 q80 47.5 196 47.5 q119 0 213 -44 l-24 -51 q-91 43 -194 43 q-95 0 -160.5 -40 q-65.5 -40 -99.5 -111.5 q-34 -71.5 -34 -165.5 q0 -154 73 -234.5 q73 -80.5 197 -80.5 q123 0 177.5 71.5 q54.5 71.5 54.5 195.5 l-209 0 l0 52 Z" /><glyph glyph-name="uni050D" unicode="&#x50d;" d="M332 272 l238 0 l0 -34 q0 -118 -62.5 -183 q-62.5 -65 -181.5 -65 q-128 0 -198.5 73 q-70.5 73 -70.5 201 q0 129 76.5 203.5 q76.5 74.5 212.5 74.5 q63 0 110 -13.5 q47 -13.5 82 -32.5 l-22 -47 q-30 17 -72.5 31 q-42.5 14 -98.5 14 q-109 0 -169 -60 q-60 -60 -60 -170 q0 -106 53 -166 q53 -60 157 -60 q94 0 140 47.5 q46 47.5 46 136.5 l-180 0 l0 50 Z" /><glyph glyph-name="uni050E" unicode="&#x50e;" d="M521 714 l0 -53 l-231 0 l0 -478 q0 -74 30.5 -108 q30.5 -34 93.5 -34 q60 0 90 34.5 q30 34.5 30 108.5 l0 230 l58 0 l0 -236 q0 -94 -48 -141 q-48 -47 -130 -47 q-86 0 -134 45 q-48 45 -48 143 l0 483 l-227 0 l0 53 l516 0 Z" /><glyph glyph-name="uni050F" unicode="&#x50f;" d="M428 532 l0 -48 l-176 0 l0 -301 q0 -74 29 -109 q29 -35 91 -35 q57 0 86.5 34.5 q29.5 34.5 29.5 109.5 l0 159 l56 0 l0 -164 q0 -94 -44.5 -141 q-44.5 -47 -127.5 -47 q-86 0 -131.5 47 q-45.5 47 -45.5 141 l0 306 l-175 0 l0 48 l408 0 Z" /><glyph glyph-name="uni0510" unicode="&#x510;" d="M312 724 q69 0 120.5 -17 q51.5 -17 91.5 -43 l-31 -44 q-38 23 -81.5 38.5 q-43.5 15.5 -103.5 15.5 q-76 0 -123 -35.5 q-47 -35.5 -47 -101.5 q0 -68 48 -104.5 q48 -36.5 152 -36.5 l104 0 l0 -50 l-104 0 q-108 0 -165.5 -38 q-57.5 -38 -57.5 -115 q0 -77 51 -115 q51 -38 146 -38 q60 0 114.5 13 q54.5 13 96.5 34 l0 -55 q-41 -19 -94 -30.5 q-53 -11.5 -119 -11.5 q-125 0 -190.5 53 q-65.5 53 -65.5 147 q0 76 46 122 q46 46 122 60 l0 2 q-62 12 -102.5 52 q-40.5 40 -40.5 116 q0 82 62.5 132 q62.5 50 170.5 50 Z" /><glyph glyph-name="uni0512" unicode="&#x512;" d="M554 -184 q-16 0 -29.5 3.5 q-13.5 3.5 -22.5 7.5 l0 49 q9 -3 20.5 -6 q11.5 -3 25.5 -3 q47 0 47 57 l0 76 l-67 0 l0 662 l-252 0 q-8 -69 -17.5 -148 q-9.5 -79 -21 -156.5 q-11.5 -77.5 -23.5 -141.5 q-13 -68 -31 -119.5 q-18 -51.5 -47.5 -79.5 q-29.5 -28 -79.5 -28 q-17 0 -32 2.5 q-15 2.5 -26 7.5 l0 51 q12 -5 25 -8 q13 -3 29 -3 q33 0 53 26 q20 26 32.5 69.5 q12.5 43.5 22.5 95.5 q12 67 24 148.5 q12 81.5 23 167.5 q11 86 21 168 l358 0 l0 -662 l62 0 l0 -126 q0 -53 -24 -81.5 q-24 -28.5 -70 -28.5 Z" /><glyph glyph-name="uni0513" unicode="&#x513;" d="M431 -184 q-16 0 -29.5 3.5 q-13.5 3.5 -21.5 7.5 l0 49 q8 -3 20 -6 q12 -3 26 -3 q46 0 46 57 l0 76 l-66 0 l0 483 l-180 0 q-12 -168 -32 -276 q-20 -108 -55 -160 q-35 -52 -94 -52 q-13 0 -23 1.5 q-10 1.5 -16 2.5 l0 46 q9 -4 30 -4 q61 0 92.5 119.5 q31.5 119.5 47.5 371.5 l288 0 l0 -486 l61 0 l0 -120 q0 -53 -23.5 -81.5 q-23.5 -28.5 -70.5 -28.5 Z" /><glyph glyph-name="uni0180" unicode="&#x180;" d="M317 -10 q-67 0 -109.5 28 q-42.5 28 -62.5 68 l-5 0 l-10 -86 l-43 0 l0 618 l-75 0 l0 45 l75 0 l0 97 l57 0 l0 -97 l228 0 l0 -45 l-228 0 l0 -68 q0 -28 -1 -61 q-1 -33 -3 -53 l4 0 q20 45 65.5 75.5 q45.5 30.5 115.5 30.5 q103 0 160 -69.5 q57 -69.5 57 -205.5 q0 -126 -57.5 -201.5 q-57.5 -75.5 -167.5 -75.5 ZM310 39 q86 0 129.5 59.5 q43.5 59.5 43.5 169.5 q0 225 -165 225 q-93 0 -133.5 -58 q-40.5 -58 -40.5 -168 l0 -7 q0 -108 38.5 -164.5 q38.5 -56.5 127.5 -56.5 Z" /><glyph glyph-name="uni0181" unicode="&#x181;" d="M177 0 l0 663 l-26 0 q-47 0 -68 -20.5 q-21 -20.5 -21 -55.5 q0 -17 3.5 -32 q3.5 -15 6.5 -22 l-52 0 q-10 23 -10 56 q0 58 35 91.5 q35 33.5 105 33.5 l224 0 q133 0 195.5 -41 q62.5 -41 62.5 -133 q0 -62 -35 -106 q-35 -44 -103 -56 l0 -4 q78 -12 119 -53.5 q41 -41.5 41 -117.5 q0 -69 -32 -114 q-32 -45 -88.5 -67 q-56.5 -22 -131.5 -22 l-225 0 ZM235 399 l153 0 q99 0 141.5 34 q42.5 34 42.5 101 q0 69 -47 99 q-47 30 -150 30 l-140 0 l0 -264 ZM235 50 l163 0 q194 0 194 156 q0 74 -50 108.5 q-50 34.5 -153 34.5 l-154 0 l0 -299 Z" /><glyph glyph-name="uni0183" unicode="&#x183;" d="M317 -10 q-67 0 -109.5 28 q-42.5 28 -62.5 68 l-5 0 l-10 -86 l-43 0 l0 760 l399 0 l0 -50 l-342 0 l0 -160 q0 -28 -1 -61 q-1 -33 -3 -53 l4 0 q20 45 65.5 75.5 q45.5 30.5 115.5 30.5 q103 0 160 -69.5 q57 -69.5 57 -205.5 q0 -126 -57.5 -201.5 q-57.5 -75.5 -167.5 -75.5 ZM310 39 q86 0 129.5 59.5 q43.5 59.5 43.5 169.5 q0 225 -165 225 q-93 0 -133.5 -58 q-40.5 -58 -40.5 -168 l0 -7 q0 -108 38.5 -164.5 q38.5 -56.5 127.5 -56.5 Z" /><glyph glyph-name="uni0184" unicode="&#x184;" d="M328 -5 q-124 0 -178 60.5 q-54 60.5 -54 168.5 l0 490 l58 0 l0 -312 l142 0 q129 0 190.5 -51 q61.5 -51 61.5 -147 q0 -93 -55.5 -151 q-55.5 -58 -164.5 -58 ZM328 46 q80 0 120 41.5 q40 41.5 40 116.5 q0 82 -51.5 114.5 q-51.5 32.5 -148.5 32.5 l-134 0 l0 -123 q0 -96 42 -139 q42 -43 132 -43 Z" /><glyph glyph-name="uni0185" unicode="&#x185;" d="M313 -10 q-107 0 -167 68 q-60 68 -60 202 l0 500 l56 0 l0 -210 q0 -28 -1 -61 q-1 -33 -2 -53 l3 0 q20 44 65.5 75 q45.5 31 116.5 31 q102 0 159 -69.5 q57 -69.5 57 -205.5 q0 -126 -57 -201.5 q-57 -75.5 -170 -75.5 ZM314 39 q84 0 126 59.5 q42 59.5 42 169.5 q0 225 -166 225 q-93 0 -133.5 -58 q-40.5 -58 -40.5 -168 l0 -8 q0 -107 45 -163.5 q45 -56.5 127 -56.5 Z" /><glyph glyph-name="uni0186" unicode="&#x186;" d="M224 -10 q-57 0 -99 8 q-42 8 -79 21 l0 51 q39 -12 80.5 -20 q41.5 -8 91.5 -8 q90 0 153 41 q63 41 96 114 q33 73 33 169 q0 93 -29 161.5 q-29 68.5 -88.5 106.5 q-59.5 38 -149.5 38 q-47 0 -92 -11 q-45 -11 -83 -30 l-23 51 q40 20 92.5 31 q52.5 11 112.5 11 q109 0 180 -44.5 q71 -44.5 106 -125 q35 -80.5 35 -188.5 q0 -109 -39 -194 q-39 -85 -114 -133.5 q-75 -48.5 -184 -48.5 Z" /><glyph glyph-name="uni0187" unicode="&#x187;" d="M640 858 q20 0 34.5 -3.5 q14.5 -3.5 23.5 -7.5 l0 -49 q-8 3 -22 6.5 q-14 3.5 -31 3.5 q-26 0 -40.5 -14.5 q-14.5 -14.5 -14.5 -47.5 l0 -60 l-23 -52 q-38 19 -78 28.5 q-40 9.5 -85 9.5 q-88 0 -151 -39.5 q-63 -39.5 -96.5 -110 q-33.5 -70.5 -33.5 -164.5 q0 -96 30.5 -167 q30.5 -71 90.5 -110 q60 -39 150 -39 q52 0 95.5 8 q43.5 8 82.5 20 l0 -50 q-37 -14 -81.5 -22 q-44.5 -8 -102.5 -8 q-108 0 -180.5 46 q-72.5 46 -109 129 q-36.5 83 -36.5 194 q0 106 40.5 188.5 q40.5 82.5 117 129.5 q76.5 47 184.5 47 q70 0 136 -20 l0 39 q0 115 100 115 Z" /><glyph glyph-name="uni0188" unicode="&#x188;" d="M301 -10 q-117 0 -180.5 71.5 q-63.5 71.5 -63.5 201.5 q0 89 32 151.5 q32 62.5 89.5 95 q57.5 32.5 133.5 32.5 q22 0 42.5 -3 q20.5 -3 39.5 -7 l0 114 q0 122 104 122 q19 0 31.5 -3.5 q12.5 -3.5 22.5 -7.5 l0 -49 q-8 3 -21 6.5 q-13 3.5 -29 3.5 q-27 0 -42.5 -16 q-15.5 -16 -15.5 -53 l0 -133 l-16 -50 q-56 25 -116 25 q-94 0 -145 -61 q-51 -61 -51 -166 q0 -100 45 -162 q45 -62 139 -62 q40 0 75 8 q35 8 63 21 l0 -51 q-26 -13 -60 -20.5 q-34 -7.5 -77 -7.5 Z" /><glyph glyph-name="uni018A" unicode="&#x18a;" d="M175 0 l0 663 l-24 0 q-47 0 -68 -20.5 q-21 -20.5 -21 -55.5 q0 -17 3.5 -32 q3.5 -15 6.5 -22 l-52 0 q-10 23 -10 56 q0 60 35 92.5 q35 32.5 105 32.5 l224 0 q169 0 259.5 -89.5 q90.5 -89.5 90.5 -260.5 q0 -180 -95 -272 q-95 -92 -277 -92 l-177 0 ZM233 51 l114 0 q315 0 315 311 q0 301 -300 301 l-129 0 l0 -612 Z" /><glyph glyph-name="uni018B" unicode="&#x18b;" d="M311 0 q-257 0 -257 196 q0 100 66 157 q66 57 206 57 l110 0 l0 252 l-343 0 l0 52 l401 0 l0 -714 l-183 0 ZM317 51 l119 0 l0 309 l-104 0 q-104 0 -161 -35 q-57 -35 -57 -126 q0 -77 49.5 -112.5 q49.5 -35.5 153.5 -35.5 Z" /><glyph glyph-name="uni018C" unicode="&#x18c;" d="M279 -10 q-107 0 -164.5 68.5 q-57.5 68.5 -57.5 201.5 q0 138 60.5 210 q60.5 72 166.5 72 q67 0 109 -29 q42 -29 62 -73 l4 0 q-1 24 -2.5 53 q-1.5 29 -1.5 51 l0 166 l-341 0 l0 50 l398 0 l0 -760 l-46 0 l-8 92 l-3 0 q-21 -42 -63 -72 q-42 -30 -113 -30 ZM286 39 q92 0 131 56 q39 56 39 161 l0 10 q0 110 -39 168.5 q-39 58.5 -127 58.5 q-86 0 -130 -60.5 q-44 -60.5 -44 -172.5 q0 -109 42 -165 q42 -56 128 -56 Z" /><glyph glyph-name="uni018E" unicode="&#x18e;" d="M61 0 l0 52 l334 0 l0 297 l-315 0 l0 51 l315 0 l0 262 l-334 0 l0 52 l392 0 l0 -714 l-392 0 Z" /><glyph glyph-name="uni0190" unicode="&#x190;" d="M310 724 q69 0 121.5 -18 q52.5 -18 90.5 -44 l-28 -42 q-38 23 -80 38.5 q-42 15.5 -103 15.5 q-73 0 -119.5 -35 q-46.5 -35 -46.5 -101 q0 -68 46.5 -105 q46.5 -37 148.5 -37 l102 0 l0 -50 l-105 0 q-107 0 -164.5 -38 q-57.5 -38 -57.5 -114 q0 -76 51 -115.5 q51 -39.5 148 -39.5 q57 0 112.5 14.5 q55.5 14.5 98.5 36.5 l0 -55 q-41 -19 -95 -32 q-54 -13 -119 -13 q-133 0 -194.5 54 q-61.5 54 -61.5 146 q0 76 43.5 121.5 q43.5 45.5 119.5 60.5 l0 3 q-57 13 -95 52.5 q-38 39.5 -38 114.5 q0 82 60 132 q60 50 165 50 Z" /><glyph glyph-name="uni0191" unicode="&#x191;" d="M38 -192 q-19 0 -32 3 q-13 3 -24 8 l0 51 q11 -4 23.5 -7 q12.5 -3 27.5 -3 q32 0 49.5 20.5 q17.5 20.5 17.5 65.5 l0 768 l392 0 l0 -52 l-334 0 l0 -294 l316 0 l0 -52 l-316 0 l0 -374 q0 -68 -33 -101 q-33 -33 -87 -33 Z" /><glyph glyph-name="uni0193" unicode="&#x193;" d="M688 858 q20 0 34.5 -3.5 q14.5 -3.5 23.5 -7.5 l0 -49 q-8 3 -22 6.5 q-14 3.5 -32 3.5 q-26 0 -40 -14.5 q-14 -14.5 -14 -47.5 l0 -64 l-24 -52 q-91 43 -190 43 q-94 0 -161.5 -40 q-67.5 -40 -104 -111.5 q-36.5 -71.5 -36.5 -165.5 q0 -154 76.5 -234.5 q76.5 -80.5 223.5 -80.5 q52 0 92.5 7.5 q40.5 7.5 73.5 18.5 l0 244 l-201 0 l0 53 l259 0 l0 -332 q-52 -21 -110 -31.5 q-58 -10.5 -126 -10.5 q-170 0 -259 97 q-89 97 -89 269 q0 108 43.5 191.5 q43.5 83.5 125.5 130.5 q82 47 197 47 q87 0 159 -25 l0 43 q0 115 101 115 Z" /><glyph glyph-name="uni0194" unicode="&#x194;" d="M285 -240 q-50 0 -78.5 34.5 q-28.5 34.5 -28.5 87.5 q0 50 22 107.5 q22 57.5 54 118.5 l-256 606 l62 0 l173 -414 q17 -43 31 -78.5 q14 -35.5 22 -63.5 q8 28 21.5 63.5 q13.5 35.5 31.5 80.5 l171 412 l62 0 l-253 -606 q34 -66 54 -121.5 q20 -55.5 20 -104.5 q0 -52 -28.5 -87 q-28.5 -35 -79.5 -35 ZM286 -188 q52 0 52 72 q0 38 -15 81.5 q-15 43.5 -37 88.5 q-22 -46 -38 -90 q-16 -44 -16 -78 q0 -38 15 -56 q15 -18 39 -18 Z" /><glyph glyph-name="uni0195" unicode="&#x195;" d="M642 -11 q-198 0 -198 198 l0 157 q0 76 -34 112 q-34 36 -98 36 q-168 0 -168 -202 l0 -290 l-56 0 l0 760 l56 0 l0 -244 q0 -40 -3 -76 l4 0 q20 44 64.5 73 q44.5 29 110.5 29 q88 0 134.5 -47 q46.5 -47 46.5 -147 l0 -155 q0 -79 33.5 -117 q33.5 -38 107.5 -38 q72 0 105 39.5 q33 39.5 33 122.5 l0 340 l56 0 l0 -342 q0 -106 -48 -157.5 q-48 -51.5 -146 -51.5 Z" /><glyph glyph-name="uni0196" unicode="&#x196;" d="M226 -10 q-59 0 -97.5 33 q-38.5 33 -38.5 119 l0 572 l58 0 l0 -564 q0 -58 22 -83 q22 -25 64 -25 q22 0 42.5 3.5 q20.5 3.5 35.5 8.5 l0 -49 q-33 -15 -86 -15 Z" /><glyph glyph-name="uni0197" unicode="&#x197;" d="M260 714 l0 -36 l-76 -12 l0 -269 l92 0 l0 -51 l-92 0 l0 -299 l76 -11 l0 -36 l-209 0 l0 36 l75 11 l0 299 l-91 0 l0 51 l91 0 l0 269 l-75 12 l0 36 l209 0 Z" /><glyph glyph-name="uni0198" unicode="&#x198;" d="M566 720 q14 0 24 -2 q10 -2 17 -5 l0 -47 q-7 2 -18 3 q-11 1 -21 1 q-20 0 -39.5 -12 q-19.5 -12 -46.5 -40 l-192 -207 l298 -411 l-70 0 l-268 370 l-92 -91 l0 -279 l-58 0 l0 714 l58 0 l0 -375 q20 24 42 48.5 q22 24.5 43 50.5 l193 206 q40 45 68 60.5 q28 15.5 62 15.5 Z" /><glyph glyph-name="uni0199" unicode="&#x199;" d="M210 764 q15 0 29 -2.5 q14 -2.5 23 -5.5 l0 -50 q-8 3 -19.5 5.5 q-11.5 2.5 -26.5 2.5 q-34 0 -53 -21 q-19 -21 -19 -67 l0 -252 q0 -32 -0.5 -66.5 q-0.5 -34.5 -1.5 -67.5 l2 0 q11 15 28 35.5 q17 20.5 32 36.5 l202 220 l68 0 l-210 -228 l228 -304 l-68 0 l-200 266 l-80 -82 l0 -184 l-56 0 l0 624 q0 68 30.5 104 q30.5 36 91.5 36 Z" /><glyph glyph-name="uni019A" unicode="&#x19a;" d="M88 0 l0 361 l-74 0 l0 45 l74 0 l0 354 l57 0 l0 -354 l74 0 l0 -45 l-74 0 l0 -361 l-57 0 Z" /><glyph glyph-name="uni019B" unicode="&#x19b;" d="M-6 0 l230 532 l-22 66 l-112 -33 l-14 43 l108 32 q-17 44 -35.5 60.5 q-18.5 16.5 -52.5 16.5 q-15 0 -27.5 -2 q-12.5 -2 -22.5 -5 l0 48 q12 3 26.5 5.5 q14.5 2.5 31.5 2.5 q54 0 81.5 -24.5 q27.5 -24.5 52.5 -85.5 l116 34 l13 -43 l-112 -33 l183 -524 q10 -28 21.5 -39.5 q11.5 -11.5 27.5 -11.5 q8 0 15.5 1.5 q7.5 1.5 11.5 3.5 l0 -45 q-16 -8 -42 -8 q-32 0 -50.5 17.5 q-18.5 17.5 -31.5 54.5 l-100 288 q-10 30 -21.5 62.5 q-11.5 32.5 -16.5 56.5 l-4 0 q-8 -27 -18.5 -56 q-10.5 -29 -22.5 -57 l-153 -357 l-60 0 Z" /><glyph glyph-name="uni019C" unicode="&#x19c;" d="M280 -10 q-94 0 -142.5 49 q-48.5 49 -48.5 163 l0 512 l58 0 l0 -511 q0 -86 35.5 -124 q35.5 -38 105.5 -38 q89 0 133.5 48.5 q44.5 48.5 44.5 158.5 l0 466 l58 0 l0 -511 q0 -86 35 -124 q35 -38 106 -38 q89 0 133 51.5 q44 51.5 44 165.5 l0 456 l58 0 l0 -714 l-46 0 l-10 93 l-3 0 q-22 -43 -67.5 -73 q-45.5 -30 -117.5 -30 q-75 0 -116.5 29.5 q-41.5 29.5 -59.5 82.5 l-4 0 q-24 -52 -74 -82 q-50 -30 -122 -30 Z" /><glyph glyph-name="uni019D" unicode="&#x19d;" d="M38 -192 q-19 0 -32 3 q-13 3 -24 8 l0 51 q12 -4 24 -7 q12 -3 27 -3 q32 0 49.5 20.5 q17.5 20.5 17.5 65.5 l0 768 l62 0 l412 -622 l4 0 q-2 31 -3 79.5 q-1 48.5 -1 89.5 l0 453 l54 0 l0 -714 l-62 0 l-413 624 l-3 0 q2 -39 3 -82.5 q1 -43.5 1 -91.5 l0 -508 q0 -68 -31 -101 q-31 -33 -85 -33 Z" /><glyph glyph-name="uni01A2" unicode="&#x1a2;" d="M679 358 q0 -109 -34.5 -192 q-34.5 -83 -103.5 -129.5 q-69 -46.5 -171 -46.5 q-102 0 -170.5 46.5 q-68.5 46.5 -103 130 q-34.5 83.5 -34.5 192.5 q0 109 35.5 191 q35.5 82 105 128.5 q69.5 46.5 171.5 46.5 q73 0 129 -25.5 q56 -25.5 95 -71.5 q27 44 74.5 70 q47.5 26 109.5 26 q92 0 142 -52.5 q50 -52.5 50 -161.5 l0 -510 l-58 0 l0 507 q0 83 -36.5 124 q-36.5 41 -105.5 41 q-110 0 -150 -80 q55 -92 55 -234 ZM123 358 q0 -95 27 -166.5 q27 -71.5 82.5 -111 q55.5 -39.5 138.5 -39.5 q85 0 139.5 39.5 q54.5 39.5 81 110.5 q26.5 71 26.5 167 q0 148 -62 231.5 q-62 83.5 -182 83.5 q-84 0 -140 -39.5 q-56 -39.5 -83.5 -110.5 q-27.5 -71 -27.5 -165 Z" /><glyph glyph-name="uni01A3" unicode="&#x1a3;" d="M520 266 q0 -83 -27 -145 q-27 -62 -78.5 -96.5 q-51.5 -34.5 -126.5 -34.5 q-72 0 -124 34 q-52 34 -79.5 96 q-27.5 62 -27.5 146 q0 130 62.5 203 q62.5 73 172.5 73 q51 0 91.5 -16.5 q40.5 -16.5 68.5 -47.5 q22 28 58 46 q36 18 82 18 q154 0 154 -186 l0 -596 l-56 0 l0 592 q0 140 -108 140 q-36 0 -62 -12.5 q-26 -12.5 -44 -34.5 q22 -35 33 -80.5 q11 -45.5 11 -98.5 ZM116 266 q0 -102 42 -164.5 q42 -62.5 130 -62.5 q90 0 132 62.5 q42 62.5 42 164.5 q0 66 -17.5 117 q-17.5 51 -55 80 q-37.5 29 -98.5 29 q-88 0 -131.5 -60 q-43.5 -60 -43.5 -166 Z" /><glyph glyph-name="uni01A4" unicode="&#x1a4;" d="M175 0 l0 663 l-24 0 q-47 0 -68 -20.5 q-21 -20.5 -21 -55.5 q0 -17 3.5 -32 q3.5 -15 6.5 -22 l-52 0 q-10 23 -10 56 q0 58 35 91.5 q35 33.5 105 33.5 l203 0 q257 0 257 -202 q0 -103 -66 -161.5 q-66 -58.5 -206 -58.5 l-105 0 l0 -292 l-58 0 ZM233 342 l99 0 q104 0 161 36.5 q57 36.5 57 130.5 q0 80 -49.5 117 q-49.5 37 -153.5 37 l-114 0 l0 -321 Z" /><glyph glyph-name="uni01A5" unicode="&#x1a5;" d="M212 765 q20 0 37 -3.5 q17 -3.5 27 -7.5 l0 -49 q-9 4 -23.5 6.5 q-14.5 2.5 -33.5 2.5 q-37 0 -55 -21 q-18 -21 -18 -67 l0 -88 q0 -21 -1.5 -52 q-1.5 -31 -2.5 -52 l4 0 q20 44 63.5 76 q43.5 32 117.5 32 q102 0 159.5 -68.5 q57.5 -68.5 57.5 -204.5 q0 -136 -60 -207.5 q-60 -71.5 -162 -71.5 q-70 0 -113 30 q-43 30 -63 72 l-4 0 q2 -26 3 -55 q1 -29 1 -55 l0 -218 l-58 0 l0 861 q0 67 31 103.5 q31 36.5 93 36.5 ZM319 492 q-89 0 -130.5 -55.5 q-41.5 -55.5 -42.5 -160.5 l0 -10 q0 -114 41.5 -170.5 q41.5 -56.5 127.5 -56.5 q83 0 126 61 q43 61 43 170 q0 107 -41 164.5 q-41 57.5 -124 57.5 Z" /><glyph glyph-name="uni01A6" unicode="&#x1a6;" d="M510 -100 l-182 308 l-170 0 l0 -208 l-58 0 l0 714 l58 0 l0 -100 l120 0 q128 0 192.5 -45 q64.5 -45 64.5 -151 q0 -82 -43.5 -128 q-43.5 -46 -108.5 -66 l196 -324 l-69 0 ZM158 258 l135 0 q87 0 134.5 41 q47.5 41 47.5 117 q0 82 -49.5 114 q-49.5 32 -152.5 32 l-115 0 l0 -304 Z" /><glyph glyph-name="uni01A7" unicode="&#x1a7;" d="M269 724 q98 0 160 -43.5 q62 -43.5 62 -131.5 q0 -57 -23.5 -95.5 q-23.5 -38.5 -67.5 -64.5 q-44 -26 -104 -48 q-62 -23 -104 -44.5 q-42 -21.5 -63.5 -49 q-21.5 -27.5 -21.5 -71.5 q0 -68 50.5 -101.5 q50.5 -33.5 132.5 -33.5 q58 0 110 13 q52 13 90 28 l0 -56 q-33 -14 -83.5 -25 q-50.5 -11 -115.5 -11 q-71 0 -126 21 q-55 21 -86 63 q-31 42 -31 105 q0 59 27 95.5 q27 36.5 75 62 q48 25.5 110 49.5 q55 21 93.5 41 q38.5 20 58.5 48 q20 28 20 72 q0 64 -43.5 94.5 q-43.5 30.5 -118.5 30.5 q-41 0 -84 -10 q-43 -10 -83 -28 l-18 50 q41 18 87.5 29 q46.5 11 96.5 11 Z" /><glyph glyph-name="uni01A8" unicode="&#x1a8;" d="M224 542 q92 0 140.5 -34 q48.5 -34 48.5 -100 q0 -45 -22 -72.5 q-22 -27.5 -60 -46.5 q-38 -19 -87 -36 q-75 -26 -111.5 -50.5 q-36.5 -24.5 -36.5 -68.5 q0 -45 34 -70.5 q34 -25.5 112 -25.5 q47 0 94 11.5 q47 11.5 81 27.5 l0 -53 q-29 -14 -74 -24 q-45 -10 -101 -10 q-202 0 -202 148 q0 46 22.5 74.5 q22.5 28.5 61 47.5 q38.5 19 87.5 36 q46 17 79 31 q33 14 50.5 33 q17.5 19 17.5 50 q0 41 -34.5 62.5 q-34.5 21.5 -97.5 21.5 q-35 0 -73 -9 q-38 -9 -69 -23 l-20 47 q34 14 75 23.5 q41 9.5 85 9.5 Z" /><glyph glyph-name="uni01AA" unicode="&#x1aa;" d="M116 765 q59 0 92.5 -35.5 q33.5 -35.5 33.5 -100.5 l0 -711 q0 -57 23 -82.5 q23 -25.5 67 -25.5 q21 0 40 3 q19 3 30 7 l0 -46 q-27 -12 -76 -12 q-63 0 -101.5 34.5 q-38.5 34.5 -38.5 117.5 l0 626 l-68 0 q-62 0 -94.5 30 q-32.5 30 -32.5 83 q0 46 30.5 79 q30.5 33 94.5 33 ZM112 716 q-34 0 -51 -18 q-17 -18 -17 -44 q0 -65 81 -65 l61 0 l0 36 q0 91 -74 91 Z" /><glyph glyph-name="uni01AB" unicode="&#x1ab;" d="M204 -240 q-20 0 -34.5 4 q-14.5 4 -23.5 8 l0 49 q10 -5 24 -8 q14 -3 30 -3 q29 0 46 17 q17 17 17 53 l0 113 q-17 -3 -37 -3 q-63 0 -98.5 37.5 q-35.5 37.5 -35.5 120.5 l0 338 l-79 0 l0 32 l79 18 l20 123 l36 0 l0 -127 l164 0 l0 -46 l-164 0 l0 -336 q0 -55 21 -83.5 q21 -28.5 69 -28.5 q22 0 42.5 3.5 q20.5 3.5 34.5 8.5 l0 -169 q0 -58 -28.5 -89.5 q-28.5 -31.5 -82.5 -31.5 Z" /><glyph glyph-name="uni01AC" unicode="&#x1ac;" d="M246 0 l0 662 l-92 0 q-48 0 -69.5 -20 q-21.5 -20 -21.5 -54 q0 -18 4 -33.5 q4 -15.5 7 -22.5 l-54 0 q-4 10 -7 25.5 q-3 15.5 -3 30.5 q0 58 34 92 q34 34 108 34 l382 0 l0 -52 l-230 0 l0 -662 l-58 0 Z" /><glyph glyph-name="uni01AD" unicode="&#x1ad;" d="M218 765 q22 0 39 -3.5 q17 -3.5 29 -8.5 l0 -49 q-10 4 -29.5 7.5 q-19.5 3.5 -39.5 3.5 q-69 0 -69 -78 l0 -105 l164 0 l0 -46 l-164 0 l0 -336 q0 -112 90 -112 q22 0 42.5 3.5 q20.5 3.5 34.5 8.5 l0 -46 q-16 -6 -37.5 -10 q-21.5 -4 -47.5 -4 q-66 0 -102 37.5 q-36 37.5 -36 120.5 l0 338 l-79 0 l0 32 l79 18 l0 98 q0 63 33 97 q33 34 93 34 Z" /><glyph glyph-name="uni01AE" unicode="&#x1ae;" d="M368 -196 q-64 0 -98 36 q-34 36 -34 112 l0 710 l-230 0 l0 52 l518 0 l0 -52 l-230 0 l0 -705 q0 -56 22 -78.5 q22 -22.5 60 -22.5 q16 0 29 3 q13 3 23 7 l0 -51 q-22 -11 -60 -11 Z" /><glyph glyph-name="uni01B1" unicode="&#x1b1;" d="M389 41 q124 0 192.5 75.5 q68.5 75.5 68.5 204.5 q0 121 -49 201.5 q-49 80.5 -143 143.5 l0 48 l279 0 l0 -52 l-203 0 q50 -34 90.5 -82 q40.5 -48 64 -112 q23.5 -64 23.5 -148 q0 -100 -39.5 -174 q-39.5 -74 -112 -115.5 q-72.5 -41.5 -171.5 -41.5 q-101 0 -173.5 39.5 q-72.5 39.5 -111.5 113.5 q-39 74 -39 177 q0 126 49.5 209 q49.5 83 126.5 134 l-201 0 l0 52 l279 0 l0 -48 q-99 -62 -146.5 -144.5 q-47.5 -82.5 -47.5 -200.5 q0 -132 69.5 -206 q69.5 -74 194.5 -74 Z" /><glyph glyph-name="uni01B2" unicode="&#x1b2;" d="M358 -10 q-128 0 -197 70 q-69 70 -69 194 l0 460 l58 0 l0 -460 q0 -104 54 -158.5 q54 -54.5 158 -54.5 q101 0 155.5 54.5 q54.5 54.5 54.5 152.5 l0 342 q0 44 -20 63 q-20 19 -52 19 q-22 0 -41.5 -6 q-19.5 -6 -32.5 -14 l0 52 q14 8 35.5 14 q21.5 6 48.5 6 q56 0 87.5 -33 q31.5 -33 31.5 -97 l0 -342 q0 -122 -71 -192 q-71 -70 -200 -70 Z" /><glyph glyph-name="uni01B3" unicode="&#x1b3;" d="M49 725 q36 0 57.5 -18.5 q21.5 -18.5 39.5 -56.5 l150 -318 l201 382 l63 0 l-235 -438 l0 -276 l-58 0 l0 272 l-171 352 q-12 24 -24.5 37 q-12.5 13 -34.5 13 q-24 0 -38 -8 l0 50 q8 3 20.5 6 q12.5 3 29.5 3 Z" /><glyph glyph-name="uni01B4" unicode="&#x1b4;" d="M478 541 q15 0 28 -2.5 q13 -2.5 21 -6.5 l0 -46 q-6 2 -15 4 q-9 2 -19 2 q-24 0 -37.5 -15 q-13.5 -15 -25.5 -45 l-200 -527 q-27 -70 -64 -108.5 q-37 -38.5 -100 -38.5 q-20 0 -35 3 q-15 3 -29 7 l0 48 q26 -9 57 -9 q42 0 69 26 q27 26 48 79 l33 90 l-209 530 l61 0 l127 -331 q16 -44 28 -78.5 q12 -34.5 19 -61.5 l3 0 q7 23 19.5 59 q12.5 36 28.5 80 l95 255 q16 44 37.5 65 q21.5 21 59.5 21 Z" /><glyph glyph-name="uni01B5" unicode="&#x1b5;" d="M80 394 l192 0 l180 268 l-395 0 l0 52 l467 0 l0 -43 l-185 -277 l149 0 l0 -48 l-181 0 l-197 -294 l426 0 l0 -52 l-499 0 l0 43 l203 303 l-160 0 l0 48 Z" /><glyph glyph-name="uni01B6" unicode="&#x1b6;" d="M420 532 l0 -40 l-136 -194 l130 0 l0 -48 l-164 0 l-142 -204 l314 0 l0 -46 l-382 0 l0 37 l148 213 l-130 0 l0 48 l164 0 l130 188 l-290 0 l0 46 l358 0 Z" /><glyph glyph-name="uni01B8" unicode="&#x1b8;" d="M311 -10 q-87 0 -144.5 27.5 q-57.5 27.5 -86 76 q-28.5 48.5 -28.5 110.5 q0 106 70 159 q70 53 184 55 l-227 250 l0 46 l428 0 l0 -52 l-353 0 l224 -248 l0 -44 l-58 0 q-99 0 -153 -40 q-54 -40 -54 -126 q0 -78 51.5 -121.5 q51.5 -43.5 151.5 -43.5 q55 0 108.5 13 q53.5 13 97.5 34 l0 -54 q-42 -20 -94 -31 q-52 -11 -117 -11 Z" /><glyph glyph-name="uni01B9" unicode="&#x1b9;" d="M268 -240 q-75 0 -128.5 28 q-53.5 28 -82 77.5 q-28.5 49.5 -28.5 114.5 q0 111 70.5 169.5 q70.5 58.5 196.5 62.5 l-243 278 l0 42 l383 0 l0 -50 l-312 0 l241 -276 l0 -42 l-49 0 q-111 0 -170 -44 q-59 -44 -59 -138 q0 -80 49.5 -126.5 q49.5 -46.5 135.5 -46.5 q52 0 98 11.5 q46 11.5 80 27.5 l0 -54 q-34 -16 -78.5 -25 q-44.5 -9 -103.5 -9 Z" /><glyph glyph-name="uni01BA" unicode="&#x1ba;" d="M208 -240 q-84 0 -132 29.5 q-48 29.5 -48 88.5 q0 52 38 85 q38 33 136 37 q81 4 119.5 32.5 q38.5 28.5 38.5 97.5 q0 49 -25 75 q-25 26 -69 35.5 q-44 9.5 -101 9.5 l-47 0 l0 44 l195 188 l-272 0 l0 50 l355 0 l0 -42 l-202 -192 q63 -1 113.5 -16.5 q50.5 -15.5 80.5 -51.5 q30 -36 30 -99 q0 -85 -53 -130 q-53 -45 -163 -49 q-70 -4 -94 -23 q-24 -19 -24 -52 q0 -32 31 -50 q31 -18 93 -18 q51 0 91 8.5 q40 8.5 74 22.5 l0 -53 q-28 -11 -70 -19 q-42 -8 -95 -8 Z" /><glyph glyph-name="uni01BB" unicode="&#x1bb;" d="M266 768 q92 0 145.5 -48.5 q53.5 -48.5 53.5 -134.5 q0 -53 -16.5 -97 q-16.5 -44 -48.5 -90 l102 0 l0 -47 l-134 0 l-248 -301 l0 -3 l386 0 l0 -47 l-452 0 l0 48 l248 303 l-210 0 l0 47 l244 0 q35 50 52.5 92 q17.5 42 17.5 94 q0 65 -38 99.5 q-38 34.5 -104 34.5 q-50 0 -90.5 -18.5 q-40.5 -18.5 -75.5 -47.5 l-31 40 q40 33 88.5 54.5 q48.5 21.5 110.5 21.5 Z" /><glyph glyph-name="uni01BC" unicode="&#x1bc;" d="M252 -10 q-62 0 -108.5 12 q-46.5 12 -80.5 28 l0 56 q40 -20 87.5 -33.5 q47.5 -13.5 102.5 -13.5 q90 0 144.5 44.5 q54.5 44.5 54.5 136.5 q0 86 -55.5 124 q-55.5 38 -142.5 38 l-104 0 l0 280 l-96 0 l0 52 l432 0 l0 -52 l-278 0 l0 -230 l54 0 q73 0 129.5 -24 q56.5 -24 89 -71 q32.5 -47 32.5 -117 q0 -110 -70.5 -170 q-70.5 -60 -190.5 -60 Z" /><glyph glyph-name="uni01BD" unicode="&#x1bd;" d="M198 -8 q-54 0 -97.5 10 q-43.5 10 -70.5 24 l0 54 q33 -16 76 -28 q43 -12 94 -12 q76 0 115.5 34 q39.5 34 39.5 90 q0 55 -36.5 83.5 q-36.5 28.5 -114.5 28.5 l-90 0 l0 206 l-74 0 l0 50 l351 0 l0 -50 l-225 0 l0 -158 l52 0 q104 0 149 -43.5 q45 -43.5 45 -113.5 q0 -47 -22.5 -86.5 q-22.5 -39.5 -70 -64 q-47.5 -24.5 -121.5 -24.5 Z" /><glyph glyph-name="uni01BE" unicode="&#x1be;" d="M203 -10 q-55 0 -94 8.5 q-39 8.5 -65 21.5 l0 54 q32 -15 73 -25.5 q41 -10.5 87 -10.5 q81 0 113.5 28.5 q32.5 28.5 32.5 72.5 q0 31 -14.5 50.5 q-14.5 19.5 -42 33 q-27.5 13.5 -66.5 27.5 q-27 10 -45.5 25 q-18.5 15 -28 41.5 q-9.5 26.5 -9.5 71.5 l0 98 l-86 0 l0 32 l86 18 l20 123 l37 0 l0 -127 l163 0 l0 -46 l-163 0 l0 -97 q0 -49 14 -67 q14 -18 43 -28 q40 -14 74 -31.5 q34 -17.5 54 -45.5 q20 -28 20 -73 q0 -70 -51 -112 q-51 -42 -152 -42 Z" /><glyph glyph-name="uni01BF" unicode="&#x1bf;" d="M326 542 q93 0 149.5 -57.5 q56.5 -57.5 56.5 -164.5 q0 -98 -47 -170 q-47 -72 -134 -113 q-87 -41 -206 -44 l0 -229 l-57 0 l0 768 l47 0 l7 -102 l3 0 q19 44 62 78 q43 34 119 34 ZM316 492 q-92 0 -131.5 -57.5 q-39.5 -57.5 -39.5 -163.5 l0 -230 q155 8 241.5 79.5 q86.5 71.5 86.5 198.5 q0 80 -41.5 126.5 q-41.5 46.5 -115.5 46.5 Z" /><glyph glyph-name="uni01C0" unicode="&#x1c0;" d="M148 0 l0 760 l52 0 l0 -760 l-52 0 Z" /><glyph glyph-name="uni01C2" unicode="&#x1c2;" d="M284 760 l0 -267 l166 0 l0 -49 l-166 0 l0 -118 l166 0 l0 -49 l-166 0 l0 -277 l-52 0 l0 277 l-166 0 l0 49 l166 0 l0 118 l-166 0 l0 49 l166 0 l0 267 l52 0 Z" /><glyph glyph-name="uni01E4" unicode="&#x1e4;" d="M415 -10 q-178 0 -265.5 97 q-87.5 97 -87.5 267 q0 109 43.5 192.5 q43.5 83.5 125.5 131 q82 47.5 197 47.5 q58 0 111 -11 q53 -11 99 -32 l-24 -52 q-91 43 -191 43 q-95 0 -162 -39.5 q-67 -39.5 -103 -110.5 q-36 -71 -36 -167 q0 -158 76.5 -236.5 q76.5 -78.5 223.5 -78.5 q52 0 92.5 7 q40.5 7 73.5 20 l0 90 l-180 0 l0 48 l180 0 l0 110 l-201 0 l0 52 l259 0 l0 -162 l64 0 l0 -48 l-64 0 l0 -125 q-50 -20 -106 -31.5 q-56 -11.5 -125 -11.5 Z" /><glyph glyph-name="uni01E5" unicode="&#x1e5;" d="M282 542 q63 0 104.5 -24 q41.5 -24 66.5 -67 l3 0 l9 81 l46 0 l0 -585 l68 0 l0 -47 l-73 0 q-11 -64 -66 -102 q-55 -38 -158 -38 q-60 0 -106 10 q-46 10 -84 26 l0 55 q38 -19 86.5 -30.5 q48.5 -11.5 105.5 -11.5 q72 0 112 23 q40 23 51 68 l-176 0 l0 47 l183 0 l0 83 q0 38 3 78 l-3 0 q-22 -52 -68 -78 q-46 -26 -110 -26 q-104 0 -161.5 68.5 q-57.5 68.5 -57.5 196.5 q0 125 57.5 199 q57.5 74 167.5 74 ZM288 492 q-86 0 -129 -59 q-43 -59 -43 -165 q0 -105 42.5 -160.5 q42.5 -55.5 123.5 -55.5 q66 0 103.5 26.5 q37.5 26.5 53.5 72 q16 45.5 16 103.5 l0 32 q0 98 -37.5 152 q-37.5 54 -129.5 54 Z" /><glyph glyph-name="uni01F6" unicode="&#x1f6;" d="M100 0 l0 714 l58 0 l0 -314 l353 0 l0 314 l58 0 l0 -536 q0 -74 34.5 -105 q34.5 -31 92.5 -31 q57 0 89.5 32.5 q32.5 32.5 32.5 103.5 l0 354 l57 0 l0 -356 q0 -92 -48.5 -139 q-48.5 -47 -132.5 -47 q-86 0 -134.5 46.5 q-48.5 46.5 -48.5 140.5 l0 171 l-353 0 l0 -348 l-58 0 Z" /><glyph glyph-name="uni01F7" unicode="&#x1f7;" d="M366 725 q58 0 105 -25.5 q47 -25.5 75 -80.5 q28 -55 28 -143 q0 -167 -109 -289.5 q-109 -122.5 -309 -192.5 l0 -234 l-56 0 l0 955 l46 0 l9 -119 l3 0 q15 33 41.5 62.5 q26.5 29.5 67.5 48 q41 18.5 99 18.5 ZM356 674 q-100 0 -150 -64 q-50 -64 -50 -179 l0 -383 q108 38 189 98 q81 60 126 142 q45 82 45 186 q0 72 -21 116 q-21 44 -57.5 64 q-36.5 20 -81.5 20 Z" /><glyph glyph-name="uni021C" unicode="&#x21c;" d="M40 -180 l0 56 q150 38 238 81 q88 43 126 94 q38 51 38 116 q0 67 -33 108 q-33 41 -95 69 q-34 -12 -72 -23 q-38 -11 -78 -21 l-12 48 q91 23 152.5 46.5 q61.5 23.5 93 57.5 q31.5 34 31.5 90 q0 47 -21.5 76 q-21.5 29 -57.5 42.5 q-36 13.5 -77 13.5 q-60 0 -107.5 -17.5 q-47.5 -17.5 -91.5 -47.5 l-30 41 q53 38 108.5 56 q55.5 18 121.5 18 q56 0 105 -18 q49 -18 79.5 -58 q30.5 -40 30.5 -104 q0 -64 -33.5 -106 q-33.5 -42 -89.5 -70 q57 -26 97 -72.5 q40 -46.5 40 -127.5 q0 -88 -48 -151 q-48 -63 -150 -110 q-102 -47 -265 -87 Z" /><glyph glyph-name="uni021D" unicode="&#x21d;" d="M30 -240 l0 52 q108 24 184 55.5 q76 31.5 116.5 77 q40.5 45.5 40.5 110.5 q0 56 -27.5 91 q-27.5 35 -77.5 58 q-27 -12 -59.5 -21.5 q-32.5 -9.5 -67.5 -18.5 l-11 44 q83 22 133 45 q50 23 72.5 53.5 q22.5 30.5 22.5 73.5 q0 60 -39.5 87 q-39.5 27 -94.5 27 q-44 0 -83 -10.5 q-39 -10.5 -73 -28.5 l-20 43 q82 44 176 44 q54 0 97.5 -17.5 q43.5 -17.5 69 -53 q25.5 -35.5 25.5 -91.5 q0 -52 -26.5 -89 q-26.5 -37 -73.5 -63 q46 -21 81 -61.5 q35 -40.5 35 -111.5 q0 -85 -50 -141 q-50 -56 -140 -92 q-90 -36 -210 -62 Z" /><glyph glyph-name="uni0220" unicode="&#x220;" d="M372 724 q112 0 172 -60 q60 -60 60 -192 l0 -712 l-58 0 l0 709 q0 107 -43.5 155.5 q-43.5 48.5 -135.5 48.5 q-109 0 -159 -59 q-50 -59 -50 -168 l0 -446 l-58 0 l0 714 l46 0 l8 -108 l4 0 q25 50 79.5 84 q54.5 34 134.5 34 Z" /><glyph glyph-name="uni0221" unicode="&#x221;" d="M542 -101 l-52 3 q2 31 7 64 q5 33 13 60 q-31 23 -40 76 l-3 0 q-23 -50 -65.5 -81 q-42.5 -31 -121.5 -31 q-107 0 -165 68.5 q-58 68.5 -58 201.5 q0 138 60.5 210 q60.5 72 166.5 72 q67 0 109 -29 q42 -29 62 -73 l4 0 q-1 24 -2.5 53 q-1.5 29 -1.5 51 l0 216 l57 0 l0 -581 q0 -31 4.5 -56 q4.5 -25 13.5 -41 q26 57 71 98.5 q45 41.5 117 41.5 q57 0 90.5 -27 q33.5 -27 33.5 -74 q0 -52 -41 -86.5 q-41 -34.5 -135 -34.5 q-36 0 -65.5 2 q-29.5 2 -43.5 5 q-5 -22 -9 -52 q-4 -30 -6 -56 ZM286 39 q92 0 131 55.5 q39 55.5 39 161.5 l0 10 q0 110 -39 168.5 q-39 58.5 -127 58.5 q-86 0 -130 -60.5 q-44 -60.5 -44 -172.5 q0 -109 42 -165 q42 -56 128 -56 ZM668 47 q68 0 93.5 19.5 q25.5 19.5 25.5 51.5 q0 26 -19 41 q-19 15 -57 15 q-39 0 -66 -16.5 q-27 -16.5 -45 -44 q-18 -27.5 -29 -59.5 q16 -3 41.5 -5 q25.5 -2 55.5 -2 Z" /><glyph glyph-name="uni0222" unicode="&#x222;" d="M327 -11 q-81 0 -142 28 q-61 28 -95 81 q-34 53 -34 128 q0 62 21.5 104.5 q21.5 42.5 58 68 q36.5 25.5 79.5 35.5 q-61 16 -92.5 62 q-31.5 46 -31.5 132 l0 96 l58 0 l0 -95 q0 -89 39.5 -130 q39.5 -41 136.5 -41 q97 0 139 41 q42 41 42 133 l0 92 l58 0 l0 -95 q0 -88 -33 -132.5 q-33 -44.5 -92 -63.5 q43 -9 80 -34.5 q37 -25.5 58.5 -68 q21.5 -42.5 20.5 -105.5 q0 -115 -72 -175.5 q-72 -60.5 -199 -60.5 ZM328 40 q104 0 157 48.5 q53 48.5 53 136.5 q0 90 -51 136.5 q-51 46.5 -163 46.5 q-104 0 -155.5 -47 q-51.5 -47 -51.5 -135 q0 -88 53.5 -137 q53.5 -49 157.5 -49 Z" /><glyph glyph-name="uni0223" unicode="&#x223;" d="M298 -11 q-70 0 -124 28.5 q-54 28.5 -84 83 q-30 54.5 -30 132.5 q0 65 19 108.5 q19 43.5 51 69.5 q32 26 70 37 q-52 13 -80.5 53.5 q-28.5 40.5 -28.5 131.5 l0 114 l57 0 l0 -111 q0 -92 35 -127.5 q35 -35.5 113 -35.5 q53 0 87 14.5 q34 14.5 50.5 51 q16.5 36.5 16.5 101.5 l0 107 l56 0 l0 -113 q0 -90 -29.5 -131.5 q-29.5 -41.5 -79.5 -55.5 q39 -11 71 -36.5 q32 -25.5 51 -69.5 q19 -44 18 -109 q-1 -118 -65 -180.5 q-64 -62.5 -174 -62.5 ZM300 38 q86 0 132 50.5 q46 50.5 46 143.5 q0 94 -44 143 q-44 49 -138 49 q-87 0 -132 -49.5 q-45 -49.5 -45 -141.5 q0 -92 47 -143.5 q47 -51.5 134 -51.5 Z" /><glyph glyph-name="uni0234" unicode="&#x234;" d="M62 -24 l-46 16 q14 43 33 80.5 q19 37.5 41 63.5 q-2 14 -2 32 q0 18 0 34 l0 558 l57 0 l0 -578 q16 10 37 18 q21 8 48 8 q57 0 87.5 -29.5 q30.5 -29.5 30.5 -76.5 q0 -50 -34 -81 q-34 -31 -88 -31 q-47 0 -77 22 q-30 22 -45 60 q-12 -17 -23 -43.5 q-11 -26.5 -19 -52.5 ZM226 36 q32 0 50 18 q18 18 18 46 q0 28 -18 44.5 q-18 16.5 -50 16.5 q-23 0 -43.5 -9.5 q-20.5 -9.5 -36.5 -25.5 q3 -38 22.5 -64 q19.5 -26 57.5 -26 Z" /><glyph glyph-name="uni0235" unicode="&#x235;" d="M430 -24 l-46 16 q15 43 33.5 80.5 q18.5 37.5 40.5 63.5 q-1 14 -1.5 30 q-0.5 16 -0.5 31 l0 147 q0 76 -34.5 112 q-34.5 36 -101.5 36 q-176 0 -176 -202 l0 -290 l-56 0 l0 532 l46 0 l8 -92 l4 0 q21 44 66.5 73 q45.5 29 113.5 29 q91 0 139 -47 q48 -47 48 -147 l0 -166 q16 10 37 18 q21 8 48 8 q56 0 87 -31 q31 -31 31 -77 q0 -52 -34 -81 q-34 -29 -88 -29 q-46 0 -76.5 22 q-30.5 22 -45.5 59 q-12 -17 -22.5 -43 q-10.5 -26 -19.5 -52 ZM594 36 q33 0 50.5 18 q17.5 18 17.5 46 q0 28 -18 44.5 q-18 16.5 -50 16.5 q-23 0 -43.5 -9.5 q-20.5 -9.5 -36.5 -25.5 q3 -38 22.5 -64 q19.5 -26 57.5 -26 Z" /><glyph glyph-name="uni0236" unicode="&#x236;" d="M66 -24 l-46 16 q14 43 32.5 80.5 q18.5 37.5 40.5 63.5 q-1 16 -1 34 q0 18 0 34 l0 282 l-79 0 l0 32 l79 18 l20 123 l36 0 l0 -127 l164 0 l0 -46 l-164 0 l0 -304 q16 10 37.5 18 q21.5 8 48.5 8 q56 0 86.5 -31 q30.5 -31 30.5 -77 q0 -52 -34 -81 q-34 -29 -87 -29 q-46 0 -76.5 22 q-30.5 22 -46.5 59 q-11 -17 -22 -43 q-11 -26 -19 -52 ZM230 36 q33 0 50.5 18 q17.5 18 17.5 46 q0 28 -18 44.5 q-18 16.5 -50 16.5 q-24 0 -44 -9.5 q-20 -9.5 -36 -25.5 q3 -38 22 -64 q19 -26 58 -26 Z" /><glyph glyph-name="uni0238" unicode="&#x238;" d="M286 -10 q-116 0 -172.5 74 q-56.5 74 -56.5 200 q0 136 58.5 207 q58.5 71 163.5 71 q71 0 113.5 -31 q42.5 -31 62.5 -75 l4 0 q-1 19 -2.5 51.5 q-1.5 32.5 -1.5 60.5 l0 212 l57 0 l0 -210 q0 -28 -1 -61 q-1 -33 -3 -53 l4 0 q20 44 63 75 q43 31 113 31 q105 0 163.5 -70.5 q58.5 -70.5 58.5 -206.5 q0 -126 -57 -200.5 q-57 -74.5 -173 -74.5 q-150 0 -197 144 q-23 -72 -73.5 -108 q-50.5 -36 -123.5 -36 ZM287 39 q85 0 127 59.5 q42 59.5 42 168.5 q0 110 -39.5 168.5 q-39.5 58.5 -131.5 58.5 q-85 0 -127 -60.5 q-42 -60.5 -42 -169.5 q0 -108 42.5 -166.5 q42.5 -58.5 128.5 -58.5 ZM681 39 q86 0 128 58.5 q42 58.5 42 168.5 q0 112 -42.5 169.5 q-42.5 57.5 -128.5 57.5 q-90 0 -129 -57 q-39 -57 -39 -169 q0 -113 41.5 -170.5 q41.5 -57.5 127.5 -57.5 Z" /><glyph glyph-name="uni0239" unicode="&#x239;" d="M682 542 q116 0 172 -74 q56 -74 56 -200 q0 -136 -58.5 -207 q-58.5 -71 -163.5 -71 q-70 0 -113 31 q-43 31 -63 75 l-4 0 q2 -18 3 -50.5 q1 -32.5 1 -61.5 l0 -220 l-57 0 l0 219 q0 29 1 61.5 q1 32.5 2 52.5 l-3 0 q-19 -44 -62 -75.5 q-43 -31.5 -114 -31.5 q-105 0 -163.5 71 q-58.5 71 -58.5 207 q0 126 57 200 q57 74 172 74 q153 0 198 -144 q23 73 73.5 108.5 q50.5 35.5 124.5 35.5 ZM286 494 q-86 0 -128 -58.5 q-42 -58.5 -42 -168.5 q0 -112 42 -170 q42 -58 128 -58 q90 0 129.5 57.5 q39.5 57.5 39.5 169.5 q0 228 -169 228 ZM680 494 q-86 0 -127 -60 q-41 -60 -41 -168 q0 -111 39 -169 q39 -58 131 -58 q85 0 127 60.5 q42 60.5 42 169.5 q0 108 -42 166.5 q-42 58.5 -129 58.5 Z" /><glyph glyph-name="uni023A" unicode="&#x23a;" d="M547 0 l-95 246 l-141 0 l-111 -321 l-46 0 l111 321 l-109 0 l-97 -246 l-59 0 l280 716 l54 0 l50 -130 l60 174 l46 0 l-82 -237 l200 -523 l-61 0 ZM175 298 l109 0 l72 209 l-18 49 q-4 14 -14 44 q-10 30 -18 53 q-8 -26 -17 -52.5 q-9 -26.5 -15 -45.5 l-99 -257 ZM434 298 l-54 145 l-50 -145 l104 0 Z" /><glyph glyph-name="uni023B" unicode="&#x23b;" d="M546 760 l-18 -52 q34 -9 64 -24 l-23 -50 q-29 14 -59 23 l-209 -602 q42 -13 93 -13 q52 0 95.5 8 q43.5 8 82.5 20 l0 -50 q-37 -14 -81.5 -22 q-44.5 -8 -102.5 -8 q-57 0 -105 13 l-27 -78 l-47 0 l32 93 q-89 40 -134 128.5 q-45 88.5 -45 212.5 q0 106 40.5 188.5 q40.5 82.5 117 129.5 q76.5 47 184.5 47 q41 0 80 -6 l15 42 l47 0 ZM404 672 q-88 0 -151 -39.5 q-63 -39.5 -96.5 -110 q-33.5 -70.5 -33.5 -164.5 q0 -102 34.5 -176 q34.5 -74 102.5 -110 l207 595 q-31 5 -63 5 Z" /><glyph glyph-name="uni023C" unicode="&#x23c;" d="M301 -10 q-49 0 -89 13 l-64 -181 l-47 0 l70 199 q-114 65 -114 242 q0 89 32 151.5 q32 62.5 89.5 95 q57.5 32.5 133.5 32.5 q21 0 41 -2 l65 184 l47 0 l-67 -192 q25 -6 46 -16 l-16 -50 q-22 10 -48 16 l-151 -430 q31 -12 71 -12 q40 0 75 8 q35 8 63 21 l0 -51 q-26 -13 -60 -20.5 q-34 -7.5 -77 -7.5 ZM116 264 q0 -64 18 -113 q18 -49 55 -77 l147 416 q-12 1 -24 1 q-94 0 -145 -61 q-51 -61 -51 -166 Z" /><glyph glyph-name="uni023D" unicode="&#x23d;" d="M100 0 l0 331 l-92 0 l0 48 l92 0 l0 335 l58 0 l0 -335 l184 0 l0 -48 l-184 0 l0 -279 l334 0 l0 -52 l-392 0 Z" /><glyph glyph-name="uni023E" unicode="&#x23e;" d="M294 0 l-58 0 l0 229 l-152 -304 l-49 0 l201 402 l0 335 l-230 0 l0 52 l424 0 l23 46 l49 0 l-23 -46 l45 0 l0 -52 l-71 0 l-159 -318 l0 -344 ZM294 662 l0 -220 l110 220 l-110 0 Z" /><glyph glyph-name="uni023F" unicode="&#x23f;" d="M346 -240 q-50 0 -79.5 16 q-29.5 16 -47 49.5 q-17.5 33.5 -29.5 84.5 q-9 40 -27 61 q-18 21 -53 30 q-19 5 -35.5 11 q-16.5 6 -28.5 12 l0 55 q35 -18 80 -29.5 q45 -11.5 92 -11.5 q78 0 113 26.5 q35 26.5 35 72.5 q0 44 -36.5 67.5 q-36.5 23.5 -109.5 48.5 q-49 17 -86.5 34 q-37.5 17 -58.5 44.5 q-21 27.5 -21 74.5 q0 64 52 100 q52 36 139 36 q48 0 89.5 -9.5 q41.5 -9.5 75.5 -23.5 l-20 -47 q-31 14 -70 23 q-39 9 -78 9 q-63 0 -98 -22 q-35 -22 -35 -64 q0 -32 17 -50.5 q17 -18.5 49 -32 q32 -13.5 78 -29.5 q47 -16 85.5 -34 q38.5 -18 61 -46 q22.5 -28 22.5 -75 q0 -77 -57 -114 q-57 -37 -155 -37 q14 -13 21.5 -32.5 q7.5 -19.5 13.5 -41.5 q14 -57 36 -82 q22 -25 72 -25 q20 0 40 4.5 q20 4.5 33 8.5 l0 -48 q-12 -4 -33 -9 q-21 -5 -47 -5 Z" /><glyph glyph-name="uni0240" unicode="&#x240;" d="M370 -240 q-54 0 -88 17 q-34 17 -55 50 q-21 33 -36 83 q-17 50 -46 70 q-29 20 -85 20 l-20 0 l0 37 l312 449 l-290 0 l0 46 l358 0 l0 -40 l-314 -448 q55 -7 87.5 -36.5 q32.5 -29.5 52.5 -91.5 q18 -57 45.5 -82 q27.5 -25 84.5 -25 q22 0 41 3.5 q19 3.5 33 9.5 l0 -49 q-13 -5 -32.5 -9 q-19.5 -4 -47.5 -4 Z" /><glyph glyph-name="uni0241" unicode="&#x241;" d="M185 724 q97 0 152 -51.5 q55 -51.5 55 -142.5 q0 -64 -25 -111 q-25 -47 -69 -82 q-44 -35 -101 -60 l0 -277 l-58 0 l0 310 q53 19 97 47.5 q44 28.5 70 70 q26 41.5 26 100.5 q0 68 -38 106 q-38 38 -112 38 q-44 0 -85 -13 q-41 -13 -70 -32 l-21 47 q34 22 79 36 q45 14 100 14 Z" /><glyph glyph-name="uni0242" unicode="&#x242;" d="M185 541 q97 0 149 -51 q52 -51 52 -138 q0 -86 -53 -146 q-53 -60 -137 -98 l0 -108 l-57 0 l0 139 q53 19 96 46.5 q43 27.5 68 68 q25 40.5 25 96.5 q0 68 -38 105 q-38 37 -108 37 q-44 0 -82.5 -13 q-38.5 -13 -67.5 -31 l-22 44 q34 21 77 35 q43 14 98 14 Z" /><glyph glyph-name="uni0243" unicode="&#x243;" d="M100 0 l0 178 l-84 0 l0 52 l84 0 l0 484 l198 0 q132 0 195 -41 q63 -41 63 -133 q0 -62 -36 -106 q-36 -44 -103 -56 l0 -4 q78 -12 118.5 -53.5 q40.5 -41.5 40.5 -117.5 q0 -69 -31.5 -114 q-31.5 -45 -88 -67 q-56.5 -22 -130.5 -22 l-226 0 ZM158 399 l153 0 q98 0 141.5 34 q43.5 34 43.5 101 q0 69 -47 99 q-47 30 -151 30 l-140 0 l0 -264 ZM158 50 l163 0 q194 0 194 156 q0 74 -49.5 108.5 q-49.5 34.5 -153.5 34.5 l-154 0 l0 -119 l151 0 l0 -52 l-151 0 l0 -128 Z" /><glyph glyph-name="uni0244" unicode="&#x244;" d="M12 370 l0 52 l80 0 l0 292 l58 0 l0 -292 l422 0 l0 292 l57 0 l0 -292 l81 0 l0 -52 l-81 0 l0 -118 q0 -122 -71 -192 q-71 -70 -200 -70 q-128 0 -197 70 q-69 70 -69 194 l0 116 l-80 0 ZM150 254 q0 -104 54 -158.5 q54 -54.5 158 -54.5 q101 0 155.5 54.5 q54.5 54.5 54.5 152.5 l0 122 l-422 0 l0 -116 Z" /><glyph glyph-name="uni0246" unicode="&#x246;" d="M492 0 l-257 0 l-23 -75 l-46 0 l23 75 l-89 0 l0 714 l304 0 l14 46 l45 0 l-14 -46 l43 0 l0 -52 l-58 0 l-79 -262 l118 0 l0 -51 l-134 0 l-89 -297 l242 0 l0 -52 ZM158 400 l151 0 l79 262 l-230 0 l0 -262 ZM158 52 l46 0 l90 297 l-136 0 l0 -297 Z" /><glyph glyph-name="uni0247" unicode="&#x247;" d="M290 542 q30 0 56 -6 l63 182 l47 0 l-69 -198 q54 -28 81.5 -86.5 q27.5 -58.5 27.5 -135.5 l0 -40 l-200 0 l-70 -204 q35 -14 80 -14 q50 0 87 8 q37 8 81 28 l0 -52 q-40 -18 -79 -26 q-39 -8 -91 -8 q-53 0 -95 15 l-66 -189 l-47 0 l72 208 q-54 32 -82.5 93 q-28.5 61 -28.5 145 q0 81 27.5 144.5 q27.5 63.5 79.5 99.5 q52 36 126 36 ZM289 494 q-73 0 -118.5 -49 q-45.5 -49 -53.5 -139 l149 0 l64 183 q-19 5 -41 5 ZM436 306 q0 57 -16 99.5 q-16 42.5 -50 65.5 l-57 -165 l123 0 ZM116 258 q0 -127 70 -182 l63 182 l-133 0 Z" /><glyph glyph-name="uni0248" unicode="&#x248;" d="M-13 -182 q-24 0 -42.5 4 q-18.5 4 -32.5 9 l0 51 q15 -5 33.5 -8.5 q18.5 -3.5 40.5 -3.5 q56 0 84.5 31 q28.5 31 28.5 96 l0 326 l-89 0 l0 51 l89 0 l0 340 l58 0 l0 -340 l89 0 l0 -51 l-89 0 l0 -321 q0 -93 -43.5 -138.5 q-43.5 -45.5 -126.5 -45.5 Z" /><glyph glyph-name="uni0249" unicode="&#x249;" d="M90 670 q-8 15 -2 26 q6 11 16 18 q10 6 20 3.5 q10 -2.5 18 -16.5 q9 -14 3.5 -25.5 q-5.5 -11.5 -15.5 -17.5 q-22 -14 -40 12 ZM16 -240 q-43 0 -68 11 l0 49 q28 -11 63 -11 q36 0 56.5 22 q20.5 22 20.5 69 l0 350 l-80 0 l0 48 l80 0 l0 234 l56 0 l0 -234 l82 0 l0 -48 l-82 0 l0 -350 q0 -68 -33.5 -104 q-33.5 -36 -94.5 -36 Z" /><glyph glyph-name="uni024A" unicode="&#x24a;" d="M367 723 q88 0 148.5 -39.5 q60.5 -39.5 85.5 -98.5 l3 0 l8 129 l48 0 l0 -812 q0 -50 18 -71 q18 -21 54 -21 q14 0 26 3 q12 3 22 7 l0 -50 q-10 -5 -24 -8.5 q-14 -3.5 -31 -3.5 q-59 0 -91 34 q-32 34 -32 104 l0 142 q0 22 1 47 q1 25 2 46 l-3 0 q-26 -61 -85.5 -101 q-59.5 -40 -153.5 -40 q-99 0 -166 46.5 q-67 46.5 -100.5 130 q-33.5 83.5 -33.5 192.5 q0 109 34 191 q34 82 101.5 127.5 q67.5 45.5 168.5 45.5 ZM366 672 q-81 0 -135 -39.5 q-54 -39.5 -81 -110 q-27 -70.5 -27 -164.5 q0 -95 26.5 -166.5 q26.5 -71.5 80.5 -111 q54 -39.5 136 -39.5 q118 0 177 64.5 q59 64.5 59 185.5 l0 135 q0 246 -236 246 Z" /><glyph glyph-name="uni024B" unicode="&#x24b;" d="M280 542 q68 0 110.5 -29 q42.5 -29 62.5 -69 l3 0 l8 88 l46 0 l0 -627 q0 -55 16.5 -76.5 q16.5 -21.5 48.5 -21.5 q17 0 29.5 3.5 q12.5 3.5 21.5 7.5 l0 -46 q-9 -6 -25 -10 q-16 -4 -37 -4 q-50 0 -80 32.5 q-30 32.5 -30 110.5 l0 95 q0 21 0.5 50.5 q0.5 29.5 2.5 50.5 l-4 0 q-20 -46 -66 -76.5 q-46 -30.5 -116 -30.5 q-101 0 -158 69.5 q-57 69.5 -57 204.5 q0 126 57 202 q57 76 167 76 ZM286 493 q-86 0 -129 -61 q-43 -61 -43 -168 q0 -110 41 -168 q41 -58 125 -58 q92 0 132.5 56.5 q40.5 56.5 41.5 161.5 l0 14 q0 110 -39.5 166.5 q-39.5 56.5 -128.5 56.5 Z" /><glyph glyph-name="uni024C" unicode="&#x24c;" d="M278 714 q128 0 192.5 -45 q64.5 -45 64.5 -151 q0 -82 -43.5 -128 q-43.5 -46 -108.5 -66 l196 -324 l-69 0 l-182 308 l-170 0 l0 -308 l-58 0 l0 308 l-90 0 l0 50 l90 0 l0 356 l178 0 ZM273 662 l-115 0 l0 -304 l135 0 q87 0 134.5 41 q47.5 41 47.5 117 q0 82 -49.5 114 q-49.5 32 -152.5 32 Z" /><glyph glyph-name="uni024D" unicode="&#x24d;" d="M280 304 l0 -48 l-135 0 l0 -256 l-57 0 l0 256 l-76 0 l0 48 l76 0 l0 228 l48 0 l6 -100 l3 0 q20 45 60.5 77 q40.5 32 100.5 32 q42 0 72 -9 l-8 -52 q-16 4 -32 6 q-16 2 -34 2 q-71 0 -113.5 -50 q-42.5 -50 -45.5 -134 l135 0 Z" /><glyph glyph-name="uni024E" unicode="&#x24e;" d="M524 584 l0 -52 l-87 0 l-139 -256 l0 -276 l-58 0 l0 272 l-141 260 l-89 0 l0 52 l61 0 l-71 130 l64 0 l69 -130 l270 0 l69 130 l64 0 l-71 -130 l59 0 ZM268 332 l107 200 l-214 0 l107 -200 Z" /><glyph glyph-name="uni024F" unicode="&#x24f;" d="M0 532 l61 0 l70 -182 l210 0 l68 182 l61 0 l-70 -182 l63 0 l0 -48 l-81 0 l-152 -397 q-27 -70 -64 -108.5 q-37 -38.5 -100 -38.5 q-20 0 -35 3 q-15 3 -29 7 l0 48 q26 -9 57 -9 q42 0 68.5 26 q26.5 26 46.5 79 l35 90 l-118 300 l-86 0 l0 48 l67 0 l-72 182 ZM235 61 l3 0 q7 23 19 59 q12 36 28 80 l38 102 l-174 0 l39 -101 q16 -44 28 -78.5 q12 -34.5 19 -61.5 Z" /><glyph glyph-name="uni0251" unicode="&#x251;" d="M274 -10 q-102 0 -159.5 69 q-57.5 69 -57.5 203 q0 138 59 209 q59 71 163 71 q70 0 112.5 -30 q42.5 -30 62.5 -74 l3 0 l8 94 l47 0 l0 -532 l-48 0 l-7 95 l-3 0 q-21 -44 -63.5 -74.5 q-42.5 -30.5 -116.5 -30.5 ZM282 39 q93 0 133 56 q40 56 40 161 l0 10 q0 110 -39.5 168.5 q-39.5 58.5 -130.5 58.5 q-83 0 -126 -59.5 q-43 -59.5 -43 -171.5 q0 -108 42 -165.5 q42 -57.5 124 -57.5 Z" /><glyph glyph-name="uni0253" unicode="&#x253;" d="M217 765 q17 0 32 -3 q15 -3 27 -6 l0 -50 q-9 3 -22.5 5.5 q-13.5 2.5 -29.5 2.5 q-39 0 -59.5 -22 q-20.5 -22 -20.5 -70 l0 -78 q0 -28 -1 -58 q-1 -30 -3 -50 l4 0 q20 45 65.5 75.5 q45.5 30.5 115.5 30.5 q103 0 160 -69.5 q57 -69.5 57 -205.5 q0 -126 -57.5 -201.5 q-57.5 -75.5 -167.5 -75.5 q-67 0 -109.5 28 q-42.5 28 -62.5 68 l-5 0 l-10 -86 l-43 0 l0 620 q0 70 32.5 107.5 q32.5 37.5 97.5 37.5 ZM318 493 q-93 0 -133.5 -58 q-40.5 -58 -40.5 -168 q0 -114 38 -171 q38 -57 128 -57 q86 0 129.5 59.5 q43.5 59.5 43.5 169.5 q0 225 -165 225 Z" /><glyph glyph-name="uni0254" unicode="&#x254;" d="M182 542 q116 0 177 -68 q61 -68 61 -199 q0 -133 -66 -209 q-66 -76 -184 -76 q-43 0 -76.5 7 q-33.5 7 -59.5 19 l0 53 q28 -13 63 -21 q35 -8 74 -8 q67 0 108.5 30 q41.5 30 61 82.5 q19.5 52.5 19.5 119.5 q0 106 -44.5 163 q-44.5 57 -139.5 57 q-28 0 -64 -7 q-36 -7 -63 -21 l-16 50 q26 12 67.5 20 q41.5 8 81.5 8 Z" /><glyph glyph-name="uni0255" unicode="&#x255;" d="M316 542 q38 0 72 -7 q34 -7 60 -19 l-16 -50 q-27 12 -58 18.5 q-31 6.5 -59 6.5 q-94 0 -145 -61 q-51 -61 -51 -166 q0 -74 25 -125 q34 40 82 64.5 q48 24.5 104 24.5 q66 0 104 -31 q38 -31 38 -81 q0 -62 -47.5 -94 q-47.5 -32 -116.5 -32 q-105 0 -168 57 q-20 -38 -36 -91 l-46 19 q8 30 20.5 58.5 q12.5 28.5 26.5 53.5 q-45 70 -45 176 q0 89 32 151.5 q32 62.5 90 95 q58 32.5 134 32.5 ZM326 178 q-93 0 -156 -84 q22 -26 56.5 -40.5 q34.5 -14.5 80.5 -14.5 q53 0 81.5 21.5 q28.5 21.5 28.5 53.5 q0 27 -22.5 45.5 q-22.5 18.5 -68.5 18.5 Z" /><glyph glyph-name="uni0256" unicode="&#x256;" d="M580 -238 q-56 0 -91 34.5 q-35 34.5 -35 117.5 l0 82 q0 20 1 50 q1 30 3 50 l-4 0 q-21 -43 -64.5 -74.5 q-43.5 -31.5 -116.5 -31.5 q-103 0 -160 69 q-57 69 -57 204 q0 136 59.5 207.5 q59.5 71.5 162.5 71.5 q70 0 112.5 -30 q42.5 -30 63.5 -72 l4 0 q-2 22 -3 52 q-1 30 -1 52 l0 216 l57 0 l0 -842 q0 -62 20.5 -85 q20.5 -23 58.5 -23 q20 0 35.5 3.5 q15.5 3.5 23.5 6.5 l0 -46 q-10 -4 -28.5 -8 q-18.5 -4 -40.5 -4 ZM280 39 q90 0 132 56 q42 56 42 161 l0 10 q0 114 -41.5 170.5 q-41.5 56.5 -128.5 56.5 q-82 0 -125.5 -60 q-43.5 -60 -43.5 -171 q0 -223 165 -223 Z" /><glyph glyph-name="uni0257" unicode="&#x257;" d="M279 -10 q-107 0 -164.5 68.5 q-57.5 68.5 -57.5 201.5 q0 138 60.5 210 q60.5 72 166.5 72 q67 0 109 -29 q42 -29 62 -73 l4 0 q-1 24 -2.5 53 q-1.5 29 -1.5 51 l0 90 q0 65 30.5 97.5 q30.5 32.5 82.5 32.5 q19 0 35.5 -3 q16.5 -3 28.5 -8 l0 -49 q-25 10 -57 10 q-63 0 -63 -78 l0 -636 l-46 0 l-8 92 l-3 0 q-21 -42 -63 -72 q-42 -30 -113 -30 ZM286 39 q92 0 131 56 q39 56 39 161 l0 10 q0 110 -39 168.5 q-39 58.5 -127 58.5 q-86 0 -130 -60.5 q-44 -60.5 -44 -172.5 q0 -109 42 -165 q42 -56 128 -56 Z" /><glyph glyph-name="uni0259" unicode="&#x259;" d="M248 542 q119 0 183 -73 q64 -73 64 -199 q0 -81 -27.5 -144.5 q-27.5 -63.5 -79.5 -99.5 q-52 -36 -126 -36 q-68 0 -114 31.5 q-46 31.5 -69 86.5 q-23 55 -23 126 l0 40 l380 0 q0 105 -49 161.5 q-49 56.5 -141 56.5 q-50 0 -87 -8 q-37 -8 -81 -28 l0 52 q40 18 79 26 q39 8 91 8 ZM434 226 l-319 0 q0 -84 36 -136 q36 -52 112 -52 q73 0 118 49 q45 49 53 139 Z" /><glyph glyph-name="uni025E" unicode="&#x25e;" d="M314 542 q87 0 135.5 -38 q48.5 -38 48.5 -102 q0 -48 -26 -77.5 q-26 -29.5 -74 -41.5 l0 -3 q52 -10 85 -41 q33 -31 33 -89 q0 -68 -53 -114 q-53 -46 -163 -46 q-124 0 -183.5 74 q-59.5 74 -59.5 199 q0 127 64.5 203 q64.5 76 192.5 76 ZM313 492 q-101 0 -149 -61 q-48 -61 -48 -168 q0 -110 46 -167 q46 -57 144 -57 q74 0 113.5 31 q39.5 31 39.5 83 q0 55 -43 78 q-43 23 -124 23 l-42 0 l0 48 l32 0 q78 0 119 22 q41 22 41 74 q0 42 -32 68 q-32 26 -97 26 Z" /><glyph glyph-name="uni025F" unicode="&#x25f;" d="M16 -240 q-43 0 -68 11 l0 49 q28 -11 63 -11 q36 0 56.5 22 q20.5 22 20.5 69 l0 350 l-80 0 l0 48 l80 0 l0 234 l56 0 l0 -234 l82 0 l0 -48 l-82 0 l0 -350 q0 -68 -33.5 -104 q-33.5 -36 -94.5 -36 Z" /><glyph glyph-name="uni0260" unicode="&#x260;" d="M568 764 q18 0 35 -3 q17 -3 27 -8 l0 -49 q-23 10 -56 10 q-64 0 -64 -78 l0 -653 q0 -105 -54 -164 q-54 -59 -175 -59 q-59 0 -105.5 10 q-46.5 10 -83.5 26 l0 55 q37 -19 86 -30.5 q49 -11.5 106 -11.5 q87 0 128.5 46 q41.5 46 41.5 125 l0 31 q0 21 1 44.5 q1 23.5 1 38.5 l-2 0 q-47 -104 -178 -104 q-104 0 -162 70 q-58 70 -58 202 q0 129 58 204.5 q58 75.5 168 75.5 q63 0 104.5 -25 q41.5 -25 67.5 -67 l4 0 q-2 20 -3 43 q-1 23 -1 45 l0 96 q0 65 31 97.5 q31 32.5 83 32.5 ZM288 492 q-86 0 -129.5 -60.5 q-43.5 -60.5 -43.5 -170.5 q0 -109 43 -166 q43 -57 124 -57 q66 0 103.5 27 q37.5 27 53 74 q15.5 47 15.5 107 l0 34 q0 102 -37 157 q-37 55 -129 55 Z" /><glyph glyph-name="uni0262" unicode="&#x262;" d="M330 543 q50 0 91 -9.5 q41 -9.5 73 -25.5 l-22 -52 q-32 16 -67.5 26 q-35.5 10 -73.5 10 q-103 0 -161 -60.5 q-58 -60.5 -58 -165.5 q0 -106 51.5 -165.5 q51.5 -59.5 150.5 -59.5 q39 0 70 6 q31 6 58 14 l0 169 l-140 0 l0 48 l198 0 l0 -250 q-44 -17 -88.5 -27 q-44.5 -10 -99.5 -10 q-117 0 -188 70.5 q-71 70.5 -71 203.5 q0 88 35 150 q35 62 97.5 95 q62.5 33 144.5 33 Z" /><glyph glyph-name="uni0263" unicode="&#x263;" d="M236 -239 q-46 0 -74 31.5 q-28 31.5 -28 81.5 q0 49 21 98.5 q21 49.5 49 104.5 l-204 455 l62 0 l122 -278 q14 -33 29 -69.5 q15 -36.5 23 -61.5 l4 0 q8 25 22.5 61 q14.5 36 29.5 71 l122 277 l62 0 l-205 -454 q31 -61 50 -108.5 q19 -47.5 19 -95.5 q0 -49 -28 -81 q-28 -32 -76 -32 ZM238 -190 q22 0 36 16 q14 16 14 50 q0 33 -14.5 72.5 q-14.5 39.5 -35.5 80.5 q-22 -41 -37 -81 q-15 -40 -15 -72 q0 -34 15 -50 q15 -16 37 -16 Z" /><glyph glyph-name="uni0264" unicode="&#x264;" d="M466 541 q15 0 25.5 -2.5 q10.5 -2.5 18.5 -6.5 l0 -48 q-6 3 -16.5 5.5 q-10.5 2.5 -21.5 2.5 q-21 0 -36 -13.5 q-15 -13.5 -37 -46.5 l-113 -172 q32 -46 49 -83 q17 -37 17 -81 q0 -48 -27 -76.5 q-27 -28.5 -73 -28.5 q-46 0 -73 28 q-27 28 -27 75 q0 46 19 83.5 q19 37.5 51 82.5 l-117 177 q-19 29 -34 42 q-15 13 -37 13 q-13 1 -22.5 -3 q-9.5 -4 -14.5 -6 l0 47 q8 4 20 7.5 q12 3.5 27 3.5 q33 0 54.5 -16.5 q21.5 -16.5 47.5 -56.5 l66 -104 q13 -19 23 -35 q10 -16 17 -31 l3 0 q7 14 17.5 31 q10.5 17 23.5 36 l67 104 q24 37 46.5 54.5 q22.5 17.5 56.5 17.5 ZM254 218 q-22 -32 -35.5 -60 q-13.5 -28 -13.5 -59 q0 -31 13.5 -45 q13.5 -14 33.5 -14 q20 0 34 14 q14 14 14 45 q0 32 -13 60.5 q-13 28.5 -33 58.5 Z" /><glyph glyph-name="uni0266" unicode="&#x266;" d="M88 0 l0 634 q0 65 30.5 97.5 q30.5 32.5 82.5 32.5 q19 0 35.5 -3 q16.5 -3 27.5 -8 l0 -49 q-23 10 -56 10 q-64 0 -64 -78 l0 -120 q0 -40 -3 -76 l4 0 q20 44 66 73 q46 29 114 29 q91 0 139.5 -47 q48.5 -47 48.5 -147 l0 -348 l-57 0 l0 344 q0 76 -34.5 112 q-34.5 36 -101.5 36 q-176 0 -176 -202 l0 -290 l-56 0 Z" /><glyph glyph-name="uni0267" unicode="&#x267;" d="M201 764 q19 0 35.5 -3 q16.5 -3 27.5 -8 l0 -49 q-23 10 -56 10 q-64 0 -64 -78 l0 -120 q0 -40 -3 -76 l4 0 q20 44 66 73 q46 29 114 29 q91 0 139.5 -47 q48.5 -47 48.5 -147 l0 -458 q0 -64 -30.5 -97 q-30.5 -33 -82.5 -33 q-19 0 -35.5 4 q-16.5 4 -27.5 8 l0 49 q24 -11 57 -11 q62 0 62 79 l0 455 q0 76 -34.5 112 q-34.5 36 -101.5 36 q-176 0 -176 -202 l0 -290 l-56 0 l0 634 q0 65 30.5 97.5 q30.5 32.5 82.5 32.5 Z" /><glyph glyph-name="uni0268" unicode="&#x268;" d="M116 729 q40 0 40 -43 q0 -44 -40 -44 q-38 0 -38 44 q0 43 38 43 ZM222 307 l0 -48 l-78 0 l0 -259 l-56 0 l0 259 l-78 0 l0 48 l78 0 l0 225 l56 0 l0 -225 l78 0 Z" /><glyph glyph-name="uni026A" unicode="&#x26a;" d="M257 532 l0 -36 l-75 -11 l0 -439 l75 -10 l0 -36 l-207 0 l0 36 l75 10 l0 439 l-75 11 l0 36 l207 0 Z" /><glyph glyph-name="uni026B" unicode="&#x26b;" d="M118 0 l0 380 q-12 8 -23.5 14 q-11.5 6 -25.5 6 q-22 0 -37.5 -14.5 q-15.5 -14.5 -20.5 -51.5 l-38 0 q5 54 30.5 83 q25.5 29 68.5 29 q14 0 25 -4 q11 -4 21 -10 l0 328 l57 0 l0 -360 q11 -8 22.5 -14 q11.5 -6 24.5 -6 q22 0 38 15 q16 15 22 52 l38 0 q-5 -53 -31.5 -83 q-26.5 -30 -69.5 -30 q-13 0 -23.5 3.5 q-10.5 3.5 -20.5 8.5 l0 -346 l-57 0 Z" /><glyph glyph-name="uni026C" unicode="&#x26c;" d="M142 0 l0 308 l-50 0 q-51 0 -77.5 24 q-26.5 24 -26.5 66 q0 36 23 62 q23 26 70 26 q40 0 61 -30 l0 304 l58 0 l0 -404 l94 0 l0 -48 l-94 0 l0 -308 l-58 0 ZM98 356 l44 0 l0 9 q0 29 -12.5 51 q-12.5 22 -44.5 22 q-23 0 -33.5 -11.5 q-10.5 -11.5 -10.5 -27.5 q0 -23 15.5 -33 q15.5 -10 41.5 -10 Z" /><glyph glyph-name="uni026D" unicode="&#x26d;" d="M221 -240 q-61 0 -97 32.5 q-36 32.5 -36 113.5 l0 854 l56 0 l0 -849 q0 -55 21 -79 q21 -24 63 -24 q16 0 32 3 q16 3 26 7 l0 -46 q-10 -4 -26.5 -8 q-16.5 -4 -38.5 -4 Z" /><glyph glyph-name="uni026E" unicode="&#x26e;" d="M329 -240 q-55 0 -98 9 q-43 9 -77 25 l0 54 q34 -16 79 -27.5 q45 -11.5 98 -11.5 q86 0 136 49.5 q50 49.5 50 133.5 q0 89 -58.5 130.5 q-58.5 41.5 -170.5 41.5 l-49 0 l0 42 l243 276 l-337 0 l0 -482 l-57 0 l0 760 l57 0 l0 -228 l409 0 l0 -42 l-246 -278 q266 -7 266 -219 q0 -69 -29.5 -121.5 q-29.5 -52.5 -84.5 -82 q-55 -29.5 -131 -29.5 Z" /><glyph glyph-name="uni0270" unicode="&#x270;" d="M749 -240 l0 242 q0 18 1 41 q1 23 2 40 l-4 0 q-21 -39 -61.5 -66 q-40.5 -27 -102.5 -27 q-57 0 -97.5 25 q-40.5 25 -58.5 74 l-4 0 q-22 -49 -68 -74 q-46 -25 -106 -25 q-80 0 -124 45 q-44 45 -44 142 l0 355 l56 0 l0 -352 q0 -72 32 -106.5 q32 -34.5 88 -34.5 q76 0 117 44.5 q41 44.5 41 138.5 l0 310 l56 0 l0 -352 q0 -72 32 -106.5 q32 -34.5 88 -34.5 q75 0 116 47 q41 47 41 144 l0 302 l57 0 l0 -772 l-57 0 Z" /><glyph glyph-name="uni0271" unicode="&#x271;" d="M644 542 q79 0 123.5 -45 q44.5 -45 44.5 -142 l0 -465 q0 -64 -30.5 -97 q-30.5 -33 -82.5 -33 q-19 0 -35.5 4 q-16.5 4 -27.5 8 l0 49 q10 -5 25.5 -8 q15.5 -3 30.5 -3 q64 0 64 79 l0 463 q0 72 -32 106 q-32 34 -88 34 q-76 0 -117 -44.5 q-41 -44.5 -41 -137.5 l0 -310 l-56 0 l0 352 q0 72 -32 106 q-32 34 -88 34 q-76 0 -117 -46.5 q-41 -46.5 -41 -143.5 l0 -302 l-56 0 l0 532 l46 0 l8 -84 l4 0 q20 39 60.5 66.5 q40.5 27.5 103.5 27.5 q57 0 96.5 -24 q39.5 -24 57.5 -74 l5 0 q24 48 69.5 73 q45.5 25 105.5 25 Z" /><glyph glyph-name="uni0272" unicode="&#x272;" d="M326 542 q91 0 139 -47 q48 -47 48 -147 l0 -348 l-57 0 l0 344 q0 76 -34.5 112 q-34.5 36 -101.5 36 q-176 0 -176 -202 l0 -387 q0 -79 -35 -111 q-35 -32 -83 -32 q-20 0 -37.5 4 q-17.5 4 -28.5 9 l0 47 q12 -6 27.5 -9 q15.5 -3 29.5 -3 q35 0 53 23 q18 23 18 75 l0 626 l46 0 l8 -92 l4 0 q21 44 66.5 73 q45.5 29 113.5 29 Z" /><glyph glyph-name="uni0273" unicode="&#x273;" d="M513 -82 q0 -62 21.5 -85 q21.5 -23 59.5 -23 q17 0 32.5 3.5 q15.5 3.5 24.5 6.5 l0 -46 q-10 -4 -27.5 -8 q-17.5 -4 -37.5 -4 q-57 0 -93.5 34.5 q-36.5 34.5 -36.5 117.5 l0 430 q0 76 -34.5 112 q-34.5 36 -101.5 36 q-176 0 -176 -202 l0 -290 l-56 0 l0 532 l46 0 l8 -92 l4 0 q21 44 66.5 73 q45.5 29 113.5 29 q91 0 139 -47 q48 -47 48 -147 l0 -430 Z" /><glyph glyph-name="uni0274" unicode="&#x274;" d="M84 0 l0 536 l66 0 l318 -460 q-2 26 -3 59 q-1 33 -1 56 l0 345 l55 0 l0 -536 l-65 0 l-318 460 q2 -22 2 -56.5 q0 -34.5 0 -55.5 l0 -348 l-54 0 Z" /><glyph glyph-name="uni0276" unicode="&#x276;" d="M296 546 q63 0 109 -28 q46 -28 74 -78 l0 96 l329 0 l0 -49 l-274 0 l0 -181 l259 0 l0 -49 l-259 0 l0 -208 l274 0 l0 -49 l-329 0 l0 100 q-28 -50 -74.5 -79.5 q-46.5 -29.5 -110.5 -29.5 q-72 0 -126.5 34.5 q-54.5 34.5 -84.5 97.5 q-30 63 -30 147 q0 84 29.5 146 q29.5 62 83.5 96 q54 34 130 34 ZM295 496 q-85 0 -134.5 -62 q-49.5 -62 -49.5 -164 q0 -102 46.5 -166 q46.5 -64 138.5 -64 q90 0 136 63 q46 63 46 167 q0 105 -46.5 165.5 q-46.5 60.5 -136.5 60.5 Z" /><glyph glyph-name="omegaclosed" unicode="&#x277;" d="M372 542 q148 0 231 -82 q83 -82 83 -228 q0 -66 -18 -121 q-18 -55 -57.5 -88 q-39.5 -33 -102.5 -33 q-56 0 -88.5 25.5 q-32.5 25.5 -46.5 70.5 l-3 0 q-14 -45 -48 -70.5 q-34 -25.5 -87 -25.5 q-85 0 -131.5 64 q-46.5 64 -46.5 178 q0 146 81.5 228 q81.5 82 233.5 82 ZM372 492 q-123 0 -190.5 -65.5 q-67.5 -65.5 -67.5 -193.5 q0 -95 33 -144.5 q33 -49.5 93 -49.5 q52 0 78 38 q26 38 26 105 l0 149 l56 0 l0 -149 q0 -70 26 -106.5 q26 -36.5 78 -36.5 q62 0 93.5 51 q31.5 51 31.5 143 q0 128 -67.5 193.5 q-67.5 65.5 -189.5 65.5 Z" /><glyph glyph-name="uni027A" unicode="&#x27a;" d="M88 -9 q-42 0 -72 9 l8 52 q32 -9 66 -9 q74 0 116.5 54 q42.5 54 42.5 143 l0 520 l57 0 l0 -760 l-48 0 l-6 100 l-3 0 q-20 -45 -60.5 -77 q-40.5 -32 -100.5 -32 Z" /><glyph glyph-name="uni027B" unicode="&#x27b;" d="M375 -238 q-55 0 -90.5 34.5 q-35.5 34.5 -35.5 117.5 l0 110 q0 16 1 38 q1 22 2 38 l-3 0 q-20 -45 -60.5 -77 q-40.5 -32 -100.5 -32 q-42 0 -72 9 l8 52 q32 -9 66 -9 q74 0 116.5 54 q42.5 54 42.5 143 l0 292 l57 0 l0 -614 q0 -62 21 -85 q21 -23 59 -23 q20 0 34.5 3.5 q14.5 3.5 23.5 6.5 l0 -46 q-10 -4 -28 -8 q-18 -4 -41 -4 Z" /><glyph glyph-name="uni027C" unicode="&#x27c;" d="M306 541 q42 0 72 -9 l-8 -52 q-16 4 -32 6 q-16 2 -34 2 q-74 0 -116.5 -53.5 q-42.5 -53.5 -42.5 -142.5 l0 -532 l-57 0 l0 772 l48 0 l6 -100 l3 0 q20 45 60.5 77 q40.5 32 100.5 32 Z" /><glyph glyph-name="uni027D" unicode="&#x27d;" d="M306 541 q42 0 72 -9 l-8 -52 q-16 4 -32 6 q-16 2 -34 2 q-74 0 -116.5 -53.5 q-42.5 -53.5 -42.5 -142.5 l0 -374 q0 -57 22.5 -82.5 q22.5 -25.5 66.5 -25.5 q19 0 34.5 3 q15.5 3 25.5 7 l0 -46 q-12 -4 -28 -8 q-16 -4 -38 -4 q-64 0 -102 34.5 q-38 34.5 -38 117.5 l0 618 l48 0 l6 -100 l3 0 q20 45 60.5 77 q40.5 32 100.5 32 Z" /><glyph glyph-name="uni027E" unicode="&#x27e;" d="M238 542 q25 0 47.5 -5.5 q22.5 -5.5 36.5 -10.5 l-8 -50 q-13 4 -32.5 10 q-19.5 6 -44.5 6 q-47 0 -72 -29 q-25 -29 -25 -93 l0 -370 l-57 0 l0 374 q0 89 41.5 128.5 q41.5 39.5 113.5 39.5 Z" /><glyph glyph-name="uni027F" unicode="&#x27f;" d="M102 542 q74 0 113 -40 q39 -40 39 -128 l0 -614 l-56 0 l0 610 q0 63 -23 92.5 q-23 29.5 -74 29.5 q-25 0 -45 -5.5 q-20 -5.5 -33 -10.5 l-8 50 q14 5 37.5 10.5 q23.5 5.5 49.5 5.5 Z" /><glyph glyph-name="uni0280" unicode="&#x280;" d="M84 0 l0 536 l188 0 q94 0 143 -39 q49 -39 49 -113 q0 -45 -17.5 -76.5 q-17.5 -31.5 -46 -50 q-28.5 -18.5 -60.5 -25.5 l154 -232 l-66 0 l-146 225 l-141 0 l0 -225 l-57 0 ZM141 274 l132 0 q65 0 100 29.5 q35 29.5 35 80.5 q0 50 -33.5 76.5 q-33.5 26.5 -109.5 26.5 l-124 0 l0 -213 Z" /><glyph glyph-name="uni0282" unicode="&#x282;" d="M422 141 q0 -73 -53.5 -112 q-53.5 -39 -152.5 -39 q-33 0 -62 4.5 q-29 4.5 -52 10.5 l0 -99 q0 -98 78 -98 q17 0 32.5 3 q15.5 3 27.5 8 l0 -46 q-13 -5 -28.5 -9 q-15.5 -4 -37.5 -4 q-59 0 -93.5 32 q-34.5 32 -34.5 109 l0 178 q35 -18 80 -29.5 q45 -11.5 92 -11.5 q78 0 113 26.5 q35 26.5 35 72.5 q0 44 -36.5 67.5 q-36.5 23.5 -109.5 48.5 q-49 17 -86.5 34 q-37.5 17 -58.5 44.5 q-21 27.5 -21 74.5 q0 64 52 100 q52 36 139 36 q48 0 89.5 -9.5 q41.5 -9.5 75.5 -23.5 l-20 -47 q-31 14 -70 23 q-39 9 -78 9 q-63 0 -98 -22 q-35 -22 -35 -64 q0 -32 17 -50.5 q17 -18.5 49 -32 q32 -13.5 78 -29.5 q47 -16 85.5 -34 q38.5 -18 61 -46 q22.5 -28 22.5 -75 Z" /><glyph glyph-name="uni0283" unicode="&#x283;" d="M212 764 q37 0 55 -10 l0 -46 q-8 3 -20.5 5.5 q-12.5 2.5 -25.5 2.5 q-39 0 -59 -24 q-20 -24 -20 -83 l0 -694 q0 -83 -34.5 -119 q-34.5 -36 -91.5 -36 q-21 0 -37.5 3.5 q-16.5 3.5 -27.5 8.5 l0 47 q11 -4 25.5 -7.5 q14.5 -3.5 30.5 -3.5 q40 0 58.5 25 q18.5 25 18.5 85 l0 693 q0 82 36 117.5 q36 35.5 92 35.5 Z" /><glyph glyph-name="uni0284" unicode="&#x284;" d="M16 -240 q-21 0 -37.5 3.5 q-16.5 3.5 -27.5 8.5 l0 47 q11 -4 25.5 -7.5 q14.5 -3.5 30.5 -3.5 q40 0 58.5 25 q18.5 25 18.5 85 l0 348 l-83 0 l0 48 l83 0 l0 297 q0 82 36 117.5 q36 35.5 92 35.5 q37 0 55 -10 l0 -46 q-8 3 -20.5 5.5 q-12.5 2.5 -25.5 2.5 q-39 0 -59 -24 q-20 -24 -20 -83 l0 -295 l86 0 l0 -48 l-86 0 l0 -351 q0 -83 -34.5 -119 q-34.5 -36 -91.5 -36 Z" /><glyph glyph-name="uni0285" unicode="&#x285;" d="M206 -240 q-55 0 -89.5 34 q-34.5 34 -34.5 118 l0 484 q0 52 -19.5 76.5 q-19.5 24.5 -58.5 24.5 q-13 0 -25.5 -3 q-12.5 -3 -19.5 -6 l0 46 q8 4 23 8 q15 4 34 4 q56 0 89.5 -36 q33.5 -36 33.5 -112 l0 -484 q0 -60 18.5 -83 q18.5 -23 56.5 -23 q16 0 31 3.5 q15 3.5 25 7.5 l0 -47 q-10 -5 -26.5 -8.5 q-16.5 -3.5 -37.5 -3.5 Z" /><glyph glyph-name="uni0286" unicode="&#x286;" d="M20 -240 q-52 0 -85 29 q-33 29 -33 77 q0 50 33 79.5 q33 29.5 98 29.5 l51 0 l0 632 q0 83 36.5 118 q36.5 35 94.5 35 q20 0 36.5 -4 q16.5 -4 27.5 -9 l0 -46 q-10 4 -24.5 7.5 q-14.5 3.5 -30.5 3.5 q-39 0 -60.5 -23.5 q-21.5 -23.5 -21.5 -85.5 l0 -628 l76 0 l0 -48 l-76 0 q-2 -95 -35 -131 q-33 -36 -87 -36 ZM16 -192 q32 0 50 22 q18 22 18 78 l0 19 l-47 0 q-38 0 -59 -14.5 q-21 -14.5 -21 -45.5 q0 -26 14.5 -42.5 q14.5 -16.5 44.5 -16.5 Z" /><glyph glyph-name="uni0288" unicode="&#x288;" d="M238 -191 q22 0 42.5 3.5 q20.5 3.5 34.5 8.5 l0 -46 q-16 -6 -37.5 -10.5 q-21.5 -4.5 -47.5 -4.5 q-66 0 -102 37.5 q-36 37.5 -36 120.5 l0 568 l-79 0 l0 32 l79 18 l20 123 l36 0 l0 -127 l164 0 l0 -46 l-164 0 l0 -565 q0 -112 90 -112 Z" /><glyph glyph-name="uni0289" unicode="&#x289;" d="M10 258 l0 48 l70 0 l0 226 l58 0 l0 -226 l312 0 l0 226 l57 0 l0 -226 l75 0 l0 -48 l-75 0 l0 -258 l-47 0 l-8 91 l-3 0 q-22 -43 -67.5 -72 q-45.5 -29 -113.5 -29 q-188 0 -188 194 l0 74 l-70 0 ZM138 188 q0 -76 34 -112.5 q34 -36.5 102 -36.5 q176 0 176 203 l0 16 l-312 0 l0 -70 Z" /><glyph glyph-name="uni028A" unicode="&#x28a;" d="M288 -12 q-72 0 -126 30.5 q-54 30.5 -84.5 87 q-30.5 56.5 -30.5 134.5 q0 82 31.5 142 q31.5 60 92.5 101 l-145 0 l0 49 l220 0 l0 -46 q-66 -35 -103 -95.5 q-37 -60.5 -37 -150.5 q0 -92 47 -147.5 q47 -55.5 135 -55.5 q87 0 134.5 56.5 q47.5 56.5 47.5 147.5 q0 90 -41 151.5 q-41 61.5 -99 93.5 l0 46 l220 0 l0 -49 l-146 0 q56 -41 90 -99 q34 -58 34 -143 q0 -77 -30 -134 q-30 -57 -84 -88 q-54 -31 -126 -31 Z" /><glyph glyph-name="uni028B" unicode="&#x28b;" d="M360 546 q62 0 96.5 -33 q34.5 -33 34.5 -113 l0 -203 q0 -101 -50.5 -154 q-50.5 -53 -154.5 -53 q-204 0 -204 207 l0 335 l56 0 l0 -332 q0 -85 37 -123 q37 -38 111 -38 q76 0 112 38.5 q36 38.5 36 122.5 l0 192 q0 57 -19.5 80.5 q-19.5 23.5 -58.5 23.5 q-15 0 -28.5 -2.5 q-13.5 -2.5 -23.5 -5.5 l0 50 q10 3 25.5 5.5 q15.5 2.5 30.5 2.5 Z" /><glyph glyph-name="uni028F" unicode="&#x28f;" d="M443 532 l-192 -328 l0 -204 l-57 0 l0 204 l-191 328 l64 0 l155 -279 l157 279 l64 0 Z" /><glyph glyph-name="uni0290" unicode="&#x290;" d="M470 -240 q-46 0 -74.5 28.5 q-28.5 28.5 -28.5 94.5 l0 117 l-327 0 l0 39 l313 447 l-291 0 l0 46 l358 0 l0 -43 l-313 -443 l315 0 l0 -160 q0 -44 15 -61 q15 -17 43 -17 q12 0 25.5 3 q13.5 3 22.5 7 l0 -46 q-9 -4 -24.5 -8 q-15.5 -4 -33.5 -4 Z" /><glyph glyph-name="uni0291" unicode="&#x291;" d="M204 -86 l-46 18 q6 18 12.5 35 q6.5 17 13.5 33 l-144 0 l0 39 l313 447 l-291 0 l0 46 l358 0 l0 -43 l-313 -443 l99 0 q40 81 89 125 q49 44 115 44 q50 0 80 -27.5 q30 -27.5 30 -69.5 q0 -53 -38.5 -85.5 q-38.5 -32.5 -125.5 -32.5 l-118 0 q-8 -18 -17 -40 q-9 -22 -17 -46 ZM260 46 l97 0 q61 0 84.5 21 q23.5 21 23.5 49 q0 22 -15.5 37 q-15.5 15 -43.5 15 q-44 0 -79 -32 q-35 -32 -67 -90 Z" /><glyph glyph-name="uni0293" unicode="&#x293;" d="M162 -240 q-47 0 -88 14 q-41 14 -66.5 43 q-25.5 29 -25.5 74 q0 51 40.5 85.5 q40.5 34.5 119.5 34.5 q65 0 120.5 -22.5 q55.5 -22.5 101.5 -62.5 q4 10 9 29 q5 19 5 41 q-2 90 -60.5 129 q-58.5 39 -170.5 39 l-47 0 l0 42 l242 276 l-312 0 l0 50 l384 0 l0 -42 l-246 -278 q129 -4 198 -58 q69 -54 69 -156 q0 -36 -8.5 -63 q-8.5 -27 -18.5 -46 q18 -20 37 -41.5 q19 -21.5 36 -45.5 l-40 -34 q-17 22 -33.5 42 q-16.5 20 -31.5 36 q-28 -30 -81.5 -58 q-53.5 -28 -132.5 -28 ZM162 -191 q62 0 105 21.5 q43 21.5 69 51.5 q-46 43 -93.5 61.5 q-47.5 18.5 -98.5 18.5 q-58 0 -82.5 -21 q-24.5 -21 -24.5 -51 q0 -39 35.5 -60 q35.5 -21 89.5 -21 Z" /><glyph glyph-name="uni0294" unicode="&#x294;" d="M185 764 q97 0 149 -51 q52 -51 52 -142 q0 -92 -53 -152.5 q-53 -60.5 -137 -98.5 l0 -320 l-57 0 l0 351 q53 19 96 47.5 q43 28.5 68 70 q25 41.5 25 99.5 q0 72 -38 109.5 q-38 37.5 -108 37.5 q-44 0 -82.5 -13 q-38.5 -13 -67.5 -32 l-22 45 q34 22 77 35.5 q43 13.5 98 13.5 Z" /><glyph glyph-name="glottalturned" unicode="&#x296;" d="M185 -10 q-55 0 -98 13.5 q-43 13.5 -77 35.5 l22 44 q29 -18 67.5 -31 q38.5 -13 82.5 -13 q70 0 108 37.5 q38 37.5 38 109.5 q0 58 -25 99.5 q-25 41.5 -68 70 q-43 28.5 -96 47.5 l0 353 l57 0 l0 -322 q84 -38 137 -98.5 q53 -60.5 53 -152.5 q0 -91 -52 -142 q-52 -51 -149 -51 Z" /></font>
</defs>
</svg>
