<svg version="1.1" xmlns="http://www.w3.org/2000/svg" xmlns:xlink="http://www.w3.org/1999/xlink">
<defs>
<symbol id="gm-logo-footer" viewBox="0 0 40 39.7"><path class="gm-logo-footer-st0" d="M35.6 8.7c2.4 0 4.4-2 4.4-4.4C40 2 38 0 35.6 0c-2.4 0-4.4 2-4.4 4.4.1 2.4 2 4.3 4.4 4.3zm0-8.1c2 0 3.7 1.7 3.7 3.7S37.6 8 35.6 8s-3.7-1.7-3.7-3.7S33.6.6 35.6.6zM4.4 8.4c2.2 0 4-1.8 4-4s-1.8-4-4-4-4 1.8-4 4c-.1 2.2 1.7 4 4 4zm20.8 0c2.2 0 4-1.8 4-4s-1.8-4-4-4-4 1.8-4 4 1.8 4 4 4zm-10.4 0c2.2 0 4-1.8 4-4s-1.8-4-4-4-4 1.8-4 4 1.8 4 4 4zm20.8 23.2c-2.2 0-4 1.8-4 4s1.8 4 4 4 4-1.8 4-4c.1-2.2-1.7-4-4-4zm-31.2 0c-2.2 0-4 1.8-4 4s1.8 4 4 4 4-1.8 4-4-1.8-4-4-4zm20.8 0c-2.2 0-4 1.8-4 4s1.8 4 4 4 4-1.8 4-4-1.8-4-4-4zm-10.4 0c-2.2 0-4 1.8-4 4s1.8 4 4 4 4-1.8 4-4-1.8-4-4-4zm20.8-10.4c-2.2 0-4 1.8-4 4s1.8 4 4 4 4-1.8 4-4c.1-2.2-1.7-4-4-4zm-31.2-.3c-2.4 0-4.4 2-4.4 4.4 0 2.4 2 4.4 4.4 4.4 2.4 0 4.4-2 4.4-4.4-.1-2.5-2-4.4-4.4-4.4zm0 8c-2 0-3.7-1.7-3.7-3.7s1.7-3.7 3.7-3.7 3.7 1.7 3.7 3.7c0 2.1-1.7 3.7-3.7 3.7zm20.8-7.7c-2.2 0-4 1.8-4 4s1.8 4 4 4 4-1.8 4-4-1.8-4-4-4zm-10.4 0c-2.2 0-4 1.8-4 4s1.8 4 4 4 4-1.8 4-4-1.8-4-4-4zm20.8-10.4c-2.2 0-4 1.8-4 4s1.8 4 4 4 4-1.8 4-4c.1-2.2-1.7-4-4-4zm-31.2 8c2.2 0 4-1.8 4-4s-1.8-4-4-4-4 1.8-4 4c-.1 2.2 1.7 4 4 4zm20.8-8.4c-2.4 0-4.4 2-4.4 4.4 0 2.4 2 4.4 4.4 4.4 2.4 0 4.4-2 4.4-4.4 0-2.4-2-4.4-4.4-4.4zm0 8.1c-2 0-3.7-1.7-3.7-3.7s1.7-3.7 3.7-3.7 3.7 1.7 3.7 3.7-1.6 3.7-3.7 3.7zm-10.4-8.1c-2.4 0-4.4 2-4.4 4.4 0 2.4 2 4.4 4.4 4.4 2.4 0 4.4-2 4.4-4.4-.1-2.4-2-4.4-4.4-4.4zm0 8.1c-2 0-3.7-1.7-3.7-3.7s1.7-3.7 3.7-3.7 3.7 1.7 3.7 3.7-1.7 3.7-3.7 3.7z"/></symbol>
<symbol id="gm-icon-ssl" viewBox="0 0 81.1 38.7"><path class="gm-icon-ssl-st0" d="M80.7 19.6h-8.5V2.4h-4.4v20.9h12.9v-3.7zm-37.9-8.4c-1.5-.7-2.4-1.2-2.8-1.5-.4-.3-.7-.6-.9-.8-.2-.3-.3-.6-.3-1 0-.6.2-1.1.7-1.5.5-.4 1.2-.6 2-.6.7 0 1.4.1 2.1.3.7.2 1.7.5 2.8 1l1.4-3.4c-1.1-.5-2.1-.8-3.1-1.1-1-.3-2-.4-3.1-.4-2.2 0-3.9.5-5.2 1.6-1.3 1.1-1.9 2.5-1.9 4.4 0 1 .2 1.8.6 2.6.4.7.9 1.4 1.5 1.9.6.6 1.6 1.1 2.9 1.7 1.4.6 2.3 1.1 2.7 1.4.4.3.8.6 1 .9.2.3.3.7.3 1.1 0 .7-.3 1.3-.8 1.7-.5.4-1.3.6-2.2.6-.8 0-1.7-.1-2.7-.4-1-.3-2.2-.7-3.6-1.3v4.1c1.7.8 3.7 1.3 5.9 1.3 2.4 0 4.3-.5 5.7-1.6 1.4-1.1 2-2.6 2-4.5 0-1.4-.4-2.5-1.1-3.4-.6-1.2-1.9-2.1-3.9-3.1zm21.3 6.3c0-1.4-.4-2.5-1.1-3.4-.7-.9-2.1-1.9-4-2.8-1.5-.7-2.4-1.2-2.8-1.5-.4-.3-.7-.6-.9-.8-.2-.3-.3-.6-.3-1 0-.6.2-1.1.7-1.5.4-.4 1.1-.6 1.9-.6.7 0 1.4.1 2.1.3.7.2 1.6.5 2.8 1L64 3.6c-1.1-.5-2.1-.8-3.1-1.1-1-.3-2-.4-3.1-.4-2.2 0-3.9.5-5.2 1.6-1.3 1.1-1.9 2.5-1.9 4.4 0 1 .2 1.8.6 2.6.4.7.9 1.4 1.5 1.9.6.6 1.6 1.1 2.9 1.7 1.4.6 2.3 1.1 2.7 1.4.4.3.8.6 1 .9s.3.7.3 1.1c0 .7-.3 1.3-.8 1.7-.5.4-1.3.6-2.2.6-.8 0-1.7-.1-2.7-.4-1-.3-2.2-.7-3.6-1.3v4.1c1.7.8 3.7 1.3 5.9 1.3 2.4 0 4.3-.5 5.7-1.6 1.4-1.2 2.1-2.7 2.1-4.6zm-25.9 11c.6 0 1.3.2 2.2.6l.7-1.9c-1-.4-1.9-.6-2.9-.6-1.1 0-1.9.2-2.5.7-.6.5-.9 1.1-.9 1.9 0 .4.1.8.2 1.2.1.3.4.6.7.9.3.2.7.5 1.3.8.7.3 1.1.5 1.2.6.2.1.3.2.3.3.1.1.1.2.1.3 0 .2-.1.4-.3.5-.2.1-.4.2-.8.2s-.9-.1-1.4-.2c-.5-.1-1-.3-1.5-.6v2.2c.4.2.9.4 1.3.4.4.1.9.1 1.5.1.7 0 1.3-.1 1.9-.4.5-.2.9-.6 1.2-1 .3-.4.4-.9.4-1.5s-.2-1.1-.5-1.5c-.3-.4-.8-.8-1.6-1.1-.8-.4-1.3-.6-1.5-.8-.2-.1-.3-.3-.3-.5s.1-.3.2-.4c.4-.1.7-.2 1-.2zm4.3 7.2h5.4v-2H45V32h2.7v-2H45v-1.4h2.9v-2h-5.4v9.1zm38.6-7v-2h-5.4v9h5.4v-2h-2.9V32h2.7v-2h-2.7v-1.4h2.9zM62.9 32c0 .7-.1 1.1-.3 1.4-.2.3-.6.4-1.1.4-.5 0-.8-.1-1.1-.4-.2-.3-.4-.8-.4-1.4v-5.3h-2.5v5.5c0 1.2.3 2.1 1 2.7.7.6 1.6.9 2.8.9 1.3 0 2.2-.3 2.9-1 .7-.6 1-1.6 1-2.7v-5.4h-2.4V32zm11-2.6c0-1.8-1.2-2.7-3.7-2.7h-3v9h2.4v-3.3h.6l1.9 3.3H75l-2.6-3.9c1-.6 1.5-1.4 1.5-2.4zm-3.8 1.2h-.5v-2.1h.5c.8 0 1.3.3 1.3.9 0 .9-.4 1.2-1.3 1.2zm-16.6-2c.4 0 .7.1 1.1.2.3.1.7.2 1 .4l.7-1.9c-.9-.4-1.8-.6-2.8-.6-.9 0-1.7.2-2.3.6-.7.4-1.2.9-1.5 1.6-.4.7-.5 1.5-.5 2.5 0 1.5.4 2.6 1.1 3.4.7.8 1.8 1.2 3.1 1.2.9 0 1.8-.2 2.6-.5v-2.1c-.4.2-.8.3-1.1.4-.4.1-.8.2-1.2.2-1.3 0-2-.9-2-2.6 0-.8.2-1.5.5-2 .2-.6.7-.8 1.3-.8zM0 2.2v24.4c0 3.5 8.7 9.6 14.9 12.1 6.2-2.6 14.9-8.6 14.9-12.1V2.2C19.8-.7 9.9-.7 0 2.2zm28.1 24.4c0 .9-1.5 2.5-2.1 3.1-1.7 1.7-3.8 3.1-5.8 4.4-1.7 1.1-3.5 2-5.3 2.9-1.8-.8-3.6-1.8-5.3-2.9-2-1.2-4.1-2.7-5.8-4.4-.6-.6-2.1-2.2-2.1-3.1V3.4C10.5 1 19.3 1 28.1 3.4v23.2zm-25.3 0c.1.5 1.4 1.9 1.8 2.3 1.6 1.6 3.6 3 5.6 4.2 1.5.9 3.1 1.8 4.7 2.6 1.6-.7 3.2-1.6 4.7-2.6 2-1.2 3.9-2.6 5.6-4.2.4-.4 1.7-1.8 1.8-2.3V4.3c-8-2-16.1-2-24.2 0v22.3zm8.1-12.7c0-2.2 1.8-4 4-4s4 1.8 4 4v1.7h-1.7v-1.7c0-1.3-1-2.3-2.3-2.3-1.3 0-2.3 1-2.3 2.3v1.7h-1.7v-1.7zm-1.3 3.6c0-.5.4-.9.9-.9h8.8c.5 0 .9.4.9.9v6.7c0 .5-.4.9-.9.9h-8.8c-.5 0-.9-.4-.9-.9v-6.7z"/></symbol>
<symbol id="gm-icon-location" viewBox="-353.9 248.3 67.7 100"><path class="gm-icon-pointer-st0" d="M-320 248.3c-18.7 0-33.9 15.2-33.9 33.9v1.2c.1 3.6.8 7 1.9 10.2 7.2 23.8 31.9 54.7 31.9 54.7s24.7-31 31.9-54.7c1.1-3.2 1.8-6.6 1.9-10.2v-1.2c.2-18.8-15-33.9-33.7-33.9zm0 50.4c-9.2 0-16.6-7.4-16.6-16.6 0-9.2 7.4-16.6 16.6-16.6 9.2 0 16.6 7.4 16.6 16.6 0 9.2-7.4 16.6-16.6 16.6z"/></symbol>
<symbol id="gm-icon-envelope" viewBox="0 0 14 11"><path class="gm-icon-envelope-st0" d="M12.7 3.4c-1.3.8-2.5 1.7-3.7 2.5C8.5 6.3 7.6 7 7 7c-.6 0-1.5-.7-2-1.1-1.2-.8-2.4-1.7-3.7-2.5C.8 3 0 2.1 0 1.4S.4 0 1.2 0h11.5c.7 0 1.3.6 1.3 1.3 0 .8-.6 1.6-1.3 2.1zM14 9.7c0 .7-.6 1.3-1.3 1.3H1.2C.6 11 0 10.4 0 9.7V3.5c.2.3.5.5.8.7l3.9 2.7C5.3 7.4 6.1 8 7 8c.9 0 1.7-.6 2.3-1.1l3.9-2.7c.3-.2.6-.4.8-.7v6.2z"/></symbol>
<symbol id="gm-icon-linkedin" viewBox="0 0 14 14"><path class="gm-icon-linkedin-st0" d="M1.7 0C.8 0 0 .8 0 1.7c0 .9.8 1.7 1.7 1.7.9 0 1.7-.8 1.7-1.7C3.4.8 2.6 0 1.7 0zM.2 14h2.9V4.6H.2V14zm10.3-9.6c-1.4 0-2.4.8-2.7 1.5V4.6H5V14h2.9V9.4c0-1.3.2-2.4 1.7-2.4s1.5 1.4 1.5 2.5V14H14V8.9c0-2.6-.5-4.5-3.5-4.5z"/></symbol>
<symbol id="gm-icon-x11" viewBox="0 0 240 245.1"><path class="gm-icon-x11-st0" d="M120 0C53.7 0 0 54.9 0 122.5S53.7 245 120 245s120-54.9 120-122.5S186.3 0 120 0zM84.9 154.2c-2.6 0-4.5-.4-5.6-1.3-1.1-.8-1.9-2.3-2.5-4.4l-3.9-15.1-19 19.9c-1.6.4-3.8.5-6.4.5-2.6 0-5-.4-7.1-1.3l-.1-.7 29.5-30.2-7.1-27.5c3.9-2.1 7.2-3.1 9.7-3.1 2.6 0 4.5.4 5.5 1.3 1 .8 1.8 2.3 2.4 4.4l3.3 12.8L100.3 92c1.6-.4 3.7-.5 6.2-.5 2.9 0 5.2.4 7 1.3l.1.6-27 27.8 7.9 30c-3.9 1.9-7.1 3-9.6 3zm59.6-7c-.7 2.1-1.7 4-2.8 5.9h-37.5c.2-2 .7-3.9 1.4-6 .7-2 1.6-4 2.8-5.8h7.3l5.7.1 2.3-6.8 4.3-12c.3-.9 1-2.7 2.1-5.2 1.1-2.6 1.9-4.4 2.3-5.4-4.4 3.6-9.4 6.4-15 8.5-1.2-.6-2-1.7-2.6-3.3-.6-1.6-.7-3.2-.3-5 10.3-5.3 18.4-11.5 24.2-18.6 2.2-.4 4.5-.6 6.9-.6 2.4 0 4.5.2 6.3.6l-14.6 41.1-2.5 6.8 6.1-.1h4.9c-.1 1.7-.6 3.7-1.3 5.8zm44.2-5.9h4.9c-.2 1.8-.6 3.8-1.4 5.9-.7 2.1-1.7 4-2.8 5.9h-37.5c.2-2 .7-3.9 1.4-6 .7-2 1.6-4 2.8-5.8h7.3l5.7.1 2.3-6.8 4.3-12c.3-.9 1-2.7 2.1-5.2 1.1-2.6 1.9-4.4 2.3-5.4-4.4 3.6-9.4 6.4-15 8.5-1.2-.6-2-1.7-2.6-3.3-.6-1.6-.7-3.2-.3-5 10.3-5.3 18.4-11.5 24.2-18.6 2.2-.4 4.5-.6 6.9-.6 2.4 0 4.5.2 6.3.6L185 134.7l-2.5 6.8 6.2-.2z"/></symbol>
<symbol id="gm-icon-btc" viewBox="0 0 91.6 91.6"><path class="gm-icon-btc-st0" d="M47.1 32.2l-2.5 10c2.8.7 11.5 3.6 12.9-2.1 1.5-5.9-7.5-7.2-10.4-7.9zM43.4 47.2l-2.7 11c3.4.8 13.8 4.2 15.4-2 1.5-6.5-9.3-8.2-12.7-9z"/><path class="st0" d="M45.8 0C20.5 0 0 20.5 0 45.8c0 25.3 20.5 45.8 45.8 45.8 25.3 0 45.8-20.5 45.8-45.8C91.6 20.5 71.1 0 45.8 0zm21.6 40.1c-.7 4.4-3.1 6.6-6.4 7.3 4.5 2.3 6.8 5.9 4.6 12.1-2.7 7.7-9.1 8.3-17.6 6.7l-2 8.4-5-1.2 2-8.2c-1.3-.3-2.6-.7-4-1l-2 8.2-5-1.2 2.1-8.3-3.6-.9-6.5-1.7 2.5-5.7s3.7 1 3.6.9c1.4.4 2-.6 2.3-1.2l3.3-13.1c.2 0 .4.1.5.1-.2-.1-.4-.1-.5-.2l2.3-9.3c.1-1.1-.3-2.4-2.3-2.9.1-.1-3.6-.9-3.6-.9l1.3-5.3 6.9 1.7c1 .3 2.1.5 3.2.8l2-8.2 5 1.2-2 8c1.3.3 2.7.6 4 .9l2-8 5 1.2-2 8.2c6.2 2.3 10.8 5.6 9.9 11.6z"/></symbol>
<symbol id="gm-icon-miner" viewBox="0 0 119.7 91"><path class="gm-icon-miner-st0" d="M6.1 61.6c0 .6.5 1 1 1 .6 0 1-.5 1-1 0-.6-.5-1-1-1-.6 0-1 .5-1 1zm22 8c0 .6.5 1 1 1 .6 0 1-.5 1-1 0-.6-.5-1-1-1s-1 .5-1 1zm-2.6-8c0 .6.5 1 1 1 .6 0 1-.5 1-1 0-.6-.5-1-1-1s-1 .5-1 1zm5.3 8c0 .6.5 1 1 1 .6 0 1-.5 1-1 0-.6-.5-1-1-1-.6 0-1 .5-1 1zm-2.7-8c0 .6.5 1 1 1 .6 0 1-.5 1-1 0-.6-.5-1-1-1s-1 .5-1 1zm-2.6-7.9c0 .6.5 1 1 1 .6 0 1-.5 1-1 0-.6-.5-1-1-1-.5-.1-1 .4-1 1zm5.3 7.9c0 .6.5 1 1 1 .6 0 1-.5 1-1 0-.6-.5-1-1-1-.6 0-1 .5-1 1zM6.1 53.7c0 .6.5 1 1 1 .6 0 1-.5 1-1 0-.6-.5-1-1-1-.6-.1-1 .4-1 1zm19.4 23.9c0 .6.5 1 1 1 .6 0 1-.5 1-1 0-.6-.5-1-1-1s-1 .5-1 1zm2.6 0c0 .6.5 1 1 1 .6 0 1-.5 1-1 0-.6-.5-1-1-1s-1 .5-1 1zm-22 0c0 .6.5 1 1 1 .6 0 1-.5 1-1 0-.6-.5-1-1-1-.6 0-1 .5-1 1zm0-8c0 .6.5 1 1 1 .6 0 1-.5 1-1 0-.6-.5-1-1-1-.6 0-1 .5-1 1zm24.7 8c0 .6.5 1 1 1 .6 0 1-.5 1-1 0-.6-.5-1-1-1-.6 0-1 .5-1 1zm-5.3-8c0 .6.5 1 1 1 .6 0 1-.5 1-1 0-.6-.5-1-1-1s-1 .5-1 1zm0-55.9c0 .6.5 1 1 1 .6 0 1-.5 1-1 0-.6-.5-1-1-1s-1 .4-1 1zm0 8c0 .6.5 1 1 1 .6 0 1-.5 1-1 0-.6-.5-1-1-1s-1 .4-1 1zm2.6 0c0 .6.5 1 1 1 .6 0 1-.5 1-1 0-.6-.5-1-1-1s-1 .4-1 1zm-2.6 8c0 .6.5 1 1 1 .6 0 1-.5 1-1 0-.6-.5-1-1-1s-1 .4-1 1zm2.6 0c0 .6.5 1 1 1 .6 0 1-.5 1-1 0-.6-.5-1-1-1s-1 .4-1 1zm2.7-8c0 .6.5 1 1 1 .6 0 1-.5 1-1 0-.6-.5-1-1-1-.6 0-1 .4-1 1zm0 8c0 .6.5 1 1 1 .6 0 1-.5 1-1 0-.6-.5-1-1-1-.6 0-1 .4-1 1zM0 87h34.7v-6.5H4.1v-5.9h30.5v-2.1H4.1v-5.9h30.5v-2.1H4.1v-5.9h30.5v-2.1H4.1v-5.9h30.5v-2.1H4.1v-5.9h30.5v-2.1H4.1v-5.9h30.5v-2.1H4.1v-5.9h30.5v-2.1H4.1v-5.9h30.5v-2.1H4.1v-5.9h30.5V4.2H0V87zm30.8-73.3c0 .6.5 1 1 1 .6 0 1-.5 1-1 0-.6-.5-1-1-1-.6 0-1 .4-1 1zm-2.7 0c0 .6.5 1 1 1 .6 0 1-.5 1-1 0-.6-.5-1-1-1s-1 .4-1 1zm-22 0c0 .6.5 1 1 1 .6 0 1-.5 1-1 0-.6-.5-1-1-1-.6 0-1 .4-1 1zm19.4 32c0 .6.5 1 1 1 .6 0 1-.5 1-1 0-.6-.5-1-1-1-.5-.1-1 .4-1 1zm2.6 8c0 .6.5 1 1 1 .6 0 1-.5 1-1 0-.6-.5-1-1-1-.5-.1-1 .4-1 1zm0-8c0 .6.5 1 1 1 .6 0 1-.5 1-1 0-.6-.5-1-1-1-.5-.1-1 .4-1 1zm-22 0c0 .6.5 1 1 1 .6 0 1-.5 1-1 0-.6-.5-1-1-1-.6-.1-1 .4-1 1zm24.7 0c0 .6.5 1 1 1 .6 0 1-.5 1-1 0-.6-.5-1-1-1-.6-.1-1 .4-1 1zm0 8c0 .6.5 1 1 1 .6 0 1-.5 1-1 0-.6-.5-1-1-1-.6-.1-1 .4-1 1zm0-16c0 .6.5 1 1 1 .6 0 1-.5 1-1 0-.6-.5-1-1-1-.6 0-1 .4-1 1zm-24.7-8c0 .6.5 1 1 1 .6 0 1-.5 1-1 0-.6-.5-1-1-1-.6 0-1 .4-1 1zm22 8c0 .6.5 1 1 1 .6 0 1-.5 1-1 0-.6-.5-1-1-1s-1 .4-1 1zm-2.6 0c0 .6.5 1 1 1 .6 0 1-.5 1-1 0-.6-.5-1-1-1s-1 .4-1 1zm-19.4 0c0 .6.5 1 1 1 .6 0 1-.5 1-1 0-.6-.5-1-1-1-.6 0-1 .4-1 1zm0-16c0 .6.5 1 1 1 .6 0 1-.5 1-1 0-.6-.5-1-1-1-.6 0-1 .4-1 1zm82.8 32c0-.6-.5-1-1-1-.6 0-1 .5-1 1 0 .6.5 1 1 1 .6 0 1-.5 1-1zm0 7.9c0-.6-.5-1-1-1-.6 0-1 .5-1 1 0 .6.5 1 1 1 .6.1 1-.4 1-1zm22.1 0c0-.6-.5-1-1-1-.6 0-1 .5-1 1 0 .6.5 1 1 1 .5.1 1-.4 1-1zm-2.6 0c0-.6-.5-1-1-1-.6 0-1 .5-1 1 0 .6.5 1 1 1 .5.1 1-.4 1-1zm5.2 0c0-.6-.5-1-1-1-.6 0-1 .5-1 1 0 .6.5 1 1 1 .5.1 1-.4 1-1zM88.9 45.7c0-.6-.5-1-1-1-.6 0-1 .5-1 1 0 .6.5 1 1 1 .6 0 1-.5 1-1zm24.7 8c0-.6-.5-1-1-1-.6 0-1 .5-1 1 0 .6.5 1 1 1s1-.5 1-1zm-2.6 0c0-.6-.5-1-1-1-.6 0-1 .5-1 1 0 .6.5 1 1 1s1-.5 1-1zm-2.6 0c0-.6-.5-1-1-1-.6 0-1 .5-1 1 0 .6.5 1 1 1s1-.5 1-1zm0 23.9c0-.6-.5-1-1-1-.6 0-1 .5-1 1 0 .6.5 1 1 1s1-.4 1-1zm0-31.9c0-.6-.5-1-1-1-.6 0-1 .5-1 1 0 .6.5 1 1 1s1-.5 1-1zm5.2 31.9c0-.6-.5-1-1-1-.6 0-1 .5-1 1 0 .6.5 1 1 1s1-.4 1-1zm-2.6 0c0-.6-.5-1-1-1-.6 0-1 .5-1 1 0 .6.5 1 1 1s1-.4 1-1zm2.6-8c0-.6-.5-1-1-1-.6 0-1 .5-1 1 0 .6.5 1 1 1 .5.1 1-.4 1-1zm-24.7 8c0-.6-.5-1-1-1-.6 0-1 .5-1 1 0 .6.5 1 1 1 .6 0 1-.4 1-1zm0-8c0-.6-.5-1-1-1-.6 0-1 .5-1 1 0 .6.5 1 1 1 .6.1 1-.4 1-1zm22.1 0c0-.6-.5-1-1-1-.6 0-1 .5-1 1 0 .6.5 1 1 1 .5.1 1-.4 1-1zM85.1 4.2v6.5h30.5v5.9H85.1v2.1h30.5v5.9H85.1v2.1h30.5v5.9H85.1v2.1h30.5v5.9H85.1v2.1h30.5v5.9H85.1v2.1h30.5v5.9H85.1v2.1h30.5v5.9H85.1v2.1h30.5v5.9H85.1v2.1h30.5v5.9H85.1V87h34.7V4.2H85.1zm23.3 65.4c0-.6-.5-1-1-1-.6 0-1 .5-1 1 0 .6.5 1 1 1 .5.1 1-.4 1-1zm0-47.9c0-.6-.5-1-1-1-.6 0-1 .5-1 1 0 .6.5 1 1 1s1-.4 1-1zm5.2 0c0-.6-.5-1-1-1-.6 0-1 .5-1 1 0 .6.5 1 1 1s1-.4 1-1zm-2.6 0c0-.6-.5-1-1-1-.6 0-1 .5-1 1 0 .6.5 1 1 1s1-.4 1-1zm2.6 8c0-.6-.5-1-1-1-.6 0-1 .5-1 1 0 .6.5 1 1 1s1-.5 1-1zm-24.7-8c0-.6-.5-1-1-1-.6 0-1 .5-1 1 0 .6.5 1 1 1 .6 0 1-.4 1-1zm24.7-8c0-.6-.5-1-1-1-.6 0-1 .5-1 1 0 .6.5 1 1 1s1-.4 1-1zm-2.6 0c0-.6-.5-1-1-1-.6 0-1 .5-1 1 0 .6.5 1 1 1s1-.4 1-1zm-22.1 0c0-.6-.5-1-1-1-.6 0-1 .5-1 1 0 .6.5 1 1 1 .6 0 1-.4 1-1zm19.5 0c0-.6-.5-1-1-1-.6 0-1 .5-1 1 0 .6.5 1 1 1s1-.4 1-1zm5.2 32c0-.6-.5-1-1-1-.6 0-1 .5-1 1 0 .6.5 1 1 1s1-.5 1-1zm-5.2-8c0-.6-.5-1-1-1-.6 0-1 .5-1 1 0 .6.5 1 1 1s1-.5 1-1zm-19.5 0c0-.6-.5-1-1-1-.6 0-1 .5-1 1 0 .6.5 1 1 1 .6 0 1-.5 1-1zm22.1 0c0-.6-.5-1-1-1-.6 0-1 .5-1 1 0 .6.5 1 1 1s1-.5 1-1zm0 8c0-.6-.5-1-1-1-.6 0-1 .5-1 1 0 .6.5 1 1 1s1-.5 1-1zm2.6-8c0-.6-.5-1-1-1-.6 0-1 .5-1 1 0 .6.5 1 1 1s1-.5 1-1zm-5.2-8c0-.6-.5-1-1-1-.6 0-1 .5-1 1 0 .6.5 1 1 1s1-.5 1-1zm2.6 0c0-.6-.5-1-1-1-.6 0-1 .5-1 1 0 .6.5 1 1 1s1-.5 1-1zm-22.1 0c0-.6-.5-1-1-1-.6 0-1 .5-1 1 0 .6.5 1 1 1 .6 0 1-.5 1-1zM46.3 44.4c-.6 0-1.1.5-1.1 1.1 0 .6.5 1.1 1.1 1.1.6 0 1.1-.5 1.1-1.1 0-.6-.5-1.1-1.1-1.1zm0 35.1c-.6 0-1.1.5-1.1 1.1 0 .6.5 1.1 1.1 1.1.6 0 1.1-.5 1.1-1.1 0-.6-.5-1.1-1.1-1.1zm0-26.3c-.6 0-1.1.5-1.1 1.1 0 .6.5 1.1 1.1 1.1.6 0 1.1-.5 1.1-1.1 0-.6-.5-1.1-1.1-1.1zm21.4 0c-.6 0-1.1.5-1.1 1.1 0 .6.5 1.1 1.1 1.1.6 0 1.1-.5 1.1-1.1 0-.6-.5-1.1-1.1-1.1zm5.7-8.8c-.6 0-1.1.5-1.1 1.1 0 .6.5 1.1 1.1 1.1.6 0 1.1-.5 1.1-1.1 0-.6-.5-1.1-1.1-1.1zm-5.7 26.3c-.6 0-1.1.5-1.1 1.1 0 .6.5 1.1 1.1 1.1.6 0 1.1-.5 1.1-1.1 0-.6-.5-1.1-1.1-1.1zm0 8.8c-.6 0-1.1.5-1.1 1.1 0 .6.5 1.1 1.1 1.1.6 0 1.1-.5 1.1-1.1 0-.6-.5-1.1-1.1-1.1zm2.8-26.3c-.6 0-1.1.5-1.1 1.1 0 .6.5 1.1 1.1 1.1.6 0 1.1-.5 1.1-1.1 0-.6-.5-1.1-1.1-1.1zm-2.8-8.8c-.6 0-1.1.5-1.1 1.1 0 .6.5 1.1 1.1 1.1.6 0 1.1-.5 1.1-1.1 0-.6-.5-1.1-1.1-1.1zm2.8 0c-.6 0-1.1.5-1.1 1.1 0 .6.5 1.1 1.1 1.1.6 0 1.1-.5 1.1-1.1 0-.6-.5-1.1-1.1-1.1zM67.7 62c-.6 0-1.1.5-1.1 1.1 0 .6.5 1.1 1.1 1.1.6 0 1.1-.5 1.1-1.1 0-.6-.5-1.1-1.1-1.1zm2.8 8.7c-.6 0-1.1.5-1.1 1.1 0 .6.5 1.1 1.1 1.1.6 0 1.1-.5 1.1-1.1 0-.6-.5-1.1-1.1-1.1zm2.9-8.7c-.6 0-1.1.5-1.1 1.1 0 .6.5 1.1 1.1 1.1.6 0 1.1-.5 1.1-1.1 0-.6-.5-1.1-1.1-1.1zm-27.1 8.7c-.6 0-1.1.5-1.1 1.1 0 .6.5 1.1 1.1 1.1.6 0 1.1-.5 1.1-1.1 0-.6-.5-1.1-1.1-1.1zm27.1-17.5c-.6 0-1.1.5-1.1 1.1 0 .6.5 1.1 1.1 1.1.6 0 1.1-.5 1.1-1.1 0-.6-.5-1.1-1.1-1.1zM70.5 62c-.6 0-1.1.5-1.1 1.1 0 .6.5 1.1 1.1 1.1.6 0 1.1-.5 1.1-1.1 0-.6-.5-1.1-1.1-1.1zm2.9 8.7c-.6 0-1.1.5-1.1 1.1 0 .6.5 1.1 1.1 1.1.6 0 1.1-.5 1.1-1.1 0-.6-.5-1.1-1.1-1.1zM46.3 62c-.6 0-1.1.5-1.1 1.1 0 .6.5 1.1 1.1 1.1.6 0 1.1-.5 1.1-1.1 0-.6-.5-1.1-1.1-1.1zm27.1-26.4c-.6 0-1.1.5-1.1 1.1 0 .6.5 1.1 1.1 1.1.6 0 1.1-.5 1.1-1.1 0-.6-.5-1.1-1.1-1.1zM38.5 91h42.8V0H38.5v91zM43 7.2h33.7v6.5H43V7.2zm0 8.7h33.7v6.5H43v-6.5zm0 8.8h33.7v6.5H43v-6.5zm0 8.8h33.7V40H43v-6.5zm0 8.8h33.7v6.5H43v-6.5zm0 8.8h33.7v6.5H43v-6.5zm0 8.7h33.7v6.5H43v-6.5zm0 8.8h33.7v6.5H43v-6.5zm0 8.8h33.7v6.5H43v-6.5zm27.5-41.8c-.6 0-1.1.5-1.1 1.1 0 .6.5 1.1 1.1 1.1.6 0 1.1-.5 1.1-1.1 0-.6-.5-1.1-1.1-1.1zM46.3 18.1c-.6 0-1.1.5-1.1 1.1s.5 1.1 1.1 1.1c.6 0 1.1-.5 1.1-1.1s-.5-1.1-1.1-1.1zm24.2 0c-.6 0-1.1.5-1.1 1.1s.5 1.1 1.1 1.1c.6 0 1.1-.5 1.1-1.1s-.5-1.1-1.1-1.1zM46.3 9.3c-.6 0-1.1.5-1.1 1.1s.5 1.1 1.1 1.1c.6 0 1.1-.5 1.1-1.1s-.5-1.1-1.1-1.1zm27.1 8.8c-.6 0-1.1.5-1.1 1.1s.5 1.1 1.1 1.1c.6 0 1.1-.5 1.1-1.1s-.5-1.1-1.1-1.1zm-5.7-8.8c-.6 0-1.1.5-1.1 1.1s.5 1.1 1.1 1.1c.6 0 1.1-.5 1.1-1.1s-.5-1.1-1.1-1.1zm2.8 0c-.6 0-1.1.5-1.1 1.1s.5 1.1 1.1 1.1c.6 0 1.1-.5 1.1-1.1s-.5-1.1-1.1-1.1zm2.9 0c-.6 0-1.1.5-1.1 1.1s.5 1.1 1.1 1.1c.6 0 1.1-.5 1.1-1.1s-.5-1.1-1.1-1.1zm-5.7 8.8c-.6 0-1.1.5-1.1 1.1s.5 1.1 1.1 1.1c.6 0 1.1-.5 1.1-1.1s-.5-1.1-1.1-1.1zm5.7 8.7c-.6 0-1.1.5-1.1 1.1s.5 1.1 1.1 1.1c.6 0 1.1-.5 1.1-1.1s-.5-1.1-1.1-1.1zm-27.1 8.8c-.6 0-1.1.5-1.1 1.1 0 .6.5 1.1 1.1 1.1.6 0 1.1-.5 1.1-1.1 0-.6-.5-1.1-1.1-1.1zm24.2 43.9c-.6 0-1.1.5-1.1 1.1 0 .6.5 1.1 1.1 1.1.6 0 1.1-.5 1.1-1.1 0-.6-.5-1.1-1.1-1.1zm-2.8-43.9c-.6 0-1.1.5-1.1 1.1 0 .6.5 1.1 1.1 1.1.6 0 1.1-.5 1.1-1.1 0-.6-.5-1.1-1.1-1.1zm-21.4-8.8c-.6 0-1.1.5-1.1 1.1s.5 1.1 1.1 1.1c.6 0 1.1-.5 1.1-1.1s-.5-1.1-1.1-1.1zm27.1 52.7c-.6 0-1.1.5-1.1 1.1 0 .6.5 1.1 1.1 1.1.6 0 1.1-.5 1.1-1.1 0-.6-.5-1.1-1.1-1.1zm-5.7-52.7c-.6 0-1.1.5-1.1 1.1s.5 1.1 1.1 1.1c.6 0 1.1-.5 1.1-1.1s-.5-1.1-1.1-1.1zm2.8 0c-.6 0-1.1.5-1.1 1.1s.5 1.1 1.1 1.1c.6 0 1.1-.5 1.1-1.1s-.5-1.1-1.1-1.1z"/></symbol>
<symbol id="gm-icon-altcoin" viewBox="0 0 225.8 91.6"><path class="gm-icon-altcoin-st0" d="M156.5 69.4c6.7 8 16.8 13.1 28 13.1 20.2 0 36.6-16.4 36.6-36.6 0-20.2-16.4-36.7-36.6-36.7-11.2 0-21.3 5.1-28 13.1 3.8 7 6 15.1 6 23.6 0 8.4-2.2 16.5-6 23.5zm11.4-13.7h4.4V35.9h-4.4v-8.8h20.5s15.3-.2 15.3 18.7c0 18.7-14.5 18.7-14.5 18.7h-21.3v-8.8zM45.8 43.8c3.3-4 6.1-8.3 9.1-12.5-6.8 7.6-13.6 15.3-19.6 23.8 3.5-3.7 7.3-7.3 10.5-11.3zM184.5 4.5c-12.1 0-23 5.2-30.5 13.5.7 1 1.3 2 1.9 3.1 6.9-8 17.2-13.1 28.6-13.1 20.9 0 37.8 17 37.8 37.8 0 20.9-17 37.8-37.8 37.8-11.4 0-21.7-5.1-28.6-13.1-.6 1-1.2 2.1-1.9 3.1 7.5 8.3 18.4 13.5 30.5 13.5 22.8 0 41.3-18.5 41.3-41.3 0-22.8-18.5-41.3-41.3-41.3zM41.3 9.1C21.1 9.1 4.6 25.6 4.6 45.8 4.6 66 21 82.5 41.3 82.5c11.2 0 21.3-5.1 28-13.1-3.8-7-6-15.1-6-23.6 0-8.5 2.2-16.6 6-23.6-6.8-8-16.8-13.1-28-13.1zm18.9 24.7c-.9 1.5-2 2.8-3 4.1-1.5 1.8-3.2 4-4.8 5.9-.4.5-1.3 1.8-1.7 1.9-.3.1-.7 0-1 0-1.5 0-3.1.2-3.6 1.3.7.8 2.3.5 3.7.5-1.8 2.7-3.9 5.4-5.9 8.1-.3.3-.6 1.1-.9 1.2-.5.2-1.7-.1-2.6-.1-3.6 0-7.6.4-9 2.6 4.5.3 9 .7 13.8.6-3.8 2.1-10.4 1.3-14.8.8.9 2.3 2.9 3.5 5.3 4.1.4.1.4.3 0 .3-2.5-.3-5.1-.8-6.3-2.4-.2-.3-.2-.7-.7-.8 0 1.3.8 2.4 1.6 3.2.4.4.9.7 1.4 1.1.5.3.5.5 0 .3-1.6-.5-3.1-1.2-4.3-2.2-.9 1.6-2.3 2.8-3.7 4-.3.3-.3 0 0-.4.6-.9 2.3-2.5 2.7-4 .2-.7-.2-1.9-.7-1.9-.5 0-.9.6-1.1 1-.3.5-.5.9-.7 1.3-.6-1.3-.1-2.8.6-3.5-1.2-1.2-2.3-2.5-3.6-3.6-.5-.5-.3-.8.3-.5 1.9.9 3.6 2 4.7 3.4-.6-2-1.3-4.1-2-5.9-.2-.4 0-.5.3-.1 1.2 1.5 2.3 3.2 3.3 5.1-.2-2.7-.1-5.3.9-6.9.1-.1.1-.4.4-.3.3 1 .6 1.9 1 2.9.2.4.9 2.5 1.5 2.4.4-.1.4-1 .5-1.7.2-3-.3-6.5-.5-9.2.4-.5 1.1-1.1 1.5-1.5.2-.2.3-.4.5-.3 0 .7.1 1.4.1 2.1 0 1.9.1 3.9.8 5.1.6-.5.8-1.3 1-2.1.6-2.4 1-5.1 1.4-7.7 1.1-1 2.3-2.1 3.3-3 .1-.1.2-.3.4-.3.3 1.2.2 2.8 1 3.5.7-.7.8-1.7 1-2.8.1-.5.1-1.1.2-1.6s0-1.2.2-1.7 1.4-1.3 2-1.8c4.7-4 9.7-8.2 15.5-11 1.3 1.1 2.1 3 2 5.3-.3 2-1.1 3.7-2 5.2zm132.2 12c0-11.6-9.2-9.9-9.2-9.9v19.7s9.2 1.8 9.2-9.8zM41.3 83.6c-20.9 0-37.8-17-37.8-37.8C3.4 24.9 20.4 8 41.3 8 52.7 8 63 13.1 69.9 21.1c.6-1 1.2-2.1 1.9-3.1C64.3 9.7 53.4 4.5 41.3 4.5 18.5 4.5 0 23 0 45.8c0 22.8 18.5 41.3 41.3 41.3 12.1 0 23-5.2 30.5-13.5-.7-1-1.3-2-1.9-3.1-6.9 8-17.2 13.1-28.6 13.1zM112.9 0C87.6 0 67.1 20.5 67.1 45.8c0 25.3 20.5 45.8 45.8 45.8 25.3 0 45.8-20.5 45.8-45.8 0-25.3-20.5-45.8-45.8-45.8zm0 87.8c-23.1 0-42-18.8-42-42 0-23.1 18.8-42 42-42 23.1 0 42 18.8 42 42 0 23.1-18.9 42-42 42zm0-82.7c-22.4 0-40.7 18.2-40.7 40.7 0 22.4 18.2 40.7 40.7 40.7 22.4 0 40.7-18.2 40.7-40.7 0-22.4-18.3-40.7-40.7-40.7zm16.6 61.5H95.2l3.4-13.3-4.5 1.5 1.4-5.9 4.6-1.6 5.7-22.4h13.5l-4.4 17.4 11.3-3.9-1.4 5.9-11.5 4-2.4 9.3h20.8l-2.2 9z"/></symbol>
<symbol id="gm-icon-output" viewBox="0 0 91 91"><circle class="gm-icon-output-st0" cx="73.5" cy="31.8" r="2.1"/><circle class="gm-icon-output-st0" cx="14.6" cy="57.3" r="2.1"/><path class="gm-icon-output-st0" d="M56.5 1.4C32.1-4.7 7.4 10.1 1.4 34.5c-6.1 24.4 8.8 49.1 33.1 55.1 24.4 6.1 49.1-8.8 55.1-33.1 6.1-24.4-8.7-49.1-33.1-55.1zm17 35.2c-.7 0-1.4-.2-2.1-.5l-9.6 14.6c.9.9 1.4 2.1 1.4 3.4 0 2.6-2.1 4.8-4.8 4.8-2.6 0-4.8-2.1-4.8-4.8v-.4l-7.5-2.1c-.8 1.5-2.4 2.5-4.2 2.5-2.6 0-4.8-2.1-4.8-4.8 0-1.3.5-2.5 1.4-3.3l-7.9-11.3c-.6.3-1.4.5-2.1.5-.5 0-1-.1-1.4-.2l-9.5 18.7c1 .9 1.7 2.2 1.7 3.6 0 2.6-2.1 4.8-4.8 4.8-2.6 0-4.8-2.1-4.8-4.8 0-2.6 2.1-4.8 4.8-4.8.5 0 1 .1 1.5.3l9.4-18.7c-1.1-.9-1.8-2.2-1.8-3.7 0-2.6 2.1-4.8 4.8-4.8 2.6 0 4.8 2.1 4.8 4.8 0 1.2-.5 2.3-1.2 3.2L40 45c.6-.3 1.2-.4 1.9-.4 2.6 0 4.8 2.1 4.8 4.8 0 .2 0 .4-.1.5L54 52c.8-1.6 2.4-2.6 4.3-2.6.7 0 1.3.1 1.9.4L70 35c-.8-.9-1.3-2-1.3-3.2 0-2.6 2.1-4.8 4.8-4.8 2.6 0 4.8 2.1 4.8 4.8 0 2.6-2.2 4.8-4.8 4.8z"/></symbol>
<symbol id="gm-icon-question-circle" viewBox="0 0 12 14"><path class="gm-icon-question-circle-st0" d="M7 10.75v-1.5q0-.11-.07-.18T6.75 9h-1.5q-.11 0-.18.07T5 9.25v1.5q0 .11.07.18t.18.07h1.5q.11 0 .18-.07t.07-.18zM9 5.5q0-.688-.434-1.273T7.484 3.32 6.156 3Q4.258 3 3.258 4.666q-.117.187.062.328l1.03.78q.056.048.15.048.124 0 .194-.093.414-.53.672-.72.266-.186.672-.186.375 0 .668.204t.293.46q0 .298-.157.478t-.53.352q-.493.22-.903.676T5 7.97v.28q0 .11.07.18t.18.07h1.5q.11 0 .18-.07T7 8.25q0-.147.168-.386t.426-.387q.25-.14.383-.223t.36-.273.347-.374.22-.473T9 5.5zM12 7q0 1.633-.805 3.012T9.01 12.196 6 13t-3.013-.804-2.184-2.184T-.002 7t.805-3.012 2.184-2.184T6 1t3.01.804 2.185 2.184T12 7z" /></symbol>
<symbol id="gm-icon-question-circle-2" viewBox="0 0 25 25"><path class="gm-icon-question-circle-2-st0" d="M12.5 0C5.6 0 0 5.6 0 12.5S5.6 25 12.5 25 25 19.4 25 12.5 19.4 0 12.5 0zm1.4 18.7c0 .2-.2.4-.4.4h-2.3c-.2 0-.4-.2-.4-.4v-2.3c0-.2.2-.4.4-.4h2.3c.2 0 .4.2.4.4v2.3zm.9-5.8c-.6.3-.9.9-.9 1.2 0 .2-.2.4-.4.4h-2.3c-.2 0-.4-.2-.4-.4v-.4c0-1.2 1.2-2.2 2-2.6.7-.3 1.1-.7 1.1-1.3 0-.5-.7-1-1.5-1-.4 0-.8.1-1 .3-.2.2-.5.4-1 1.1-.1.1-.2.1-.3.1-.1 0-.2 0-.2-.1L8.1 9c-.1-.1-.2-.4-.1-.5 1-1.7 2.5-2.6 4.5-2.6 2.1 0 4.4 1.7 4.4 3.9.1 1.8-1.2 2.5-2.1 3.1z"/></symbol>
<symbol id="gm-icon-btc-2" viewBox="0 0 36 36"><path class="gm-icon-btc-2-st0" d="M18 0C8.1 0 0 8.1 0 18s8.1 18 18 18 18-8.1 18-18S27.9 0 18 0zm0 34.5C8.9 34.5 1.5 27.1 1.5 18S8.9 1.5 18 1.5 34.5 8.9 34.5 18 27.1 34.5 18 34.5z"/><path class="gm-icon-btc-2-st0" d="M21 15.5c0-2-2.9-1.7-3.9-1.7v3.3c.9 0 3.9.2 3.9-1.6zM17.1 18.8v3.6c1.1 0 4.6.2 4.6-1.8 0-2.1-3.5-1.8-4.6-1.8z"/><path class="gm-icon-btc-2-st0" d="M18 2.7C9.6 2.7 2.7 9.6 2.7 18S9.6 33.3 18 33.3 33.3 26.4 33.3 18 26.4 2.7 18 2.7zm6.5 18c-.2 2.4-2 3.1-4.6 3.2v2.6h-1.5V24h-1.2v2.5h-1.5V24h-3.1l.3-1.8H14c.4 0 .6-.3.6-.5v-4h.2-.2v-2.9c-.1-.3-.3-.7-.9-.7h-1.1v-1.6h3.1V9.9h1.5v2.5h1.2V9.9h1.5v2.5c2 .2 3.6.8 3.7 2.6.1 1.3-.4 2.1-1.3 2.6 1.5.3 2.4 1.2 2.2 3.1z"/></symbol>
<symbol id="gm-icon-x11-2" viewBox="0 0 70.6 45"><path class="gm-icon-x11-2-st0" d="M54.6 30.4l-.5 2.8c.9.2 3.5.8 3.8-.7.3-1.7-2.4-1.9-3.3-2.1zM55.3 26.7l-.5 2.5c.7.1 2.9.7 3.2-.7.3-1.5-2-1.7-2.7-1.8z"/><path class="gm-icon-x11-2-st0" d="M55.4 17c-1.3 0-2.5.2-3.7.6-.8 5.5-4.2 10.1-9 12.5.2 6.9 5.8 12.4 12.7 12.4 7 0 12.7-5.7 12.7-12.7 0-7.1-5.7-12.8-12.7-12.8zm4.9 16.2c-.6 2-2.1 2.2-4.3 1.9l-.4 2.1-1.2-.2.4-2.1c-.3-.1-.7-.1-1-.2l-.4 2.1-1.3-.2.4-2.1c-.3-.1-.6-.1-.9-.2L50 34l.5-1.5.9.2c.4.1.5-.2.6-.3l.6-3.3h0l.4-2.3c0-.3-.1-.6-.6-.7l-.9-.2.2-1.3 1.7.3c.3 0 .5.1.8.1l.4-2.1 1.3.2-.4 2c.3.1.7.1 1 .2l.4-2 1.3.2-.4 2.1c1.6.4 2.8 1.2 2.7 2.7-.1 1.1-.7 1.7-1.5 1.9 1.1.5 1.8 1.4 1.3 3zM19 17.5c-1.2-.4-2.4-.6-3.7-.6-7 0-12.8 5.7-12.8 12.8 0 7 5.7 12.7 12.8 12.7 6.9 0 12.6-5.5 12.7-12.4-4.8-2.3-8.2-7-9-12.5zm-1.1 17.1c-.3.3-.6.6-1 .8L17 37c0 .2-.1.3-.3.4 0 0-.9.1-.9-.1l-.1-1.3c-.2.1-.5.2-.8.2l.1 1.3c0 .2-.1.3-.3.4 0 0-.9.1-.9-.1l-.1-1.3c-1.1.1-2.1 0-3.1-.4 0-.3.1-.6.2-1s.3-.7.5-.9c1.2.4 2.2.5 3 .3.8-.2 1.3-.5 1.7-.8.3-.4.5-.7.5-1.2 0-.7-.5-1.1-1.5-1.2l-1.3-.2c-1.9-.3-2.9-1.2-3-2.6-.1-1.1.2-2 .9-2.8.4-.5.9-.8 1.5-1.1l-.1-1.5c0-.2.8-.5.8-.5.2 0 .3.1.3.2l.1 1.3c.1 0 .2-.1.2-.1.2 0 .4-.1.5-.1l-.1-1.3c0-.2.8-.5.8-.5.2 0 .3.1.3.2l.1 1.5c.7 0 1.3 0 2 .2 0 .3 0 .7-.1 1-.1.4-.3.7-.5.9-1.1-.3-2.1-.3-3 0-.5.1-.9.3-1.1.7-.3.3-.4.7-.4 1 0 .4.2.6.4.8.2.2.6.3 1.1.3l1.4.2c1.9.3 3 1.2 3.1 2.8.1 1.1-.2 2-1 2.9z"/><path class="gm-icon-x11-2-st0" d="M35.3 0C26.9 0 20 6.8 20 15.3c0 8.4 6.8 15.3 15.3 15.3 8.4 0 15.3-6.8 15.3-15.3S43.8 0 35.3 0zm0 29.3c-7.7 0-14-6.3-14-14s6.3-14 14-14 14 6.3 14 14-6.3 14-14 14z"/><path class="gm-icon-x11-2-st0" d="M55.4 14.5c-1.2 0-2.4.2-3.6.4v1.3c1.1-.3 2.4-.5 3.6-.5 7.7 0 14 6.3 14 14s-6.3 14-14 14c-7.4 0-13.5-5.8-14-13.1-.4.2-.8.3-1.2.4.7 7.8 7.2 14 15.2 14 8.4 0 15.3-6.8 15.3-15.3-.1-8.4-6.9-15.2-15.3-15.2z"/><path class="gm-icon-x11-2-st0" d="M35.3 2.5c-7 0-12.8 5.7-12.8 12.8 0 7 5.7 12.7 12.8 12.7 7 0 12.7-5.7 12.7-12.7.1-7.1-5.6-12.8-12.7-12.8zm-7 13.7c0-.1.1-.2.1-.3.2-.5.4-1 .5-1.6H34v.1c-.2.6-.4 1.2-.6 1.7h-2.7c-.8.1-1.5.1-2.4.1.1 0 0 0 0 0zm14-3.5v.1c0 .2-.1.4-.1.6-.3.9-.6 1.7-.8 2.6-.1.4-.3.8-.4 1.2-.1.3-.3.6-.5.9-.3.4-.7.7-1.1.9-.2.1-.5.2-.8.3h-9.8c0-.1 0-.1.1-.2.2-.5.3-1.1.5-1.6 0-.1.1-.2.1-.2h8.6c.2-.7.4-1.4.7-2 .2-.7.4-1.3.7-2h-8.6v-.1c.2-.6.4-1.2.6-1.9 0-.1 0-.1.1-.1H41c.4 0 .7.1 1 .4.2.2.3.4.4.6 0 .1 0 .2.1.3-.2.1-.2.2-.2.2z"/><path class="gm-icon-x11-2-st0" d="M29.2 30.6c-.5 7.3-6.5 13.1-14 13.1-7.7 0-14-6.3-14-14s6.3-14 14-14c1.2 0 2.4.2 3.6.5v-.9-.4c-1.1-.3-2.3-.4-3.6-.4C6.8 14.5 0 21.3 0 29.7 0 38.2 6.8 45 15.3 45c8 0 14.5-6.1 15.2-14-.4-.1-.9-.2-1.3-.4z"/></symbol>
<symbol id="gm-icon-zcash" viewBox="0 0 92 92"><path class="gm-icon-zcash-st0" d="M46 0C20.6 0 0 20.6 0 46s20.6 46 46 46 46-20.6 46-46S71.4 0 46 0zm0 88.2C22.7 88.2 3.8 69.3 3.8 46 3.8 22.7 22.7 3.8 46 3.8c23.3 0 42.2 18.9 42.2 42.2 0 23.3-18.9 42.2-42.2 42.2z"/><path class="st0" d="M46 6.4C24 6.4 6.1 24.3 6.1 46.3S24 86.2 46 86.2s39.9-17.9 39.9-39.9S68 6.4 46 6.4zm8.4 33.2l-9.6 12.2h9.6v5h-6v4h-5v-4h-6v-4.4l9.7-11.6h-9.7v-6h6v-4h5v4h6v4.8z"/></symbol>
<symbol id="gm-icon-ethereum" viewBox="0 0 36 36"><path class="gm-icon-ethereum-st0" d="M18 0C8.1 0 0 8.1 0 18s8.1 18 18 18 18-8.1 18-18S27.9 0 18 0zm0 34.5C8.9 34.5 1.5 27.1 1.5 18S8.9 1.5 18 1.5 34.5 8.9 34.5 18 27.1 34.5 18 34.5z"/><path class="gm-icon-ethereum-st0" d="M18 2.7C9.6 2.7 2.7 9.6 2.7 18S9.6 33.3 18 33.3 33.3 26.4 33.3 18 26.4 2.7 18 2.7zm0 24.5l-5.7-8 5.7 3.4 5.7-3.4-5.7 8zm0-6.4l-5.7-3.4L18 7.8l5.7 9.6-5.7 3.4z"/></symbol>
<symbol id="gm-icon-ethereum-2" viewBox="0 0 30.6 30.6"><path class="gm-icon-ethereum-2-st0" d="M15.3 0C6.9 0 0 6.9 0 15.3s6.9 15.3 15.3 15.3 15.3-6.9 15.3-15.3S23.7 0 15.3 0zm0 24.5l-5.7-8 5.7 3.4 5.7-3.4-5.7 8zm0-6.4l-5.7-3.4 5.7-9.6 5.7 9.6-5.7 3.4z"/></symbol>
<symbol id="gm-icon-dash" viewBox="0 0 226.2 135.2"><path class="gm-icon-dash-st0" d="M223.2 12.1C218.7 3.3 209.4 0 202.3 0H48.2L37.8 33.8h138.1l-20.8 67.6H15.9L5.4 135.2h148c14.5 0 18.3-2.5 28.7-8.6 10.3-6.1 18.4-16.6 22.8-29.3 4.4-12.6 15.1-48.2 18.3-60 3.3-11.8 4.6-16.4 0-25.2zM92 52H9.5L0 83h82.5L92 52z"/></symbol>
<symbol id="gm-icon-litecoin" viewBox="0 0 180.4 226.7"><path class="gm-icon-litecoin-st0" d="M71.1 184.1l12.7-60.8L148.4 79l7.6-36.1-64.6 44.4L109.7 0H60.1L33.5 127.2 6.3 145.9 0 180.8 26 163l-13.4 63.7h158.9l8.9-42.6"/></symbol>
<symbol id="gm-icon-lifetime" viewBox="0 0 91.6 91.6"><path class="gm-icon-lifetime-st0" d="M45.8 6.1C23.9 6.1 6.1 23.9 6.1 45.8c0 21.9 17.8 39.7 39.7 39.7 21.9 0 39.7-17.8 39.7-39.7 0-21.9-17.8-39.7-39.7-39.7zM31.9 58.4c-3.4 0-6.5-1.3-8.9-3.7-2.4-2.4-3.7-5.6-3.7-8.9 0-3.4 1.3-6.5 3.7-8.9 2.4-2.4 5.6-3.7 8.9-3.7 5.9 0 10.1 3.7 13.4 7.3l2.3 2.6.2.2 2.5 2.8c3.2 3.6 5.9 5.9 9.3 5.9 3.5 0 6.3-2.8 6.3-6.3s-2.8-6.3-6.3-6.3c-2.2 0-4.3 1.1-6.8 3.4L51.2 41c1.4-1.3 2.7-2.2 4-2.9 1.5-.8 3-1.2 4.5-1.2 2.4 0 4.6.9 6.3 2.6 1.7 1.7 2.6 3.9 2.6 6.3s-.9 4.6-2.6 6.3c-1.7 1.7-3.9 2.6-6.3 2.6s-4.8-.9-7.2-2.8c-2.2-1.8-4.3-4.2-6.1-6.4l-.1-.1c-1.5-1.8-3.1-3.6-4.8-5.2-3.2-3-6.2-4.3-9.4-4.4H32c-5.6 0-10.1 4.6-10.1 10.1C21.9 51.5 26.4 56 32 56h1.7c.1 0 .2 0 .4-.1h.4c.1 0 .2 0 .3-.1.1 0 .1 0 .2-.1h.2c.1 0 .2-.1.3-.1.1 0 .1 0 .2-.1h.1c.1 0 .2-.1.4-.1.1 0 .1-.1.2-.1h.1c.1 0 .2-.1.3-.2.1 0 .2-.1.3-.1.1-.1.2-.1.3-.2.1 0 .2-.1.2-.1.1-.1.2-.1.3-.2.1-.1.2-.1.3-.2.1-.1.2-.1.3-.2.1-.1.2-.1.3-.2.1-.1.2-.2.3-.2l.2-.2c.1-.1.2-.1.3-.2.1-.1.2-.1.2-.2.1-.1.2-.2.3-.2.1-.1.2-.1.2-.2l.3-.3.1-.1c.1 0 .1-.1.2-.1l.3-.3.1-.1s.1 0 .1-.1l1.6 1.9c-3.8 3.2-7.3 4.8-11.1 4.8zm36.6-3.7c-2.4 2.4-5.6 3.7-8.9 3.7-5.9 0-10.1-3.7-13.4-7.3l-2.1-2.4-.1-.2-.3-.3-.1-.1-2.4-2.7c-3.2-3.6-5.9-5.9-9.3-5.9-3.5 0-6.3 2.8-6.3 6.3s2.8 6.3 6.3 6.3c2.2 0 4.3-1.1 6.9-3.5l1.6 1.9c-1.4 1.3-2.7 2.3-4 2.9-1.5.8-3 1.2-4.5 1.2-2.4 0-4.6-.9-6.3-2.6-1.7-1.7-2.6-3.9-2.6-6.2 0-2.4.9-4.6 2.6-6.3s3.9-2.6 6.3-2.6c5.5 0 9.5 4.7 13.3 9.3l.1.2c1.3 1.6 2.7 3.2 4.1 4.6 3.4 3.4 6.4 4.9 9.9 4.9h.2c1.8 0 3.6-.5 5.2-1.4 3.1-1.9 4.9-5.1 4.9-8.7 0-3.9-2.2-7.4-5.7-9.1h-.1c-1.3-.6-2.8-.9-4.3-.9H58.6h-.7-.2c-.1 0-.2 0-.3.1-.1 0-.2 0-.2.1H57c-.1 0-.2 0-.3.1-.1 0-.1 0-.2.1h-.2c-.1 0-.2 0-.2.1-.1 0-.2.1-.2.1h-.2c-.1 0-.2.1-.2.1-.1 0-.2.1-.3.1-.1 0-.2.1-.3.1-.1 0-.2.1-.3.1-.1 0-.2.1-.3.1-.1 0-.2.1-.3.2-.1.1-.2.1-.3.2-.1.1-.2.1-.3.2-.1.1-.2.1-.3.2-.1.1-.2.1-.3.2-.1.1-.2.1-.3.2-.1.1-.2.1-.3.2-.1.1-.2.1-.3.2-.1.1-.2.2-.3.2-.1.1-.2.1-.3.2-.1.1-.2.2-.3.2-.1.1-.2.1-.3.2-.1.1-.2.2-.3.2-.1.1-.2.1-.2.2l-.2.2-1.7-1.9c3.7-3.4 7.2-5 11-5 3.4 0 6.5 1.3 8.9 3.7 2.4 2.4 3.7 5.6 3.7 8.9.3 3.6-1 6.7-3.4 9.1z"/><path class="gm-icon-lifetime-st0" d="M45.8 0C20.5 0 0 20.5 0 45.8c0 25.3 20.5 45.8 45.8 45.8s45.8-20.5 45.8-45.8C91.6 20.5 71.1 0 45.8 0zm0 87.8c-23.1 0-42-18.8-42-42 0-23.1 18.8-42 42-42 23.1 0 42 18.8 42 42 0 23.1-18.9 42-42 42z"/></symbol>
<symbol id="gm-icon-1year" viewBox="0 0 91.6 91.6"><path class="gm-icon-1year-st0" d="M45.8 0C20.5 0 0 20.5 0 45.8c0 25.3 20.5 45.8 45.8 45.8s45.8-20.5 45.8-45.8C91.6 20.5 71.1 0 45.8 0zm0 87.8c-23.1 0-42-18.8-42-42 0-23.1 18.8-42 42-42 23.1 0 42 18.8 42 42 0 23.1-18.9 42-42 42z"/><path class="gm-icon-1year-st0" d="M45.8 6.1C23.9 6.1 6.1 23.9 6.1 45.8c0 21.9 17.8 39.7 39.7 39.7 21.9 0 39.7-17.8 39.7-39.7 0-21.9-17.8-39.7-39.7-39.7zm0 57.7c-8.7 0-15.7-7-15.7-15.7 0-7.8 5.7-14.2 13.1-15.5l-1.3-1.4c-.4 0-.8-.4-.8-.8v-3.9c0-.4.4-.8.8-.8h7.8c.4 0 .8.4.8.8v3.9c0 .4-.4.8-.8.8l-1.3 1.4c2.9.5 5.6 1.8 7.7 3.7l.3-1.2c-.1-.1-.1-.3 0-.5l1.2-1.2c.1-.1.3-.1.5 0l2.4 2.4c.1.1.1.3 0 .5l-1.2 1.2c-.1.1-.3.1-.5 0l-1.2.3c2.3 2.7 3.8 6.3 3.8 10.2.1 8.8-6.9 15.8-15.6 15.8z"/><path class="gm-icon-1year-st0" d="M45.8 36.4c-6.5 0-11.8 5.3-11.8 11.8C34 54.7 39.3 60 45.8 60s11.8-5.3 11.8-11.8c0-3.1-1.2-6.1-3.4-8.3-2.3-2.3-5.3-3.5-8.4-3.5zm6.5 5l-4.1 6.2c.4.9.2 2-.5 2.8-.8.9-2 1.2-3.1.8-.3-.1-3.4 3-3.6 2.8-.3-.2 2.3-3.7 2.2-4-.5-1-.4-2.2.3-3.1.7-.8 1.7-1.1 2.7-.9l5.4-5.1c.2-.1.4-.2.6 0 .2.1.2.3.1.5z"/></symbol>
<symbol id="gm-icon-monero-2" viewBox="0 0 293.2 293.2"><path class="gm-icon-monero-2-st0" d="M146.6 0C65.6 0 0 65.6 0 146.6c0 16.2 2.6 31.7 7.5 46.3h43.8V69.6l95.3 95.3 95.3-95.3v123.3h43.8c4.8-14.6 7.5-30.1 7.5-46.3C293.2 65.6 227.5 0 146.6 0"/><path class="gm-icon-monero-2-st0" d="M124.7 186.8l-41.6-41.6v77.6H21.3C47 265 93.5 293.2 146.6 293.2s99.5-28.2 125.3-70.4h-61.8v-77.6l-41.6 41.6-21.9 21.9-21.9-21.9z"/></symbol>
<symbol id="icon-facebook-with-circle" viewBox="0 0 1024 1024"><path class="path1" d="M512 20.48c-271.462 0-491.52 220.058-491.52 491.52s220.058 491.52 491.52 491.52 491.52-220.058 491.52-491.52-220.058-491.52-491.52-491.52zM628.429 360.141h-73.882c-8.755 0-18.483 11.52-18.483 26.829v53.35h92.416l-13.978 76.083h-78.438v228.403h-87.194v-228.403h-79.104v-76.083h79.104v-44.749c0-64.205 44.544-116.378 105.677-116.378h73.882v80.947z" /></symbol>
<symbol id="icon-google-with-circle" viewBox="0 0 1024 1024"><path class="path1" d="M512 20.48c-271.462 0-491.52 220.058-491.52 491.52s220.058 491.52 491.52 491.52 491.52-220.058 491.52-491.52-220.058-491.52-491.52-491.52zM483.686 722.995c-30.874 15.002-64.102 16.589-76.954 16.589-2.458 0-3.84 0-3.84 0s-1.178 0-2.765 0c-20.070 0-119.962-4.608-119.962-95.59 0-89.395 108.8-96.41 142.131-96.41h0.87c-19.251-25.702-15.258-51.61-15.258-51.61-1.69 0.102-4.147 0.205-7.168 0.205-12.544 0-36.762-1.997-57.549-15.411-25.498-16.384-38.4-44.288-38.4-82.893 0-109.107 119.142-113.51 120.32-113.613h118.989v2.611c0 13.312-23.91 15.923-40.192 18.125-5.53 0.819-16.64 1.894-19.763 3.482 30.157 16.128 35.021 41.421 35.021 79.104 0 42.906-16.794 65.587-34.611 81.51-11.059 9.882-19.712 17.613-19.712 28.006 0 10.189 11.878 20.582 25.702 32.717 22.579 19.917 53.555 47.002 53.555 92.723 0 47.258-20.326 81.050-60.416 100.454zM742.4 512h-76.8v76.8h-51.2v-76.8h-76.8v-51.2h76.8v-76.8h51.2v76.8h76.8v51.2zM421.018 570.88c-2.662 0-5.325 0.102-8.038 0.307-22.733 1.69-43.725 10.189-58.88 24.013-15.053 13.619-22.733 30.822-21.658 48.179 2.304 36.403 41.37 57.702 88.832 54.323 46.694-3.379 77.824-30.31 75.571-66.714-2.15-34.202-31.898-60.109-75.827-60.109zM465.766 372.992c-12.39-43.52-32.358-56.422-63.386-56.422-3.328 0-6.707 0.512-9.933 1.382-13.466 3.84-24.166 15.053-30.106 31.744-6.093 16.896-6.451 34.509-1.229 54.579 9.472 35.891 34.97 61.901 60.672 61.901 3.379 0 6.758-0.41 9.933-1.382 28.109-7.885 45.722-50.79 34.048-91.802z" /></symbol>
<symbol id="icon-linkedin-with-circle" viewBox="0 0 1024 1024"><path class="path1" d="M512 20.48c-271.462 0-491.52 220.058-491.52 491.52s220.058 491.52 491.52 491.52 491.52-220.058 491.52-491.52-220.058-491.52-491.52-491.52zM391.68 715.725h-99.533v-320.307h99.533v320.307zM341.299 356.096c-31.437 0-51.763-22.272-51.763-49.818 0-28.109 20.941-49.715 53.043-49.715s51.763 21.606 52.378 49.715c0 27.546-20.275 49.818-53.658 49.818zM755.2 715.725h-99.533v-177.51c0-41.318-14.438-69.376-50.432-69.376-27.494 0-43.827 18.995-51.046 37.274-2.662 6.502-3.328 15.718-3.328 24.883v184.678h-99.584v-218.112c0-39.987-1.28-73.421-2.611-102.195h86.477l4.557 44.493h1.997c13.107-20.89 45.21-51.712 98.918-51.712 65.485 0 114.586 43.878 114.586 138.189v189.389z" /></symbol>
<symbol id="icon-twitter-with-circle" viewBox="0 0 1024 1024"><path class="path1" d="M512 20.48c-271.462 0-491.52 220.058-491.52 491.52s220.058 491.52 491.52 491.52 491.52-220.058 491.52-491.52-220.058-491.52-491.52-491.52zM711.936 423.117c0.205 4.198 0.256 8.397 0.256 12.493 0 128-97.331 275.507-275.405 275.507-54.682 0-105.574-15.974-148.378-43.52 7.526 0.922 15.258 1.28 23.091 1.28 45.363 0 87.091-15.411 120.218-41.421-42.342-0.819-78.080-28.774-90.419-67.174 5.888 1.075 11.93 1.69 18.176 1.69 8.806 0 17.408-1.178 25.498-3.379-44.288-8.909-77.67-48.026-77.67-94.925v-1.178c13.056 7.219 28.006 11.622 43.878 12.134-26.010-17.408-43.059-47.002-43.059-80.64 0-17.715 4.762-34.406 13.107-48.691 47.77 58.573 119.040 97.075 199.526 101.222-1.69-7.117-2.509-14.49-2.509-22.118 0-53.402 43.315-96.819 96.819-96.819 27.802 0 52.992 11.776 70.656 30.618 22.067-4.403 42.752-12.39 61.44-23.501-7.219 22.579-22.528 41.574-42.547 53.606 19.61-2.406 38.246-7.578 55.603-15.309-12.954 19.405-29.389 36.506-48.282 50.125z" /></symbol>
<symbol id="gm-icon-twitter" viewBox="0 0 17.2 14"><path class="gm-icon-twitter-st0" d="M5.4 14c6.5 0 10.1-5.4 10.1-10.1v-.5c.7-.5 1.3-1.1 1.8-1.8-.6.3-1.3.5-2 .6.7-.4 1.3-1.1 1.6-2-.7.4-1.4.7-2.2.9C13.9.4 12.9 0 11.9 0c-2 0-3.5 1.6-3.5 3.5 0 .3 0 .5.1.8-3-.1-5.6-1.5-7.3-3.7-.3.6-.5 1.2-.5 1.8 0 1.2.6 2.3 1.6 2.9-.6 0-1.1-.2-1.6-.4C.7 6.6 1.9 8 3.5 8.4c-.3.1-.6.2-.9.2-.2 0-.4 0-.7-.1.4 1.4 1.8 2.4 3.3 2.5-1.2.9-2.7 1.5-4.4 1.5H0c1.6.9 3.4 1.5 5.4 1.5"/></symbol>
<symbol id="gm-icon-facebook" viewBox="0 0 8.8 17"><path class="gm-icon-facebook-st0" d="M5.7 17H2.6V9.2H0v-3h2.6V4c0-2.6 1.6-4 3.9-4 1.1 0 2.1.1 2.3.1v2.7H7.2c-1.2 0-1.5.6-1.5 1.5v1.9h3l-.4 3H5.7V17z"/></symbol>
<symbol id="gm-icon-youtube" viewBox="0 0 38.3 16"><path class="gm-icon-youtube-st0" d="M14.3 12.9h-1.5v-.8c-.6.6-1 1-1.5 1-.4 0-.8-.2-.9-.6-.1-.2-.2-.6-.2-1.1V5.2h1.5v6.3c0 .2.1.3.3.3.3 0 .5-.2.8-.7V5.2h1.5v7.7z"/><path class="gm-icon-youtube-st0" d="M9.2 7.7c0-.8-.2-1.4-.5-1.8-.4-.5-1-.7-1.6-.7-.7 0-1.2.2-1.6.7-.3.4-.5 1-.5 1.8v2.7c0 .8.1 1.4.4 1.8.4.5 1 .8 1.6.8s1.3-.3 1.6-.8c.3-.4.4-1 .4-1.8V7.7zm-1.5 3c.1.8-.2 1.1-.6 1.1-.5 0-.7-.4-.6-1.1V7.6c-.1-.8.2-1.1.6-1.1.5 0 .7.4.6 1.1v3.1z"/><path class="gm-icon-youtube-st0" d="M3.4 8.7v4.2H1.9V8.7S.3 3.5 0 2.6h1.6l1.1 4 1.1-4h1.6l-2 6.1z"/><path class="gm-icon-youtube-st0" d="M29.3 6.4c-.2 0-.5.1-.7.3v4.6c.2.2.5.3.7.3.4 0 .6-.3.6-1.1V7.4c-.1-.7-.2-1-.6-1zM35 7.4c0-.7-.2-.9-.6-.9-.5 0-.7.2-.7.9v.8H35v-.8z"/><path class="gm-icon-youtube-st0" d="M38.1 3.5s-.2-1.6-.9-2.3c-.9-.9-1.8-.9-2.3-1-3.2-.2-8-.2-8-.2s-4.8 0-8 .2c-.4.1-1.4.1-2.3 1-.7.7-.9 2.3-.9 2.3s-.2 1.8-.2 3.7v1.7c0 1.8.2 3.7.2 3.7s.2 1.6.9 2.3c.9.9 2 .9 2.5 1 1.8.2 7.8.2 7.8.2s4.8 0 8-.2c.4-.1 1.4-.1 2.3-1 .7-.7.9-2.3.9-2.3s.2-1.8.2-3.7V7.1c0-1.8-.2-3.6-.2-3.6zm-17.6 9.4H19V4.1h-1.6V2.7h4.8v1.5h-1.7v8.7zm5.5 0h-1.5v-.8c-.6.6-1 1-1.5 1-.4 0-.8-.2-.9-.6-.1-.3-.1-.6-.1-1.2v-6h1.5v6.2c0 .2.1.3.3.3.3 0 .5-.2.8-.7V5.3H26v7.6zm5.3-2.2c0 .7-.1 1.2-.2 1.5-.1.6-.5.8-1.1.8-.5 0-1-.3-1.5-.9v.8h-1.4V2.7h1.4V6c.4-.6 1-.9 1.5-.9.6 0 .9.3 1.1.9.1.3.2.8.2 1.5v3.2zm3 1.1c.3 0 .5-.2.6-.6v-1h1.5v1.1c0 .3-.2.6-.3.8-.4.6-1 .8-1.7.8s-1.3-.3-1.7-.8c-.3-.4-.5-1-.5-1.8V7.8c0-.8.2-1.4.5-1.8.4-.5 1-.8 1.7-.8.6 0 1.2.3 1.6.8.3.4.5 1 .5 1.8v1.6h-2.8v1.4c0 .6.2 1 .6 1z"/></symbol>
<symbol id="gm-icon-vkontakte" viewBox="0 0 657 374.8"><path class="gm-icon-vkontakte-st0" d="M321.4 373.2h39.3s11.9-1.3 17.9-7.8c5.6-6 5.4-17.2 5.4-17.2s-.8-52.7 23.7-60.5c24.1-7.6 55.1 50.9 87.9 73.4 24.8 17 43.7 13.3 43.7 13.3l87.7-1.2s45.9-2.8 24.1-38.9c-1.8-2.9-12.7-26.7-65.2-75.5-55-51.1-47.6-42.8 18.6-131.1C644.9 73.9 661 41.1 656 27c-4.8-13.4-34.5-9.9-34.5-9.9l-98.8.6s-7.3-1-12.8 2.3c-5.3 3.2-8.7 10.6-8.7 10.6s-15.6 41.6-36.5 77c-44 74.7-61.6 78.6-68.8 74-16.7-10.8-12.5-43.4-12.5-66.6 0-72.4 11-102.6-21.4-110.4C351.3 2 343.4.3 315.9 0c-35.3-.4-65.1.1-82 8.4-11.2 5.6-19.9 17.8-14.6 18.5 6.5.9 21.3 4 29.2 14.7 10.1 13.8 9.8 44.7 9.8 44.7s5.8 85.2-13.6 95.8c-13.3 7.3-31.6-7.6-70.8-75.3-20.1-34.7-35.3-73.1-35.3-73.1s-2.9-7.2-8.1-11c-6.3-4.7-15.2-6.1-15.2-6.1l-93.9.6s-14.1.4-19.3 6.5c-4.6 5.5-.4 16.7-.4 16.7S75.3 212.3 158.5 299c76.3 79.5 162.9 74.2 162.9 74.2"/></symbol>
<symbol id="gm-icon-instagram" viewBox="0 0 12 14"><path class="gm-icon-instagram-st0" d="M10.641 11.141v-5.063h-1.055q0.156 0.492 0.156 1.023 0 0.984-0.5 1.816t-1.359 1.316-1.875 0.484q-1.539 0-2.633-1.059t-1.094-2.559q0-0.531 0.156-1.023h-1.102v5.063q0 0.203 0.137 0.34t0.34 0.137h8.352q0.195 0 0.336-0.137t0.141-0.34zM8.422 6.977q0-0.969-0.707-1.652t-1.707-0.684q-0.992 0-1.699 0.684t-0.707 1.652 0.707 1.652 1.699 0.684q1 0 1.707-0.684t0.707-1.652zM10.641 4.164v-1.289q0-0.219-0.156-0.379t-0.383-0.16h-1.359q-0.227 0-0.383 0.16t-0.156 0.379v1.289q0 0.227 0.156 0.383t0.383 0.156h1.359q0.227 0 0.383-0.156t0.156-0.383zM12 2.539v8.922q0 0.633-0.453 1.086t-1.086 0.453h-8.922q-0.633 0-1.086-0.453t-0.453-1.086v-8.922q0-0.633 0.453-1.086t1.086-0.453h8.922q0.633 0 1.086 0.453t0.453 1.086z"></path></symbol>
<symbol id="gm-icon-medium" viewBox="0 0 104.7 88.6"><path class="gm-icon-medium-st0" d="M104.3 16.2L72.7.4c-.2-.1-.4-.2-.7-.2-.3-.2-.6-.2-.9-.2-1.2 0-2.4.6-3.1 1.7L49.9 31.2l22.8 37.1 31.7-51.6c.1-.2.1-.4-.1-.5zM39.9 24.5v33.6L69.8 73zM74.3 75.3l24.6 12.3c3.2 1.6 5.8.5 5.8-2.5V25.9L74.3 75.3zM34.7 16.3L3.9.8C3.3.6 2.8.4 2.3.4.9.4 0 1.5 0 3.2v66.6c0 1.8 1.3 3.9 2.9 4.7l27.2 13.6c.7.3 1.4.5 2 .5 1.7 0 2.9-1.3 2.9-3.5V16.6c-.1-.2-.2-.3-.3-.3z"/></symbol>
<symbol id="gm-icon-googleplus" viewBox="0 0 24 24"><path class="gm-icon-googleplus-st0" d="M7 11v2.4h3.97c-.16 1.03-1.2 3.02-3.97 3.02-2.39 0-4.34-1.98-4.34-4.42S4.61 7.58 7 7.58c1.36 0 2.27.58 2.79 1.08l1.9-1.83C10.47 5.69 8.89 5 7 5c-3.87 0-7 3.13-7 7s3.13 7 7 7c4.04 0 6.72-2.84 6.72-6.84 0-.46-.05-.81-.11-1.16H7zm0 0l17 2h-3v3h-2v-3h-3v-2h3V8h2v3h3v2z"/></symbol>
<symbol id="gm-icon-globe" viewBox="0 0 20 20"><path class="gm-icon-globe-st0" d="M10 20h-.5c-2.7-.1-5.3-1.4-7.1-3.5-.2-.2-.4-.5-.6-.8C.7 14.2.1 12.3 0 10.5V10v-.5c.1-1.9.7-3.7 1.8-5.3.2-.3.4-.5.6-.8C4.2 1.3 6.7.1 9.4 0h1.1c2.7.1 5.2 1.3 7 3.4.2.2.4.5.6.8 1.1 1.6 1.8 3.4 1.8 5.3v1c-.1 1.9-.7 3.7-1.8 5.2-.2.3-.4.5-.6.8-1.8 2.1-4.4 3.3-7.1 3.5H10zm.6-1.3c1.2-.4 2.3-1.8 3-3.8-1-.2-2-.3-3-.4v4.2zm-4.2-3.8c.7 2.1 1.8 3.5 3 3.8v-4.2c-1 0-2 .1-3 .4zm8.4.3c-.4 1.2-.9 2.2-1.5 2.9 1.2-.5 2.3-1.3 3.2-2.2-.5-.3-1.1-.5-1.7-.7zm-11.3.7c.9 1 2 1.7 3.2 2.2-.6-.8-1.1-1.8-1.5-2.9-.6.2-1.2.4-1.7.7zM15.1 14c.8.3 1.5.6 2.1.9.9-1.3 1.4-2.8 1.5-4.3h-3.2c0 1.2-.1 2.3-.4 3.4zM1.2 10.6c.1 1.6.6 3 1.5 4.3.6-.4 1.3-.7 2.1-.9-.3-1.1-.4-2.2-.4-3.4H1.2zm9.4 2.7c1.2 0 2.3.2 3.3.4.2-1 .4-2 .4-3.1h-3.7v2.7zm-4.9-2.7c0 1.1.2 2.1.4 3.1 1.1-.2 2.2-.4 3.3-.4v-2.6H5.7zm13.1-1.2c-.1-1.6-.6-3.1-1.6-4.4-.6.4-1.3.7-2.1.9.3 1.1.4 2.3.5 3.5h3.2zm-4.5 0c0-1.1-.2-2.2-.4-3.2-1 .2-2.2.4-3.3.4v2.8h3.7zm-4.9 0V6.6c-1.1 0-2.3-.2-3.3-.4-.2 1-.4 2.1-.4 3.2h3.7zm-5 0c0-1.2.2-2.4.5-3.5-.8-.3-1.5-.6-2.1-.9-.9 1.3-1.4 2.8-1.6 4.4h3.2zm6.2-4c1 0 2-.2 2.9-.4-.7-2-1.8-3.4-2.9-3.7v4.1zM6.4 5c.9.2 1.9.3 2.9.4V1.3C8.2 1.7 7.1 3 6.4 5zm6.9-3.1c.6.8 1.1 1.7 1.5 2.8.6-.2 1.2-.4 1.6-.7-.9-.9-1.9-1.7-3.1-2.1zM3.6 4c.5.3 1 .5 1.7.7.4-1.1.9-2.1 1.5-2.8-1.3.4-2.3 1.2-3.2 2.1z"/></symbol>
<symbol id="gm-icon-star" viewBox="0 0 951 1024"><path class="gm-icon-star-st0" d="M950.857 369.714q0 12.571-14.857 27.429l-207.429 202.286 49.143 285.714q0.571 4 0.571 11.429 0 12-6 20.286t-17.429 8.286q-10.857 0-22.857-6.857l-256.571-134.857-256.571 134.857q-12.571 6.857-22.857 6.857-12 0-18-8.286t-6-20.286q0-3.429 1.143-11.429l49.143-285.714-208-202.286q-14.286-15.429-14.286-27.429 0-21.143 32-26.286l286.857-41.714 128.571-260q10.857-23.429 28-23.429t28 23.429l128.571 260 286.857 41.714q32 5.143 32 26.286z" /></symbol>
<symbol id="gm-icon-movie" viewBox="0 0 512 512"><path class="gm-icon-movie-st0" d="M243.39 166.834l215.75-42.766-.146-.727-14.436-72.84-363.4 72.035C63.07 126.12 50 141.985 50 160.425V402.83c0 32.352 26.318 58.67 58.668 58.67h294.664c32.35 0 58.668-26.318 58.668-58.67V166.836H243.39zM422 402.83c0 10.295-8.374 18.67-18.668 18.67H108.668C98.374 421.5 90 413.125 90 402.83V261.766h332V402.83zm-82.472-215.996l-34.93 34.93H252.17l34.932-34.93h52.426zm55.697-106.166l41.14 27.53-51.397 10.213-41.17-27.55 51.427-10.192zM293.98 100.736l41.2 27.568-51.394 10.213-41.23-27.588 51.425-10.194zm-101.355 20.09l41.257 27.61-51.395 10.212L141.2 131.02l51.425-10.193zm-8.855 66.008h52.426l-34.93 34.93h-52.427l34.93-34.93zm171.615 34.93l34.93-34.93h52.427l-34.93 34.93h-52.427zM232.923 393.31V284.553l88.693 54.38-88.693 54.377z" /></symbol>
<symbol id="gm-icon-reply" viewBox="0 0 14 14"><path class="gm-icon-reply-st0" d="M14 8.75q0 1.297-.992 3.523-.023.055-.082.187t-.105.234-.1.172q-.095.133-.22.133-.117 0-.184-.08t-.066-.194q0-.07.02-.207t.02-.185q.04-.53.04-.96 0-.79-.138-1.415t-.38-1.082-.624-.79-.824-.542-1.04-.332-1.202-.168T6.752 7H5v2q0 .202-.15.35t-.35.15-.353-.15l-4-4Q0 5.204 0 5t.15-.353l4-4Q4.296.5 4.5.5t.353.147T5 1v2h1.75q5.57 0 6.837 3.147Q14 7.194 14 8.75z"/></symbol>
<symbol id="gm-icon-retweet" viewBox="0 0 15 14"><path class="gm-icon-retweet-st0" d="M10 11.75q0 .102-.074.176T9.75 12h-7.5q-.062 0-.105-.016t-.07-.055-.043-.063-.023-.09-.01-.09V7H.5Q.3 7 .15 6.852T0 6.5q0-.187.118-.32l2.5-3q.148-.172.383-.172t.384.172l2.5 3Q6 6.313 6 6.5q0 .203-.147.352T5.5 7H4v3h4.5q.126 0 .196.086l1.25 1.5q.055.086.055.164zm5-3.25q0 .187-.117.32l-2.5 3Q12.227 12 12 12t-.383-.18l-2.5-3Q9 8.687 9 8.5q0-.203.148-.352T9.5 8H11V5H6.5q-.125 0-.195-.094l-1.25-1.5Q5 3.336 5 3.25q0-.102.074-.176T5.25 3h7.5q.062 0 .105.016t.07.055.043.063.023.09.01.09V8h1.5q.202 0 .35.148T15 8.5z"/></symbol>
<symbol id="gm-icon-heart" viewBox="0 0 14 14"><path class="gm-icon-heart-st0" d="M7 13q-.203 0-.344-.14L1.78 8.155q-.077-.062-.214-.203t-.434-.512-.53-.76-.42-.946T0 4.656q0-1.72.99-2.687T3.734 1q.484 0 .988.168t.938.453.746.536.594.53q.28-.28.594-.53t.746-.535.937-.452.988-.168q1.75 0 2.742.97t.992 2.686q0 1.727-1.79 3.516L7.342 12.86q-.14.14-.343.14z"/></symbol>
<symbol id="gm-icon-list" viewBox="0 0 14 14"><path class="gm-icon-list-st0" d="M2 10.25v1.5q0 .102-.074.176T1.75 12H.25q-.102 0-.176-.074T0 11.75v-1.5q0-.102.074-.176T.25 10h1.5q.102 0 .176.074T2 10.25zm0-3v1.5q0 .102-.074.176T1.75 9H.25q-.102 0-.176-.074T0 8.75v-1.5q0-.102.074-.176T.25 7h1.5q.102 0 .176.074T2 7.25zm0-3v1.5q0 .102-.074.176T1.75 6H.25q-.102 0-.176-.074T0 5.75v-1.5q0-.102.074-.176T.25 4h1.5q.102 0 .176.074T2 4.25zm12 6v1.5q0 .102-.074.176T13.75 12H3.25q-.102 0-.176-.074T3 11.75v-1.5q0-.102.074-.176T3.25 10h10.5q.102 0 .176.074t.074.176zm-12-9v1.5q0 .102-.074.176T1.75 3H.25q-.102 0-.176-.074T0 2.75v-1.5q0-.102.074-.176T.25 1h1.5q.102 0 .176.074T2 1.25zm12 6v1.5q0 .102-.074.176T13.75 9H3.25q-.102 0-.176-.074T3 8.75v-1.5q0-.102.074-.176T3.25 7h10.5q.102 0 .176.074T14 7.25zm0-3v1.5q0 .102-.074.176T13.75 6H3.25q-.102 0-.176-.074T3 5.75v-1.5q0-.102.074-.176T3.25 4h10.5q.102 0 .176.074T14 4.25zm0-3v1.5q0 .102-.074.176T13.75 3H3.25q-.102 0-.176-.074T3 2.75v-1.5q0-.102.074-.176T3.25 1h10.5q.102 0 .176.074T14 1.25z"/></symbol>
<symbol id="gm-icon-signal" viewBox="0 0 14 14"><path class="gm-icon-signal-st0" d="M2 11.25v1.5q0 .11-.07.18t-.18.07H.25q-.11 0-.18-.07T0 12.75v-1.5q0-.11.07-.18T.25 11h1.5q.11 0 .18.07t.07.18zm3-1v2.5q0 .11-.07.18t-.18.07h-1.5q-.11 0-.18-.07T3 12.75v-2.5q0-.11.07-.18t.18-.07h1.5q.11 0 .18.07t.07.18zm3-2v4.5q0 .11-.07.18t-.18.07h-1.5q-.11 0-.18-.07T6 12.75v-4.5q0-.11.07-.18T6.25 8h1.5q.11 0 .18.07t.07.18zm3-3v7.5q0 .11-.07.18t-.18.07h-1.5q-.11 0-.18-.07T9 12.75v-7.5q0-.11.07-.18T9.25 5h1.5q.11 0 .18.07t.07.18zm3-4v11.5q0 .11-.07.18t-.18.07h-1.5q-.11 0-.18-.07t-.07-.18V1.25q0-.11.07-.18t.18-.07h1.5q.11 0 .18.07t.07.18z"/></symbol>
<symbol id="gm-icon-group" viewBox="0 0 15 14"><path class="gm-icon-group-st0" d="M4.633 7q-1.266.04-2.07 1H1.516q-.64 0-1.078-.316T0 6.758Q0 4 .97 4q.046 0 .34.164t.76.332.93.168q.524 0 1.04-.18Q4 4.774 4 5q0 1.086.634 2zM13 11.977q0 .937-.57 1.48T10.914 14H4.086q-.945 0-1.516-.543T2 11.977q0-.414.027-.81t.11-.85.206-.85.336-.76.483-.634.668-.418.872-.156q.078 0 .336.167t.57.375.836.375 1.055.168 1.054-.168.836-.375.57-.375.336-.168q.477 0 .87.155t.67.418.483.633.335.762.207.848.11.852.026.81zM5 2q0 .828-.586 1.414T3 4t-1.414-.586T1 2 1.586.586 3 0t1.414.586T5 2zm5.5 3q0 1.242-.88 2.12T7.5 8t-2.12-.88T4.5 5t.88-2.12T7.5 2t2.12.88T10.5 5zM15 6.758q0 .61-.438.926T13.484 8h-1.047q-.805-.96-2.07-1Q11 6.086 11 5q0-.227-.04-.516.517.18 1.04.18.46 0 .93-.168t.762-.332.34-.164q.97 0 .97 2.758zM14 2q0 .828-.586 1.414T12 4t-1.414-.586T10 2t.586-1.414T12 0t1.414.586T14 2z"/></symbol>
<symbol id="gm-icon-btc-3" viewBox="0 0 17.3 24"><path class="gm-icon-btc-3-st0" d="M16 11.9c.4.3.7.7 1 1.2.3.5.4 1.1.4 1.9s-.1 1.5-.4 2.2c-.2.7-.7 1.3-1.3 1.8-.7.5-1.4.8-2 .9-.7.1-1.1.2-1.5.3-.2 0-.4.1-.6.1h-.8V24H8.4v-3.6H6.6V24H4.5v-3.6H0l.5-2.7h1.8c.1 0 .2-.1.3-.2.1-.1.2-.2.2-.3v-.4-1.5-3.1-3.1-1.7c0-.3 0-.5-.1-.6 0-.1-.1-.3-.3-.4 0-.2-.2-.3-.4-.4s-.5 0-.7 0H0V3.6h4.5V0h2.3v3.6H8.5V0h2.3v3.7c.8 0 1.6.2 2.2.4.6.2 1.2.5 1.8.9.7.5 1.1 1.1 1.2 1.9s.1 1.2.1 1.4c0 .2-.1.5-.2.9s-.2.7-.4 1c-.2.3-.6.6-1.3 1.1.8.1 1.4.3 1.8.6zM6.7 6.2v4.4h1.9c.4 0 .8-.1 1.2-.2.4-.1.8-.2 1.1-.4.3-.2.6-.4.7-.7.2-.3.3-.6.2-1 0-.4-.2-.8-.4-1.1-.3-.3-.6-.6-1.1-.7-.4-.2-.8-.3-1.1-.3H8.1c-.3-.1-.8 0-1.4 0zM11.8 17c.3-.1.5-.3.8-.6.3-.3.4-.7.4-1.2 0-.6-.1-1-.4-1.2-.3-.3-.5-.5-.7-.6-.2-.1-.5-.2-1-.3-.4-.1-.9-.2-1.5-.2H6.8v4.9h2.5c.5 0 1-.1 1.5-.2.4-.3.7-.4 1-.6z"/></symbol>
<symbol id="gm-icon-zcash-2" viewBox="0 0 13.6 24"><path class="gm-icon-zcash-2-st0" d="M13.6 6.9l-7.7 9.9h7.7v4H8.8V24h-4v-3.2H0v-3.7L7.8 8H0V3.2h4.8V0h4v3.2h4.8z"/></symbol>
<symbol id="gm-icon-ethereum-3" viewBox="0 0 14.9 24"><path class="gm-icon-ethereum-3-st0" d="M0 12.3l7.2-3.2v7.4L0 12.3zm0 1.6l7.2 4.2V24L0 13.9zm.2-2.2L7.2 0v8.7l-7 3zm14.6.1L7.7 8.7V0l7.1 11.8zm.1.5l-7.2 4.2V9.2l7.2 3.1zm-7.2 5.8l7.2-4.2L7.7 24v-5.9z"/></symbol>
<symbol id="gm-icon-notice-time" viewBox="0 0 19 19"><path class="gm-icon-notice-time-st0" d="M10.8 6.4c.2.1.2.3.1.4L9.4 9.1l4 2.6c.1.1.2.3.1.4l-.7 1c-.1.1-.3.2-.4.1L7.1 9.8c-.1-.1-.1-.3 0-.4l2.4-3.6c.1-.1.3-.2.4-.1l.9.7z"/><path class="gm-icon-notice-time-st0" d="M9.5 1.9c4.2 0 7.6 3.4 7.6 7.6s-3.4 7.6-7.6 7.6-7.6-3.4-7.6-7.6 3.4-7.6 7.6-7.6m0-1.9C4.3 0 0 4.3 0 9.5S4.3 19 9.5 19 19 14.7 19 9.5 14.7 0 9.5 0z"/><path class="gm-icon-notice-time-st0" d="M10 1.1H9c-.1 0-.2.1-.2.2v2c0 .1.1.2.2.2h1c.1 0 .2-.1.2-.2v-2c.1-.1-.1-.2-.2-.2zM10 15.3H9c-.1 0-.2.1-.2.2v2c0 .1.1.2.2.2h1c.1 0 .2-.1.2-.2v-2c.1-.1-.1-.2-.2-.2zM3.4 8.8h-2c-.2 0-.3.1-.3.2v1c0 .1.1.2.2.2h2c.1 0 .2-.1.2-.2V9c.2-.1.1-.2-.1-.2zM17.6 8.8h-2c-.1 0-.2.1-.2.2v1c0 .1.1.2.2.2h2c.1 0 .2-.1.2-.2V9c.1-.1 0-.2-.2-.2z"/></symbol>
<symbol id="gm-icon-notice-maintenance" viewBox="0 0 17.9 18.6"><path class="gm-icon-notice-maintenance-st0" d="M9.7 18c-.1-.4.2-.8.6-.9.4-.1.9.2 1 .6.1.4-.2.8-.6 1h-.2c-.3-.1-.7-.3-.8-.7zM6.3 18.5c-.4-.1-.6-.5-.5-.9.1-.4.5-.6.9-.5.3.1.6.5.5.9-.1.3-.4.6-.7.6-.1-.1-.2-.1-.2-.1zM13.5 16.5c-.3-.4-.3-.9.1-1.2.3-.3.9-.3 1.2.1.3.4.3.9-.1 1.2-.2.1-.4.2-.6.2-.2 0-.5-.1-.6-.3zM2.4 16.4c-.3-.2-.3-.7 0-.9.2-.3.7-.3 1-.1.3.3.3.7 0 1-.1.2-.3.2-.5.2s-.3-.1-.5-.2zM16.1 13.5c-.5-.2-.7-.7-.5-1.2.2-.5.7-.7 1.2-.5.5.2.7.7.5 1.2-.1.4-.5.6-.8.6-.2 0-.3-.1-.4-.1zM0 12.8c-.1-.3 0-.7.4-.8.3-.1.7 0 .8.4.1.3 0 .7-.4.8H.6c-.2 0-.5-.2-.6-.4zM16 8.8c0-.1 0-.1 0 0 0-.1 0-.1 0 0-.1-.6.3-1 .8-1.1.5-.1 1 .3 1.1.8.1.5-.3 1-.8 1.1H17c-.5 0-.9-.4-1-.8zM14.7 5.4c-.3-.5-.2-1.1.3-1.4.5-.3 1.1-.2 1.4.3.3.5.2 1.1-.3 1.4-.2.1-.4.2-.6.2-.3-.1-.6-.2-.8-.5zM12 3.1c-.5-.3-.7-.9-.4-1.4.3-.5.9-.7 1.4-.4.5.3.7.9.4 1.4-.2.4-.6.6-.9.6-.1-.1-.3-.2-.5-.2zM8.6 2.2c-.6 0-1.1-.5-1.1-1.1C7.5.5 8 0 8.6 0c.6 0 1.1.5 1.1 1.1 0 .7-.5 1.1-1.1 1.1zM11.9 11.8L5.8 6.3c.3-1 .1-2.2-.8-3-1.2-1.1-2.9-1-4 .2 0 .1-.1.1-.1.2-.1 0 .1.1.5.1l2.1-.1c.2 0 .5.2.5.5l.1 2.1c0 .3-.2.6-.5.6L1.4 7c-.3 0-.5.2-.4.3l.2.2c.9.8 2.1.9 3.1.5l6.1 5.5c.5.4 1.2.4 1.6-.1.4-.5.3-1.2-.1-1.6zm-.5 1.1c-.2.2-.5.2-.7 0-.2-.2-.2-.5 0-.8.2-.2.5-.2.7 0 .2.3.2.6 0 .8z"/></symbol>
<symbol id="gm-icon-rating-empty" viewBox="0 0 14.4 13.8"><path class="gm-icon-rating-empty-st0" d="M10.9 13.8c-.3 0-.5-.1-.8-.2L7.2 12l-3 1.6c-.9.5-1.9-.1-1.9-1.1v-.2l.6-3.4L.5 6.6c-.2-.2-.5-.5-.5-1 0-.6.5-1.1 1.2-1.2l3.3-.5L6 .9c.3-.6.7-.9 1.2-.9s.9.3 1.2.8l1.5 3 3.3.5c.7.1 1.2.6 1.2 1.2 0 .4-.2.7-.5 1l-2.4 2.3.6 3.3v.3c0 .9-.5 1.4-1.2 1.4zM2.4 6l2 2c.2.2.3.5.3.8l-.5 2.8 2.5-1.3c.3-.1.6-.1.8 0l2.5 1.3-.3-2.9c-.1-.3 0-.6.3-.8l2-2-2.9-.4c-.3 0-.5-.2-.6-.5L7.2 2.5 5.9 5c-.1.3-.4.5-.7.5L2.4 6zm10.9-.1zM6.8 1.6zm.8 0z"/></symbol>
<symbol id="gm-icon-rating-full" viewBox="0 0 14.1 13.5"><path class="gm-icon-rating-full-st0" d="M13 4.3l-3.4-.5L8.1.7C7.9.3 7.5 0 7 0s-.8.3-1 .7L4.5 3.8l-3.4.5C.4 4.4 0 4.8 0 5.4c0 .4.3.8.4.9l2.5 2.4-.6 3.4v.2c0 .6.5 1.1 1.1 1.1.3 0 .5-.1.7-.2l3-1.6 3 1.6c.2.1.5.2.7.2.6 0 1.1-.5 1.1-1.1V12l-.6-3.4 2.5-2.4c.3-.3.4-.6.4-.9-.1-.5-.5-.9-1.2-1z"/></symbol>
<symbol id="gm-icon-alert" viewBox="0 0 20.8 19"><path class="gm-icon-alert-st0" d="M9.9 13.6V18h9.9L10.5 1 1 18h3.9M9.9 10.2"/></symbol>
<symbol id="gm-icon-arrow-left" viewBox="0 0 5.2 8.1"><path class="gm-icon-arrow-left-st0" d="M5.1.9c.1.1.1.3 0 .5L2.4 4l2.7 2.7c.1.1.1.3 0 .5l-.8.8c-.2.1-.4.1-.5 0L.1 4.3c-.1-.2-.1-.4 0-.5L3.8.1c.1-.1.3-.1.5 0l.8.8z"/></symbol>
<symbol id="gm-icon-arrow-right" viewBox="0 0 5.2 8.1"><path class="gm-icon-arrow-right-st0" d="M.1 7.2C0 7 0 6.8.1 6.7L2.8 4 .1 1.4C0 1.3 0 1.1.1.9L.9.1c.1-.1.4-.1.5 0l3.7 3.7c.1.1.1.3 0 .5L1.4 8c-.1.1-.4.1-.5 0l-.8-.8z"/></symbol>
<symbol id="gm-icon-arrow-down" viewBox="0 0 8 5.1"><path class="gm-icon-arrow-down-st0" d="M.9.1c.1-.1.3-.1.5 0L4 2.7 6.6.1c.2-.1.4-.1.5 0l.8.8c.1.1.1.3 0 .5L4.2 5c-.1.2-.3.2-.4 0L.1 1.4C0 1.2 0 1 .1.9L.9.1z"/></symbol>
<symbol id="gm-icon-arrow-up" viewBox="0 0 8.1 5.2"><path class="arrow-up-st0" d="M7.2 5.1c-.2.1-.4.1-.5 0L4 2.4 1.4 5.1c-.1.1-.3.1-.5 0l-.8-.8c-.1-.2-.1-.4 0-.5L3.8.1c.1-.1.3-.1.5 0L8 3.8c.1.1.1.3 0 .5l-.8.8z"/></symbol>
</defs>
</svg>